<svg id="Layer_1" data-name="Layer 1" xmlns="http://www.w3.org/2000/svg" width="600" height="600" viewBox="0 0 600 600"><defs><style>.cls-1{fill:#feeec2;}.cls-2{fill:#1d1d1b;}.cls-3{fill:none;stroke:#d12e28;stroke-miterlimit:10;}</style></defs><path class="cls-1" d="M297.17,60.31s-39.48-2.59-40,12.42a1.11,1.11,0,0,0,1.12,1.13h8.33a1.1,1.1,0,0,1,.82,1.84C264,79.41,257.35,88,262.49,94.2c6.59,8-4.8,37.25-5.32,38.59a.42.42,0,0,0,0,.1c-.57,2.09-18.49,68.18-10.1,114.2a1,1,0,0,1-.06.6,50.16,50.16,0,0,1-9.32,14.6,64.78,64.78,0,0,1-10.46,9.28,34.94,34.94,0,0,0-9.06,9.42,24.38,24.38,0,0,0-3.8,15.9.37.37,0,0,1,0,.11V515.68a.92.92,0,0,1,0,.29c-.6,2.12-7,27.54,30.86,27.54,12.34,0,30,1.69,52,0"/><path class="cls-1" d="M297.17,543.51c22,1.69,39.66,0,52,0,37.84,0,31.46-25.42,30.86-27.54a1.35,1.35,0,0,1,0-.29V297a.37.37,0,0,1,0-.11,24.31,24.31,0,0,0-3.8-15.9,34.94,34.94,0,0,0-9.06-9.42,65.2,65.2,0,0,1-10.46-9.28,50.16,50.16,0,0,1-9.32-14.6,1.24,1.24,0,0,1-.06-.6c8.4-46-9.53-112.11-10.1-114.2a.42.42,0,0,0,0-.1c-.52-1.34-11.91-30.64-5.32-38.59,5.14-6.21-1.49-14.79-4.93-18.5a1.1,1.1,0,0,1,.83-1.84h8.32a1.11,1.11,0,0,0,1.12-1.13c-.54-15-40-12.42-40-12.42"/><path d="M297.17,57.34v15a1.32,1.32,0,0,1-1.11,1.45H258.27a1.34,1.34,0,0,1-1.11-1.52c.63-17.78,32.7-16.74,38.95-16.37A1.34,1.34,0,0,1,297.17,57.34Z"/><path d="M335.94,73.78h-42a1.35,1.35,0,0,1-1.23-1.45v-15a1.37,1.37,0,0,1,1.17-1.45c6.95-.37,42.6-1.41,43.3,16.37A1.38,1.38,0,0,1,335.94,73.78Z"/><path class="cls-2" d="M230.84,318.15l-10.4-.27L220,319.4l-3.46-.09,3.13-9.58,12.47.32,2.64,9.74-3.48-.09Zm-.73-2.71-.74-2.8-7.2-.18-.88,2.75Z"/><path class="cls-2" d="M255.49,315l-2.37,9.37-3.25-.83,1.45-5.74-6.64,2.53-4.76-5.45-1.46,5.76-3.25-.82,2.38-9.36,3.25.82,4.78,5.36,6.62-2.46Z"/><path class="cls-2" d="M260.3,320.14l-.43.87,9.53,4.73L268.28,328l-9.52-4.73-.42.84,10.47,5.2-1.16,2.35-13.55-6.72,4.3-8.66L272,323l-1.17,2.35Z"/><path class="cls-2" d="M274.58,324.56l9.61,7.48c2.21,1.71,2.64,4.16,1.38,5.79a3.63,3.63,0,0,1-4,1.13l-.08,3.25-3.14-2.44.19-2.65-5.85-4.55-1.35,1.74-2.72-2.11Zm6.68,11.26a1.07,1.07,0,1,0,1.3-1.67l-6.89-5.37-1.31,1.68Z"/><path class="cls-2" d="M289.3,336.77l2.41,2.45L284.83,346l-2.41-2.44Z"/><path class="cls-2" d="M298.05,355.87l2.12,2.86c-2.3,1.28-5.09.39-7-2.21l-3.71-5c-2-2.74-1.95-6,.46-7.78s5.5-1,7.58,1.84l3.71,5c1.92,2.59,1.95,5.52.06,7.35l-2.12-2.86a2.45,2.45,0,0,0-.22-2.81l-3.71-5a2.24,2.24,0,1,0-3.58,2.65l3.71,5A2.52,2.52,0,0,0,298.05,355.87Z"/><path class="cls-2" d="M303.92,373.23l-4.3-9.48L298,364l-1.44-3.15,10-1.37,5.16,11.37-7.61,6.62-1.44-3.17Zm2.12-1.84,2.2-1.88-3-6.57-2.86.41Z"/><path class="cls-2" d="M317.27,392.73l-9.45,2-.7-3.3L310.86,380,305,381.22l-.71-3.29,9.45-2,.7,3.29-3.74,11.49,5.92-1.26Z"/><path class="cls-2" d="M309.05,414l.55-10.39-1.51-.53.19-3.46,9.5,3.39-.67,12.46-9.8,2.37.18-3.47Zm2.73-.65,2.81-.66.39-7.2-2.73-1Z"/><path class="cls-2" d="M311.49,438.71l-9.3-2.64.92-3.23,5.7,1.62-2.34-6.72,5.58-4.6-5.72-1.63.91-3.23,9.3,2.65-.91,3.22-5.5,4.64,2.28,6.69Z"/><path class="cls-2" d="M298.3,453.45a2.46,2.46,0,0,1-1.92-.17,3.3,3.3,0,0,1-1-4.54L301.68,437l8.49,4.6-6.34,11.71a3.29,3.29,0,0,1-4.38,1.6A2.34,2.34,0,0,1,298.3,453.45Zm-.15-3.18a.6.6,0,0,0,.77-.28l4.45-8.23-.94-.51L298,449.49A.58.58,0,0,0,298.15,450.27Zm7.21-7.43-4.48,8.28a.53.53,0,0,0,.17.72.53.53,0,0,0,.7-.24l4.48-8.29Z"/><path class="cls-2" d="M296.34,459.57l-.74-.61-6.81,8.16-1.93-1.61,6.81-8.16-.72-.6-7.49,9-2-1.68,9.68-11.62,7.42,6.19-9.68,11.62-2-1.68Z"/><path class="cls-2" d="M288.72,472.45l-9.5,7.61c-2.18,1.75-4.66,1.59-6,0a3.63,3.63,0,0,1-.18-4.12l-3.15-.83,3.11-2.48,2.54.8,5.78-4.63L280,467.06l2.69-2.15Zm-12.5,3.87a1.07,1.07,0,1,0,1.33,1.66l6.81-5.46L283,470.86Z"/><path class="cls-2" d="M253.13,485.05l9.53-4.18-.2-1.58,3.17-1.39,1.23,10-11.43,5-6.51-7.7,3.18-1.39Zm1.81,2.15,1.85,2.21,6.6-2.89-.37-2.87Z"/><path class="cls-2" d="M234.45,490.91l-.55-2.61,14.46-3.09,2,9.45-3.36.72-1.46-6.85Z"/><path class="cls-2" d="M229.49,495.56l0-1-10.63.24-.06-2.51,10.63-.24,0-.94-11.69.26-.06-2.62,15.12-.34.22,9.66-15.12.34-.06-2.62Z"/><circle class="cls-3" cx="289.18" cy="470.31" r="60.26"/><circle class="cls-3" cx="257.15" cy="422.2" r="32.51"/></svg>