<svg id="Layer_1" data-name="Layer 1" xmlns="http://www.w3.org/2000/svg" width="502.17" height="627" viewBox="0 0 502.17 627"><defs><style>.cls-1{fill:#1f2948;}.cls-2{fill:#d12d26;}.cls-3{fill:#edab35;}</style></defs><path class="cls-1" d="M266.09,27.88s-39.47-3-40,14.43a1.22,1.22,0,0,0,1.12,1.32h8.32a1.3,1.3,0,0,1,.82,2.13c-3.43,4.31-10.06,14.28-4.92,21.49,6.59,9.24-4.8,43.28-5.33,44.83,0,0,0,.08,0,.12-.57,2.43-18.5,79.21-10.1,132.67a1.6,1.6,0,0,1-.06.69,60.32,60.32,0,0,1-9.32,17,69.38,69.38,0,0,1-10.46,10.78,38.54,38.54,0,0,0-9.06,10.95,31.91,31.91,0,0,0-3.8,18.46.62.62,0,0,1,0,.13V556.91a1.86,1.86,0,0,1,0,.34c-.6,2.46-7,32,30.86,32,12.34,0,30,2,52,0"/><path class="cls-1" d="M266.09,589.23c22,2,39.67,0,52,0,37.84,0,31.46-29.52,30.86-32a1.27,1.27,0,0,1,0-.34V302.85a.62.62,0,0,1,0-.13,32.07,32.07,0,0,0-3.8-18.46,38.7,38.7,0,0,0-9.06-10.95,68.93,68.93,0,0,1-10.46-10.78,60.32,60.32,0,0,1-9.32-17,1.34,1.34,0,0,1-.06-.69c8.39-53.46-9.53-130.24-10.1-132.67a.84.84,0,0,0,0-.12c-.52-1.55-11.91-35.59-5.32-44.83,5.14-7.21-1.5-17.18-4.93-21.49a1.3,1.3,0,0,1,.82-2.13H305a1.22,1.22,0,0,0,1.12-1.32c-.54-17.43-40-14.43-40-14.43"/><path class="cls-2" d="M266.09,29.09V42.25a1.2,1.2,0,0,1-1.1,1.28H227.2a1.22,1.22,0,0,1-1.12-1.33c.64-15.62,32.71-14.71,39-14.39A1.21,1.21,0,0,1,266.09,29.09Z"/><path class="cls-2" d="M305,43.53H267.2a1.2,1.2,0,0,1-1.11-1.28V29.09a1.21,1.21,0,0,1,1.06-1.28c6.25-.32,38.33-1.23,39,14.39A1.21,1.21,0,0,1,305,43.53Z"/><path class="cls-3" d="M228.52,560.12v.77h6.16v1.52h-6.16v1.79h-2v-5.6h8.76v1.52Z"/><path class="cls-3" d="M243.5,563.31h-6l-.27.89h-2l1.67-5.6h7.23l1.67,5.6h-2Zm-.46-1.56-.47-1.61H238.4l-.47,1.61Z"/><path class="cls-3" d="M256.29,558.6v5.6h-2l-6.06-3.51v3.51h-1.95v-5.6h1.95l6.06,3.51V558.6Z"/><path class="cls-3" d="M267.57,561.4c0,1.73-1.45,2.89-3.47,2.89h-3.61a4.08,4.08,0,0,1-2.06-.51l-.84.45-.32-.48.63-.35a2.63,2.63,0,0,1-.88-2c0-1.73,1.44-2.9,3.47-2.9h3.61a4.19,4.19,0,0,1,2,.49l.86-.45.32.47-.65.36A2.67,2.67,0,0,1,267.57,561.4Zm-7.89,1.06,4.32-2.32h-3.51A1.32,1.32,0,0,0,259,561.4,1.21,1.21,0,0,0,259.68,562.46Zm5.86-1.06a1.2,1.2,0,0,0-.66-1.08l-4.36,2.33h3.58A1.3,1.3,0,0,0,265.54,561.4Z"/><path class="cls-3" d="M280.18,561.39a1.42,1.42,0,0,1,.44,1,1.91,1.91,0,0,1-2,1.79h-7.72v-5.6h7.72a1.91,1.91,0,0,1,2,1.79A1.35,1.35,0,0,1,280.18,561.39Zm-7.36-.67h5.46a.32.32,0,0,0,.32-.29.31.31,0,0,0-.32-.29h-5.46Zm5.78,1.62a.35.35,0,0,0-.36-.31h-5.42v.62h5.43A.33.33,0,0,0,278.6,562.34Z"/><path class="cls-3" d="M281.35,558.6h7c1.62,0,2.69,1,2.69,2.16a2.11,2.11,0,0,1-1.41,1.93l1.12,1.51h-2.31l-.85-1.28h-4.29v1.28h-2Zm7,2.77a.62.62,0,1,0,0-1.23h-5v1.23Z"/><path class="cls-3" d="M301.54,558.6l-4.33,3.27v2.33h-2v-2.34l-4.33-3.26h2.73l2.59,1.9,2.6-1.9Z"/><path class="cls-3" d="M301.1,561.4c0-1.73,1.44-2.9,3.47-2.9h3.61a3.24,3.24,0,0,1,3.36,2.11h-2.22a1.56,1.56,0,0,0-1.14-.47h-3.61a1.3,1.3,0,1,0,0,2.59h3.61a1.38,1.38,0,0,0,1.07-.4h-2.88v-1.28h5.25v.35c0,1.6-1.42,2.89-3.44,2.89h-3.61C302.59,564.29,301.1,563.13,301.1,561.4Z"/><path class="cls-3" d="M322.21,558.6v5.6h-2v-2.08h-5.89v2.08h-2v-5.6h2v2h5.89v-2Z"/><path class="cls-3" d="M323.12,561.65v-3h2v2.94a1,1,0,0,0,1.13,1.11h3.61a1,1,0,0,0,1.13-1.11V558.6h2v3c0,1.73-1.18,2.64-3.12,2.64h-3.61C324.31,564.29,323.12,563.38,323.12,561.65Z"/><path class="cls-3" d="M343.47,562.35c0,1.15-.92,1.91-3,1.94h-3.74c-2.53,0-2.95-1.25-2.95-2h2c.05.28.43.44,1.07.44h3.62c.71,0,1-.13,1-.35s-.15-.3-.61-.3h-4.62c-1.57,0-2.37-.63-2.37-1.63s.72-1.93,3-2h3.67c2.56,0,2.88,1.4,2.88,2h-2c0-.24-.28-.44-.93-.44h-3.62c-.75,0-.92.19-.92.36s.15.29.56.29h4.77C342.7,560.66,343.47,561.36,343.47,562.35Z"/><path class="cls-2" d="M214,344h4.89c-.47,3.59-3.73,5.95-8.18,5.95h-8.59c-4.7,0-8.24-2.75-8.24-6.88s3.43-6.87,8.24-6.87h8.59c4.45,0,7.71,2.35,8.18,5.94H214a3.38,3.38,0,0,0-3.29-2.05h-8.59a3.09,3.09,0,1,0,0,6.14h8.59A3.49,3.49,0,0,0,214,344Z"/><path class="cls-2" d="M218.91,362.11c0,4.13-3.43,6.88-8.24,6.88h-8.59c-4.7,0-8.24-2.75-8.24-6.88s3.43-6.87,8.24-6.87h8.59C215.48,355.24,218.91,358,218.91,362.11Zm-4.81,0a3.13,3.13,0,0,0-3.43-3h-8.59a3.13,3.13,0,0,0-3.43,3c0,1.69,1.39,3,3.43,3h8.59C212.71,365.1,214.1,363.8,214.1,362.11Z"/><path class="cls-2" d="M200.69,378.07v1.83h14.64v3.61H200.69v4.25H196v-13.3h20.83v3.61Z"/><path class="cls-2" d="M200.69,397.07v1.33h14.64v3.46H200.69v1.29h16.1v3.61H196v-13.3h20.83v3.61Z"/><path class="cls-2" d="M200.69,416.07v1.33h14.64v3.46H200.69v1.29h16.1v3.61H196v-13.3h20.83v3.61Z"/><path class="cls-2" d="M218.16,442c0,2.83-2.53,5.13-6.37,5.13h-12v3H195V436.9h16.77C215.63,436.9,218.16,439.2,218.16,442Zm-4.72,0a1.57,1.57,0,0,0-1.65-1.47h-12v2.93h12A1.57,1.57,0,0,0,213.44,442Z"/><path class="cls-2" d="M194.67,463.14V455.9h4.73v7a2.42,2.42,0,0,0,2.68,2.64h8.59a2.41,2.41,0,0,0,2.68-2.64v-7h4.73v7.24c0,4.12-2.82,6.28-7.41,6.28h-8.59C197.49,469.42,194.67,467.26,194.67,463.14Z"/><path class="cls-2" d="M218.22,474.9v13.3h-4.64l-14.41-8.32v8.32h-4.63V474.9h4.63l14.41,8.34V474.9Z"/><path class="cls-2" d="M214,501.48h4.89c-.47,3.59-3.73,5.94-8.18,5.94h-8.59c-4.7,0-8.24-2.75-8.24-6.87s3.43-6.88,8.24-6.88h8.59c4.45,0,7.71,2.36,8.18,5.95H214a3.39,3.39,0,0,0-3.29-2.06h-8.59a3.09,3.09,0,1,0,0,6.14h8.59A3.48,3.48,0,0,0,214,501.48Z"/><path class="cls-2" d="M218.1,512.9v13.3h-4.72v-4.94h-14v4.94h-4.73V512.9h4.73v4.65h14V512.9Z"/><path class="cls-2" d="M200.69,535.51v1.33h14.64v3.45H200.69v1.3h16.1v3.61H196V531.9h20.83v3.61Z"/><path class="cls-2" d="M194.93,550.9H211.7c3.84,0,6.38,2.3,6.38,5.13a5,5,0,0,1-3.35,4.58l2.66,3.59h-5.48l-2-3H199.68v3h-4.75Zm16.77,6.59a1.48,1.48,0,1,0,0-2.93h-12v2.93Z"/></svg>