<svg id="Layer_1" data-name="Layer 1" xmlns="http://www.w3.org/2000/svg" width="600" height="600" viewBox="0 0 600 600"><defs><style>.cls-1{fill:#c4d8ef;}.cls-2{fill:#1d1d1b;}.cls-3{fill:none;}</style></defs><path class="cls-1" d="M292.08,55.85s-36.52-2.61-37,12.53a1.08,1.08,0,0,0,1,1.15h7.71a1.11,1.11,0,0,1,.75,1.85c-3.17,3.75-9.31,12.41-4.55,18.68,6.09,8-4.44,37.6-4.93,38.95l0,.1c-.53,2.11-17.12,68.82-9.35,115.27a1.13,1.13,0,0,1-.06.6A51.4,51.4,0,0,1,237,259.72a62.3,62.3,0,0,1-9.67,9.36A34.1,34.1,0,0,0,219,278.6a26.32,26.32,0,0,0-3.51,16V515.48a1.36,1.36,0,0,1,0,.29c-.56,2.14-6.46,27.79,28.55,27.79,11.42,0,27.77,1.71,48.12,0"/><path class="cls-1" d="M292.08,543.56c20.35,1.71,36.7,0,48.12,0,35,0,29.11-25.65,28.55-27.79a1.36,1.36,0,0,1,0-.29V294.64a26.32,26.32,0,0,0-3.51-16,34.1,34.1,0,0,0-8.39-9.52,62.3,62.3,0,0,1-9.67-9.36A51.4,51.4,0,0,1,338.53,245a1.13,1.13,0,0,1-.06-.6c7.77-46.45-8.82-113.16-9.35-115.27l0-.1c-.49-1.35-11-30.93-4.93-38.95,4.76-6.27-1.38-14.93-4.55-18.68a1.11,1.11,0,0,1,.75-1.85h7.71a1.08,1.08,0,0,0,1-1.15c-.5-15.14-37-12.53-37-12.53"/><path class="cls-2" d="M292.08,56.9V68.34a1.07,1.07,0,0,1-1,1.11h-35a1.08,1.08,0,0,1-1-1.16c.59-13.57,30.26-12.78,36.05-12.5A1.08,1.08,0,0,1,292.08,56.9Z"/><path class="cls-2" d="M328.07,69.45h-35a1.07,1.07,0,0,1-1-1.11V56.9a1.07,1.07,0,0,1,1-1.11c5.79-.28,35.47-1.07,36.05,12.5A1.08,1.08,0,0,1,328.07,69.45Z"/><path class="cls-3" d="M262.45,81l22.08-7.85c0,2.59,0,5.17,0,7.76q.62,107.07,1.22,214.14.09,13.2.15,26.42"/><path class="cls-3" d="M286,321.5h0q-.06-13.22-.15-26.42-.6-107.07-1.22-214.14c0-2.59,0-5.17,0-7.76l.52-.18,0,7.52.79,214.61Z"/><path class="cls-2" d="M249.4,393.12c0,2.24-2,4.05-5,4.05h-9.51v2.4h-3.73v-10.5h13.24C247.4,389.07,249.4,390.89,249.4,393.12Zm-3.73,0a1.24,1.24,0,0,0-1.31-1.15h-9.51v2.31h9.51A1.24,1.24,0,0,0,245.67,393.12Z"/><path class="cls-2" d="M270.21,394.32c0,3.26-2.71,5.43-6.51,5.43h-6.78c-3.71,0-6.51-2.17-6.51-5.43s2.71-5.43,6.51-5.43h6.78C267.5,388.89,270.21,391.08,270.21,394.32Zm-3.8,0A2.47,2.47,0,0,0,263.7,392h-6.78a2.38,2.38,0,1,0,0,4.71h6.78A2.46,2.46,0,0,0,266.41,394.32Z"/><path class="cls-2" d="M271.56,389.07H284.8c3,0,5,1.82,5,4.05a4,4,0,0,1-2.64,3.62l2.1,2.83H285l-1.61-2.4H275.3v2.4h-3.74Zm13.24,5.21a1.16,1.16,0,1,0,0-2.31h-9.5v2.31Z"/><path class="cls-2" d="M309.22,392h-7.34v7.6h-3.73V392h-7.34v-2.9h18.41Z"/><path class="cls-2" d="M314.64,391.92V393H326.2v2.73H314.64v1h12.71v2.85H310.91v-10.5h16.44v2.85Z"/><path class="cls-2" d="M329,389.07h13.24c3,0,5,1.82,5,4.05a4,4,0,0,1-2.64,3.62l2.1,2.83h-4.32l-1.61-2.4h-8v2.4H329Zm13.24,5.21a1.16,1.16,0,1,0,0-2.31h-9.49v2.31Z"/><path class="cls-2" d="M225.89,382.44c-3.19-.57-4.92-3.32-4.32-6.63l1.06-5.91a5.4,5.4,0,0,1,4.87-4.79l-.65,3.63a2.4,2.4,0,0,0-1.19,1.71l-1.07,5.9a2.42,2.42,0,0,0,4.77.86l1.06-5.9a2.09,2.09,0,0,0-.42-1.87l-.85,4.69-2.36-.43,1.56-8.57.64.11a5.45,5.45,0,0,1,4.33,6.59l-1.07,5.91C231.67,381,229.09,383,225.89,382.44Z"/><path class="cls-2" d="M238.12,351.62l2.61,1.26-6.2,12.81-9.45-4.57,1.44-3,6.84,3.31Z"/><path class="cls-2" d="M239.13,350.36l1.9-2.7,2.54,1.79-1.9,2.7Z"/><path class="cls-2" d="M253.94,332.67l2.59-2.22c1.6,2.37,1.07,5.27-1.29,7.28l-4.56,3.9c-2.49,2.14-5.79,2.09-7.9-.38s-1.71-5.69.84-7.87l4.57-3.9c2.35-2,5.3-2.09,7.39-.15l-2.6,2.23a2.37,2.37,0,0,0-2.8.26l-4.56,3.9a2.31,2.31,0,0,0-.29,3.35,2.35,2.35,0,0,0,3.44.33l4.56-3.9A2.47,2.47,0,0,0,253.94,332.67Z"/><path class="cls-2" d="M270.79,327l-9.1,4.15.3,1.7-3,1.38-1.84-10.7,10.91-5,6.89,8.39-3,1.39Zm-1.91-2.34-2-2.42-6.3,2.88.54,3.06Z"/><path class="cls-2" d="M273.66,316.55l11.58-1.74a4.13,4.13,0,0,1,5,3.34,4,4,0,0,1-1.78,3.93l2.27,2.52-3.79.57L285.19,323l-7.05,1.06.36,2.37-3.28.49ZM286,320a1.16,1.16,0,1,0-.35-2.29l-8.3,1.25.34,2.29Z"/><path class="cls-2" d="M306.4,323.39l-.33,2.88-14.15-1.61,1.19-10.43,3.28.37-.86,7.56Z"/><path class="cls-2" d="M322.8,328.88c-.79,2-2.73,2.79-6,1.56L311,328.19c-3.91-1.53-3.7-4-3.19-5.27l3.09,1.2c-.11.53.37,1,1.36,1.41l5.59,2.18c1.11.42,1.65.38,1.8,0s0-.61-.75-.88L311.74,324c-2.43-.94-3.22-2.54-2.55-4.27s2.43-2.95,5.89-1.64l5.68,2.22c4,1.54,3.49,4.18,3.12,5.13l-3.09-1.21c.11-.42-.13-.92-1.14-1.31l-5.6-2.18c-1.16-.46-1.55-.24-1.67.05s0,.61.67.86l7.37,2.87C322.74,325.47,323.47,327.15,322.8,328.88Z"/><path class="cls-2" d="M337.58,337.47a2.9,2.9,0,0,1-.55,2,3.35,3.35,0,0,1-4.7.67l-10.27-7.65,6.27-8.42,10.27,7.65a3.35,3.35,0,0,1,.69,4.7A2.7,2.7,0,0,1,337.58,337.47Zm-3.17-.14a.61.61,0,0,0-.12-.82l-7.22-5.38-.7.94,7.23,5.39A.57.57,0,0,0,334.41,337.33Zm-5.87-8.17,7.27,5.41a.54.54,0,0,0,.64-.86l-7.27-5.41Z"/><path class="cls-2" d="M343.43,340.59l-.83.64,6.29,8.07L346.74,351l-6.29-8.07-.81.63,6.92,8.87-2.25,1.75-8.94-11.48,8.28-6.45,8.94,11.48-2.25,1.75Z"/><path class="cls-2" d="M354.53,350.85l4.5,10.82a4.14,4.14,0,0,1-2,5.67,3.94,3.94,0,0,1-4.24-.78l-1.91,2.81-1.46-3.53,1.67-2.24L348.32,357l-2.22.92-1.27-3.06Zm-.31,12.82a1.15,1.15,0,0,0,2.13-.89L353.13,355l-2.14.89Z"/><path class="cls-2" d="M356.44,369.61c3.22-.36,5.66,1.79,6,5.13l.66,6a5.38,5.38,0,0,1-3.31,6l-.4-3.66a2.43,2.43,0,0,0,.65-2l-.66-6a2.42,2.42,0,0,0-4.82.53l.67,6a2.11,2.11,0,0,0,.94,1.68l-.53-4.74,2.39-.26.94,8.66-.64.07a5.44,5.44,0,0,1-6-5.08l-.66-6C351.31,372.67,353.2,370,356.44,369.61Z"/></svg>