<svg id="Layer_1" data-name="Layer 1" xmlns="http://www.w3.org/2000/svg" width="600" height="600" viewBox="0 0 600 600"><defs><style>.cls-1{fill:#d12d26;}.cls-2{fill:none;}.cls-3{fill:#fff;}.cls-4{fill:#edab35;}</style></defs><path class="cls-1" d="M308.12,94.86V513.11a5.54,5.54,0,0,1-5.12,5.47c-1,.09-2,.18-3,.25a192.68,192.68,0,0,1-41.68-1.38q-5.81-.83-11.87-2.08a187.63,187.63,0,0,1-20.86-5.64,20.39,20.39,0,0,1-5.56-2.26,36,36,0,0,1-6.36-5.12L212,500.7c-1.05-1.4-2.05-2.67-2.79-3.55s-1.55-1.8-2.64-1.77c-9.43.23-17.25-6.36-22-18.24a26.2,26.2,0,0,1-1.83-8.49l-.15-20.11q-.08-11.19-.16-22.39L181,244.68c0-2.19,0-4.38,0-6.57q-.24-33.41-.49-66.82a4.26,4.26,0,0,0,0-.61c-2.39-18.61,3.88-25.5,5.39-26.87a5.54,5.54,0,0,0,.67-.7c19.06-24.08,16.7-35.49,15.85-37.91a.42.42,0,0,0-.09-.16L194,94.86Z"/><path class="cls-1" d="M417,471.06V471l.17-1.3a.24.24,0,0,0,0-.08.87.87,0,0,0,.06-.13c0-.28,0-.56.05-.83v-1.33q.92-125.08,1.83-250.14l0-5.5v-.06l0-2.71q.12-18.79.27-37.62c0-.19,0-.41,0-.61,2.4-18.61-3.88-25.5-5.39-26.87a5.54,5.54,0,0,1-.67-.7c-16.5-20.84-17-32.2-16.21-36.44a5.56,5.56,0,0,1,1.38-2.77l.13-.15c3-3.52.26-8.89-4.43-8.89H297.5a5.57,5.57,0,0,0-5.62,5.51V513.11a5.53,5.53,0,0,0,5.08,5.47l3,.25h0a192.11,192.11,0,0,0,53.55-3.46,187.63,187.63,0,0,0,20.86-5.64,20.48,20.48,0,0,0,5.57-2.26,36,36,0,0,0,6.35-5.12L388,500.8l.06-.07c1.06-1.41,2.09-2.7,2.82-3.58s1.55-1.8,2.65-1.77c9.42.23,17.25-6.36,22-18.24a26.94,26.94,0,0,0,1.37-4.65c.06-.31.11-.62.16-.93A4.13,4.13,0,0,1,417,471.06Z"/><path d="M292.36,103.87V94.81c0-7.82,2.82-14.18,6.3-14.18H407c5.24,0,8.31,13.85,5,22.94,0,.1-.07.2-.11.3Z"/><path class="cls-2" d="M183.32,432h0q-.08-13.22-.16-26.42l-1.32-214.14c0-2.59,0-5.17-.05-7.76l.56-.18,0,7.52.85,214.6Z"/><path class="cls-2" d="M420,208.44V214h0Z"/><path d="M298.1,80.63v23.24H191.3c0-.1-.07-.2-.1-.3-3-9.09-.26-22.94,4.43-22.94Z"/><path class="cls-3" d="M200.46,363.61H220c4.48,0,7.43,3,7.43,6.75a6.57,6.57,0,0,1-3.9,6l3.1,4.72h-6.38l-2.37-4H206v4h-5.53ZM220,372.29a1.93,1.93,0,1,0,0-3.85H206v3.85Z"/><path class="cls-3" d="M258.31,372.36c0,5.43-4,9.05-9.6,9.05h-10c-5.47,0-9.6-3.62-9.6-9.05s4-9.05,9.6-9.05h10C254.31,363.31,258.31,367,258.31,372.36Zm-5.6,0a3.84,3.84,0,0,0-4-3.92h-10a3.93,3.93,0,1,0,0,7.85h10A3.83,3.83,0,0,0,252.71,372.36Z"/><path class="cls-3" d="M283.23,373.59h5.7c-.55,4.72-4.35,7.82-9.52,7.82h-10c-5.47,0-9.6-3.62-9.6-9.05s4-9.05,9.6-9.05h10c5.17,0,9,3.1,9.52,7.83h-5.7a3.93,3.93,0,0,0-3.82-2.7h-10a3.84,3.84,0,0,0-4,3.92,3.9,3.9,0,0,0,4,4.15h10A4.09,4.09,0,0,0,283.23,373.59Z"/><path class="cls-3" d="M313.61,372.36l4.15,8.75h-5.95l-3.05-6.5h-12.3v6.5h-5.52v-17.5h5.52v6.2h12.45l2.9-6.2h5.95Z"/><path class="cls-3" d="M206,398.36v2.4h17v4.75H206v5.6h-5.5V393.62h24.25v4.74Z"/><path class="cls-3" d="M247.41,408.34H230.74l-.73,2.77h-5.55l4.63-17.49h20l4.63,17.49h-5.58Zm-1.28-4.88-1.3-5H233.29l-1.3,5Z"/><path class="cls-3" d="M282.78,393.62v17.49h-5.4l-16.77-10.95v10.95h-5.4V393.62h5.4l16.77,11v-11Z"/><path class="cls-3" d="M312.43,398.44H301.61v12.67h-5.5V398.44H285.29v-4.82h27.14Z"/><path class="cls-3" d="M334.63,408.34H318l-.72,2.77h-5.55l4.62-17.49h20l4.62,17.49h-5.57Zm-1.27-4.88-1.3-5H320.51l-1.3,5Z"/><path class="cls-3" d="M368.48,405.34c0,3.6-2.55,6-8.42,6.07H349.71c-7,0-8.15-3.9-8.15-6.25h5.53c.15.88,1.2,1.35,3,1.35h10c2,0,2.8-.4,2.8-1.07,0-.5-.43-.93-1.7-.93H348.39c-4.35,0-6.55-2-6.55-5.1s2-6,8.15-6.1h10.17c7.07,0,7.95,4.38,7.95,6.08h-5.53c-.1-.73-.77-1.35-2.57-1.35H350c-2.08,0-2.55.57-2.55,1.1s.42.92,1.55.92h13.19C366.33,400.06,368.48,402.24,368.48,405.34Z"/><path class="cls-3" d="M397.83,393.62l-12,10.22v7.27h-5.49v-7.3l-12-10.19h7.55l7.18,5.94,7.17-5.94Z"/><path class="cls-1" d="M308.12,94.86V513.11a5.54,5.54,0,0,1-5.12,5.47c-1,.09-2,.18-3,.25a192.68,192.68,0,0,1-41.68-1.38q-5.81-.83-11.87-2.08a187.63,187.63,0,0,1-20.86-5.64,20.39,20.39,0,0,1-5.56-2.26,36,36,0,0,1-6.36-5.12L212,500.7c-1.05-1.4-2.05-2.67-2.79-3.55s-1.55-1.8-2.64-1.77c-9.43.23-17.25-6.36-22-18.24a26.2,26.2,0,0,1-1.83-8.49l-.15-20.11q-.08-11.19-.16-22.39L181,244.68c0-2.19,0-4.38,0-6.57q-.24-33.41-.49-66.82a4.26,4.26,0,0,0,0-.61c-2.39-18.61,3.88-25.5,5.39-26.87a5.54,5.54,0,0,0,.67-.7c19.06-24.08,16.7-35.49,15.85-37.91a.42.42,0,0,0-.09-.16L194,94.86Z"/><path class="cls-1" d="M417,471.06V471l.17-1.3a.24.24,0,0,0,0-.08.87.87,0,0,0,.06-.13c0-.28,0-.56.05-.83v-1.33q.92-125.08,1.83-250.14l0-5.5v-.06l0-2.71q.12-18.79.27-37.62c0-.19,0-.41,0-.61,2.4-18.61-3.88-25.5-5.39-26.87a5.54,5.54,0,0,1-.67-.7c-16.5-20.84-17-32.2-16.21-36.44a5.56,5.56,0,0,1,1.38-2.77l.13-.15c3-3.52.26-8.89-4.43-8.89H297.5a5.57,5.57,0,0,0-5.62,5.51V513.11a5.53,5.53,0,0,0,5.08,5.47l3,.25h0a192.11,192.11,0,0,0,53.55-3.46,187.63,187.63,0,0,0,20.86-5.64,20.48,20.48,0,0,0,5.57-2.26,36,36,0,0,0,6.35-5.12L388,500.8l.06-.07c1.06-1.41,2.09-2.7,2.82-3.58s1.55-1.8,2.65-1.77c9.42.23,17.25-6.36,22-18.24a26.94,26.94,0,0,0,1.37-4.65c.06-.31.11-.62.16-.93A4.13,4.13,0,0,1,417,471.06Z"/><path d="M292.36,103.87V94.81c0-7.82,2.82-14.18,6.3-14.18H407c5.24,0,8.31,13.85,5,22.94,0,.1-.07.2-.11.3Z"/><path class="cls-2" d="M183.32,432h0q-.08-13.22-.16-26.42l-1.32-214.14c0-2.59,0-5.17-.05-7.76l.56-.18,0,7.52.85,214.6Z"/><path class="cls-2" d="M420,208.44V214h0Z"/><path d="M298.1,80.63v23.24H191.3c0-.1-.07-.2-.1-.3-3-9.09-.26-22.94,4.43-22.94Z"/><path d="M200.46,363.61H220c4.48,0,7.43,3,7.43,6.75a6.57,6.57,0,0,1-3.9,6l3.1,4.72h-6.38l-2.37-4H206v4h-5.53ZM220,372.29a1.93,1.93,0,1,0,0-3.85H206v3.85Z"/><path d="M258.31,372.36c0,5.43-4,9.05-9.6,9.05h-10c-5.47,0-9.6-3.62-9.6-9.05s4-9.05,9.6-9.05h10C254.31,363.31,258.31,367,258.31,372.36Zm-5.6,0a3.84,3.84,0,0,0-4-3.92h-10a3.93,3.93,0,1,0,0,7.85h10A3.83,3.83,0,0,0,252.71,372.36Z"/><path d="M283.23,373.59h5.7c-.55,4.72-4.35,7.82-9.52,7.82h-10c-5.47,0-9.6-3.62-9.6-9.05s4-9.05,9.6-9.05h10c5.17,0,9,3.1,9.52,7.83h-5.7a3.93,3.93,0,0,0-3.82-2.7h-10a3.84,3.84,0,0,0-4,3.92,3.9,3.9,0,0,0,4,4.15h10A4.09,4.09,0,0,0,283.23,373.59Z"/><path d="M313.61,372.36l4.15,8.75h-5.95l-3.05-6.5h-12.3v6.5h-5.52v-17.5h5.52v6.2h12.45l2.9-6.2h5.95Z"/><path d="M206,398.36v2.4h17v4.75H206v5.6h-5.5V393.62h24.25v4.74Z"/><path d="M247.41,408.34H230.74l-.73,2.77h-5.55l4.63-17.49h20l4.63,17.49h-5.58Zm-1.28-4.88-1.3-5H233.29l-1.3,5Z"/><path d="M282.78,393.62v17.49h-5.4l-16.77-10.95v10.95h-5.4V393.62h5.4l16.77,11v-11Z"/><path d="M312.43,398.44H301.61v12.67h-5.5V398.44H285.29v-4.82h27.14Z"/><path d="M334.63,408.34H318l-.72,2.77h-5.55l4.62-17.49h20l4.62,17.49h-5.57Zm-1.27-4.88-1.3-5H320.51l-1.3,5Z"/><path d="M368.48,405.34c0,3.6-2.55,6-8.42,6.07H349.71c-7,0-8.15-3.9-8.15-6.25h5.53c.15.88,1.2,1.35,3,1.35h10c2,0,2.8-.4,2.8-1.07,0-.5-.43-.93-1.7-.93H348.39c-4.35,0-6.55-2-6.55-5.1s2-6,8.15-6.1h10.17c7.07,0,7.95,4.38,7.95,6.08h-5.53c-.1-.73-.77-1.35-2.57-1.35H350c-2.08,0-2.55.57-2.55,1.1s.42.92,1.55.92h13.19C366.33,400.06,368.48,402.24,368.48,405.34Z"/><path d="M397.83,393.62l-12,10.22v7.27h-5.49v-7.3l-12-10.19h7.55l7.18,5.94,7.17-5.94Z"/><path d="M335.17,235.2s-4.07-4.28,6.31-28.68c4.93-11.6,6.35-18.3,6.49-22.15a.88.88,0,0,0-1.76-.1c-.84,9.37-2.1,29.22,1.77,32.92,5.09,4.89,10,10.07,6.62,14.65"/><path d="M343.38,237.07s-2.73-5.24,14-25.83c7.94-9.78,11.16-15.83,12.36-19.49a.88.88,0,0,0-1.67-.58c-3.39,8.78-10.09,27.51-7.4,32.13,3.55,6.1,6.81,12.43,2.32,15.91"/><path d="M343.21,238.21s.27-5.89,25.05-15.34c11.77-4.48,17.59-8.11,20.46-10.68a.88.88,0,0,0-1.15-1.33c-7.33,5.89-22.51,18.75-22.5,24.1,0,7-.34,14.16-6,14.92"/><path d="M344.86,235.07s3.59-4.69,29.32,1.71c12.23,3,19.08,3.39,22.9,2.92a.88.88,0,0,0-.18-1.75c-9.39.65-29.19,2.53-32.24,6.93-4,5.8-8.36,11.44-13.42,8.85"/><path d="M350.42,234.19s5.62-1.78,23,18.23c8.27,9.5,13.68,13.72,17.07,15.52a.88.88,0,0,0,.86-1.54c-8.06-4.85-25.36-14.67-30.38-12.81-6.62,2.44-13.41,4.56-16.06-.46"/><path d="M345.15,240.75s5.9-.16,17.09,23.89c5.32,11.42,9.36,17,12.12,19.64a.88.88,0,0,0,1.25-1.25c-6.4-6.89-20.31-21.1-25.65-20.71-7,.52-14.15.68-15.31-4.88"/><path d="M344.2,240.11s5.18,2.81,2.82,29.23c-1.11,12.55-.4,19.37.65,23.07a.88.88,0,0,0,1.71-.45c-2.1-9.18-7-28.45-11.83-30.78-6.35-3.07-12.59-6.5-10.8-11.89"/><path d="M346.29,243s2.65,5.27-14.37,25.61c-8.08,9.66-11.39,15.66-12.64,19.3a.88.88,0,0,0,1.65.61c3.53-8.73,10.5-27.35,7.88-32-3.46-6.15-6.63-12.53-2.08-15.93"/><path d="M342.47,244.8s-2.5,5.34-29,4.55c-12.6-.37-19.36.75-23,2a.88.88,0,0,0,.55,1.68c9-2.64,28-8.69,30-13.63,2.69-6.53,5.74-13,11.23-11.5"/><path d="M343.48,244.23s-4.85,3.37-27.4-10.59c-10.71-6.63-17.12-9-20.9-9.77a.88.88,0,0,0-.37,1.72c9.14,2.25,28.57,6.51,32.81,3.25,5.6-4.3,11.47-8.33,15.48-4.32"/><path d="M340,244.83s-5.9,0-16.44-24.34c-5-11.56-8.89-17.21-11.58-20a.88.88,0,0,0-1.28,1.2c6.21,7.07,19.73,21.66,25.08,21.41,7.05-.33,14.17-.3,15.17,5.29"/><circle cx="346.12" cy="238.76" r="18.32"/><path class="cls-4" d="M270.32,263.16s-6.51-6.86,10.13-46c7.9-18.59,10.18-29.35,10.4-35.52a1.41,1.41,0,0,0-2.82-.16c-1.34,15-3.36,46.87,2.84,52.81,8.17,7.83,16,16.14,10.62,23.48"/><path class="cls-4" d="M283.49,266.15s-4.37-8.39,22.44-41.42c12.74-15.68,17.9-25.39,19.82-31.25a1.42,1.42,0,0,0-2.67-.94c-5.44,14.08-16.18,44.11-11.87,51.53,5.69,9.79,10.92,19.94,3.72,25.51"/><path class="cls-4" d="M283.23,268s.42-9.45,40.17-24.6c18.88-7.19,28.21-13,32.81-17.12a1.42,1.42,0,0,0-1.84-2.15c-11.76,9.46-36.11,30.07-36.09,38.66,0,11.31-.54,22.72-9.56,23.93"/><path class="cls-4" d="M285.88,263s5.74-7.52,47,2.75c19.61,4.87,30.59,5.43,36.71,4.68a1.42,1.42,0,0,0-.28-2.82c-15.06,1.05-46.81,4.07-51.7,11.12-6.45,9.31-13.42,18.35-21.52,14.19"/><path class="cls-4" d="M294.79,261.53s9-2.85,36.93,29.24c13.26,15.24,21.94,22,27.39,24.9a1.42,1.42,0,0,0,1.38-2.47c-12.94-7.78-40.68-23.53-48.73-20.56-10.61,3.93-21.51,7.33-25.76-.73"/><path class="cls-4" d="M286.34,272.06s9.45-.25,27.41,38.31c8.53,18.31,15,27.2,19.44,31.49a1.41,1.41,0,0,0,2-2c-10.27-11.05-32.58-33.85-41.14-33.22-11.29.84-22.7,1.09-24.56-7.82"/><path class="cls-4" d="M284.81,271s8.31,4.52,4.53,46.89c-1.79,20.12-.65,31.06,1,37a1.41,1.41,0,0,0,2.73-.71c-3.35-14.72-11.23-45.63-19-49.37C264,299.89,254,294.39,256.82,285.75"/><path class="cls-4" d="M288.17,275.61s4.24,8.45-23.05,41.08c-13,15.49-18.27,25.12-20.27,31a1.41,1.41,0,0,0,2.65,1c5.65-14,16.83-43.87,12.62-51.35-5.54-9.86-10.62-20.09-3.33-25.55"/><path class="cls-4" d="M282,278.55s-4,8.56-46.54,7.31c-20.19-.6-31,1.19-36.86,3.23a1.41,1.41,0,0,0,.87,2.69c14.49-4.23,44.88-13.93,48.16-21.86,4.31-10.46,9.21-20.78,18-18.44"/><path class="cls-4" d="M283.65,277.64s-7.76,5.4-43.93-17C222.54,250,212.25,246.14,206.19,245a1.42,1.42,0,0,0-.59,2.77c14.66,3.6,45.82,10.43,52.63,5.21,9-6.89,18.38-13.37,24.82-6.94"/><path class="cls-4" d="M278,278.59s-9.45,0-26.36-39c-8-18.54-14.25-27.61-18.57-32a1.41,1.41,0,0,0-2.06,1.93c10,11.33,31.65,34.73,40.22,34.33,11.31-.53,22.73-.48,24.34,8.48"/><circle class="cls-4" cx="287.9" cy="268.86" r="29.39"/></svg>