<svg id="Layer_1" data-name="Layer 1" xmlns="http://www.w3.org/2000/svg" width="600" height="600" viewBox="0 0 600 600"><defs><style>.cls-1{fill:#1f2948;}.cls-2{fill:none;}.cls-3{fill:#d12d26;}.cls-4{fill:#fff;}</style></defs><path class="cls-1" d="M308.12,49.53V543.07c0,3.36-2.22,6.16-5.12,6.47l-3,.29a163.65,163.65,0,0,1-41.68-1.63q-5.81-1-11.87-2.46a163.45,163.45,0,0,1-20.86-6.65,19.2,19.2,0,0,1-5.56-2.66,38,38,0,0,1-6.36-6q-.87-1-1.71-2c-1.05-1.65-2.05-3.15-2.79-4.19s-1.55-2.12-2.64-2.09c-9.43.28-17.25-7.5-22-21.52a35.69,35.69,0,0,1-1.83-10l-.15-23.73q-.08-13.2-.16-26.42L181,226.33c0-2.59,0-5.18,0-7.76q-.24-39.42-.49-78.85a5.9,5.9,0,0,0,0-.72c-2.39-22,3.88-30.09,5.39-31.71a6.08,6.08,0,0,0,.67-.83c19.06-28.4,16.7-41.88,15.85-44.73a.56.56,0,0,0-.09-.19l-8.32-12Z"/><path class="cls-1" d="M417,493.46v-.09l.17-1.53a.29.29,0,0,0,0-.09,1,1,0,0,0,.06-.15c0-.33,0-.66.05-1V489q.92-147.59,1.83-295.17l0-6.49v-.07l0-3.2q.12-22.17.27-44.39c0-.23,0-.48,0-.72,2.4-22-3.88-30.09-5.39-31.71a6.08,6.08,0,0,1-.67-.83c-16.5-24.59-17-38-16.21-43a7.06,7.06,0,0,1,1.38-3.26l.13-.18c3-4.15.26-10.49-4.43-10.49H297.5c-3.1,0-5.62,2.91-5.62,6.5v487c0,3.35,2.19,6.16,5.08,6.46,1,.11,2,.2,3,.3h0a163.23,163.23,0,0,0,74.41-10.74,19.28,19.28,0,0,0,5.57-2.66,38,38,0,0,0,6.35-6c.55-.61,1.07-1.22,1.62-1.83l.06-.08c1.06-1.67,2.09-3.18,2.82-4.23s1.55-2.12,2.65-2.09c9.42.28,17.25-7.5,22-21.52a36,36,0,0,0,1.37-5.48c.06-.37.11-.74.16-1.1A5.76,5.76,0,0,1,417,493.46Z"/><polygon class="cls-1" points="297.34 546.27 305.22 546.34 303.87 542.62 297.34 546.27"/><path d="M298.1,49.53V60.16H191.3l-.1-.14c-3-4.15-.26-10.49,4.43-10.49Z"/><path d="M292.36,60.16V56a6.4,6.4,0,0,1,6.3-6.49H407a6.49,6.49,0,0,1,5,10.49,1.34,1.34,0,0,1-.11.14Z"/><path class="cls-2" d="M183.32,463.07h0q-.08-13.2-.16-26.42L181.83,222.5c0-2.58,0-5.17-.05-7.75l.56-.19,0,7.53.85,214.6Z"/><path class="cls-2" d="M420,183.55v6.51h0Z"/><polygon class="cls-1" points="419.16 489.82 419 486.9 418.12 486.79 417.79 490.49 419.16 489.82"/><path class="cls-3" d="M199.25,347.75l.25,8.52,10-.29.13,4.34-10,.29.25,8.52-3.8.11-.62-21.38Z"/><path class="cls-3" d="M200.69,322.21l13.44,3.07-1,4.22-5-1.14-2.86,12.52,5,1.14-1,4.22-13.44-3.07,1-4.22,4.7,1.08,2.86-12.52-4.7-1.08Z"/><path class="cls-3" d="M207.66,315.78l1.23.62,6.05-12,3.2,1.61-6,12,1.2.6,6.65-13.18,3.33,1.68-8.59,17.05-12.3-6.2,8.59-17,3.34,1.68Z"/><path class="cls-3" d="M238.29,283.39c2,2,2,4.71-1.16,8.09l-5.65,5.87c-3.83,4-6.67,2.49-8,1.21l3-3.14c.58.4,1.42.06,2.39-.94l5.46-5.68c1.08-1.11,1.3-1.8.92-2.17s-.76-.26-1.45.46l-7,7.24c-2.37,2.47-4.71,2.62-6.47.93s-2.35-4.42,1-7.95l5.56-5.77c3.87-4,6.83-2.12,7.79-1.19l-3,3.13c-.47-.34-1.19-.3-2.17.72L224,289.89c-1.13,1.17-1.06,1.76-.77,2.05s.76.26,1.37-.38l7.22-7.48C234.12,281.72,236.53,281.69,238.29,283.39Z"/><path class="cls-3" d="M254.38,266.54l-7.2,4.57,5.35,8.42-3.66,2.32-5.34-8.42-7.2,4.56-2-3.21,18-11.45Z"/><path class="cls-3" d="M279.68,261.16c1.31,4.07-.81,7.75-5,9.1l-7.49,2.41c-4.1,1.32-8.07-.4-9.38-4.46s.81-7.75,5-9.1l7.49-2.41C274.5,255.35,278.38,257.12,279.68,261.16Zm-4.19,1.35a3,3,0,0,0-3.95-2L264.05,263a3.09,3.09,0,1,0,1.89,5.88l7.49-2.41A3,3,0,0,0,275.49,262.51Z"/><path class="cls-3" d="M303.58,252.77l.71,13.76-4.25.22-13.63-7.92.44,8.61-4.24.21-.71-13.75,4.24-.22,13.64,7.94-.45-8.63Z"/><path class="cls-3" d="M311.68,257.75l-.26,1.35,13.18,2.54-.67,3.52-13.19-2.54-.25,1.31,14.5,2.8-.71,3.67-18.75-3.62,2.61-13.53,18.75,3.62-.71,3.67Z"/><path class="cls-3" d="M363.52,274.78l-12.88,8.62-5.21-2.89.07-10.69-9,5.74-5.21-2.9.47-15.48,4.17,2.31-.5,11.75,9.92-6.54,4.27,2.37,0,12.07,9.74-6.66Z"/><path class="cls-3" d="M368.87,298.39l-9-9.59-2,1.08-3-3.19,12.54-6.76,10.77,11.49-7.56,12.08-3-3.2ZM371,295l2.19-3.45L367,284.94l-3.59,2Z"/><path class="cls-3" d="M383.21,318.48l-3.31,1.87-9.16-16.29,12-6.75,2.13,3.77-8.7,4.89Z"/><path class="cls-3" d="M389.3,338.37l-3.65,1.07-5.26-17.92,13.22-3.89,1.22,4.16-9.58,2.81Z"/><path class="cls-3" d="M399.92,345.29l.34,4.32-13.74,1.09-.34-4.32Z"/><path class="cls-3" d="M399.14,375l-13.74-1.16.36-4.23,9.7-12.45-8.6-.72.36-4.24L401,353.3l-.36,4.24L390.88,370l8.61.72Z"/><path class="cls-4" d="M241.12,320.51h11v35h-11Z"/><path class="cls-4" d="M311,334c0,7.45-5.9,13.5-14.85,13.5H268.12v8h-11v-35h39.05C305.12,320.51,311,326.56,311,334Zm-11,0a3.85,3.85,0,0,0-3.85-3.85H268.12v7.7h28.05A3.85,3.85,0,0,0,300,334Z"/><path class="cls-4" d="M355.42,350H322.07l-1.45,5.55h-11.1l9.25-35h40l9.25,35H356.87Zm-2.55-9.75-2.6-10h-23.1l-2.6,10Z"/></svg>