<svg id="Layer_1" data-name="Layer 1" xmlns="http://www.w3.org/2000/svg" width="600" height="600" viewBox="0 0 600 600"><defs><style>.cls-1{fill:#c4d8ef;}.cls-2{fill:#d12d26;}.cls-3,.cls-6{fill:none;}.cls-4{fill:#1f2948;}.cls-5{fill:#fff;}.cls-6{stroke:#000;stroke-miterlimit:10;}</style></defs><path class="cls-1" d="M308.12,64.9V544.23a6.06,6.06,0,0,1-5.12,6.28c-1,.1-2,.2-3,.28a168.63,168.63,0,0,1-41.68-1.58q-5.81-.94-11.87-2.39a167.2,167.2,0,0,1-20.86-6.45,19.63,19.63,0,0,1-5.56-2.59,37.64,37.64,0,0,1-6.36-5.88Q212.8,531,212,530c-1.05-1.6-2.05-3.06-2.79-4.07s-1.55-2.06-2.64-2c-9.43.27-17.25-7.28-22-20.9a33.78,33.78,0,0,1-1.83-9.73l-.15-23q-.08-12.83-.16-25.65L181,236.6c0-2.51,0-5,0-7.53q-.24-38.28-.49-76.58a5.58,5.58,0,0,0,0-.7c-2.39-21.33,3.88-29.22,5.39-30.79a6.55,6.55,0,0,0,.67-.81c19.06-27.59,16.7-40.67,15.85-43.45a.61.61,0,0,0-.09-.18L194,64.9Z"/><path class="cls-1" d="M417,496.05V496l.17-1.49a.24.24,0,0,0,0-.08l.06-.15c0-.32,0-.64.05-1v-1.53q.92-143.34,1.83-286.67l0-6.31v-.06l0-3.11q.12-21.54.27-43.11c0-.22,0-.47,0-.7,2.4-21.33-3.88-29.22-5.39-30.79a6.55,6.55,0,0,1-.67-.81c-16.5-23.88-17-36.9-16.21-41.76a6.73,6.73,0,0,1,1.38-3.17l.13-.17c3-4,.26-10.19-4.43-10.19H297.5c-3.1,0-5.62,2.82-5.62,6.31v473c0,3.25,2.19,6,5.08,6.28l3,.28h0a167.74,167.74,0,0,0,74.41-10.42,19.72,19.72,0,0,0,5.57-2.59,37.61,37.61,0,0,0,6.35-5.88c.55-.59,1.07-1.18,1.62-1.77l.06-.08c1.06-1.62,2.09-3.09,2.82-4.11s1.55-2.06,2.65-2c9.42.27,17.25-7.28,22-20.9a33.89,33.89,0,0,0,1.37-5.32c.06-.36.11-.72.16-1.07A5.42,5.42,0,0,1,417,496.05Z"/><path class="cls-2" d="M292.36,75.22V64.84c0-9,2.82-16.26,6.3-16.26H407c5.24,0,8.31,15.88,5,26.3,0,.11-.07.23-.11.34Z"/><path class="cls-3" d="M183.32,451.25h0q-.08-15.14-.16-30.27l-1.32-245.42c0-3,0-5.93-.05-8.89l.56-.21,0,8.62.85,246Z"/><path class="cls-3" d="M420,195.06v6.33s0,0,0,0Z"/><polygon class="cls-4" points="419.16 492.52 419 489.68 418.12 489.57 417.79 493.16 419.16 492.52"/><path class="cls-2" d="M298.1,48.58V75.22H191.3c0-.11-.07-.23-.1-.34-3-10.42-.26-26.3,4.43-26.3Z"/><rect x="181.78" y="312" width="236.34" height="37.02"/><path class="cls-5" d="M194.38,320.67H213.9c4.48,0,7.42,3.47,7.42,7.74a7.62,7.62,0,0,1-3.9,6.9l3.1,5.42h-6.37l-2.37-4.59H199.9v4.59h-5.52Zm19.52,9.94a2.22,2.22,0,0,0,0-4.41h-14v4.41Z"/><path class="cls-5" d="M252.22,330.7c0,6.22-4,10.37-9.59,10.37h-10c-5.48,0-9.6-4.15-9.6-10.37s4-10.37,9.6-10.37h10C248.22,320.33,252.22,324.51,252.22,330.7Zm-5.6,0c0-2.52-1.62-4.5-4-4.5h-10c-2.38,0-4,2-4,4.5s1.62,4.5,4,4.5h10C245,335.2,246.62,333.25,246.62,330.7Z"/><path class="cls-5" d="M277.15,332.1h5.7c-.55,5.42-4.35,9-9.52,9h-10c-5.48,0-9.6-4.15-9.6-10.37s4-10.37,9.6-10.37h10c5.17,0,9,3.55,9.52,9h-5.7a4,4,0,0,0-3.82-3.09h-10c-2.38,0-4,2-4,4.5,0,2.78,1.62,4.76,4,4.76h10A4.25,4.25,0,0,0,277.15,332.1Z"/><path class="cls-5" d="M307.52,330.7l4.15,10h-5.95l-3.05-7.45H290.38v7.45h-5.53V320.67h5.53v7.11h12.45l2.89-7.11h5.95Z"/><path class="cls-2" d="M220.92,368.49c0,4.13-2.54,6.85-8.42,7H202.15c-7,0-8.14-4.47-8.14-7.16h5.52c.15,1,1.2,1.55,3,1.55h10c2,0,2.8-.46,2.8-1.23,0-.58-.42-1.07-1.7-1.07H200.83c-4.35,0-6.55-2.29-6.55-5.84s2-6.94,8.15-7H212.6c7.07,0,8,5,8,7H215c-.1-.83-.78-1.55-2.58-1.55h-10c-2.08,0-2.55.66-2.55,1.26s.42,1.06,1.55,1.06h13.2C218.77,362.44,220.92,364.94,220.92,368.49Z"/><path class="cls-2" d="M246,366.49h5.7c-.55,5.41-4.35,9-9.52,9h-10c-5.47,0-9.59-4.15-9.59-10.37s4-10.37,9.59-10.37h10c5.17,0,9,3.55,9.52,9H246a4,4,0,0,0-3.82-3.1h-10c-2.37,0-4,2-4,4.5,0,2.78,1.63,4.76,4,4.76h10A4.24,4.24,0,0,0,246,366.49Z"/><path class="cls-2" d="M253.68,355.05h5.5v20.06h-5.5Z"/><path class="cls-2" d="M267.18,360.5v2h17v5.22h-17v1.95h18.74v5.44H261.68V355.05h24.24v5.45Z"/><path class="cls-2" d="M316,355.05v20.06h-5.4l-16.77-12.55v12.55h-5.4V355.05h5.4l16.77,12.58V355.05Z"/><path class="cls-2" d="M341.42,366.49h5.7c-.55,5.41-4.35,9-9.52,9h-10c-5.47,0-9.6-4.15-9.6-10.37s4-10.37,9.6-10.37h10c5.17,0,9,3.55,9.52,9h-5.7a4,4,0,0,0-3.82-3.1h-10c-2.37,0-4,2-4,4.5,0,2.78,1.63,4.76,4,4.76h10A4.24,4.24,0,0,0,341.42,366.49Z"/><path class="cls-2" d="M354.63,360.5v2h17v5.22h-17v1.95h18.74v5.44H349.13V355.05h24.24v5.45Z"/><line class="cls-6" x1="181.44" y1="299.35" x2="418.56" y2="299.35"/><line class="cls-6" x1="181.39" y1="291.99" x2="418.61" y2="291.99"/><line class="cls-6" x1="181.22" y1="264.68" x2="418.78" y2="264.68"/><line class="cls-6" x1="180.95" y1="221.94" x2="419.05" y2="221.94"/><line class="cls-6" x1="180.84" y1="206.07" x2="419.16" y2="206.07"/><line class="cls-6" x1="180.74" y1="190.21" x2="419.26" y2="190.21"/></svg>