<svg id="Layer_1" data-name="Layer 1" xmlns="http://www.w3.org/2000/svg" width="600" height="600" viewBox="0 0 600 600"><defs><style>.cls-1{fill:#1f2948;}.cls-2{fill:#c4d8ef;}.cls-3{fill:none;stroke:#c4d8ef;stroke-miterlimit:10;stroke-width:0.75px;}.cls-4{fill:#fff;}</style></defs><path class="cls-1" d="M308.12,112V495.3a5.3,5.3,0,0,1-5.12,5c-1,.08-2,.16-3,.22a210.09,210.09,0,0,1-41.68-1.27q-5.81-.75-11.87-1.9a200,200,0,0,1-20.86-5.17,21.58,21.58,0,0,1-5.56-2.07,35.66,35.66,0,0,1-6.36-4.69c-.58-.51-1.15-1-1.71-1.52-1.05-1.28-2.05-2.45-2.79-3.25a3.79,3.79,0,0,0-2.64-1.62c-9.43.21-17.25-5.83-22-16.72a22.26,22.26,0,0,1-1.83-7.78l-.15-18.43q-.08-10.25-.16-20.51L181,249.31c0-2,0-4,0-6q-.24-30.6-.49-61.23a3.52,3.52,0,0,0,0-.56c-2.39-17.06,3.88-23.37,5.39-24.62a5.89,5.89,0,0,0,.67-.65c19.06-22.06,16.7-32.52,15.85-34.74a.46.46,0,0,0-.09-.15L194,112Z"/><path class="cls-1" d="M417,456.77v-.07l.17-1.2a.14.14,0,0,0,0-.06l.06-.12c0-.26,0-.52.05-.77v-1.22q.92-114.61,1.83-229.23l0-5V219l0-2.48q.12-17.22.27-34.47a5.27,5.27,0,0,1,0-.56c2.4-17.06-3.88-23.37-5.39-24.62a5.89,5.89,0,0,1-.67-.65c-16.5-19.1-17-29.5-16.21-33.39a5,5,0,0,1,1.38-2.54l.13-.13c3-3.23.26-8.15-4.43-8.15H297.5c-3.1,0-5.62,2.26-5.62,5V495.3a5.27,5.27,0,0,0,5.08,5l3,.23h0a209,209,0,0,0,53.55-3.17,200,200,0,0,0,20.86-5.17,21.68,21.68,0,0,0,5.57-2.07,35.61,35.61,0,0,0,6.35-4.69c.55-.48,1.07-.95,1.62-1.42L388,484c1.06-1.29,2.09-2.47,2.82-3.28a3.79,3.79,0,0,1,2.65-1.62c9.42.21,17.25-5.83,22-16.72a23,23,0,0,0,1.37-4.25c.06-.29.11-.57.16-.86A3.38,3.38,0,0,1,417,456.77Z"/><path class="cls-2" d="M292.36,120.26V112c0-7.17,2.82-13,6.3-13H407c5.24,0,8.31,12.7,5,21,0,.09-.07.18-.11.27Z"/><path class="cls-1" d="M183.32,421h0q-.08-12.1-.16-24.21l-1.32-196.24c0-2.37,0-4.74-.05-7.11l.56-.17,0,6.89.85,196.67Z"/><path class="cls-1" d="M420,216.09v5.06h0Z"/><path class="cls-2" d="M298.1,99v21.3H191.3c0-.09-.07-.18-.1-.27-3-8.33-.26-21,4.43-21Z"/><rect class="cls-3" x="190.85" y="285.04" width="145.7" height="46.61" rx="12"/><path class="cls-4" d="M227.94,311.07l3.75,7h-5.38l-2.76-5.2H212.43v5.2h-5v-14h5v5h11.26l2.62-5h5.38Z"/><path class="cls-4" d="M258.31,311.07c0,4.34-3.62,7.24-8.68,7.24h-9c-5,0-8.68-2.9-8.68-7.24s3.62-7.24,8.68-7.24h9C254.69,303.83,258.31,306.75,258.31,311.07Zm-5.07,0c0-1.76-1.46-3.14-3.61-3.14h-9c-2.15,0-3.62,1.38-3.62,3.14s1.47,3.14,3.62,3.14h9C251.78,314.21,253.24,312.85,253.24,311.07Z"/><path class="cls-4" d="M285,304.07v14h-4.88L265,309.31v8.76h-4.88v-14H265l15.17,8.78v-8.78Z"/><path class="cls-4" d="M303.25,311.07l9.71,7h-7.14l-6.14-4.42-6.15,4.42h-7.14l9.72-7-9.72-7h7.14l6.15,4.42,6.14-4.42H313Z"/><path class="cls-3" d="M336.55,308.34V331a12,12,0,0,1-12,12H202.85a12,12,0,0,1-12-12V308.34"/><path class="cls-3" d="M336.55,318.31v22.61a12,12,0,0,1-12,12H202.85a12,12,0,0,1-12-12V318.31"/><path class="cls-3" d="M336.55,328.28v22.61a12,12,0,0,1-12,12H202.85a12,12,0,0,1-12-12V328.28"/><path class="cls-3" d="M336.55,338.25v22.61a12,12,0,0,1-12,12H202.85a12,12,0,0,1-12-12V338.25"/><path class="cls-3" d="M336.55,348.21v22.62a12,12,0,0,1-12,12H202.85a12,12,0,0,1-12-12V348.21"/><path class="cls-3" d="M336.55,358.18v22.61a12,12,0,0,1-12,12H202.85a12,12,0,0,1-12-12V358.18"/><path class="cls-3" d="M336.55,368.15v22.61a12,12,0,0,1-12,12H202.85a12,12,0,0,1-12-12V368.15"/></svg>