<svg id="Layer_1" data-name="Layer 1" xmlns="http://www.w3.org/2000/svg" width="600" height="600" viewBox="0 0 600 600"><defs><style>.cls-1{fill:#d12d26;}.cls-2{fill:#020202;}.cls-3{fill:#1d1d1b;}</style></defs><path class="cls-1" d="M268.77,58.25s-36.52-2.61-37,12.53a1.08,1.08,0,0,0,1,1.15h7.71a1.11,1.11,0,0,1,.75,1.85c-3.17,3.75-9.31,12.41-4.55,18.68,6.09,8-4.44,37.6-4.93,39l0,.1c-.53,2.11-17.12,68.82-9.35,115.27a1.13,1.13,0,0,1-.06.6,51.4,51.4,0,0,1-8.62,14.74,62.3,62.3,0,0,1-9.67,9.36,34.1,34.1,0,0,0-8.39,9.52,26.32,26.32,0,0,0-3.51,16V517.88a1.36,1.36,0,0,1,0,.29c-.56,2.14-6.46,27.79,28.55,27.79,11.42,0,27.77,1.71,48.12,0"/><path class="cls-1" d="M268.77,546c20.35,1.71,36.7,0,48.12,0,35,0,29.11-25.65,28.55-27.79a1.36,1.36,0,0,1,0-.29V297a26.32,26.32,0,0,0-3.51-16,34.1,34.1,0,0,0-8.39-9.52,62.3,62.3,0,0,1-9.67-9.36,51.17,51.17,0,0,1-8.62-14.74,1.13,1.13,0,0,1-.06-.6c7.77-46.45-8.82-113.16-9.35-115.27l0-.1c-.49-1.35-11-30.93-4.93-38.95,4.76-6.27-1.38-14.93-4.55-18.68a1.11,1.11,0,0,1,.75-1.85h7.71a1.08,1.08,0,0,0,1-1.15c-.5-15.14-37-12.53-37-12.53"/><path d="M268.77,55.11V72.27c0,.92-.51,1.67-1.13,1.67H229.15c-.64,0-1.16-.8-1.13-1.74.65-20.36,33.31-19.17,39.68-18.75C268.3,53.49,268.77,54.22,268.77,55.11Z"/><path d="M308.23,73.94H264.57a1.52,1.52,0,0,1-1.28-1.67V55.11a1.52,1.52,0,0,1,1.22-1.66c7.23-.42,44.29-1.61,45,18.75A1.54,1.54,0,0,1,308.23,73.94Z"/><path class="cls-1" d="M239.14,83.42l22.08-7.85c0,2.59,0,5.17,0,7.76q.62,107.07,1.22,214.14.09,13.2.15,26.42"/><path class="cls-1" d="M262.64,323.9h0q-.06-13.22-.15-26.42-.6-107.07-1.22-214.14c0-2.59,0-5.17,0-7.76l.51-.18,0,7.52.79,214.61Z"/><path class="cls-1" d="M226.09,395.52c0,2.24-2,4.05-5,4.05h-9.51V402h-3.73v-10.5h13.24C224.09,391.47,226.09,393.29,226.09,395.52Zm-3.73,0a1.24,1.24,0,0,0-1.31-1.15h-9.51v2.31h9.51A1.24,1.24,0,0,0,222.36,395.52Z"/><path class="cls-1" d="M246.9,396.72c0,3.26-2.71,5.43-6.51,5.43h-6.78c-3.71,0-6.51-2.17-6.51-5.43s2.71-5.43,6.51-5.43h6.78C244.19,391.29,246.9,393.48,246.9,396.72Zm-3.8,0a2.47,2.47,0,0,0-2.71-2.35h-6.78a2.38,2.38,0,1,0,0,4.71h6.78A2.46,2.46,0,0,0,243.1,396.72Z"/><path class="cls-1" d="M248.25,391.47h13.24c3,0,5,1.82,5,4a4,4,0,0,1-2.64,3.62L266,402h-4.32l-1.61-2.4H252V402h-3.74Zm13.24,5.21a1.16,1.16,0,1,0,0-2.31H252v2.31Z"/><path class="cls-1" d="M285.91,394.37h-7.34V402h-3.73v-7.6H267.5v-2.9h18.41Z"/><path class="cls-1" d="M291.33,394.32v1.05h11.56v2.73H291.33v1H304V402H287.6v-10.5H304v2.85Z"/><path class="cls-1" d="M305.73,391.47H319c3,0,5,1.82,5,4a4,4,0,0,1-2.64,3.62l2.1,2.83h-4.32l-1.61-2.4h-8V402h-3.75ZM319,396.68a1.16,1.16,0,1,0,0-2.31h-9.49v2.31Z"/><path class="cls-2" d="M220.19,404.13,218.52,364c-.27-6.58-.56-13.16-.82-19.74-.22-5.7-.39-11.86,2.25-17.09,3.69-7.31,12-11.45,20-11.49A19.74,19.74,0,0,1,259,329.05c3.14,9,.78,20-6.86,26.11-.49.39,0,1.24.6,1,5.63-2,11.71-.72,16.7,2.35,5.38,3.32,9,8.65,11.25,14.5a59.46,59.46,0,0,1,3.4,18.4,73.39,73.39,0,0,1-1.25,17.44c-2.21,11.22-7.39,22-16.26,29.5-7.94,6.68-18.5,9.6-28.77,9.05-11.61-.62-23-5.7-30.43-14.78-.51-.62-1.39.27-.89.89,13.66,16.68,40.55,20.18,58.19,7.86,9.7-6.77,15.8-17.59,18.63-28.9,3-11.89,3.07-25.3-.49-37.08-2-6.71-5.68-13.05-11.5-17.14-5.44-3.81-12.51-5.53-18.91-3.3l.61,1.05c7-5.56,9.72-15.13,8.13-23.74s-7.85-15.79-16.64-17.46a24.89,24.89,0,0,0-22.76,7.45,22.44,22.44,0,0,0-5.27,13.33,75.84,75.84,0,0,0,0,9.77q.23,5.33.44,10.66l2,48.07c0,.8,1.29.81,1.25,0Z"/><path class="cls-2" d="M222.93,404.13,221.27,364q-.42-9.87-.82-19.74c-.23-5.7-.4-11.86,2.24-17.09,3.69-7.31,12-11.45,20-11.49a19.76,19.76,0,0,1,19.08,13.38c3.13,9,.77,20-6.87,26.11-.49.39,0,1.24.61,1,5.62-2,11.71-.72,16.69,2.35,5.38,3.32,9.05,8.65,11.26,14.5a59.75,59.75,0,0,1,3.39,18.4,73.39,73.39,0,0,1-1.25,17.44c-2.21,11.22-7.39,22-16.26,29.5-7.94,6.68-18.5,9.6-28.77,9.05-11.61-.62-23-5.7-30.43-14.78-.51-.62-1.39.27-.88.89,13.65,16.68,40.55,20.18,58.18,7.86,9.71-6.77,15.8-17.59,18.63-28.9,3-11.89,3.08-25.3-.49-37.08-2-6.71-5.68-13.05-11.5-17.14-5.44-3.81-12.5-5.53-18.91-3.3l.61,1.05c7-5.56,9.72-15.13,8.14-23.74s-7.86-15.79-16.65-17.46a24.89,24.89,0,0,0-22.76,7.45c-3.33,3.74-4.83,8.4-5.27,13.33a77.68,77.68,0,0,0,0,9.77l.45,10.66,2,48.07c0,.8,1.29.81,1.25,0Z"/><path class="cls-2" d="M225.68,404.13,224,364q-.42-9.87-.82-19.74c-.23-5.7-.4-11.86,2.25-17.09,3.69-7.31,12-11.45,20-11.49a19.76,19.76,0,0,1,19.08,13.38c3.14,9,.77,20-6.87,26.11-.49.39,0,1.24.61,1,5.62-2,11.71-.72,16.69,2.35,5.39,3.32,9.06,8.65,11.26,14.5a59.76,59.76,0,0,1,3.4,18.4,73.91,73.91,0,0,1-1.25,17.44c-2.21,11.22-7.4,22-16.26,29.5-7.94,6.68-18.51,9.6-28.78,9.05-11.61-.62-23-5.7-30.43-14.78-.51-.62-1.39.27-.88.89,13.66,16.68,40.55,20.18,58.19,7.86,9.7-6.77,15.79-17.59,18.63-28.9,3-11.89,3.07-25.3-.5-37.08-2-6.71-5.67-13.05-11.5-17.14-5.44-3.81-12.5-5.53-18.9-3.3l.6,1.05c7-5.56,9.72-15.13,8.14-23.74s-7.85-15.79-16.65-17.46a24.89,24.89,0,0,0-22.76,7.45c-3.33,3.74-4.83,8.4-5.27,13.33a75.84,75.84,0,0,0,0,9.77q.21,5.33.44,10.66l2,48.07c0,.8,1.28.81,1.25,0Z"/><path class="cls-2" d="M228.42,404.13,226.75,364c-.27-6.58-.56-13.16-.82-19.74-.22-5.7-.39-11.86,2.25-17.09,3.69-7.31,12-11.45,20-11.49a19.74,19.74,0,0,1,19.08,13.38c3.14,9,.77,20-6.87,26.11-.49.39,0,1.24.61,1,5.62-2,11.71-.72,16.69,2.35,5.39,3.32,9.06,8.65,11.26,14.5a59.76,59.76,0,0,1,3.4,18.4,73.39,73.39,0,0,1-1.25,17.44c-2.21,11.22-7.4,22-16.26,29.5-7.94,6.68-18.51,9.6-28.78,9.05-11.61-.62-23-5.7-30.42-14.78-.51-.62-1.39.27-.89.89,13.66,16.68,40.55,20.18,58.19,7.86,9.7-6.77,15.79-17.59,18.63-28.9,3-11.89,3.07-25.3-.49-37.08-2-6.71-5.68-13.05-11.51-17.14-5.44-3.81-12.5-5.53-18.9-3.3l.61,1.05c7-5.56,9.71-15.13,8.13-23.74s-7.85-15.79-16.64-17.46A24.89,24.89,0,0,0,230,322.3c-3.34,3.74-4.84,8.4-5.27,13.33a74.08,74.08,0,0,0,0,9.77c.15,3.55.29,7.1.44,10.66l2,48.07c0,.8,1.28.81,1.25,0Z"/><path class="cls-2" d="M231.16,404.13,229.49,364c-.27-6.58-.56-13.16-.82-19.74-.22-5.7-.39-11.86,2.25-17.09,3.69-7.31,12-11.45,20-11.49A19.74,19.74,0,0,1,270,329.05c3.14,9,.77,20-6.86,26.11-.49.39,0,1.24.6,1,5.63-2,11.71-.72,16.7,2.35,5.38,3.32,9.05,8.65,11.25,14.5a59.46,59.46,0,0,1,3.4,18.4,73.39,73.39,0,0,1-1.25,17.44c-2.21,11.22-7.39,22-16.26,29.5-7.94,6.68-18.5,9.6-28.77,9.05-11.61-.62-23-5.7-30.43-14.78-.51-.62-1.39.27-.89.89,13.66,16.68,40.55,20.18,58.19,7.86,9.7-6.77,15.8-17.59,18.63-28.9,3-11.89,3.07-25.3-.49-37.08-2-6.71-5.68-13.05-11.5-17.14-5.44-3.81-12.51-5.53-18.91-3.3l.61,1.05c7-5.56,9.72-15.13,8.13-23.74s-7.85-15.79-16.64-17.46a24.89,24.89,0,0,0-22.76,7.45,22.44,22.44,0,0,0-5.27,13.33,75.84,75.84,0,0,0,0,9.77q.22,5.33.44,10.66l2,48.07c0,.8,1.29.81,1.25,0Z"/><path class="cls-2" d="M233.9,404.13,232.24,364q-.42-9.87-.82-19.74c-.23-5.7-.4-11.86,2.24-17.09,3.69-7.31,12-11.45,20-11.49a19.76,19.76,0,0,1,19.08,13.38c3.13,9,.77,20-6.87,26.11-.49.39,0,1.24.61,1,5.62-2,11.71-.72,16.69,2.35,5.38,3.32,9.05,8.65,11.26,14.5a59.75,59.75,0,0,1,3.39,18.4,73.39,73.39,0,0,1-1.25,17.44c-2.21,11.22-7.39,22-16.26,29.5-7.94,6.68-18.5,9.6-28.77,9.05-11.61-.62-23-5.7-30.43-14.78-.51-.62-1.39.27-.88.89,13.65,16.68,40.55,20.18,58.18,7.86,9.71-6.77,15.8-17.59,18.63-28.9,3-11.89,3.08-25.3-.49-37.08-2-6.71-5.68-13.05-11.5-17.14-5.44-3.81-12.5-5.53-18.91-3.3l.61,1.05c7-5.56,9.72-15.13,8.14-23.74s-7.86-15.79-16.65-17.46a24.89,24.89,0,0,0-22.76,7.45c-3.33,3.74-4.83,8.4-5.27,13.33a77.68,77.68,0,0,0,0,9.77l.45,10.66,2,48.07c0,.8,1.29.81,1.25,0Z"/><path class="cls-2" d="M236.65,404.13,235,364q-.42-9.87-.82-19.74c-.23-5.7-.4-11.86,2.25-17.09,3.69-7.31,12-11.45,20-11.49a19.76,19.76,0,0,1,19.08,13.38c3.14,9,.77,20-6.87,26.11-.49.39,0,1.24.61,1,5.62-2,11.71-.72,16.69,2.35,5.39,3.32,9.06,8.65,11.26,14.5a59.76,59.76,0,0,1,3.4,18.4,73.91,73.91,0,0,1-1.25,17.44c-2.22,11.22-7.4,22-16.26,29.5-7.94,6.68-18.51,9.6-28.78,9.05-11.61-.62-23-5.7-30.43-14.78-.51-.62-1.39.27-.88.89,13.66,16.68,40.55,20.18,58.19,7.86,9.7-6.77,15.79-17.59,18.63-28.9,3-11.89,3.07-25.3-.5-37.08-2-6.71-5.67-13.05-11.5-17.14-5.44-3.81-12.5-5.53-18.9-3.3l.6,1.05c7-5.56,9.72-15.13,8.14-23.74s-7.85-15.79-16.65-17.46a24.89,24.89,0,0,0-22.76,7.45c-3.33,3.74-4.83,8.4-5.27,13.33a75.84,75.84,0,0,0,0,9.77q.21,5.33.44,10.66l2,48.07c0,.8,1.28.81,1.25,0Z"/><path class="cls-2" d="M239.39,404.13,237.72,364c-.27-6.58-.56-13.16-.82-19.74-.22-5.7-.39-11.86,2.25-17.09,3.69-7.31,12-11.45,20-11.49a19.74,19.74,0,0,1,19.08,13.38c3.14,9,.77,20-6.87,26.11-.49.39,0,1.24.61,1,5.62-2,11.71-.72,16.69,2.35,5.39,3.32,9.06,8.65,11.26,14.5a59.76,59.76,0,0,1,3.4,18.4,73.39,73.39,0,0,1-1.25,17.44c-2.21,11.22-7.4,22-16.26,29.5-7.94,6.68-18.51,9.6-28.78,9.05-11.61-.62-23-5.7-30.42-14.78-.51-.62-1.39.27-.89.89,13.66,16.68,40.55,20.18,58.19,7.86,9.7-6.77,15.79-17.59,18.63-28.9,3-11.89,3.07-25.3-.49-37.08-2-6.71-5.68-13.05-11.51-17.14-5.44-3.81-12.5-5.53-18.9-3.3l.61,1.05c7-5.56,9.71-15.13,8.13-23.74s-7.85-15.79-16.64-17.46A24.89,24.89,0,0,0,241,322.3c-3.34,3.74-4.84,8.4-5.27,13.33a74.08,74.08,0,0,0,0,9.77c.15,3.55.29,7.1.44,10.66l2,48.07c0,.8,1.28.81,1.25,0Z"/><path class="cls-2" d="M242.13,404.13,240.46,364c-.27-6.58-.56-13.16-.82-19.74-.22-5.7-.39-11.86,2.25-17.09,3.69-7.31,12-11.45,20-11.49A19.74,19.74,0,0,1,281,329.05c3.14,9,.77,20-6.86,26.11-.49.39,0,1.24.6,1,5.63-2,11.71-.72,16.7,2.35,5.38,3.32,9,8.65,11.25,14.5a59.46,59.46,0,0,1,3.4,18.4,73.39,73.39,0,0,1-1.25,17.44c-2.21,11.22-7.39,22-16.26,29.5-7.94,6.68-18.5,9.6-28.77,9.05-11.61-.62-23-5.7-30.43-14.78-.51-.62-1.39.27-.89.89,13.66,16.68,40.55,20.18,58.19,7.86,9.7-6.77,15.8-17.59,18.63-28.9,3-11.89,3.07-25.3-.49-37.08-2-6.71-5.68-13.05-11.5-17.14-5.44-3.81-12.51-5.53-18.91-3.3l.61,1.05c7-5.56,9.72-15.13,8.13-23.74s-7.85-15.79-16.64-17.46a24.89,24.89,0,0,0-22.76,7.45,22.44,22.44,0,0,0-5.27,13.33,75.84,75.84,0,0,0,0,9.77q.23,5.33.44,10.66l2,48.07c0,.8,1.29.81,1.25,0Z"/><path class="cls-2" d="M244.87,404.13,243.21,364q-.42-9.87-.82-19.74c-.23-5.7-.4-11.86,2.24-17.09,3.69-7.31,12-11.45,20-11.49a19.76,19.76,0,0,1,19.08,13.38c3.13,9,.77,20-6.87,26.11-.49.39,0,1.24.61,1,5.62-2,11.71-.72,16.69,2.35,5.38,3.32,9.05,8.65,11.26,14.5a59.75,59.75,0,0,1,3.39,18.4,73.39,73.39,0,0,1-1.25,17.44c-2.21,11.22-7.39,22-16.26,29.5-7.94,6.68-18.5,9.6-28.77,9.05-11.61-.62-23-5.7-30.43-14.78-.51-.62-1.39.27-.88.89,13.65,16.68,40.55,20.18,58.18,7.86,9.71-6.77,15.8-17.59,18.63-28.9,3-11.89,3.08-25.3-.49-37.08-2-6.71-5.68-13.05-11.5-17.14-5.44-3.81-12.5-5.53-18.91-3.3l.61,1.05c7-5.56,9.72-15.13,8.14-23.74s-7.86-15.79-16.65-17.46a24.89,24.89,0,0,0-22.76,7.45c-3.33,3.74-4.83,8.4-5.27,13.33a77.68,77.68,0,0,0,0,9.77l.45,10.66,2,48.07c0,.8,1.29.81,1.25,0Z"/><path class="cls-2" d="M247.62,404.13,246,364q-.42-9.87-.82-19.74c-.23-5.7-.4-11.86,2.25-17.09,3.69-7.31,12-11.45,20-11.49a19.76,19.76,0,0,1,19.08,13.38c3.14,9,.77,20-6.87,26.11-.49.39,0,1.24.61,1,5.62-2,11.71-.72,16.69,2.35,5.39,3.32,9.06,8.65,11.26,14.5a60.05,60.05,0,0,1,3.4,18.4,74.44,74.44,0,0,1-1.25,17.44c-2.22,11.22-7.4,22-16.26,29.5-7.94,6.68-18.51,9.6-28.78,9.05-11.61-.62-23-5.7-30.43-14.78-.51-.62-1.39.27-.88.89,13.66,16.68,40.55,20.18,58.19,7.86,9.7-6.77,15.79-17.59,18.63-28.9,3-11.89,3.07-25.3-.5-37.08-2-6.71-5.67-13.05-11.5-17.14-5.44-3.81-12.5-5.53-18.9-3.3l.6,1.05c7-5.56,9.72-15.13,8.14-23.74s-7.85-15.79-16.65-17.46a24.89,24.89,0,0,0-22.76,7.45c-3.33,3.74-4.83,8.4-5.27,13.33a75.84,75.84,0,0,0,0,9.77q.21,5.33.44,10.66l2,48.07c0,.8,1.28.81,1.25,0Z"/><path class="cls-3" d="M217.27,299a2.25,2.25,0,0,1,1.33,1,2.69,2.69,0,0,1-.86,3.71L209,309.33l-4.5-7,8.75-5.62a2.7,2.7,0,0,1,3.74.78A2.06,2.06,0,0,1,217.27,299Zm-8.88,4.51,6.19-4a.44.44,0,0,0,.13-.59.43.43,0,0,0-.59-.13l-6.2,4Zm7.86-2.16a.48.48,0,0,0-.65-.13l-6.16,3.94.51.78,6.16-4A.47.47,0,0,0,216.25,301.38Z"/><path class="cls-3" d="M217.46,294.22l8.8-3.6a3.32,3.32,0,0,1,4.57,1.61,3.12,3.12,0,0,1-.67,3.38l2.25,1.51-2.87,1.18L227.75,297l-5.36,2.19.72,1.76-2.49,1Zm10.37.23a.92.92,0,1,0-.69-1.7l-6.32,2.58.7,1.7Z"/><path class="cls-3" d="M246.38,289.94c.5,2.54-1.09,4.62-3.77,5.14l-4.78.94c-2.62.52-4.93-.79-5.42-3.33s1.08-4.61,3.76-5.14l4.79-.94C243.64,286.08,245.88,287.42,246.38,289.94Zm-2.68.53a1.85,1.85,0,0,0-2.27-1.46l-4.79.94a1.87,1.87,0,1,0,.72,3.67l4.78-.94A1.85,1.85,0,0,0,243.7,290.47Z"/><path class="cls-3" d="M261.87,290c-.05,2.58-2,4.28-4.76,4.23l-4.88-.08c-2.67-.05-4.65-1.81-4.6-4.4s2-4.28,4.75-4.23l4.88.08C260,285.67,261.91,287.44,261.87,290Zm-2.74,0a1.84,1.84,0,0,0-1.91-1.9l-4.88-.09a1.87,1.87,0,1,0-.07,3.74l4.88.09A1.84,1.84,0,0,0,259.13,290Z"/><path class="cls-3" d="M274.08,292.39l1.14,4.49-2.84-.58-.83-3.34-5.88-1.2-.62,3-2.65-.54,1.68-8.17,2.64.54-.59,2.89,5.95,1.22,2-2.62,2.84.59Z"/><path class="cls-3" d="M287.3,299.28l-.85,2.14-10.75-4.3,3.1-7.75,2.49,1L279.05,296Z"/><path class="cls-3" d="M300.47,299.87l-7.5,1.37-1.7,3-2.34-1.32,1.71-3L288,292.8l3.2,1.81,1.66,4.19,4.44-.75Z"/><path class="cls-3" d="M312.33,309.61,307,316l-2-1.69L302,305.08l-3.35,4-2-1.69L302,301l2,1.68,2.92,9.26,3.35-4Z"/><path class="cls-3" d="M320.12,327.63c-1.35,1.06-3,.78-4.82-1.44l-3.12-4c-2.11-2.68-1-4.27-.11-5l1.66,2.12c-.28.32-.14.86.4,1.54l3,3.83c.6.76,1,1,1.25.76s.22-.44-.17-.92l-3.85-4.9c-1.31-1.67-1.23-3.1-.06-4s2.86-1,4.74,1.33l3.07,3.9c2.13,2.71.76,4.34.12,4.84l-1.67-2.12c.24-.25.27-.69-.27-1.38l-3-3.85c-.63-.79-1-.8-1.18-.65s-.22.44.12.87l4,5.06C321.45,325.25,321.28,326.71,320.12,327.63Z"/><path class="cls-3" d="M329.26,338.92a3.33,3.33,0,0,1-4.58-1.58l-3.34-6-1.66.93L318.37,330l7.28-4.09,4.65,8.31A3.32,3.32,0,0,1,329.26,338.92ZM328,336.58a.92.92,0,0,0,.34-1.26l-3.34-6-1.6.9,3.34,6A.93.93,0,0,0,328,336.58Z"/><path class="cls-3" d="M331.67,342.43l-.78.3,3,7.76-2,.78-3-7.77-.76.29,3.26,8.54-2.12.8-4.21-11,7.79-3,4.22,11.05-2.12.8Z"/><path class="cls-3" d="M335.46,363.9l.61,2.71c-2.26.23-4.11-1.25-4.66-3.71l-1.07-4.76c-.58-2.6.66-4.94,3.19-5.51s4.63,1,5.23,3.62l1.07,4.76c.55,2.46-.49,4.59-2.62,5.34l-.61-2.71a1.9,1.9,0,0,0,.84-2.1l-1.06-4.75a1.86,1.86,0,0,0-2.26-1.49,1.88,1.88,0,0,0-1.5,2.33l1.07,4.76A2,2,0,0,0,335.46,363.9Z"/><path class="cls-3" d="M340.7,367.2l.33,2.67-8.27,1-.34-2.66Z"/><path class="cls-3" d="M334.73,382.79l-.23-8.12-1.34-.32-.07-2.7,8.4,2,.28,9.74-8.27,2.48-.08-2.71Zm2.31-.69,2.37-.7-.16-5.62-2.41-.57Z"/><path class="cls-3" d="M334.43,398.12l-2.29-.24,1.25-11.5,8.3.89-.29,2.67-6-.65Z"/><path class="cls-3" d="M336.42,406.44l-.8-.23-2.28,8-2.08-.59,2.28-8-.78-.23-2.51,8.79-2.18-.62,3.24-11.37,8,2.29-3.25,11.37-2.17-.62Z"/><path class="cls-3" d="M332.24,419.37l-1-.46-3.36,7.6-2.07-.91,3.35-7.61-2.44-1.07,1.08-2.46,7.64,3.37-4.77,10.82-2.07-.92Z"/><path class="cls-3" d="M326.29,431.63l-1-.6-4.39,7.05L319,436.89l4.39-7.06-2.26-1.41,1.41-2.28,7.08,4.41-6.24,10-1.92-1.2Z"/><path class="cls-3" d="M318.65,442.9l-.63-.54-5.38,6.34L311,447.3l5.38-6.34-.62-.52-5.91,7-1.73-1.47,7.65-9,6.37,5.39-7.65,9-1.73-1.47Z"/><path class="cls-3" d="M301.5,456.47l-2.12,1.8c-1.25-1.88-.8-4.21,1.12-5.85l3.71-3.16c2-1.73,4.68-1.72,6.36.25s1.32,4.55-.76,6.32L306.1,459c-1.92,1.63-4.29,1.71-6,.16l2.12-1.8a1.9,1.9,0,0,0,2.25-.23l3.71-3.16a1.84,1.84,0,0,0,.27-2.69,1.87,1.87,0,0,0-2.76-.24L302,454.2A2,2,0,0,0,301.5,456.47Z"/><path class="cls-3" d="M288.42,467.59l4.55-2.66-3-5.22,2.31-1.36,3.05,5.23,4.56-2.67,1.16,2-11.43,6.68Z"/><path class="cls-3" d="M273.66,469.59c-.59-1.61.2-3.1,2.87-4.13l4.75-1.72c3.21-1.17,4.37.39,4.75,1.44l-2.53.92c-.21-.36-.77-.4-1.58-.11l-4.59,1.67c-.9.33-1.22.64-1.11.95s.35.34.93.13l5.86-2.13c2-.72,3.33-.2,3.83,1.19s.08,3-2.74,4.09l-4.66,1.7c-3.25,1.18-4.36-.64-4.64-1.4l2.54-.92c.16.31.57.48,1.4.18l4.59-1.67c.95-.35,1.08-.69,1-.92s-.35-.34-.86-.16l-6,2.2C275.51,471.59,274.17,471,273.66,469.59Z"/></svg>