<svg id="Layer_1" data-name="Layer 1" xmlns="http://www.w3.org/2000/svg" width="600" height="600" viewBox="0 0 600 600"><defs><style>.cls-1{fill:#feeec2;}.cls-2{fill:#c4d8ef;}.cls-3{fill:#edab35;}.cls-4{fill:#1d1d1b;}</style></defs><path class="cls-1" d="M301.7,112V495.3a5.3,5.3,0,0,1-5.12,5c-1,.08-2,.16-3,.22a210.09,210.09,0,0,1-41.68-1.27q-5.81-.75-11.87-1.9a200,200,0,0,1-20.86-5.17,21.58,21.58,0,0,1-5.56-2.07,35.66,35.66,0,0,1-6.36-4.69c-.58-.51-1.15-1-1.71-1.52-1-1.28-2.06-2.45-2.79-3.25a3.79,3.79,0,0,0-2.64-1.62c-9.43.21-17.25-5.83-22-16.72a22.26,22.26,0,0,1-1.83-7.78l-.15-18.43q-.07-10.25-.16-20.51l-1.32-166.3c0-2,0-4-.05-6q-.24-30.6-.49-61.23a3.52,3.52,0,0,0,0-.56c-2.39-17.06,3.88-23.37,5.39-24.62a5.89,5.89,0,0,0,.67-.65c19.06-22.06,16.7-32.52,15.85-34.74a.46.46,0,0,0-.09-.15c-.75-.83-8.32-9.32-8.32-9.32Z"/><path class="cls-1" d="M410.6,456.77v-.07l.18-1.2s0,0,0-.06a.52.52,0,0,0,.05-.12l.06-.77v-1.22q.91-114.61,1.83-229.23l0-5V219l0-2.48q.12-17.22.27-34.47a5.27,5.27,0,0,1,0-.56c2.4-17.06-3.88-23.37-5.39-24.62a5.89,5.89,0,0,1-.67-.65c-16.5-19.1-16.95-29.5-16.21-33.39a5,5,0,0,1,1.38-2.54,1.59,1.59,0,0,1,.13-.13c3-3.23.26-8.15-4.43-8.15H291.08c-3.1,0-5.62,2.26-5.62,5V495.3a5.27,5.27,0,0,0,5.08,5l3,.23h0a209,209,0,0,0,53.55-3.17A200,200,0,0,0,368,492.2a21.68,21.68,0,0,0,5.57-2.07,35.61,35.61,0,0,0,6.35-4.69c.55-.48,1.07-.95,1.62-1.42l.06-.07c1.05-1.29,2.08-2.47,2.82-3.28a3.79,3.79,0,0,1,2.65-1.62c9.42.21,17.25-5.83,22-16.72a23,23,0,0,0,1.37-4.25c.06-.29.11-.57.16-.86A3.38,3.38,0,0,1,410.6,456.77Z"/><path class="cls-2" d="M285.94,120.26V112c0-7.17,2.82-13,6.3-13H400.53c5.25,0,8.31,12.7,5,21,0,.09-.07.18-.11.27Z"/><path class="cls-2" d="M291.68,99v21.3H184.88c0-.09-.07-.18-.1-.27-3-8.33-.26-21,4.43-21Z"/><path class="cls-3" d="M293.67,334.36s-5.7-6,8.86-40.26c6.91-16.27,8.91-25.68,9.1-31.08a1.24,1.24,0,0,0-2.47-.14c-1.17,13.15-2.94,41,2.49,46.21,7.15,6.85,14,14.13,9.29,20.55"/><path class="cls-3" d="M305.19,337s-3.82-7.34,19.64-36.24C336,287,340.5,278.52,342.17,273.38a1.24,1.24,0,0,0-2.33-.82c-4.76,12.32-14.16,38.61-10.39,45.1,5,8.57,9.56,17.45,3.25,22.32"/><path class="cls-3" d="M305,338.58s.37-8.27,35.15-21.52c16.53-6.3,24.7-11.38,28.72-15a1.24,1.24,0,0,0-1.61-1.88c-10.3,8.28-31.6,26.32-31.59,33.83,0,9.91-.47,19.89-8.37,21"/><path class="cls-3" d="M307.28,334.18s5-6.58,41.15,2.41c17.16,4.26,26.77,4.75,32.13,4.09a1.24,1.24,0,0,0-.25-2.46c-13.18.92-41,3.56-45.24,9.73-5.64,8.15-11.75,16.06-18.84,12.42"/><path class="cls-3" d="M315.08,332.94s7.89-2.5,32.32,25.59c11.61,13.34,19.2,19.25,24,21.79a1.24,1.24,0,0,0,1.2-2.16c-11.32-6.81-35.59-20.6-42.64-18-9.29,3.43-18.83,6.41-22.55-.64"/><path class="cls-3" d="M307.68,342.16s8.28-.23,24,33.52c7.47,16,13.13,23.81,17,27.56a1.24,1.24,0,0,0,1.76-1.74c-9-9.67-28.52-29.63-36-29.07-9.88.73-19.87.95-21.49-6.85"/><path class="cls-3" d="M306.34,341.25s7.27,3.95,4,41c-1.57,17.61-.57,27.18.91,32.38a1.24,1.24,0,0,0,2.39-.63c-2.94-12.88-9.83-39.93-16.59-43.2-8.92-4.32-17.68-9.13-15.17-16.69"/><path class="cls-3" d="M309.28,345.26s3.72,7.4-20.17,35.95c-11.34,13.56-16,22-17.74,27.1a1.24,1.24,0,0,0,2.32.85c4.94-12.25,14.73-38.39,11.05-44.94-4.85-8.63-9.3-17.59-2.92-22.37"/><path class="cls-3" d="M303.92,347.83s-3.52,7.5-40.73,6.4c-17.67-.52-27.16,1-32.26,2.83a1.24,1.24,0,0,0,.77,2.35c12.68-3.7,39.27-12.19,42.14-19.13,3.78-9.15,8.06-18.18,15.76-16.13"/><path class="cls-3" d="M305.33,347s-6.8,4.73-38.45-14.86c-15-9.31-24-12.71-29.34-13.72a1.24,1.24,0,0,0-.51,2.42c12.82,3.15,40.09,9.13,46,4.56,7.86-6,16.09-11.7,21.73-6.07"/><path class="cls-3" d="M300.42,347.87s-8.28,0-23.07-34.16c-7-16.22-12.47-24.16-16.26-28a1.24,1.24,0,0,0-1.8,1.7c8.73,9.91,27.7,30.39,35.21,30,9.89-.46,19.88-.42,21.29,7.43"/><circle class="cls-3" cx="309.05" cy="339.36" r="25.72"/><path class="cls-4" d="M215.07,398.75c3.9-1.86,7.93.37,10.07,4.83L232,418l-12.63,6-6.9-14.43C210.37,405.15,211.15,400.62,215.07,398.75Zm2.18,4.57A3.33,3.33,0,0,0,216,408l4.77,10,5.7-2.72-4.77-10C220.73,403.36,218.86,402.55,217.25,403.32Z"/><path class="cls-4" d="M207.45,398l-4.22-17.14c-1-3.93.75-7.1,3.64-7.81a5.27,5.27,0,0,1,5.53,2.27l3-3.63,1.37,5.6-2.59,2.85,2.56,10.42,3.11-.76,1.19,4.85Zm2.52-18.8a1.55,1.55,0,1,0-3,.74l3,12.28,3-.73Z"/><path class="cls-4" d="M201.66,370.83l-.55-4.94L215,364.35l.55,4.94Z"/><path class="cls-4" d="M200.86,337.32l14,.33-.11,4.88-9.12,15,8.76.21-.12,4.88-14-.33.11-4.88,9.14-14.95-8.78-.21Z"/><path class="cls-4" d="M213,314.47l7.67-2.07-1.21,5.24-5.7,1.51L211.21,330l5.07,1.18L215.15,336l-13.64-3.17,1.13-4.86,4.83,1.12,2.54-11-4.24-3.68,1.22-5.24Z"/><path class="cls-4" d="M210.17,301.94l3.88,1.44,2,2.84-1,2.8-2-2.82-.69,1.84-3.88-1.44Z"/><path class="cls-4" d="M211.22,299.32l2-4.56,12.85,5.59-2,4.56Z"/><path class="cls-4" d="M227.24,269.85l12,7.25-2.53,4.18-15.36,8.42,7.5,4.54-2.53,4.17-12-7.25,2.53-4.18,15.37-8.41L224.71,274Z"/><path class="cls-4" d="M254.87,246.6l-7.06,6.78,7,7.31-3.58,3.44-7-7.31-7.06,6.78-2.67-2.78,17.69-17Z"/><path class="cls-4" d="M276.71,227.94l7.41,11.87-4.22,2.64L277.15,238l-12.49,7.8,2.75,4.41-4.22,2.64L255.78,241l4.22-2.64,2.59,4.16,12.5-7.81-2.6-4.16Z"/><path class="cls-4" d="M286.71,227.91l.49,1.3,14.42-5.44,1.29,3.4-14.42,5.45.48,1.27,15.86-6,1.34,3.56-20.51,7.75-5-13.1,20.51-7.75,1.34,3.55Z"/><path class="cls-4" d="M337.21,222.08c.33,2.86-1.74,5-7,5.71l-9.3,1.09c-6.28.74-7.68-2.24-7.9-4.11l5-.58c.22.68,1.21.95,2.8.76l9-1c1.77-.21,2.48-.62,2.41-1.15s-.46-.69-1.61-.56l-11.47,1.35c-3.91.45-6.07-.9-6.35-3.36s1.21-5,6.75-5.71l9.14-1.07c6.35-.74,7.54,2.64,7.7,4l-5,.58c-.16-.56-.82-1-2.44-.8l-9,1.06c-1.87.21-2.24.72-2.19,1.14s.47.69,1.48.57l11.85-1.39C334.79,218.11,336.92,219.61,337.21,222.08Z"/><path class="cls-4" d="M339.6,220.29l.68-7.59,5,.44-.65,7.33a2.54,2.54,0,0,0,2.56,3l9,.81a2.53,2.53,0,0,0,3.06-2.52l.66-7.33,4.95.45-.68,7.59c-.39,4.32-3.54,6.32-8.35,5.89l-9-.8C342,227.14,339.22,224.61,339.6,220.29Z"/><path class="cls-4" d="M393.11,223.05,389,236.43,384.34,235,372.4,222.2l-2.56,8.37-4.67-1.42,4.1-13.39,4.67,1.42L385.87,230l2.57-8.4Z"/><path class="cls-1" d="M301.7,112V495.3a5.3,5.3,0,0,1-5.12,5c-1,.08-2,.16-3,.22a210.09,210.09,0,0,1-41.68-1.27q-5.81-.75-11.87-1.9a200,200,0,0,1-20.86-5.17,21.58,21.58,0,0,1-5.56-2.07,35.66,35.66,0,0,1-6.36-4.69c-.58-.51-1.15-1-1.71-1.52-1-1.28-2.06-2.45-2.79-3.25a3.79,3.79,0,0,0-2.64-1.62c-9.43.21-17.25-5.83-22-16.72a22.26,22.26,0,0,1-1.83-7.78l-.15-18.43q-.07-10.25-.16-20.51l-1.32-166.3c0-2,0-4-.05-6q-.24-30.6-.49-61.23a3.52,3.52,0,0,0,0-.56c-2.39-17.06,3.88-23.37,5.39-24.62a5.89,5.89,0,0,0,.67-.65c19.06-22.06,16.7-32.52,15.85-34.74a.46.46,0,0,0-.09-.15c-.75-.83-8.32-9.32-8.32-9.32Z"/><path class="cls-1" d="M410.6,456.77v-.07l.18-1.2s0,0,0-.06a.52.52,0,0,0,.05-.12l.06-.77v-1.22q.91-114.61,1.83-229.23l0-5V219l0-2.48q.12-17.22.27-34.47a5.27,5.27,0,0,1,0-.56c2.4-17.06-3.88-23.37-5.39-24.62a5.89,5.89,0,0,1-.67-.65c-16.5-19.1-16.95-29.5-16.21-33.39a5,5,0,0,1,1.38-2.54,1.59,1.59,0,0,1,.13-.13c3-3.23.26-8.15-4.43-8.15H291.08c-3.1,0-5.62,2.26-5.62,5V495.3a5.27,5.27,0,0,0,5.08,5l3,.23h0a209,209,0,0,0,53.55-3.17A200,200,0,0,0,368,492.2a21.68,21.68,0,0,0,5.57-2.07,35.61,35.61,0,0,0,6.35-4.69c.55-.48,1.07-.95,1.62-1.42l.06-.07c1.05-1.29,2.08-2.47,2.82-3.28a3.79,3.79,0,0,1,2.65-1.62c9.42.21,17.25-5.83,22-16.72a23,23,0,0,0,1.37-4.25c.06-.29.11-.57.16-.86A3.38,3.38,0,0,1,410.6,456.77Z"/><path class="cls-2" d="M285.94,120.26V112c0-7.17,2.82-13,6.3-13H400.53c5.25,0,8.31,12.7,5,21,0,.09-.07.18-.11.27Z"/><path class="cls-2" d="M291.68,99v21.3H184.88c0-.09-.07-.18-.1-.27-3-8.33-.26-21,4.43-21Z"/><path class="cls-3" d="M293.67,334.36s-5.7-6,8.86-40.26c6.91-16.27,8.91-25.68,9.1-31.08a1.24,1.24,0,0,0-2.47-.14c-1.17,13.15-2.94,41,2.49,46.21,7.15,6.85,14,14.13,9.29,20.55"/><path class="cls-3" d="M305.19,337s-3.82-7.34,19.64-36.24C336,287,340.5,278.52,342.17,273.38a1.24,1.24,0,0,0-2.33-.82c-4.76,12.32-14.16,38.61-10.39,45.1,5,8.57,9.56,17.45,3.25,22.32"/><path class="cls-3" d="M305,338.58s.37-8.27,35.15-21.52c16.53-6.3,24.7-11.38,28.72-15a1.24,1.24,0,0,0-1.61-1.88c-10.3,8.28-31.6,26.32-31.59,33.83,0,9.91-.47,19.89-8.37,21"/><path class="cls-3" d="M307.28,334.18s5-6.58,41.15,2.41c17.16,4.26,26.77,4.75,32.13,4.09a1.24,1.24,0,0,0-.25-2.46c-13.18.92-41,3.56-45.24,9.73-5.64,8.15-11.75,16.06-18.84,12.42"/><path class="cls-3" d="M315.08,332.94s7.89-2.5,32.32,25.59c11.61,13.34,19.2,19.25,24,21.79a1.24,1.24,0,0,0,1.2-2.16c-11.32-6.81-35.59-20.6-42.64-18-9.29,3.43-18.83,6.41-22.55-.64"/><path class="cls-3" d="M307.68,342.16s8.28-.23,24,33.52c7.47,16,13.13,23.81,17,27.56a1.24,1.24,0,0,0,1.76-1.74c-9-9.67-28.52-29.63-36-29.07-9.88.73-19.87.95-21.49-6.85"/><path class="cls-3" d="M306.34,341.25s7.27,3.95,4,41c-1.57,17.61-.57,27.18.91,32.38a1.24,1.24,0,0,0,2.39-.63c-2.94-12.88-9.83-39.93-16.59-43.2-8.92-4.32-17.68-9.13-15.17-16.69"/><path class="cls-3" d="M309.28,345.26s3.72,7.4-20.17,35.95c-11.34,13.56-16,22-17.74,27.1a1.24,1.24,0,0,0,2.32.85c4.94-12.25,14.73-38.39,11.05-44.94-4.85-8.63-9.3-17.59-2.92-22.37"/><path class="cls-3" d="M303.92,347.83s-3.52,7.5-40.73,6.4c-17.67-.52-27.16,1-32.26,2.83a1.24,1.24,0,0,0,.77,2.35c12.68-3.7,39.27-12.19,42.14-19.13,3.78-9.15,8.06-18.18,15.76-16.13"/><path class="cls-3" d="M305.33,347s-6.8,4.73-38.45-14.86c-15-9.31-24-12.71-29.34-13.72a1.24,1.24,0,0,0-.51,2.42c12.82,3.15,40.09,9.13,46,4.56,7.86-6,16.09-11.7,21.73-6.07"/><path class="cls-3" d="M300.42,347.87s-8.28,0-23.07-34.16c-7-16.22-12.47-24.16-16.26-28a1.24,1.24,0,0,0-1.8,1.7c8.73,9.91,27.7,30.39,35.21,30,9.89-.46,19.88-.42,21.29,7.43"/><circle class="cls-3" cx="309.05" cy="339.36" r="25.72"/><path class="cls-4" d="M215.07,398.75c3.9-1.86,7.93.37,10.07,4.83L232,418l-12.63,6-6.9-14.43C210.37,405.15,211.15,400.62,215.07,398.75Zm2.18,4.57A3.33,3.33,0,0,0,216,408l4.77,10,5.7-2.72-4.77-10C220.73,403.36,218.86,402.55,217.25,403.32Z"/><path class="cls-4" d="M207.45,398l-4.22-17.14c-1-3.93.75-7.1,3.64-7.81a5.27,5.27,0,0,1,5.53,2.27l3-3.63,1.37,5.6-2.59,2.85,2.56,10.42,3.11-.76,1.19,4.85Zm2.52-18.8a1.55,1.55,0,1,0-3,.74l3,12.28,3-.73Z"/><path class="cls-4" d="M201.66,370.83l-.55-4.94L215,364.35l.55,4.94Z"/><path class="cls-4" d="M200.86,337.32l14,.33-.11,4.88-9.12,15,8.76.21-.12,4.88-14-.33.11-4.88,9.14-14.95-8.78-.21Z"/><path class="cls-4" d="M213,314.47l7.67-2.07-1.21,5.24-5.7,1.51L211.21,330l5.07,1.18L215.15,336l-13.64-3.17,1.13-4.86,4.83,1.12,2.54-11-4.24-3.68,1.22-5.24Z"/><path class="cls-4" d="M210.17,301.94l3.88,1.44,2,2.84-1,2.8-2-2.82-.69,1.84-3.88-1.44Z"/><path class="cls-4" d="M211.22,299.32l2-4.56,12.85,5.59-2,4.56Z"/><path class="cls-4" d="M227.24,269.85l12,7.25-2.53,4.18-15.36,8.42,7.5,4.54-2.53,4.17-12-7.25,2.53-4.18,15.37-8.41L224.71,274Z"/><path class="cls-4" d="M254.87,246.6l-7.06,6.78,7,7.31-3.58,3.44-7-7.31-7.06,6.78-2.67-2.78,17.69-17Z"/><path class="cls-4" d="M276.71,227.94l7.41,11.87-4.22,2.64L277.15,238l-12.49,7.8,2.75,4.41-4.22,2.64L255.78,241l4.22-2.64,2.59,4.16,12.5-7.81-2.6-4.16Z"/><path class="cls-4" d="M286.71,227.91l.49,1.3,14.42-5.44,1.29,3.4-14.42,5.45.48,1.27,15.86-6,1.34,3.56-20.51,7.75-5-13.1,20.51-7.75,1.34,3.55Z"/><path class="cls-4" d="M337.21,222.08c.33,2.86-1.74,5-7,5.71l-9.3,1.09c-6.28.74-7.68-2.24-7.9-4.11l5-.58c.22.68,1.21.95,2.8.76l9-1c1.77-.21,2.48-.62,2.41-1.15s-.46-.69-1.61-.56l-11.47,1.35c-3.91.45-6.07-.9-6.35-3.36s1.21-5,6.75-5.71l9.14-1.07c6.35-.74,7.54,2.64,7.7,4l-5,.58c-.16-.56-.82-1-2.44-.8l-9,1.06c-1.87.21-2.24.72-2.19,1.14s.47.69,1.48.57l11.85-1.39C334.79,218.11,336.92,219.61,337.21,222.08Z"/><path class="cls-4" d="M339.6,220.29l.68-7.59,5,.44-.65,7.33a2.54,2.54,0,0,0,2.56,3l9,.81a2.53,2.53,0,0,0,3.06-2.52l.66-7.33,4.95.45-.68,7.59c-.39,4.32-3.54,6.32-8.35,5.89l-9-.8C342,227.14,339.22,224.61,339.6,220.29Z"/><path class="cls-4" d="M393.11,223.05,389,236.43,384.34,235,372.4,222.2l-2.56,8.37-4.67-1.42,4.1-13.39,4.67,1.42L385.87,230l2.57-8.4Z"/></svg>