<svg id="Layer_1" data-name="Layer 1" xmlns="http://www.w3.org/2000/svg" width="600" height="600" viewBox="0 0 600 600"><defs><style>.cls-1{fill:#edab35;}.cls-2{fill:#1f2948;}.cls-3{fill:#1d1d1b;}</style></defs><path class="cls-1" d="M313.13,19V580.34c-32.15,2-58,0-76,0-11.63,0-20.41-1.31-27-3.39-24.77-7.83-18.81-26.65-18.12-28.59A1.35,1.35,0,0,0,192,548V294a.27.27,0,0,0,0-.13c-.51-3.67-.58-10.71,5.56-18.46a46.83,46.83,0,0,1,13.25-10.95,92,92,0,0,0,15.29-10.78,58.19,58.19,0,0,0,13.63-17,1,1,0,0,0,.09-.69c-12.28-53.46,13.93-130.24,14.77-132.67a.34.34,0,0,1,.06-.12c.76-1.55,17.41-35.6,7.78-44.83-7.52-7.21,2.19-17.18,7.2-21.49a1.05,1.05,0,0,0,.37-1.16.17.17,0,0,0,0-.1,1.59,1.59,0,0,0-1.53-.88H256.26a1.47,1.47,0,0,1-1.63-1.32v-.1a7.64,7.64,0,0,1,1-3.33c.1-.17.21-.34.32-.5s.19-.28.3-.42a3.65,3.65,0,0,1,.24-.31l.19-.23c.14-.16.28-.31.43-.46a17.76,17.76,0,0,1,5.23-3.5l.72-.32c.95-.42,2-.8,3-1.16.86-.28,1.76-.55,2.66-.8s1.77-.45,2.68-.66c1.23-.28,2.5-.53,3.79-.76s2.61-.43,3.94-.61c1.67-.23,3.35-.43,5-.59,1-.1,2-.18,3-.27h0c1.67-.14,3.32-.24,4.94-.32l1.93-.09,1.89-.07c4.91-.16,9.27-.14,12.37-.08h0l1.5,0,.64,0,1.07,0h0Z"/><path class="cls-1" d="M313.14,580.34c32.16,2,58,0,76.05,0,55.33,0,46-29.52,45.12-32a.92.92,0,0,1-.06-.33V294s0-.09,0-.13c.52-3.67.6-10.71-5.55-18.47a47.09,47.09,0,0,0-13.25-10.94,92.47,92.47,0,0,1-15.3-10.78,58.29,58.29,0,0,1-13.62-17,1,1,0,0,1-.09-.69c12.28-53.46-13.94-130.24-14.77-132.67l-.05-.12c-.77-1.55-17.42-35.6-7.79-44.83,7.52-7.21-2.18-17.18-7.2-21.49-.95-.82-.21-2.14,1.2-2.14H370a1.48,1.48,0,0,0,1.63-1.32C370.86,16,313.14,19,313.14,19Z"/><path class="cls-2" d="M313.14,12V32.64a1.85,1.85,0,0,1-1.62,2H256.26a1.88,1.88,0,0,1-1.63-2.09c.93-24.46,47.82-23,57-22.52A1.85,1.85,0,0,1,313.14,12Z"/><path class="cls-2" d="M369.89,34.64H310.34a1.89,1.89,0,0,1-1.74-2V12a1.88,1.88,0,0,1,1.65-2c9.86-.51,60.41-1.94,61.4,22.52A1.92,1.92,0,0,1,369.89,34.64Z"/><path class="cls-3" d="M226.23,398.63l.09,3.89-16.44.38-.33-14.12,3.81-.09.24,10.23Z"/><path class="cls-3" d="M231.25,391.33l.3,1.39,11.55-2.48.77,3.59-11.55,2.48.28,1.34,12.71-2.73.8,3.75-16.43,3.53-3-13.82,16.43-3.52.81,3.75Z"/><path class="cls-3" d="M248.8,386.59l.81,1.76,10.73-4.94,1.6,3.49-10.73,4.93,1.89,4.11-3.46,1.59-5.9-12.84,15.26-7,1.6,3.48Z"/><path class="cls-3" d="M264.8,377.87l1.07,1.61,9.84-6.56,2.12,3.19L268,382.67l2.51,3.76-3.17,2.11L259.5,376.8l14-9.33,2.13,3.19Z"/><path class="cls-3" d="M281.67,367.7l.58,1.29,10.79-4.8,1.49,3.36-10.79,4.79.56,1.26,11.86-5.28,1.56,3.5-15.35,6.83-5.74-12.91L292,358.92l1.56,3.5Z"/><path class="cls-3" d="M319.18,358.79a4.27,4.27,0,0,1,1.44,2.31c.59,2.44-.62,4.78-2.71,5.29l-14.37,3.49-3.34-13.72,14.38-3.49c2.08-.51,4.24,1,4.83,3.47A3.89,3.89,0,0,1,319.18,358.79Zm-14.1,1.69L315.25,358a.7.7,0,0,0,.42-.85.68.68,0,0,0-.76-.57l-10.17,2.47Zm11.72,1.36a.75.75,0,0,0-.84-.6l-10.1,2.45.38,1.53,10.11-2.46A.72.72,0,0,0,316.8,361.84Z"/><path class="cls-3" d="M338.53,359.41l.5,3.86-16.3,2.13-1.83-14,3.78-.5L326,361Z"/><path class="cls-3" d="M359.33,355.24c.2,4.37-2.44,7.42-6.32,7.59l-6.92.3c-3.79.17-6.77-2.63-7-7s2.45-7.42,6.33-7.59l6.92-.3C356.25,348.07,359.14,350.89,359.33,355.24Zm-3.87.17a2.91,2.91,0,0,0-2.91-3l-6.92.3a3.2,3.2,0,0,0,.28,6.33l6.92-.3A2.89,2.89,0,0,0,355.46,355.41Z"/><path class="cls-3" d="M380.29,348.82l-.44,14.12-3.74-.12-11.34-9.2-.28,8.84-3.74-.12.44-14.12,3.74.11,11.35,9.23.27-8.86Z"/><path class="cls-3" d="M400.88,357.74c-.4,4.34-3.51,6.77-7.28,6.43l-12.21-1.11L382.68,349l12.21,1.11C398.67,350.45,401.28,353.38,400.88,357.74Zm-3.86-.35a2.93,2.93,0,0,0-2.49-3.43l-8.43-.77-.58,6.35,8.43.77A3,3,0,0,0,397,357.39Z"/><path class="cls-3" d="M406.65,355.3l-.19,1.4,11.69,1.63-.51,3.64L406,360.33l-.19,1.36,12.86,1.8-.53,3.8L401.45,365l2-14L420,353.3l-.53,3.79Z"/><circle class="cls-3" cx="378.43" cy="530.87" r="29.78"/><circle class="cls-3" cx="378.43" cy="465.88" r="23.73"/><circle class="cls-3" cx="380.35" cy="412.03" r="18.65"/></svg>