<svg id="Layer_1" data-name="Layer 1" xmlns="http://www.w3.org/2000/svg" width="600" height="600" viewBox="0 0 600 600"><defs><style>.cls-1{fill:#1f2948;}.cls-2{fill:#d12d26;}.cls-3{fill:#fff;}.cls-4{fill:none;stroke:#fff;stroke-miterlimit:10;}</style></defs><path class="cls-1" d="M300,19V580.34c-32.16,2-58,0-76,0-11.64,0-20.41-1.31-27-3.39-24.77-7.83-18.8-26.65-18.11-28.59a1.35,1.35,0,0,0,.06-.34V294a.27.27,0,0,0,0-.13c-.51-3.67-.58-10.71,5.56-18.46a46.83,46.83,0,0,1,13.25-10.95A92,92,0,0,0,213,253.64a58.19,58.19,0,0,0,13.63-17,1,1,0,0,0,.09-.69c-12.29-53.46,13.93-130.24,14.77-132.67a.31.31,0,0,1,0-.12c.76-1.55,17.42-35.6,7.78-44.83-7.51-7.21,2.2-17.18,7.21-21.49a1.05,1.05,0,0,0,.37-1.16.29.29,0,0,0,0-.1,1.62,1.62,0,0,0-1.54-.88H243.12a1.49,1.49,0,0,1-1.64-1.32v-.1a7.79,7.79,0,0,1,1-3.33,5.29,5.29,0,0,1,.32-.5l.29-.42a3.76,3.76,0,0,1,.25-.31l.19-.23a6.17,6.17,0,0,1,.43-.46,17.76,17.76,0,0,1,5.23-3.5l.72-.32c1-.42,2-.8,3-1.16.86-.28,1.75-.55,2.66-.8s1.77-.45,2.68-.66c1.22-.28,2.5-.53,3.78-.76s2.62-.43,3.95-.61c1.67-.23,3.35-.43,5-.59,1-.1,2-.18,3-.27h0c1.67-.14,3.32-.24,4.94-.32L281,19l1.89-.07c4.91-.16,9.27-.14,12.37-.08h0l1.49,0,.65,0,1.06,0h.05Z"/><path class="cls-1" d="M300,580.34c32.15,2,58,0,76.05,0,55.33,0,46-29.52,45.12-32a.92.92,0,0,1-.06-.33V294a.53.53,0,0,1,0-.13c.52-3.67.59-10.71-5.56-18.47a46.92,46.92,0,0,0-13.24-10.94A92.47,92.47,0,0,1,387,253.64a58.29,58.29,0,0,1-13.62-17,1,1,0,0,1-.09-.69c12.27-53.46-13.94-130.24-14.78-132.67a.42.42,0,0,0,0-.12c-.77-1.55-17.43-35.6-7.79-44.83,7.52-7.21-2.19-17.18-7.2-21.49-.95-.82-.21-2.14,1.2-2.14h12.17a1.48,1.48,0,0,0,1.64-1.32C357.72,16,300,19,300,19Z"/><path class="cls-2" d="M300,20.19V33.36a1.48,1.48,0,0,1-1.62,1.28H243.12a1.48,1.48,0,0,1-1.63-1.34c.93-15.62,47.82-14.71,57-14.38A1.46,1.46,0,0,1,300,20.19Z"/><path class="cls-2" d="M356.72,34.64H296.14c-1,0-1.78-.57-1.78-1.28V20.19c0-.68.74-1.24,1.69-1.27,10-.33,61.45-1.24,62.45,14.39C358.55,34,357.73,34.64,356.72,34.64Z"/><path class="cls-3" d="M283.9,33.19c-3.42,8-6.59,16.08-6.9,24.92-.27,8,2.2,16.4,7.72,22.4S298,88.13,305.27,90.66c3.53,1.23,7.12,2.72,9.92,5.26a19.65,19.65,0,0,1,5.29,8.3c5.76,16.8-5.43,33.52-10.82,48.79-3,8.6-4.87,18.08-2.55,27.09a36.72,36.72,0,0,0,12.73,19.23c14.06,11.4,32.85,11.56,49.8,8.08,2.31-.47,4.62-1,6.91-1.59,1-.26.85-1.48.55-2.29-.25-.66-1.27-2.51-2.27-2.26-16.47,4.13-35.4,6.55-50.63-2.77-5.76-3.52-10.8-8.55-13.2-15-3.06-8.2-1.42-17.33,1.22-25.42,5.19-15.92,15.45-30.93,12.49-48.41-1.25-7.42-5-14.6-11.2-19s-13.95-5.47-20.79-8.49A20.19,20.19,0,0,1,284.45,76a22,22,0,0,1-3.79-9.58c-1.31-7.84.78-15.91,3.62-23.19.8-2.06,1.67-4.09,2.53-6.12a3.29,3.29,0,0,0-.68-3.13c-.3-.39-1.79-1.81-2.23-.77Z"/><path class="cls-4" d="M213.91,525.41c0,6.76-1.51,11.23-5,11.42H202.8c-4.15,0-4.83-7.33-4.83-11.75h3.27c.09,1.64.71,2.54,1.76,2.54h5.92c1.17,0,1.66-.76,1.66-2,0-.94-.25-1.74-1-1.74H202c-2.57,0-3.88-3.76-3.88-9.59S199.3,502.9,203,502.8h6c4.19,0,4.71,8.23,4.71,11.42h-3.27c-.06-1.36-.46-2.54-1.53-2.54H203c-1.23,0-1.51,1.09-1.51,2.07s.25,1.74.92,1.74h7.81C212.64,515.49,213.91,519.58,213.91,525.41Z"/><path class="cls-4" d="M215.17,503.37h3.25v32.89h-3.25Z"/><path class="cls-4" d="M223.16,512.29v3.29h10.09v8.56H223.16v3.19h11.1v8.93H219.9V503.37h14.36v8.92Z"/><path class="cls-4" d="M235.74,503.37h11.55c2.65,0,4.4,5.68,4.4,12.68,0,4.94-.87,9.22-2.31,11.33l1.84,8.88h-3.78l-1.4-7.52h-7v7.52h-3.27Zm11.55,16.3c.63,0,1.14-1.59,1.14-3.62s-.51-3.61-1.14-3.61H239v7.23Z"/><path class="cls-4" d="M253,503.37h11.56c2.65,0,4.39,5.68,4.39,12.68,0,4.94-.87,9.22-2.3,11.33l1.83,8.88H264.7l-1.41-7.52h-7v7.52H253Zm11.56,16.3c.62,0,1.14-1.59,1.14-3.62s-.52-3.61-1.14-3.61h-8.29v7.23Z"/><path class="cls-4" d="M283.24,531.05h-9.87l-.43,5.21h-3.29l2.74-32.89h11.84L287,536.26h-3.3Zm-.76-9.17-.77-9.44h-6.83l-.77,9.44Z"/><path class="cls-4" d="M321.11,503.37v32.89h-3.2L308,515.68v20.58h-3.2V503.37H308L317.91,524V503.37Z"/><path class="cls-4" d="M325.84,512.29v3.29h10.09v8.56H325.84v3.19h11.1v8.93H322.58V503.37h14.36v8.92Z"/><path class="cls-4" d="M355.14,503.37l-5.5,32.89H343.3v-.18l-5.47-32.71h3.5l3.91,23.82h2.47l3.91-23.82Z"/><path class="cls-4" d="M367.54,531.05h-9.87l-.43,5.21H354l2.74-32.89h11.84l2.74,32.89H368Zm-.75-9.17-.77-9.44h-6.84l-.77,9.44Z"/><path class="cls-4" d="M388.33,519.81c0,10.16-2.45,16.45-5.7,16.45H372.16V503.37h10.47C385.88,503.37,388.33,509.62,388.33,519.81Zm-3.31,0c0-4.23-1-7.42-2.39-7.42H375.4v14.85h7.23C384,527.15,385,524,385,519.81Z"/><path class="cls-4" d="M401.92,531.05H392l-.42,5.21h-3.29l2.74-32.89h11.84l2.74,32.89h-3.3Zm-.76-9.17-.77-9.44h-6.84l-.76,9.44Z"/><path class="cls-2" d="M217.64,481.38a5,5,0,0,1-5.31,4.93h-10v2.92h-3.94V476.44h14A5,5,0,0,1,217.64,481.38Zm-3.94,0a1.39,1.39,0,0,0-1.37-1.41h-10v2.81h10A1.39,1.39,0,0,0,213.7,481.38Z"/><path class="cls-2" d="M233.53,487.2H221.59l-.52,2h-4l3.31-12.79h14.32L238,489.23h-4Zm-.91-3.56-.93-3.67h-8.27l-.93,3.67Z"/><path class="cls-2" d="M256.09,485.7v3.53h-17V476.44H243v9.26Z"/><path class="cls-2" d="M261.81,479.91v1.28H274v3.33H261.81v1.24h13.42v3.47H257.87V476.44h17.36v3.47Z"/><path class="cls-2" d="M297.85,487.2H285.91l-.52,2h-4l3.31-12.79h14.32l3.31,12.79h-4Zm-.92-3.56L296,480h-8.27l-.93,3.67Z"/><path class="cls-2" d="M320.41,485.7v3.53h-17V476.44h3.94v9.26Z"/><path class="cls-2" d="M326.13,479.91v1.28h12.2v3.33h-12.2v1.24h13.42v3.47H322.19V476.44h17.36v3.47Z"/><path class="cls-2" d="M182.68,428.56c9-5.1,16.72-12,25.65-17.16a42.49,42.49,0,0,1,13.39-5.31,32.34,32.34,0,0,1,16,1.26c10.59,3.46,19.63,10.44,30.34,13.57,9.72,2.85,20.79,2.59,27.76-5.75,3.27-3.92,5.28-8.71,6.91-13.5,2-5.88,3.68-11.89,5.18-17.93s2.81-12.34,3.85-18.57c.9-5.36,1.41-10.78,2.46-16.11.87-4.4,2.17-9.08,5.07-12.61,3.37-4.11,8.23-5.42,13.38-5.36,5.37.07,10.66,1,16-.15A33.16,33.16,0,0,0,361.38,325c18.59-13.87,21.17-38.14,25.14-59.24.55-3,1.15-5.88,1.84-8.8.23-1-.67-2.18-1.28-2.87-.21-.24-1.7-1.69-1.92-.77-5.08,21.62-5.3,46.61-21.88,63.41a37.91,37.91,0,0,1-11.57,8.18,31.3,31.3,0,0,1-14.79,2.31c-5.34-.31-11.07-1.1-16,1.45-4,2-6.49,5.89-8,9.95a60.69,60.69,0,0,0-2.9,13.4c-.84,6.26-1.85,12.49-3.14,18.68s-2.8,12.34-4.55,18.41A99.28,99.28,0,0,1,296.76,405c-2.23,4.6-5.41,8.76-10,11.16s-9.67,2.69-14.62,2c-11-1.5-20.24-8-30.19-12.49-5.12-2.29-10.6-4.11-16.26-4.27a34.12,34.12,0,0,0-13.94,2.79c-9.41,3.91-17.27,10.7-25.63,16.35-2.06,1.4-4.17,2.74-6.34,4-1,.58,1.69,4.76,2.91,4.07Z"/></svg>