<svg id="Layer_1" data-name="Layer 1" xmlns="http://www.w3.org/2000/svg" width="600" height="600" viewBox="0 0 600 600"><defs><style>.cls-1,.cls-4{fill:#fff;}.cls-1{stroke:#fff;stroke-miterlimit:10;}.cls-2{fill:#c4d8ef;}.cls-3{fill:#fffffe;}</style></defs><line class="cls-1" x1="319.58" y1="342.38" x2="319.58" y2="573.19"/><line class="cls-1" x1="327.5" y1="342.38" x2="327.5" y2="573.19"/><line class="cls-1" x1="335.42" y1="342.38" x2="335.42" y2="573.19"/><line class="cls-1" x1="343.34" y1="342.38" x2="343.34" y2="573.19"/><line class="cls-1" x1="351.26" y1="342.38" x2="351.26" y2="573.19"/><path class="cls-2" d="M314.36,132V515.31a5.3,5.3,0,0,1-5.12,5c-1,.08-2,.16-3,.22a210.09,210.09,0,0,1-41.68-1.27q-5.81-.75-11.87-1.9a200,200,0,0,1-20.86-5.17,21.58,21.58,0,0,1-5.56-2.07,35.66,35.66,0,0,1-6.36-4.69c-.58-.51-1.15-1-1.71-1.52-1-1.28-2-2.44-2.79-3.25a3.79,3.79,0,0,0-2.64-1.62c-9.43.21-17.25-5.83-22-16.72a22.21,22.21,0,0,1-1.83-7.78l-.15-18.43q-.07-10.25-.16-20.51l-1.32-166.3c0-2,0-4-.05-6q-.24-30.6-.49-61.23a3.52,3.52,0,0,0,0-.56c-2.39-17.06,3.88-23.37,5.39-24.62a5.89,5.89,0,0,0,.67-.65c19.06-22.06,16.7-32.52,15.85-34.74a.46.46,0,0,0-.09-.15L200.2,132Z"/><path class="cls-2" d="M423.26,476.78v-.07l.17-1.19a.64.64,0,0,1,0-.07,1.22,1.22,0,0,0,.06-.12c0-.26,0-.52.05-.77v-1.22q.92-114.61,1.83-229.23l0-5V239l0-2.48q.12-17.22.27-34.47a5.27,5.27,0,0,1,0-.56c2.4-17.06-3.88-23.37-5.39-24.62a5.89,5.89,0,0,1-.67-.65c-16.5-19.1-17-29.5-16.21-33.39a5,5,0,0,1,1.38-2.54l.13-.13c3-3.23.26-8.15-4.43-8.15H303.74c-3.1,0-5.62,2.26-5.62,5V515.31a5.27,5.27,0,0,0,5.08,5l3,.23h0a209,209,0,0,0,53.55-3.17,200,200,0,0,0,20.86-5.17,21.68,21.68,0,0,0,5.57-2.07,35.61,35.61,0,0,0,6.35-4.69c.55-.48,1.07-.95,1.62-1.42l.06-.07c1.05-1.29,2.09-2.47,2.82-3.28a3.79,3.79,0,0,1,2.65-1.62c9.42.21,17.25-5.83,22-16.72a23,23,0,0,0,1.37-4.25c.06-.29.11-.57.16-.86A3.38,3.38,0,0,1,423.26,476.78Z"/><path d="M296,142.67v-8.3c0-7.17,2.66-13,5.93-13h102c4.94,0,7.82,12.7,4.66,21,0,.09-.06.19-.1.28Z"/><path d="M301.4,121.37v21.3H200.82l-.09-.28c-2.83-8.32-.25-21,4.17-21Z"/><path class="cls-3" d="M195.56,238.67c13-12.21,32.14-9.34,47.86-5.65,9.27,2.18,18.51,4.26,27.94,5.58,4.7.66,9.42,1.18,14.15,1.53a53.82,53.82,0,0,0,12.81-.23c7.95-1.34,13.83-6.27,18.85-12.3,4.89-5.87,9-12.45,15.22-17.07,5.92-4.4,13.95-7.36,20.86-3.39,3.08,1.76,5.19,4.63,7.19,7.47a60.93,60.93,0,0,0,7,8.72,34.76,34.76,0,0,0,20.81,9.35c8.57.85,17.16-1.15,25-4.61,2-.88,3.93-1.86,5.84-2.91.47-.27-2.06-4.56-2.75-4.18-14.37,7.93-33.36,11.73-47.59,1.28-6-4.42-8.92-11.5-14.27-16.56a16,16,0,0,0-9.35-4.56,19.47,19.47,0,0,0-10.37,2.12c-7.12,3.46-11.95,9.52-16.67,15.64-4.5,5.81-9.3,11.93-16.19,15-8.25,3.66-18,2.32-26.65,1.35A238.14,238.14,0,0,1,247,230.3c-16-3.77-34.61-8.75-49.72.72a28.91,28.91,0,0,0-4.48,3.48c-.65.61,2.45,4.46,2.75,4.17Z"/><path class="cls-3" d="M195.47,249.83c12.95-12.21,32.13-9.34,47.85-5.65,9.27,2.18,18.51,4.26,27.94,5.58,4.7.65,9.42,1.18,14.15,1.53a53.3,53.3,0,0,0,12.81-.24c8-1.33,13.84-6.26,18.86-12.29,4.88-5.87,9-12.45,15.22-17.07,5.91-4.4,13.94-7.36,20.85-3.39,3.06,1.75,5.22,4.6,7.22,7.43a62.26,62.26,0,0,0,6.93,8.75,34.58,34.58,0,0,0,20.81,9.36c8.57.85,17.17-1.15,25-4.61,2-.88,3.93-1.86,5.84-2.92.59-.32-1.88-4.67-2.56-4.29C402,240,383,243.76,368.78,233.31c-6-4.43-8.94-11.47-14.27-16.56a15.93,15.93,0,0,0-9.35-4.57,19.58,19.58,0,0,0-10.38,2.12c-7.12,3.46-11.95,9.53-16.67,15.64-4.49,5.81-9.29,11.93-16.19,15-8.25,3.66-17.95,2.32-26.63,1.35a237.42,237.42,0,0,1-28.17-4.93c-16-3.77-34.63-8.74-49.73.72a29.05,29.05,0,0,0-4.48,3.48c-.73.69,2.26,4.58,2.56,4.29Z"/><path class="cls-3" d="M195.82,260.46c12.75-12,31.57-8.61,46.94-5A286.94,286.94,0,0,0,270.92,261c4.67.64,9.37,1.15,14.08,1.47a51.51,51.51,0,0,0,13.3-.49c8.05-1.59,14.15-6.56,19.31-12.71,4.82-5.74,8.82-12.28,14.88-16.84,5.49-4.13,12.94-7,19.18-2.76,2.79,1.92,4.81,4.82,6.74,7.55a49.89,49.89,0,0,0,7.11,8.69A37.22,37.22,0,0,0,387.2,255c8.8.79,17.69-1.29,25.71-4.84,2-.88,3.93-1.86,5.84-2.91,1.06-.59,1.81-1.68,1.14-2.88a2.71,2.71,0,0,0-3.34-1.06c-7.58,4.18-16,7.33-24.74,7.53-7.59.17-15.42-2-21.41-6.72-5.75-4.57-8.46-11.77-14-16.49a17.85,17.85,0,0,0-10.44-4.4,22.28,22.28,0,0,0-11.15,2.45c-7.23,3.57-12.26,9.53-17.1,15.79-4.41,5.72-9.07,12-15.92,14.89a30,30,0,0,1-12.38,2c-4.59-.08-9.19-.57-13.76-1.1a240.44,240.44,0,0,1-27.94-5c-16.53-3.93-35.18-8.29-50.65,1.41a29.48,29.48,0,0,0-4.48,3.47,2,2,0,0,0-.25,3.05,2.76,2.76,0,0,0,3.52.3Z"/><path class="cls-3" d="M196.11,270.84c12.7-12,31.71-8.11,46.91-4.5a281,281,0,0,0,28.14,5.42c4.66.62,9.35,1.13,14,1.43a48.91,48.91,0,0,0,13.29-.62,28.81,28.81,0,0,0,11-4.83,47.13,47.13,0,0,0,8.32-8.08c4.82-5.76,8.86-12.3,15-16.84,5.45-4,12.86-6.71,18.86-2.21,5.84,4.37,8.58,11.67,14.05,16.47,13.13,11.51,32.39,10.34,47.42,3.57q3.06-1.36,6-3a1.52,1.52,0,0,0,.55-2.46,3.15,3.15,0,0,0-3.47-.12c-7.51,4.14-15.93,7.2-24.59,7.27-7.62.06-15.38-2.2-21.3-7.11-5.65-4.69-8.39-11.91-14.08-16.54-6.39-5.2-14.71-4.76-21.8-1.25s-12.15,9.63-16.94,15.83c-4.36,5.65-9.08,12-15.93,14.76a31,31,0,0,1-12.38,1.81c-4.61-.12-9.22-.61-13.79-1.15a243.21,243.21,0,0,1-28-5.11c-16.4-3.91-35.3-8.1-50.54,1.74a32.18,32.18,0,0,0-4.62,3.6,1.43,1.43,0,0,0,.35,2.42,3.29,3.29,0,0,0,3.5-.51Z"/><path class="cls-3" d="M195.71,283c12.95-12.21,32.09-9.11,47.76-5.41,9.27,2.18,18.52,4.23,28,5.53,4.69.65,9.4,1.16,14.12,1.5a52.13,52.13,0,0,0,13-.34c7.87-1.44,13.76-6.36,18.74-12.35s9-12.45,15.23-17.07c5.6-4.17,13.82-7.46,20.29-3.14,2.87,1.91,4.86,4.83,6.81,7.6a51.1,51.1,0,0,0,7.05,8.6,36.85,36.85,0,0,0,21.49,9.25c8.67.77,17.24-1.27,25.14-4.77,2-.88,3.94-1.87,5.84-2.92,1.42-.78-1.43-4.85-3.05-4-14.14,7.8-33.16,11.68-47,1-5.77-4.47-8.49-11.64-14-16.41a17.39,17.39,0,0,0-10.07-4.56,20.72,20.72,0,0,0-10.58,2.28c-7.11,3.46-11.94,9.52-16.67,15.64-4.48,5.8-9.29,12-16.18,15-8.19,3.6-18,2.15-26.57,1.17a242.11,242.11,0,0,1-28.15-5c-16.12-3.82-34.66-8.55-49.82.95a29.05,29.05,0,0,0-4.48,3.48c-1.32,1.24,1.83,5.12,3.05,4Z"/><path class="cls-3" d="M195.57,293c12.63-11.91,32-7.84,47.11-4.26a275.13,275.13,0,0,0,28,5.4c4.67.61,9.36,1.11,14.06,1.41a48.44,48.44,0,0,0,13.17-.65c8.08-1.73,14.24-7,19.42-13.14,4.74-5.64,8.68-12.19,14.7-16.61,5.76-4.24,13.22-6.58,19.54-2,2.88,2.07,5,5,7,7.89a49.29,49.29,0,0,0,7.05,8.52c12.89,11.61,32.07,10.09,46.87,3.42,2.06-.92,4-2,6-3.05.81-.44,1.83-1.73,1.24-2.68s-2.2-.35-2.95.06c-7.56,4.18-16,7.07-24.74,7.14a34.17,34.17,0,0,1-21.67-7.2c-5.73-4.63-8.5-11.82-14.1-16.56-6.06-5.13-14.27-4.6-21-1.15-7.3,3.74-12.4,9.73-17.32,16.1-4.35,5.64-8.94,11.84-15.77,14.58-4,1.59-8.33,1.84-12.55,1.73-4.6-.11-9.21-.6-13.78-1.15a250,250,0,0,1-28.09-5.15c-16.46-3.92-35-7.94-50.28,1.92a32.38,32.38,0,0,0-4.67,3.67c-.67.63-1.35,1.87-.41,2.57s2.49-.13,3.17-.77Z"/><path class="cls-3" d="M195.79,305.09c12.77-12,31.94-8.52,47.28-4.88,9.27,2.19,18.53,4.21,28,5.49,4.67.63,9.37,1.14,14.08,1.46a50.46,50.46,0,0,0,13.22-.48c7.95-1.57,14-6.58,19-12.66,4.84-5.83,8.94-12.35,15.07-17,5.44-4.1,13.25-7,19.44-2.74,2.86,2,4.91,4.86,6.89,7.66a53.25,53.25,0,0,0,7.14,8.7,36.66,36.66,0,0,0,21.39,9c8.78.78,17.59-1.31,25.59-4.85,2-.88,3.93-1.87,5.84-2.92,2.56-1.41.34-5.89-2.22-4.48-7.67,4.23-16.16,7.33-25,7.52a33.68,33.68,0,0,1-21.47-6.73c-5.8-4.57-8.63-11.73-14.15-16.58-6-5.31-14.19-5.28-21.15-1.84-7.22,3.57-12.18,9.66-17,15.9-4.44,5.75-9.15,11.87-16,14.79a30.74,30.74,0,0,1-12.5,2c-4.59-.08-9.19-.57-13.75-1.1a243.87,243.87,0,0,1-28.14-5c-16.19-3.84-35-8.4-50.13,1.36a31.28,31.28,0,0,0-4.65,3.61c-2.08,2,1,5.85,3.21,3.79Z"/><path class="cls-3" d="M195.85,316.16c13-12.22,32.15-9.33,47.88-5.64,9.26,2.17,18.5,4.26,27.94,5.57q7.05,1,14.15,1.54a53.65,53.65,0,0,0,12.79-.25c7.95-1.33,13.83-6.26,18.85-12.29,4.89-5.88,9-12.45,15.22-17.07,5.89-4.38,14.1-7.46,20.95-3.34,2.8,1.69,4.52,4.4,6.37,7a57.94,57.94,0,0,0,7.57,9.11,35.68,35.68,0,0,0,20.95,9.36c8.55.85,17.15-1.16,25-4.61,2-.89,3.93-1.87,5.84-2.92.18-.1-2.55-4.16-3.33-3.73-14.37,7.92-33.4,11.75-47.6,1.25-2.74-2-4.59-4.7-6.54-7.46a53.38,53.38,0,0,0-7.55-9,16.8,16.8,0,0,0-9.53-4.63,19.45,19.45,0,0,0-10.37,2.13c-7.11,3.46-11.94,9.52-16.66,15.64-4.5,5.81-9.3,11.93-16.19,15-8.26,3.67-18,2.31-26.66,1.34a237.78,237.78,0,0,1-28.17-4.93c-16-3.77-34.6-8.73-49.71.73a29.54,29.54,0,0,0-4.48,3.48c-.43.4,2.95,4.09,3.33,3.73Z"/><path class="cls-4" d="M207.11,421.86l3.46.54c-.73,2.48-3.28,3.79-6.42,3.31l-6.06-.94c-3.32-.51-5.52-2.84-5.07-5.75s3.17-4.48,6.56-4l6.06.93c3.14.49,5.18,2.51,5.13,5.09l-3.46-.53a2.41,2.41,0,0,0-2.09-1.81l-6.06-.93a2.2,2.2,0,1,0-.67,4.33l6.06.94A2.49,2.49,0,0,0,207.11,421.86Z"/><path class="cls-4" d="M224,426.35l-10.17-1-.6,1.45-3.38-.34,3.78-9.16,12.2,1.25,1.86,9.73-3.4-.35Zm-.51-2.71-.52-2.79-7-.72-1.07,2.63Z"/><path class="cls-4" d="M229,419.08l12-.15c2.74,0,4.57,1.59,4.6,3.61a3.59,3.59,0,0,1-2.35,3.3l1.93,2.54-3.91.05-1.48-2.16-7.28.09,0,2.17-3.39,0Zm12,4.56a1.05,1.05,0,1,0,0-2.09l-8.58.1,0,2.09Z"/><path class="cls-4" d="M261.79,419.29l1.1,2.37-13.19,6.12-4-8.62,3.06-1.42,2.88,6.24Z"/><path class="cls-4" d="M274.51,405.09c1.44,1.32,1.32,3.34-1.08,6l-4.31,4.66c-2.91,3.15-4.95,2.23-5.88,1.37l2.3-2.49c.41.25,1,0,1.77-.84l4.16-4.5c.83-.89,1-1.41.74-1.65s-.54-.15-1.07.42l-5.32,5.75c-1.81,1.95-3.53,2.21-4.76,1.07s-1.59-3.12,1-5.92l4.24-4.57c2.94-3.19,5.05-2,5.73-1.34l-2.3,2.48c-.33-.22-.86-.15-1.61.66l-4.18,4.51c-.86.94-.83,1.36-.62,1.56s.55.14,1-.36l5.5-5.94C271.52,404.11,273.28,404,274.51,405.09Z"/><path class="cls-4" d="M283.55,390.26a2.38,2.38,0,0,1,1.83.47,3.23,3.23,0,0,1,.29,4.56l-8,10.34-7.5-5.82,8-10.34a3.25,3.25,0,0,1,4.5-.85A2.29,2.29,0,0,1,283.55,390.26ZM275,399.41l5.68-7.31a.52.52,0,0,0-.06-.72.51.51,0,0,0-.71.12l-5.68,7.31Zm8.18-6.05a.58.58,0,0,0-.78.15l-5.64,7.26.83.65,5.65-7.27A.55.55,0,0,0,283.18,393.36Z"/><path class="cls-4" d="M286,384.38l.63.7,7.78-7,1.65,1.84-7.78,7,.61.69,8.56-7.68,1.72,1.92-11.07,9.93-6.33-7.07,11.07-9.93,1.72,1.92Z"/><path class="cls-4" d="M296,372.35l11-4.63c2.53-1.07,4.83-.25,5.61,1.61a3.56,3.56,0,0,1-.93,3.94l2.75,1.62-3.61,1.52L308.69,375,302,377.79l.84,2-3.12,1.31Zm12.86-.3a1.05,1.05,0,1,0-.81-1.92l-7.91,3.32.81,1.93Z"/><path class="cls-4" d="M316.09,369.39c.68-2.85,3.53-4.2,6.87-3.4l6,1.43c2.81.67,4.61,2.54,4.71,4.81l-3.66-.89a2.59,2.59,0,0,0-1.7-1.21l-5.95-1.44a2.21,2.21,0,1,0-1,4.26l6,1.44a2.26,2.26,0,0,0,1.91-.24L324.42,373l.51-2.11,8.65,2.1-.14.56c-.64,2.65-3.49,4.21-6.82,3.41l-6-1.44C317.4,374.75,315.4,372.25,316.09,369.39Z"/><path class="cls-4" d="M349.61,391.88c-1.62,1.2-4,.73-5.65-1.47l-5.13-6.9-1.74,1.29-2-2.7,7.63-5.67,7.14,9.61C351.47,388.24,351.24,390.67,349.61,391.88Zm-2-2.71a1.12,1.12,0,0,0,.14-1.57l-5.13-6.9L340.93,382l5.13,6.9A1.12,1.12,0,0,0,347.6,389.17Z"/><path class="cls-4" d="M353.12,390.8l2.06,2.67-7.53,5.78-2.06-2.67Z"/><path class="cls-4" d="M362.38,408.88l-1.6,2.07L349.28,402l5.82-7.51,2.67,2.07L353.55,402Z"/><path class="cls-4" d="M380.55,414.16c-.55,1.88-2.41,2.68-5.88,1.73l-6.09-1.77c-4.12-1.2-4.2-3.42-3.85-4.65l3.25.94c0,.49.51.91,1.55,1.22l5.88,1.71c1.17.33,1.71.27,1.81-.09s-.11-.55-.86-.77l-7.51-2.18c-2.56-.74-3.55-2.16-3.09-3.78s2.08-2.82,5.72-1.79l6,1.74c4.16,1.21,4,3.64,3.76,4.53l-3.25-.95c0-.39-.25-.83-1.31-1.14l-5.9-1.71c-1.22-.36-1.59-.14-1.67.13s.11.56.77.75l7.77,2.26C380.08,411.05,381,412.55,380.55,414.16Z"/><path class="cls-4" d="M386.17,410.35l0,.95,10.44-.44.1,2.47-10.44.43,0,.93,11.48-.49.11,2.58-14.85.62-.39-9.48,14.84-.63.11,2.58Z"/><path class="cls-4" d="M398.27,407.17l11.46-3.48c2.62-.8,4.83.24,5.41,2.17a3.57,3.57,0,0,1-1.33,3.83l2.56,1.89-3.74,1.14-2-1.65-7,2.12.63,2.07-3.24,1Zm12.82,1a1.05,1.05,0,1,0-.6-2l-8.22,2.49.61,2Z"/></svg>