<svg id="Layer_1" data-name="Layer 1" xmlns="http://www.w3.org/2000/svg" width="600" height="600" viewBox="0 0 600 600"><defs><style>.cls-1{fill:#d12d26;}.cls-2{fill:#edab35;}.cls-3{fill:#1d1d1b;}</style></defs><path class="cls-1" d="M308.12,65.11V541a6,6,0,0,1-5.12,6.23c-1,.1-2,.2-3,.28a169.56,169.56,0,0,1-41.68-1.57q-5.81-.93-11.87-2.37a167.31,167.31,0,0,1-20.86-6.41,19.41,19.41,0,0,1-5.56-2.57,37.18,37.18,0,0,1-6.36-5.83c-.58-.63-1.15-1.25-1.71-1.88-1.05-1.59-2.05-3-2.79-4s-1.55-2.05-2.64-2c-9.43.26-17.25-7.24-22-20.76a33.28,33.28,0,0,1-1.83-9.66l-.15-22.87q-.08-12.74-.16-25.47L181,235.57c0-2.49,0-5,0-7.47q-.24-38-.49-76a5.69,5.69,0,0,0,0-.7c-2.39-21.17,3.88-29,5.39-30.56a6.55,6.55,0,0,0,.67-.81c19.06-27.38,16.7-40.37,15.85-43.13a.61.61,0,0,0-.09-.18L194,65.11Z"/><path class="cls-1" d="M417,493.14v-.08l.17-1.48a.31.31,0,0,0,0-.08l.06-.15c0-.32,0-.64.05-1v-1.51q.92-142.3,1.83-284.6l0-6.26V198l0-3.08q.12-21.37.27-42.8c0-.22,0-.46,0-.7,2.4-21.17-3.88-29-5.39-30.56a6.55,6.55,0,0,1-.67-.81c-16.5-23.71-17-36.63-16.21-41.46a6.75,6.75,0,0,1,1.38-3.15l.13-.16c3-4,.26-10.12-4.43-10.12H297.5c-3.1,0-5.62,2.81-5.62,6.27V541a6,6,0,0,0,5.08,6.23l3,.28h0a168.6,168.6,0,0,0,74.41-10.35,19.49,19.49,0,0,0,5.57-2.57,37.15,37.15,0,0,0,6.35-5.83L388,527l.06-.08c1.06-1.61,2.09-3.07,2.82-4.08s1.55-2.05,2.65-2c9.42.26,17.25-7.24,22-20.76a33.45,33.45,0,0,0,1.37-5.28c.06-.36.11-.71.16-1.06A5.32,5.32,0,0,1,417,493.14Z"/><path d="M289.76,78.34V68c0-8.9,2.65-16.14,5.92-16.14h102c4.94,0,7.82,15.76,4.66,26.1,0,.12-.06.23-.1.35Z"/><path d="M295.16,51.89V78.34H194.58l-.09-.35c-2.83-10.34-.24-26.1,4.17-26.1Z"/><path d="M277.38,425.89s-6.77-7.13,10.53-47.83c8.21-19.33,10.59-30.52,10.81-36.93a1.47,1.47,0,0,0-2.93-.17c-1.39,15.64-3.49,48.73,2.95,54.91,8.5,8.14,16.64,16.78,11,24.42"/><path d="M291.07,429s-4.54-8.72,23.34-43.05c13.24-16.31,18.61-26.41,20.6-32.51a1.47,1.47,0,0,0-2.77-1c-5.66,14.64-16.83,45.87-12.34,53.58,5.91,10.18,11.35,20.73,3.86,26.52"/><path d="M290.8,430.91s.44-9.83,41.76-25.58c19.63-7.48,29.34-13.52,34.12-17.8a1.47,1.47,0,0,0-1.91-2.23c-12.23,9.83-37.55,31.26-37.53,40.19,0,11.77-.56,23.62-9.94,24.88"/><path d="M293.55,425.68s6-7.82,48.89,2.86c20.39,5.06,31.81,5.65,38.18,4.86a1.47,1.47,0,0,0-.3-2.92c-15.65,1.09-48.67,4.22-53.75,11.56-6.7,9.67-14,19.07-22.38,14.75"/><path d="M302.82,424.21s9.37-3,38.4,30.39C355,470.45,364,477.48,369.69,480.49a1.47,1.47,0,0,0,1.44-2.56c-13.45-8.09-42.29-24.47-50.66-21.38-11,4.08-22.37,7.62-26.79-.75"/><path d="M294,435.15s9.83-.26,28.51,39.83c8.87,19,15.59,28.29,20.2,32.75a1.47,1.47,0,0,0,2.09-2.07c-10.69-11.49-33.88-35.2-42.78-34.54-11.73.87-23.6,1.13-25.53-8.13"/><path d="M292.44,434.07s8.64,4.7,4.71,48.75c-1.86,20.93-.67,32.3,1.09,38.47a1.47,1.47,0,0,0,2.84-.74c-3.49-15.3-11.69-47.44-19.72-51.33-10.59-5.13-21-10.85-18-19.83"/><path d="M295.94,438.84s4.41,8.79-24,42.71c-13.48,16.12-19,26.13-21.08,32.2a1.47,1.47,0,0,0,2.76,1c5.87-14.55,17.5-45.61,13.12-53.39-5.76-10.26-11-20.9-3.47-26.58"/><path d="M289.56,441.9s-4.18,8.9-48.38,7.6c-21-.62-32.28,1.24-38.34,3.36a1.47,1.47,0,0,0,.91,2.79c15.07-4.39,46.67-14.48,50.07-22.72,4.49-10.88,9.58-21.61,18.73-19.17"/><path d="M291.24,441s-8.08,5.61-45.68-17.66C227.7,412.24,217,408.2,210.7,407a1.47,1.47,0,0,0-.61,2.87c15.24,3.75,47.63,10.85,54.71,5.42,9.34-7.16,19.12-13.9,25.82-7.21"/><path d="M285.41,442s-9.84,0-27.42-40.59c-8.35-19.28-14.82-28.7-19.31-33.29a1.47,1.47,0,0,0-2.14,2c10.37,11.77,32.91,36.1,41.83,35.69,11.75-.55,23.62-.5,25.3,8.82"/><circle cx="295.65" cy="431.83" r="30.56"/><path d="M326.76,158.1s-3.9-4.1,6.05-27.51c4.72-11.12,6.09-17.55,6.22-21.24a.85.85,0,0,0-1.69-.09c-.8,9-2,28,1.7,31.57,4.89,4.68,9.57,9.65,6.35,14"/><path d="M334.63,159.89s-2.61-5,13.42-24.77c7.61-9.38,10.7-15.18,11.85-18.69a.85.85,0,0,0-1.6-.55c-3.25,8.41-9.67,26.37-7.09,30.81,3.4,5.85,6.52,11.92,2.22,15.25"/><path d="M334.47,161s.26-5.65,24-14.71c11.29-4.3,16.87-7.77,19.62-10.24a.84.84,0,0,0-1.1-1.28c-7,5.66-21.59,18-21.58,23.11,0,6.77-.32,13.59-5.72,14.31"/><path d="M336.06,158s3.43-4.49,28.11,1.64c11.73,2.92,18.29,3.25,21.95,2.8a.84.84,0,0,0-.17-1.68c-9,.63-28,2.43-30.91,6.65-3.85,5.56-8,11-12.87,8.48"/><path d="M341.38,157.13s5.4-1.71,22.09,17.48c7.93,9.11,13.11,13.15,16.37,14.88a.84.84,0,0,0,.83-1.47c-7.74-4.66-24.32-14.07-29.14-12.29-6.34,2.34-12.86,4.38-15.4-.44"/><path d="M336.33,163.42s5.65-.15,16.39,22.9c5.1,11,9,16.27,11.62,18.84a.85.85,0,0,0,1.2-1.19c-6.14-6.61-19.48-20.25-24.6-19.87-6.75.5-13.57.66-14.68-4.67"/><path d="M335.42,162.8s5,2.7,2.71,28c-1.07,12-.39,18.58.62,22.12a.84.84,0,0,0,1.63-.42c-2-8.8-6.71-27.28-11.33-29.52-6.09-2.95-12.08-6.24-10.37-11.4"/><path d="M337.43,165.54s2.53,5.06-13.78,24.56c-7.76,9.27-10.93,15-12.13,18.52a.85.85,0,0,0,1.59.58c3.38-8.37,10.06-26.23,7.55-30.7-3.32-5.9-6.35-12-2-15.29"/><path d="M333.76,167.3s-2.4,5.12-27.82,4.37c-12.08-.36-18.56.71-22.05,1.93a.85.85,0,0,0,.53,1.61c8.66-2.53,26.83-8.33,28.79-13.07,2.58-6.26,5.51-12.42,10.77-11"/><path d="M334.73,166.76s-4.65,3.23-26.27-10.16c-10.28-6.36-16.42-8.68-20-9.37a.84.84,0,0,0-.35,1.65c8.76,2.16,27.39,6.24,31.46,3.12,5.37-4.12,11-8,14.85-4.15"/><path d="M331.37,167.33s-5.65,0-15.76-23.34c-4.8-11.09-8.52-16.51-11.11-19.14a.84.84,0,0,0-1.23,1.15c6,6.78,18.93,20.77,24.05,20.53,6.76-.32,13.59-.29,14.55,5.07"/><circle cx="337.26" cy="161.51" r="17.57"/><path class="cls-2" d="M228.63,292c0,3-2.8,5.39-7,5.39H208.27v3.2h-5.22v-14h18.53C225.83,286.64,228.63,289.05,228.63,292Zm-5.22,0a1.7,1.7,0,0,0-1.83-1.54H208.27v3.08h13.31A1.7,1.7,0,0,0,223.41,292Z"/><path class="cls-2" d="M230.53,286.64h5.22v14h-5.22Z"/><path class="cls-2" d="M260.64,296.76v3.86H238.12v-14h5.22v10.12Z"/><path class="cls-2" d="M287.73,296c0,2.88-2.42,4.78-8,4.86h-9.82c-6.64,0-7.74-3.12-7.74-5h5.25c.14.7,1.14,1.08,2.82,1.08h9.49c1.88,0,2.66-.32,2.66-.86s-.4-.74-1.61-.74H268.65c-4.13,0-6.21-1.59-6.21-4.07s1.87-4.83,7.73-4.87h9.66c6.71,0,7.54,3.49,7.54,4.85h-5.24c-.1-.58-.74-1.08-2.44-1.08h-9.52c-2,0-2.42.46-2.42.88s.4.74,1.47.74h12.53C285.69,291.79,287.73,293.53,287.73,296Z"/><path class="cls-2" d="M295,290.43v1.4h16.19v3.63H295v1.36h17.8v3.8h-23v-14h23v3.79Z"/><path class="cls-2" d="M315.13,286.64h18.53c4.25,0,7,2.41,7,5.39a5.27,5.27,0,0,1-3.7,4.81l2.94,3.78H333.9l-2.26-3.2H320.37v3.2h-5.24Zm18.53,6.93a1.56,1.56,0,1,0,0-3.08H320.37v3.08Z"/><path class="cls-3" d="M203.05,318.22v-7.61h5.22V318c0,1.48.79,2.78,3,2.78h9.49c2.21,0,3-1.3,3-2.78v-7.35h5.21v7.61c0,4.33-3.1,6.61-8.18,6.61h-9.49C206.16,324.83,203.05,322.55,203.05,318.22Z"/><path class="cls-3" d="M231.28,310.61h18.54c4.24,0,7,2.42,7,5.39a5.28,5.28,0,0,1-3.7,4.82l2.94,3.77h-6.05l-2.25-3.19H236.53v3.19h-5.25Zm18.54,6.93a1.56,1.56,0,1,0,0-3.08H236.53v3.08Z"/><path class="cls-3" d="M258.47,317.6c0-4.31,3.8-7.23,9.11-7.23h9.5c5.31,0,9.11,2.92,9.11,7.05a4.75,4.75,0,0,1-1.55,3.56H287v3.85H267.58C262.39,324.83,258.47,321.94,258.47,317.6Zm18.61,3.14c2.25,0,3.79-1.36,3.79-3.14s-1.54-3.14-3.79-3.14h-9.5c-2.25,0-3.79,1.38-3.79,3.14s1.54,3.14,3.79,3.14Z"/><path class="cls-3" d="M288.08,318.22v-7.61h5.22V318c0,1.48.79,2.78,3,2.78h9.49c2.21,0,3-1.3,3-2.78v-7.35H314v7.61c0,4.33-3.11,6.61-8.19,6.61h-9.49C291.19,324.83,288.08,322.55,288.08,318.22Z"/><path class="cls-3" d="M321.53,314.41v1.39h16.19v3.64H321.53v1.36h17.8v3.79h-23v-14h23v3.8Z"/><path class="cls-3" d="M364.22,320.74v3.85H341.7v-14h5.22v10.13Z"/><path class="cls-3" d="M389.11,320.74v3.85H366.59v-14h5.22v10.13Z"/></svg>