<svg id="Layer_1" data-name="Layer 1" xmlns="http://www.w3.org/2000/svg" width="600" height="600" viewBox="0 0 600 600"><defs><style>.cls-1{fill:#edab35;}.cls-2{fill:#1f2948;}.cls-3{fill:#1d1d1b;}.cls-4{fill:none;stroke:#1d1d1b;stroke-miterlimit:10;}</style></defs><path class="cls-1" d="M300,20.38V581.74c-22,2-39.66,0-52,0-8,0-14-1.31-18.47-3.39-16.94-7.83-12.86-26.65-12.39-28.59a2,2,0,0,0,0-.34V295.36a.53.53,0,0,0,0-.13,32.07,32.07,0,0,1,3.8-18.46A38.54,38.54,0,0,1,230,265.82,69.37,69.37,0,0,0,240.48,255a60.32,60.32,0,0,0,9.32-17,1.46,1.46,0,0,0,.06-.69c-8.4-53.46,9.53-130.24,10.1-132.67a.56.56,0,0,1,0-.12c.52-1.55,11.91-35.6,5.32-44.83-5.14-7.21,1.5-17.18,4.93-21.49a1.38,1.38,0,0,0,.25-1.16.3.3,0,0,0,0-.1,1.13,1.13,0,0,0-1.05-.88H261.1A1.22,1.22,0,0,1,260,34.81v-.1a10.44,10.44,0,0,1,.68-3.33c.07-.17.14-.34.22-.5s.13-.28.2-.42a3.07,3.07,0,0,1,.17-.31l.13-.23c.09-.16.19-.31.29-.46a13.13,13.13,0,0,1,3.58-3.5l.49-.32a20.71,20.71,0,0,1,2.08-1.16c.59-.28,1.2-.55,1.82-.8s1.21-.45,1.83-.66c.84-.28,1.71-.53,2.59-.76s1.79-.43,2.7-.61c1.14-.23,2.29-.43,3.44-.59.68-.1,1.37-.18,2.05-.27a0,0,0,0,0,0,0c1.14-.14,2.27-.24,3.38-.32l1.32-.09,1.29-.07c3.36-.16,6.34-.14,8.46-.08h0l1,0,.44,0,.73,0h0Z"/><path class="cls-1" d="M300,581.74c22,2,39.66,0,52,0,37.84,0,31.45-29.53,30.86-32a1.26,1.26,0,0,1-.05-.33V295.35s0-.08,0-.12a31.93,31.93,0,0,0-3.8-18.47A38.52,38.52,0,0,0,370,265.81,69.84,69.84,0,0,1,359.51,255a60.21,60.21,0,0,1-9.31-17,1.35,1.35,0,0,1-.06-.69c8.39-53.46-9.54-130.24-10.11-132.68l0-.11c-.53-1.56-11.92-35.6-5.33-44.83,5.15-7.22-1.49-17.18-4.92-21.5a1.3,1.3,0,0,1,.82-2.13h8.33A1.22,1.22,0,0,0,340,34.81c-.54-17.43-40-14.43-40-14.43Z"/><path class="cls-2" d="M308.07,18.15V34.46A1.47,1.47,0,0,1,306.73,36h-45.4A1.49,1.49,0,0,1,260,34.38c.76-19.33,39.29-18.21,46.81-17.8A1.48,1.48,0,0,1,308.07,18.15Z"/><path class="cls-2" d="M338.89,36H301.11c-.62,0-1.11-.7-1.11-1.57V18.15c0-.84.46-1.53,1.05-1.57,6.26-.41,38.33-1.53,39,17.81C340,35.28,339.52,36,338.89,36Z"/><path class="cls-3" d="M263.59,256.47l2.5-10-10.33-2.6,1.28-5.07,10.32,2.6,2.51-10,3.93,1-6.28,25Z"/><path class="cls-3" d="M243.57,282.58l-10.45-10.34,3.67-3.7,3.88,3.83,10.89-11-3.88-3.84,3.67-3.71,10.44,10.34-3.67,3.71-3.65-3.62-10.89,11,3.66,3.61Z"/><path class="cls-3" d="M238.67,307.41l-7.51-12.13-6.08-.56.48-5.2,6.11.57,9.57-10.53-.66,7.14L235,293l4.35,7.24Z"/><path class="cls-3" d="M234.27,340.8c-3.13,0-5.67-2.8-5.67-7.05V320.44h-3.36v-5.22h14.7v18.53C239.94,338,237.39,340.8,234.27,340.8Zm0-5.22a1.74,1.74,0,0,0,1.61-1.83V320.44h-3.23v13.31A1.74,1.74,0,0,0,234.27,335.58Z"/><path class="cls-3" d="M239.94,342.7v5.22h-14.7V342.7Z"/><path class="cls-3" d="M229.29,372.81h-4V350.29h14.7v5.22H229.29Z"/><path class="cls-3" d="M230.09,399.93c-3,0-5-2.42-5.1-8v-9.83c0-6.64,3.27-7.73,5.25-7.73v5.24c-.74.14-1.14,1.14-1.14,2.82v9.5c0,1.87.34,2.65.9,2.65s.78-.4.78-1.61V380.85c0-4.12,1.68-6.21,4.28-6.21s5.09,1.87,5.13,7.73V392c0,6.71-3.68,7.55-5.1,7.55v-5.25c.6-.09,1.13-.73,1.13-2.44v-9.52c0-2-.48-2.42-.93-2.42s-.77.41-.77,1.47V394C234.52,397.89,232.69,399.93,230.09,399.93Z"/><path class="cls-3" d="M239.94,428.12h-14.7V423l9.19-15.92h-9.19V402h14.7v5.13L230.72,423h9.22Z"/><path class="cls-3" d="M236,435.71h-1.47V451.9h-3.82V435.71h-1.43v17.8h-4v-23h14.7v23h-4Z"/><path class="cls-3" d="M239.94,455.87V474.4c0,4.25-2.55,7.05-5.67,7.05a5.51,5.51,0,0,1-5.06-3.7l-4,2.94v-6.05l3.36-2.25V461.12h-3.36v-5.25Zm-7.29,18.53a1.63,1.63,0,1,0,3.23,0V461.12h-3.23Z"/><line class="cls-4" x1="301.91" y1="35.73" x2="301.91" y2="582.37"/><line class="cls-4" x1="308.07" y1="35.73" x2="308.07" y2="582.37"/><line class="cls-4" x1="314.22" y1="35.73" x2="314.22" y2="582.37"/><line class="cls-4" x1="320.37" y1="35.73" x2="320.37" y2="582.37"/></svg>