<svg id="Layer_1" data-name="Layer 1" xmlns="http://www.w3.org/2000/svg" width="600" height="600" viewBox="0 0 600 600"><defs><style>.cls-1{fill:#feeec2;}.cls-2{fill:#edab35;}.cls-3,.cls-5{fill:none;}.cls-4{fill:#1d1d1b;}.cls-5{stroke:#c4d8ef;stroke-miterlimit:10;}</style></defs><path class="cls-1" d="M319.44,49.53V543.07c0,3.36-2.22,6.16-5.12,6.47l-3,.29a163.65,163.65,0,0,1-41.68-1.63q-5.81-1-11.87-2.46a163.45,163.45,0,0,1-20.86-6.65,19.2,19.2,0,0,1-5.56-2.66,38,38,0,0,1-6.36-6q-.87-1-1.71-2c-1-1.65-2.05-3.15-2.79-4.19s-1.55-2.12-2.64-2.09c-9.43.28-17.25-7.5-22-21.52a35.69,35.69,0,0,1-1.83-10l-.15-23.73q-.08-13.2-.16-26.42l-1.32-214.13c0-2.59,0-5.18-.05-7.76q-.24-39.42-.49-78.85a5.9,5.9,0,0,0,0-.72c-2.39-22,3.88-30.09,5.39-31.71a6.08,6.08,0,0,0,.67-.83c19.06-28.4,16.7-41.88,15.85-44.73a.56.56,0,0,0-.09-.19l-8.32-12Z"/><path class="cls-1" d="M428.34,493.46v-.09l.18-1.53s0-.06,0-.09a1,1,0,0,0,.06-.15c0-.33,0-.66,0-1V489q.93-147.59,1.83-295.17l0-6.49v-.07l0-3.2q.12-22.17.27-44.39c0-.23,0-.48,0-.72,2.4-22-3.88-30.09-5.39-31.71a6.08,6.08,0,0,1-.67-.83c-16.5-24.59-16.95-38-16.21-43A7.06,7.06,0,0,1,410,60.2l.13-.18c3-4.15.26-10.49-4.43-10.49H308.82c-3.1,0-5.62,2.91-5.62,6.5v487c0,3.35,2.2,6.16,5.08,6.46,1,.11,2,.2,3,.3h0a163.23,163.23,0,0,0,74.41-10.74,19.28,19.28,0,0,0,5.57-2.66,38,38,0,0,0,6.35-6c.55-.61,1.07-1.22,1.62-1.83l.06-.08c1.06-1.67,2.09-3.18,2.82-4.23s1.55-2.12,2.65-2.09c9.42.28,17.25-7.5,22-21.52a33.77,33.77,0,0,0,1.37-5.48c.06-.37.12-.74.16-1.1C428.34,493.86,428.34,493.66,428.34,493.46Z"/><path class="cls-2" d="M308.78,49.53V60.16H202l-.1-.14c-3-4.15-.26-10.49,4.43-10.49Z"/><path class="cls-2" d="M303,60.16V56a6.4,6.4,0,0,1,6.3-6.49h108.3A6.49,6.49,0,0,1,422.59,60a1.34,1.34,0,0,1-.11.14Z"/><path class="cls-3" d="M168.6,222.6l23.86-7.85c0,2.58,0,5.17,0,7.75l1.32,214.14q.09,13.22.16,26.42"/><path class="cls-3" d="M194,463.07h0q-.08-13.2-.16-26.42L192.51,222.5c0-2.58,0-5.17,0-7.75l.56-.19,0,7.53.85,214.6Z"/><path class="cls-3" d="M430.68,183.55v6.51h0Z"/><path class="cls-2" d="M215.76,419.67c0-6.38,5.34-10.69,12.82-10.69h13.35c6.28,0,11.06,3,12.42,7.77h-8.21a5.68,5.68,0,0,0-4.21-1.71H228.58c-3.24,0-5.34,2-5.34,4.78s2.1,4.76,5.34,4.76h13.35a5,5,0,0,0,3.94-1.48H235.26v-4.72l19.39,0v1.27c0,5.94-5.24,10.7-12.72,10.7H228.58C221.27,430.37,215.76,426.09,215.76,419.67Z"/><path class="cls-2" d="M285.3,426.73H263l-1,3.28h-7.41l6.17-20.67h26.71L293.71,430h-7.45ZM283.59,421,281.86,415H266.43L264.7,421Z"/><path class="cls-2" d="M335.27,409.34V430h-7.18V417.34l-12.46,8.75-12.75-8.81V430H295.7V409.34h7.18l12.75,8.59,12.46-8.59Z"/><path class="cls-2" d="M378.16,409.34V430H371V417.34l-12.45,8.75-12.76-8.81V430h-7.18V409.34h7.18l12.76,8.59L371,409.34Z"/><path class="cls-2" d="M410.8,426.73H388.53l-1,3.28h-7.41l6.18-20.67H413L419.21,430h-7.44ZM409.1,421,407.36,415H391.94L390.2,421Z"/><path class="cls-4" d="M219.48,449.25v1.83h14.64v3.6H219.48v4.26h-4.72v-13.3h20.82v3.61Z"/><path class="cls-4" d="M237.72,445.64h16.77c3.85,0,6.38,2.3,6.38,5.13a5,5,0,0,1-3.35,4.58l2.66,3.59h-5.47l-2-3h-10.2v3h-4.75Zm16.77,6.59a1.47,1.47,0,1,0,0-2.92h-12v2.92Z"/><path class="cls-4" d="M287.4,452.29c0,4.12-3.43,6.88-8.24,6.88h-8.59c-4.7,0-8.24-2.76-8.24-6.88s3.43-6.88,8.24-6.88h8.59C284,445.41,287.4,448.19,287.4,452.29Zm-4.81,0a3.13,3.13,0,0,0-3.43-3h-8.59c-2,0-3.44,1.31-3.44,3s1.4,3,3.44,3h8.59C281.2,455.27,282.59,454,282.59,452.29Z"/><path class="cls-4" d="M312.79,445.64v13.3h-4.63l-14.41-8.32v8.32h-4.64v-13.3h4.64L308.16,454v-8.34Z"/><path class="cls-4" d="M338.4,452.29c0,4.1-3.56,6.65-8.26,6.65h-15.2v-13.3h15.2C334.84,445.64,338.4,448.17,338.4,452.29Zm-4.81,0a3.16,3.16,0,0,0-3.45-3h-10.5v6h10.5C332.13,455.26,333.59,454,333.59,452.29Z"/><path class="cls-5" d="M191.24,134.7s28.94-28.88,122.32,38.51,117.08-25,117.08-25"/><path class="cls-5" d="M191.24,142.42s28.94-28.88,122.32,38.51,117.08-25,117.08-25"/><path class="cls-5" d="M191.24,150.13s28.94-28.88,122.32,38.51,117.08-25,117.08-25"/><path class="cls-5" d="M191.24,157.85S220.18,129,313.56,196.36s117.08-25,117.08-25"/><path class="cls-5" d="M191.24,165.57s28.94-28.88,122.32,38.51,117.08-25,117.08-25"/><path class="cls-5" d="M191.24,173.29s28.94-28.88,122.32,38.51,117.08-25,117.08-25"/><path class="cls-5" d="M191.24,181s28.94-28.88,122.32,38.51,117.08-25,117.08-25"/><path class="cls-5" d="M191.24,188.73s28.94-28.89,122.32,38.5,117.08-25,117.08-25"/><path class="cls-5" d="M191.24,196.44S220.18,167.56,313.56,235s117.08-25,117.08-25"/><path class="cls-5" d="M191.24,204.16s28.94-28.88,122.32,38.51,117.08-25,117.08-25"/></svg>