<svg id="Layer_1" data-name="Layer 1" xmlns="http://www.w3.org/2000/svg" width="600" height="600" viewBox="0 0 600 600"><defs><style>.cls-1{fill:#1f2948;}.cls-2{fill:#d12d26;}.cls-3{fill:#edab35;}</style></defs><path class="cls-1" d="M300,19s-39.47-3-40,14.43a1.22,1.22,0,0,0,1.11,1.32h8.33a1.3,1.3,0,0,1,.82,2.13c-3.43,4.32-10.07,14.28-4.92,21.5,6.59,9.23-4.8,43.28-5.33,44.83l0,.12c-.58,2.43-18.5,79.21-10.11,132.67a1.35,1.35,0,0,1-.06.69,60.08,60.08,0,0,1-9.31,17A70,70,0,0,1,230,264.42,38.31,38.31,0,0,0,221,275.36a32,32,0,0,0-3.8,18.47V548a1.24,1.24,0,0,1,0,.33c-.6,2.46-7,32,30.86,32,12.35,0,30,2,52,0"/><path class="cls-1" d="M300,580.34c22,2,39.66,0,52,0,37.84,0,31.46-29.53,30.86-32a1.24,1.24,0,0,1,0-.33V293.83a32,32,0,0,0-3.8-18.47A38.31,38.31,0,0,0,370,264.42a70,70,0,0,1-10.46-10.79,60.08,60.08,0,0,1-9.31-17,1.35,1.35,0,0,1-.06-.69c8.39-53.46-9.53-130.24-10.11-132.67l0-.12c-.53-1.55-11.92-35.6-5.33-44.83,5.15-7.22-1.49-17.18-4.92-21.5a1.3,1.3,0,0,1,.82-2.13h8.33A1.22,1.22,0,0,0,340,33.41C339.47,16,300,19,300,19"/><path class="cls-2" d="M300,17.38V33.11c0,.84-.5,1.53-1.11,1.53H261.1c-.63,0-1.14-.73-1.11-1.6.63-18.66,32.7-17.58,39-17.18C299.54,15.89,300,16.56,300,17.38Z"/><path class="cls-2" d="M338.75,34.64H296.08a1.41,1.41,0,0,1-1.25-1.53V17.38A1.41,1.41,0,0,1,296,15.86c7.06-.4,43.28-1.48,44,17.18A1.44,1.44,0,0,1,338.75,34.64Z"/><path class="cls-3" d="M258.2,529v.77h6.16v1.52H258.2V533h-2v-5.6H265V529Z"/><path class="cls-3" d="M273.19,532.14h-6l-.26.89h-2l1.67-5.6h7.23l1.67,5.6h-2Zm-.47-1.56-.47-1.6h-4.17l-.47,1.6Z"/><path class="cls-3" d="M286,527.43V533h-2l-6.06-3.5V533H276v-5.6H278l6.06,3.51v-3.51Z"/><path class="cls-3" d="M297.25,530.23c0,1.74-1.44,2.9-3.47,2.9h-3.61a4.19,4.19,0,0,1-2.06-.51l-.84.44-.32-.48.64-.34a2.66,2.66,0,0,1-.89-2c0-1.72,1.45-2.89,3.47-2.89h3.61a4.05,4.05,0,0,1,2,.49l.86-.46.32.48-.65.35A2.65,2.65,0,0,1,297.25,530.23Zm-7.88,1.07,4.31-2.32h-3.51a1.32,1.32,0,0,0-1.45,1.25A1.22,1.22,0,0,0,289.37,531.3Zm5.86-1.07a1.22,1.22,0,0,0-.67-1.08l-4.35,2.34h3.57A1.32,1.32,0,0,0,295.23,530.23Z"/><path class="cls-3" d="M309.86,530.22a1.45,1.45,0,0,1,.44,1,1.9,1.9,0,0,1-2,1.78h-7.71v-5.6h7.71a1.91,1.91,0,0,1,2,1.8A1.33,1.33,0,0,1,309.86,530.22Zm-7.35-.67H308a.31.31,0,0,0,.32-.28A.3.3,0,0,0,308,529h-5.45Zm5.77,1.63a.34.34,0,0,0-.35-.32h-5.42v.63h5.43A.33.33,0,0,0,308.28,531.18Z"/><path class="cls-3" d="M311,527.43h7.06c1.61,0,2.68,1,2.68,2.16a2.1,2.1,0,0,1-1.41,1.93l1.12,1.51h-2.3l-.86-1.28H313V533h-2Zm7.06,2.78a.62.62,0,1,0,0-1.23H313v1.23Z"/><path class="cls-3" d="M331.23,527.43l-4.34,3.27V533h-2V530.7l-4.32-3.27h2.72l2.6,1.91,2.59-1.91Z"/><path class="cls-3" d="M330.78,530.23c0-1.72,1.45-2.89,3.47-2.89h3.61a3.22,3.22,0,0,1,3.36,2.1H339a1.53,1.53,0,0,0-1.14-.46h-3.61a1.3,1.3,0,1,0,0,2.58h3.61a1.36,1.36,0,0,0,1.07-.4h-2.87v-1.28h5.24v.34c0,1.61-1.41,2.9-3.44,2.9h-3.61C332.27,533.13,330.78,532,330.78,530.23Z"/><path class="cls-3" d="M351.9,527.43V533h-2V531H344V533h-2v-5.6h2v2h5.89v-2Z"/><path class="cls-3" d="M352.81,530.48v-3.05h2v3a1,1,0,0,0,1.13,1.11h3.62a1,1,0,0,0,1.12-1.11v-3h2v3.05c0,1.74-1.18,2.65-3.11,2.65h-3.62C354,533.13,352.81,532.22,352.81,530.48Z"/><path class="cls-3" d="M373.15,531.18c0,1.16-.92,1.92-3,2h-3.74c-2.53,0-2.94-1.25-2.94-2h2c.06.28.44.43,1.08.43h3.61c.71,0,1-.13,1-.34s-.15-.3-.61-.3h-4.62c-1.57,0-2.36-.64-2.36-1.63s.71-1.94,2.94-1.95h3.68c2.55,0,2.87,1.4,2.87,1.94h-2c0-.23-.28-.43-.93-.43h-3.62c-.75,0-.92.18-.92.35s.15.3.56.3h4.77C372.38,529.5,373.15,530.19,373.15,531.18Z"/><path class="cls-2" d="M247.89,312.88h4.9c-.47,3.59-3.74,5.95-8.18,5.95H236c-4.7,0-8.24-2.76-8.24-6.88s3.43-6.88,8.24-6.88h8.59c4.44,0,7.71,2.36,8.18,5.95h-4.9a3.37,3.37,0,0,0-3.28-2H236a3.08,3.08,0,1,0,0,6.13h8.59A3.47,3.47,0,0,0,247.89,312.88Z"/><path class="cls-2" d="M252.82,331c0,4.12-3.43,6.88-8.24,6.88H236c-4.7,0-8.25-2.76-8.25-6.88s3.44-6.88,8.25-6.88h8.59C249.39,324.07,252.82,326.85,252.82,331ZM248,331a3.13,3.13,0,0,0-3.43-3H236c-2,0-3.44,1.31-3.44,3s1.4,3,3.44,3h8.59C246.62,333.93,248,332.64,248,331Z"/><path class="cls-2" d="M234.59,346.91v1.82h14.64v3.61H234.59v4.26h-4.72V343.3h20.82v3.61Z"/><path class="cls-2" d="M234.59,365.91v1.33h14.64v3.46H234.59V372h16.1v3.61H229.87V362.3h20.82v3.61Z"/><path class="cls-2" d="M234.59,384.91v1.33h14.64v3.46H234.59V391h16.1v3.61H229.87V381.3h20.82v3.61Z"/><path class="cls-2" d="M252.07,410.86c0,2.83-2.54,5.13-6.38,5.13h-12v3h-4.73v-13.3h16.77C249.53,405.73,252.07,408,252.07,410.86Zm-4.72,0a1.58,1.58,0,0,0-1.66-1.46h-12v2.93h12A1.58,1.58,0,0,0,247.35,410.86Z"/><path class="cls-2" d="M228.58,432v-7.24h4.72v7a2.43,2.43,0,0,0,2.69,2.65h8.59a2.41,2.41,0,0,0,2.68-2.65v-7H252V432c0,4.12-2.81,6.29-7.4,6.29H236C231.39,438.26,228.58,436.09,228.58,432Z"/><path class="cls-2" d="M252.12,443.73V457h-4.63l-14.41-8.32V457h-4.64v-13.3h4.64l14.41,8.34v-8.34Z"/><path class="cls-2" d="M247.89,470.31h4.9c-.47,3.59-3.74,5.95-8.18,5.95H236c-4.7,0-8.24-2.76-8.24-6.88s3.43-6.88,8.24-6.88h8.59c4.44,0,7.71,2.36,8.18,5.95h-4.9a3.37,3.37,0,0,0-3.28-2.05H236a3.13,3.13,0,0,0-3.43,3,3.16,3.16,0,0,0,3.43,3.16h8.59A3.48,3.48,0,0,0,247.89,470.31Z"/><path class="cls-2" d="M252,481.73V495h-4.72v-4.94h-14V495h-4.72v-13.3h4.72v4.66h14v-4.66Z"/><path class="cls-2" d="M234.59,504.34v1.33h14.64v3.46H234.59v1.29h16.1V514H229.87v-13.3h20.82v3.61Z"/><path class="cls-2" d="M228.84,519.73h16.77c3.84,0,6.37,2.3,6.37,5.13a5,5,0,0,1-3.35,4.58L251.3,533h-5.48l-2-3h-10.2v3h-4.74Zm16.77,6.6a1.48,1.48,0,1,0,0-2.93h-12v2.93Z"/></svg>