<svg id="Layer_1" data-name="Layer 1" xmlns="http://www.w3.org/2000/svg" width="600" height="600" viewBox="0 0 600 600"><defs><style>.cls-1{fill:#c4d8ef;}.cls-2{fill:#d12d26;}.cls-3{fill:#1d1d1b;}</style></defs><path class="cls-1" d="M300,21.54s-39.47-3-40,14.43a1.22,1.22,0,0,0,1.11,1.32h8.33a1.3,1.3,0,0,1,.82,2.13c-3.43,4.31-10.07,14.28-4.92,21.49,6.59,9.24-4.8,43.28-5.33,44.84l0,.11c-.58,2.43-18.5,79.21-10.11,132.67a1.34,1.34,0,0,1-.06.69,60.25,60.25,0,0,1-9.31,17A69.84,69.84,0,0,1,230,267,38.37,38.37,0,0,0,221,277.92a31.91,31.91,0,0,0-3.8,18.46V550.57a1.27,1.27,0,0,1,0,.34c-.6,2.46-7,32,30.86,32,12.35,0,30,2,52,0"/><path class="cls-1" d="M300,582.89c22,2,39.66,0,52,0,37.84,0,31.46-29.52,30.86-32a1.27,1.27,0,0,1,0-.34V296.38a31.91,31.91,0,0,0-3.8-18.46A38.37,38.37,0,0,0,370,267a69.84,69.84,0,0,1-10.46-10.78,60.25,60.25,0,0,1-9.31-17,1.34,1.34,0,0,1-.06-.69c8.39-53.46-9.53-130.24-10.11-132.67l0-.11c-.53-1.56-11.92-35.6-5.33-44.84,5.15-7.21-1.49-17.18-4.92-21.49a1.3,1.3,0,0,1,.82-2.13h8.33A1.22,1.22,0,0,0,340,36c-.54-17.43-40-14.43-40-14.43"/><path d="M300,18.09V35.5c0,.94-.5,1.69-1.11,1.69H261.1c-.63,0-1.14-.8-1.11-1.76.63-20.66,32.7-19.45,39-19C299.54,16.45,300,17.19,300,18.09Z"/><path d="M338.77,37.19h-42c-.68,0-1.23-.75-1.23-1.69V18.09c0-.9.51-1.64,1.17-1.68,7-.43,42.6-1.64,43.3,19C340,36.39,339.47,37.19,338.77,37.19Z"/><circle class="cls-2" cx="300" cy="415.7" r="62.82"/><path class="cls-3" d="M313,343.59l-.36,1.35,14.89,4-.93,3.52-14.9-4-.34,1.32,16.37,4.35-1,3.67-21.18-5.63,3.59-13.53,21.18,5.63-1,3.67Z"/><path class="cls-3" d="M336.38,347l14.12,10.58c3.24,2.43,3.92,6,2.13,8.35a5.25,5.25,0,0,1-5.71,1.74l0,4.71-4.61-3.46.2-3.85-8.59-6.43L332,361.17l-4-3Zm10,16.14a1.55,1.55,0,1,0,1.85-2.47l-10.13-7.59-1.85,2.47Z"/><path class="cls-3" d="M366.61,391.24c-3.72,2.19-7.93.31-10.44-3.95l-8.1-13.8,12.07-7.09,8.1,13.79C370.75,384.46,370.36,389,366.61,391.24Zm-2.56-4.36a3.33,3.33,0,0,0,.88-4.74l-5.59-9.53-5.45,3.2,5.59,9.53C360.58,387.13,362.52,387.78,364.05,386.88Z"/><path class="cls-3" d="M373.28,392.46l1.35,4.79L361.15,401l-1.35-4.79Z"/><path class="cls-3" d="M377,427l-14,.22-.08-4.88,8.52-15.3-8.76.14-.08-4.88,14-.23.08,4.88-8.54,15.31,8.78-.14Z"/><path class="cls-3" d="M369.47,430.71c4,1.68,5.27,6.15,3.3,10.81l-3.52,8.32c-1.63,3.92-4.79,6.1-8.12,5.7l2.17-5.12a3.82,3.82,0,0,0,2.17-2.17l3.52-8.33a3.29,3.29,0,0,0-1.58-4.59c-1.7-.72-3.52.06-4.38,2.08l-3.51,8.32a3.38,3.38,0,0,0-.12,2.85l2.8-6.62,2.95,1.25L360,455.29l-.79-.34c-3.71-1.56-5.29-6.08-3.32-10.74l3.51-8.33C361.35,431.32,365.47,429,369.47,430.71Z"/><path class="cls-3" d="M355.63,463.37l-1-1L343.7,473.22l-2.56-2.59,10.95-10.84-1-1-12,11.93-2.67-2.7L352,452.63l9.85,9.94L346.27,478l-2.68-2.7Z"/><path class="cls-3" d="M341,481.82l-16.25,6.87c-3.73,1.57-7.13.38-8.29-2.37a5.28,5.28,0,0,1,1.37-5.81l-4-2.4,5.31-2.24,3.22,2.12,9.89-4.18-1.25-2.95,4.6-1.94Zm-18.95.47a1.55,1.55,0,1,0,1.19,2.84l11.66-4.92-1.2-2.84Z"/><path class="cls-3" d="M263.15,486.31l10.94-11.95,6.69,1.46,3.71,10.58,7.77-8.07,6.69,1.46,5,15.42L298.57,494,295,482.3l-8.47,9.1L281,490.21l-4.28-11.92-8.23,9.18Z"/><path class="cls-3" d="M256.56,474.7l.92-1.05-11.61-10.13,2.39-2.74,11.61,10.12.9-1L248,458.74l2.49-2.86L267,470.28l-9.2,10.55-16.51-14.4,2.49-2.86Z"/><path class="cls-3" d="M238.79,462.18l-2.88-4.05L247.32,450l2.88,4.05Z"/><path class="cls-3" d="M232.66,428.55c2.69-1,5.29.43,7.27,5.36l3.37,8.73c2.27,5.91-.27,8-2,8.67l-1.8-4.66c.61-.38.62-1.4,0-2.9l-3.24-8.43c-.65-1.67-1.21-2.25-1.72-2.05s-.55.62-.13,1.7l4.14,10.77c1.42,3.67.64,6.1-1.68,7s-5.15.08-7.2-5.12l-3.3-8.58c-2.3-6,.68-8,2-8.45l1.8,4.66c-.51.29-.76,1-.17,2.56l3.25,8.45c.67,1.75,1.26,2,1.65,1.84s.55-.63.19-1.57l-4.29-11.14C229.42,431.88,230.35,429.44,232.66,428.55Z"/><path class="cls-3" d="M232.88,401.89c2.88.07,4.72,2.42,4.67,7.73l-.22,9.35c-.16,6.32-3.3,7.28-5.18,7.24l.12-5c.7-.11,1.11-1,1.15-2.66l.22-9c0-1.78-.26-2.54-.8-2.55s-.75.37-.78,1.52L231.78,420c-.1,3.93-1.74,5.87-4.22,5.81s-4.8-1.9-4.7-7.48l.22-9.19c.16-6.39,3.68-7.09,5-7.06l-.13,5c-.58.08-1.09.67-1.13,2.3l-.22,9.06c0,1.87.4,2.31.82,2.32s.75-.37.78-1.38l.29-11.93C228.62,403.73,230.4,401.83,232.88,401.89Z"/><path class="cls-3" d="M240.75,377a3.6,3.6,0,0,1,2.79,0c2.27,1,3.16,3.88,2,6.44l-7.84,17.63-12.8-5.69,7.85-17.63a4.8,4.8,0,0,1,6.15-2.81A3.37,3.37,0,0,1,240.75,377Zm-9,16.13,5.55-12.47a.73.73,0,1,0-1.32-.59l-5.55,12.47Zm9.58-11.55a.87.87,0,0,0-1.07.49l-5.51,12.39,1.43.63,5.52-12.4A.83.83,0,0,0,241.32,381.6Z"/><path class="cls-3" d="M238.24,369.94l3.09-3.89,11,8.7-3.09,3.9Z"/><path class="cls-3" d="M250.29,361.89l.86,1.1,12.14-9.5,2.24,2.87-12.13,9.5.84,1.07,13.34-10.45,2.34,3L252.67,373,244,362l17.26-13.51,2.34,3Z"/><path class="cls-3" d="M267.05,345.26,284,340.35c3.89-1.13,7.12.45,7.94,3.32a5.26,5.26,0,0,1-2,5.61l3.74,2.85-5.53,1.6-3-2.47-10.31,3,.89,3.07-4.8,1.39ZM285.92,347a1.55,1.55,0,1,0-.86-2.95l-12.15,3.52.86,2.95Z"/></svg>