<svg id="Layer_1" data-name="Layer 1" xmlns="http://www.w3.org/2000/svg" width="600" height="600" viewBox="0 0 600 600"><defs><style>.cls-1{fill:#1f2948;}.cls-2{fill:#d12d26;}.cls-3{fill:#fff;}</style></defs><path class="cls-1" d="M281,20.42s-39.48-3-40,14.43a1.22,1.22,0,0,0,1.12,1.32h8.33a1.31,1.31,0,0,1,.82,2.14c-3.43,4.31-10.07,14.28-4.93,21.49,6.59,9.23-4.8,43.28-5.32,44.83a.42.42,0,0,0,0,.12c-.57,2.43-18.5,79.21-10.1,132.67a1.47,1.47,0,0,1-.06.69,60.32,60.32,0,0,1-9.32,17A69.37,69.37,0,0,1,211,265.86a38.62,38.62,0,0,0-9.06,10.94,32.11,32.11,0,0,0-3.8,18.47.53.53,0,0,1,0,.13V549.46a1.75,1.75,0,0,1,0,.33c-.6,2.47-7,32,30.86,32,12.34,0,30,2,52,0"/><path class="cls-1" d="M281,581.78c22,2,39.66,0,52,0,37.84,0,31.46-29.52,30.86-32a1.75,1.75,0,0,1,0-.33V295.4a.53.53,0,0,1,0-.13A32.11,32.11,0,0,0,360,276.8a38.62,38.62,0,0,0-9.06-10.94,69.83,69.83,0,0,1-10.46-10.78,60.32,60.32,0,0,1-9.32-17,1.47,1.47,0,0,1-.06-.69c8.4-53.46-9.53-130.24-10.1-132.67a.42.42,0,0,0,0-.12c-.52-1.55-11.91-35.6-5.32-44.83,5.14-7.21-1.5-17.18-4.93-21.49a1.31,1.31,0,0,1,.82-2.14h8.33A1.22,1.22,0,0,0,321,34.85c-.54-17.43-40-14.43-40-14.43"/><path class="cls-2" d="M281,19V34.57a1.37,1.37,0,0,1-1.15,1.51h-39.5a1.4,1.4,0,0,1-1.16-1.58c.66-18.46,34.18-17.38,40.72-17A1.39,1.39,0,0,1,281,19Z"/><path class="cls-2" d="M321.26,36.08H269.67a1.52,1.52,0,0,1-1.51-1.51V19a1.51,1.51,0,0,1,1.43-1.51c8.55-.38,52.33-1.46,53.19,17A1.52,1.52,0,0,1,321.26,36.08Z"/><path class="cls-3" d="M266.32,292.07l-17.5,7.25-9-6.67.05-.08,1.82-18.74,5,3.7-1.44,13.56,3.52,2.6,12.56-5.33Z"/><path class="cls-3" d="M268.78,297l3.47,4.6-13,9.77-3.47-4.61Z"/><path class="cls-3" d="M276.83,306.48l6.82,19.29c1.56,4.42,0,8.27-3.31,9.43a6.11,6.11,0,0,1-6.63-2l-3,4.52-2.23-6.3,2.67-3.58L267,316.12l-3.5,1.23-1.93-5.46Zm-.77,22a1.8,1.8,0,1,0,3.37-1.19l-4.89-13.84-3.37,1.19Z"/><path class="cls-3" d="M277,363.8l-8.26,4.09.21-6.24,6.13-3,.41-12.88-6-.19.19-5.79,16.23.51-.18,5.79-5.76-.18-.42,13,5.66,3.22-.2,6.23Z"/><path class="cls-3" d="M280.36,395.73l-4.26,1.35-7.54-23.69L284,368.47l1.75,5.49-11.21,3.56Z"/><path class="cls-3" d="M284.53,397.82l6.11-6.38,4.16,4-5.9,6.17a2.94,2.94,0,0,0,.14,4.59l7.57,7.25a2.93,2.93,0,0,0,4.59-.06l5.9-6.16,4.17,4-6.11,6.38c-3.48,3.64-7.79,3.17-11.84-.71l-7.57-7.25C281.7,405.73,281.05,401.45,284.53,397.82Z"/><path class="cls-3" d="M337.09,427.61,327.88,441l-4.67-3.21-8.72-18.33-5.76,8.37-4.67-3.21,9.21-13.38,4.66,3.21,8.72,18.35,5.77-8.39Z"/><path class="cls-3" d="M354.69,457.74c-3.8,3.27-9,2-12.74-2.33l-12.13-14,12.28-10.62,12.13,14C358,449.14,358.49,454.45,354.69,457.74Zm-3.84-4.44c1.58-1.37,1.61-3.75,0-5.59l-8.37-9.7-5.55,4.8,8.38,9.69C347,454.31,349.29,454.65,350.85,453.3Z"/><path class="cls-2" d="M236.39,492.13h-7.53l-.33,1.11H226l2.08-7h9l2.09,7h-2.52Zm-.57-1.95-.59-2H230l-.59,2Z"/><path class="cls-2" d="M253.3,486.24v7h-2.43V489l-4.21,3-4.31-3v4.31h-2.43v-7h2.43l4.31,2.91,4.21-2.91Z"/><path class="cls-2" d="M266.06,489.73a1.79,1.79,0,0,1,.55,1.28,2.39,2.39,0,0,1-2.53,2.23h-9.64v-7h9.64a2.39,2.39,0,0,1,2.53,2.24A1.69,1.69,0,0,1,266.06,489.73Zm-9.19-.84h6.82a.39.39,0,0,0,.39-.36.38.38,0,0,0-.39-.36h-6.82Zm7.21,2a.43.43,0,0,0-.44-.39h-6.77v.78h6.78A.41.41,0,0,0,264.08,490.92Z"/><path class="cls-2" d="M270,488.14v.7h7.7v1.82H270v.68h8.46v1.9h-11v-7h11v1.9Z"/><path class="cls-2" d="M279.61,486.24h8.82c2,0,3.35,1.21,3.35,2.7a2.62,2.62,0,0,1-1.76,2.41l1.4,1.89h-2.88l-1.07-1.6h-5.36v1.6h-2.5Zm8.82,3.47a.78.78,0,1,0,0-1.54h-6.32v1.54Z"/><path class="cls-2" d="M305.93,492.13H298.4l-.33,1.11h-2.51l2.09-7h9l2.09,7h-2.52Zm-.58-1.95-.59-2h-5.21l-.59,2Z"/><path class="cls-2" d="M320.17,491.31v1.93H309.46v-7h2.48v5.07Z"/><path class="cls-2" d="M323.79,488.14v.7h7.7v1.82h-7.7v.68h8.47v1.9H321.31v-7h10.95v1.9Z"/></svg>