<svg id="Layer_1" data-name="Layer 1" xmlns="http://www.w3.org/2000/svg" width="600" height="600" viewBox="0 0 600 600"><defs><style>.cls-1{fill:#edab35;}.cls-2,.cls-3{fill:#c4d8ef;}.cls-3{stroke:#c5d8ef;stroke-miterlimit:10;stroke-width:4px;}.cls-4{fill:#1d1d1b;}</style></defs><path class="cls-1" d="M300,23.25s-48.93-3-49.59,14.25a1.32,1.32,0,0,0,1.38,1.3h10.32a1.25,1.25,0,0,1,1,2.11C258.88,45.16,250.65,55,257,62.12c8.16,9.12-5.95,42.72-6.61,44.26a.49.49,0,0,1,0,.11c-.71,2.41-22.92,78.2-12.52,131a1.14,1.14,0,0,1-.08.68,57,57,0,0,1-11.54,16.75,79.33,79.33,0,0,1-13,10.64,41.57,41.57,0,0,0-11.22,10.81,26.08,26.08,0,0,0-4.71,18.22V545.48a1,1,0,0,1-.05.33c-.74,2.43-8.65,31.57,38.25,31.57,15.3,0,37.2,2,64.46,0"/><path class="cls-1" d="M300,577.38c27.26,2,49.16,0,64.46,0,46.9,0,39-29.14,38.25-31.57a1,1,0,0,1,0-.33V294.56A26.08,26.08,0,0,0,398,276.34a41.57,41.57,0,0,0-11.22-10.81,79.33,79.33,0,0,1-13-10.64,57,57,0,0,1-11.54-16.75,1.14,1.14,0,0,1-.08-.68c10.4-52.77-11.81-128.56-12.52-131a.49.49,0,0,1,0-.11c-.66-1.54-14.77-35.14-6.61-44.26,6.38-7.12-1.85-17-6.1-21.21a1.25,1.25,0,0,1,1-2.11h10.32a1.32,1.32,0,0,0,1.38-1.3C348.93,20.29,300,23.25,300,23.25"/><path class="cls-2" d="M301.91,23.26V37.34a1.43,1.43,0,0,1-1.49,1.37H249.67a1.43,1.43,0,0,1-1.5-1.43C249,20.57,292.1,21.54,300.5,21.89A1.42,1.42,0,0,1,301.91,23.26Z"/><path class="cls-2" d="M354,38.71H297.11a1.54,1.54,0,0,1-1.67-1.37V23.26A1.52,1.52,0,0,1,297,21.89c9.42-.35,57.69-1.32,58.63,15.39A1.52,1.52,0,0,1,354,38.71Z"/><path class="cls-1" d="M260.31,51.86l29.57-8.92c0,2.94,0,5.87.06,8.81q.82,121.65,1.64,243.3.1,15,.2,30"/><line class="cls-3" x1="197.34" y1="504.77" x2="402.66" y2="504.77"/><line class="cls-3" x1="197.34" y1="511.67" x2="402.66" y2="511.67"/><line class="cls-3" x1="197.34" y1="518.57" x2="402.66" y2="518.57"/><line class="cls-3" x1="197.34" y1="525.48" x2="402.66" y2="525.48"/><line class="cls-3" x1="197.34" y1="532.38" x2="402.66" y2="532.38"/><line class="cls-3" x1="197.34" y1="539.28" x2="402.66" y2="539.28"/><path class="cls-4" d="M223.13,376l-5,16.49,2.21,1.46-1.67,5.49-13.9-9.24,6-19.77,16.68.08L225.78,376Zm-4.64,0-4.78-.06-3.48,11.43,4,2.62Z"/><path class="cls-4" d="M234.36,336.19l12.45,10-3.47,4.33-7.64-6.12-.76,11.74-11.48,3.45,7.67,6.15-3.47,4.34-12.46-10,3.47-4.34L230,352.2l.85-11.68Z"/><path class="cls-4" d="M267.18,325.28a4.07,4.07,0,0,1,2.56,1.9c1.41,2.45.3,5.7-2.48,7.29l-19.12,11-8-13.84,19.12-11c2.78-1.6,6.16-.91,7.57,1.54A3.85,3.85,0,0,1,267.18,325.28ZM248,334.1l13.53-7.78a.88.88,0,0,0,.37-1.16.87.87,0,0,0-1.2-.26l-13.52,7.77Zm16.62-4.22a1,1,0,0,0-1.32-.27l-13.43,7.73.88,1.55,13.46-7.75A.93.93,0,0,0,264.62,329.88Z"/><path class="cls-4" d="M276.86,319l.29,1.58,17.34-3.14.74,4.09-17.34,3.14.27,1.52,19.07-3.45L298,327l-24.67,4.46-2.84-15.72,24.67-4.47.77,4.27Z"/><path class="cls-4" d="M302.16,311.06l19.91,3.3c4.56.75,7.11,4,6.56,7.33a6,6,0,0,1-4.87,4.77l2.45,4.78-6.5-1.08-1.82-4-12.11-2-.59,3.61-5.64-.93Zm18.61,11.11a1.77,1.77,0,1,0,.58-3.47l-14.28-2.36-.57,3.47Z"/><path class="cls-4" d="M354.75,345.55l-14.07-9.95-2.08,1.64-4.68-3.31L347,323.63l16.88,11.93-5.31,15.81-4.71-3.32Zm1.49-4.4,1.55-4.52L348,329.74l-3.74,3Z"/><path class="cls-4" d="M376.34,369.61l-3.6,2.54-14.11-20.06,13.06-9.2,3.27,4.65-9.46,6.66Z"/><path class="cls-4" d="M386.25,375.64l-1.53.46,5,16.89-4,1.19-5-16.89-1.48.44,5.52,18.57-4.15,1.24-7.15-24L388.78,369l7.15,24-4.16,1.24Z"/><path class="cls-4" d="M236.65,464.5a2.51,2.51,0,0,1,.77,1.79,3.34,3.34,0,0,1-3.54,3.13H220.37v-9.81h13.51a3.35,3.35,0,0,1,3.54,3.14A2.37,2.37,0,0,1,236.65,464.5Zm-12.88-1.18h9.56a.51.51,0,1,0,0-1h-9.56Zm10.11,2.85a.6.6,0,0,0-.62-.55h-9.49v1.09h9.51A.57.57,0,0,0,233.88,466.17Z"/><path class="cls-4" d="M242.16,462.27v1H253v2.55H242.16v1H254v2.66H238.68v-9.81H254v2.66Z"/><path class="cls-4" d="M270.62,466.71v2.71h-15v-9.81h3.48v7.1Z"/><path class="cls-4" d="M287.21,466.71v2.71h-15v-9.81h3.48v7.1Z"/><path class="cls-4" d="M305.28,466.18c0,2-1.62,3.35-5.33,3.4h-6.56c-4.43,0-5.15-2.18-5.15-3.5h3.49c.1.49.76.76,1.89.76H300c1.25,0,1.77-.23,1.77-.6s-.27-.52-1.08-.52h-8.08c-2.76,0-4.15-1.12-4.15-2.86s1.25-3.39,5.16-3.42H300c4.48,0,5,2.45,5,3.41h-3.5c-.06-.41-.49-.76-1.63-.76h-6.34c-1.31,0-1.62.32-1.62.62s.27.51,1,.51h8.35C303.92,463.22,305.28,464.44,305.28,466.18Z"/><path class="cls-4" d="M236.65,481.3a2.51,2.51,0,0,1,.77,1.79,3.34,3.34,0,0,1-3.54,3.13H220.37v-9.81h13.51a3.35,3.35,0,0,1,3.54,3.14A2.37,2.37,0,0,1,236.65,481.3Zm-12.88-1.18h9.56a.51.51,0,1,0,0-1h-9.56ZM233.88,483a.6.6,0,0,0-.62-.55h-9.49v1.09h9.51A.57.57,0,0,0,233.88,483Z"/><path class="cls-4" d="M238.68,476.41H251c2.83,0,4.7,1.7,4.7,3.78a3.68,3.68,0,0,1-2.47,3.38l2,2.65h-4L249.7,484h-7.52v2.25h-3.5ZM251,481.27a1.09,1.09,0,1,0,0-2.16h-8.86v2.16Z"/><path class="cls-4" d="M260.61,479.07v1H271.4v2.55H260.61v.95h11.86v2.67H257.12v-9.81h15.35v2.66Z"/><path class="cls-4" d="M302.63,476.41l-5.7,9.81h-4.8L288,479.53l-4.11,6.69h-4.8l-5.69-9.81h3.82l4.23,7.49,4.43-7.49h3.92l4.72,7.51,4.26-7.51Z"/><path class="cls-4" d="M307,479.07v1h10.79v2.55H307v.95h11.87v2.67H303.56v-9.81h15.35v2.66Z"/><path class="cls-4" d="M320.49,476.41h12.35c2.84,0,4.7,1.7,4.7,3.78a3.68,3.68,0,0,1-2.47,3.38l2,2.65h-4L331.5,484H324v2.25h-3.49Zm12.35,4.86a1.09,1.09,0,1,0,0-2.16H324v2.16Z"/><path class="cls-4" d="M355.85,476.41l-7.6,5.73v4.08h-3.48v-4.09l-7.58-5.72H342l4.54,3.33,4.54-3.33Z"/></svg>