<svg id="Layer_1" data-name="Layer 1" xmlns="http://www.w3.org/2000/svg" width="600" height="600" viewBox="0 0 600 600"><defs><style>.cls-1{fill:#d12d26;}.cls-2{fill:#edab35;}.cls-3{fill:#1d1d1b;}</style></defs><path class="cls-1" d="M300,55.85s-39.47-2.61-40,12.53a1.12,1.12,0,0,0,1.11,1.15h8.33a1.11,1.11,0,0,1,.82,1.85c-3.43,3.75-10.07,12.41-4.92,18.68,6.59,8-4.8,37.6-5.33,38.95l0,.1c-.58,2.11-18.5,68.82-10.11,115.27a1,1,0,0,1-.06.6,50.71,50.71,0,0,1-9.31,14.74A66,66,0,0,1,230,269.08,35.07,35.07,0,0,0,221,278.6a24.64,24.64,0,0,0-3.8,16V515.48a.92.92,0,0,1,0,.29c-.6,2.14-7,27.79,30.86,27.79,12.35,0,30,1.71,52,0"/><path class="cls-1" d="M300,543.56c22,1.71,39.66,0,52,0,37.84,0,31.46-25.65,30.86-27.79a.92.92,0,0,1,0-.29V294.64a24.64,24.64,0,0,0-3.8-16,35.07,35.07,0,0,0-9.06-9.52,66,66,0,0,1-10.46-9.36A50.71,50.71,0,0,1,350.2,245a1,1,0,0,1-.06-.6c8.39-46.45-9.53-113.16-10.11-115.27l0-.1c-.53-1.35-11.92-30.93-5.33-38.95,5.15-6.27-1.49-14.93-4.92-18.68a1.11,1.11,0,0,1,.82-1.85h8.33A1.12,1.12,0,0,0,340,68.38c-.54-15.14-40-12.53-40-12.53"/><path class="cls-2" d="M300,53.85V69.62c0,.85-.5,1.53-1.11,1.53H261.1c-.63,0-1.14-.73-1.11-1.59.63-18.72,32.7-17.63,39-17.24C299.54,52.36,300,53,300,53.85Z"/><path class="cls-2" d="M338.79,71.15h-41.3a1.39,1.39,0,0,1-1.21-1.53V53.85a1.41,1.41,0,0,1,1.15-1.53c6.84-.39,41.9-1.48,42.58,17.24A1.42,1.42,0,0,1,338.79,71.15Z"/><path d="M291.31,353.41s-4.07-4.27,6.31-28.68c4.93-11.6,6.35-18.3,6.48-22.15a.88.88,0,0,0-1.75-.1c-.84,9.37-2.1,29.22,1.77,32.93,5.09,4.88,10,10.06,6.62,14.64"/><path d="M299.52,355.28s-2.73-5.24,14-25.83c7.94-9.78,11.16-15.83,12.35-19.49a.88.88,0,0,0-1.66-.58c-3.39,8.78-10.09,27.51-7.4,32.13,3.55,6.1,6.81,12.43,2.32,15.91"/><path d="M299.35,356.42s.27-5.89,25-15.34C336.17,336.6,342,333,344.86,330.4a.88.88,0,0,0-1.15-1.33c-7.34,5.89-22.51,18.75-22.5,24.1,0,7.05-.34,14.17-6,14.92"/><path d="M301,353.28s3.59-4.68,29.32,1.71c12.23,3,19.08,3.39,22.9,2.92a.88.88,0,0,0-.18-1.75c-9.39.65-29.19,2.53-32.24,6.93-4,5.8-8.37,11.44-13.42,8.85"/><path d="M306.56,352.4s5.62-1.78,23,18.23c8.27,9.5,13.68,13.72,17.07,15.52a.88.88,0,0,0,.86-1.54c-8.06-4.85-25.36-14.67-30.38-12.81-6.62,2.44-13.41,4.56-16.06-.46"/><path d="M301.29,359s5.9-.15,17.09,23.89c5.32,11.42,9.35,17,12.12,19.64a.88.88,0,0,0,1.25-1.24c-6.4-6.9-20.31-21.11-25.65-20.72-7,.52-14.15.68-15.31-4.88"/><path d="M300.34,358.32s5.18,2.81,2.82,29.23c-1.11,12.55-.4,19.37.65,23.07a.88.88,0,0,0,1.71-.45c-2.1-9.17-7-28.45-11.83-30.78-6.35-3.07-12.59-6.5-10.81-11.89"/><path d="M302.43,361.18s2.65,5.27-14.37,25.61c-8.08,9.66-11.39,15.66-12.64,19.31a.88.88,0,0,0,1.65.6c3.53-8.73,10.5-27.35,7.88-32-3.46-6.15-6.63-12.53-2.09-15.93"/><path d="M298.61,363s-2.5,5.34-29,4.56c-12.6-.38-19.36.74-23,2a.88.88,0,0,0,.54,1.68c9-2.64,28-8.69,30-13.63,2.69-6.53,5.74-13,11.23-11.5"/><path d="M299.62,362.44s-4.85,3.37-27.4-10.59c-10.71-6.63-17.12-9.05-20.9-9.77a.88.88,0,0,0-.37,1.72c9.14,2.25,28.57,6.51,32.81,3.25,5.6-4.29,11.47-8.33,15.48-4.32"/><path d="M296.12,363s-5.9,0-16.44-24.34c-5-11.56-8.89-17.21-11.58-20a.88.88,0,0,0-1.28,1.2C273,327,286.55,341.6,291.9,341.35c7.05-.33,14.17-.3,15.17,5.29"/><circle cx="302.26" cy="356.97" r="18.32"/><path class="cls-1" d="M251.65,311.55l3.5,12.1L251.62,327l-8.26-2.69,2.21,8.4L242.05,336l-11.88-4.19,2.82-2.66,9,3.29-2.62-9.29,2.89-2.73,9.35,3-2.75-9.19Z"/><path class="cls-1" d="M259.77,311.54l.49,1,9.81-4.79,1.28,2.62-9.81,4.79.48,1,10.78-5.27,1.34,2.73-13.95,6.82-4.92-10.07,14-6.82,1.33,2.73Z"/><path class="cls-1" d="M272,302.88l3.35-1.08,3.44,10.66-3.35,1.09Z"/><path class="cls-1" d="M296,305.34c.37,2.27-1,4-4.7,4.69l-6.54,1.06c-4.43.71-5.55-1.64-5.79-3.12l3.49-.57c.19.54.9.74,2,.55l6.32-1c1.25-.2,1.73-.54,1.66-1s-.36-.54-1.17-.41l-8.07,1.3c-2.75.44-4.34-.6-4.66-2.56s.63-4,4.53-4.68l6.43-1c4.47-.72,5.47,2,5.64,3l-3.49.56c-.14-.45-.63-.78-1.76-.59l-6.34,1c-1.31.21-1.55.62-1.5.95s.36.54,1.07.43l8.35-1.35C294.12,302.22,295.7,303.38,296,305.34Z"/><path class="cls-1" d="M314.6,306.62c-.18,2.3-1.93,3.69-5.68,3.46l-6.61-.51c-4.47-.35-5-2.9-4.89-4.4l3.53.28c.05.56.7.92,1.83,1l6.38.49c1.26.1,1.81-.11,1.84-.54s-.22-.61-1-.68l-8.15-.63c-2.78-.22-4.08-1.6-3.93-3.58s1.56-3.76,5.5-3.49l6.5.5c4.51.36,4.86,3.19,4.77,4.28l-3.53-.28c0-.47-.42-.9-1.57-1l-6.4-.5c-1.32-.1-1.65.25-1.68.58s.22.61.94.67l8.43.65C313.48,303.15,314.75,304.64,314.6,306.62Z"/><path class="cls-1" d="M332.45,310.22a3.05,3.05,0,0,1,.12,2.19,3.56,3.56,0,0,1-4.51,2.28l-13-4.21,3.45-10.65,13,4.21a3.59,3.59,0,0,1,2.31,4.52A2.88,2.88,0,0,1,332.45,310.22Zm-3.25.94a.64.64,0,0,0-.4-.78l-9.13-3-.38,1.18,9.14,3A.61.61,0,0,0,329.2,311.16Zm-8.72-6.24,9.19,3a.57.57,0,0,0,.71-.37.56.56,0,0,0-.35-.72l-9.19-3Z"/><path class="cls-1" d="M337.11,306.62l3.15,1.59-5,10-3.15-1.58Z"/><path class="cls-1" d="M344,313.78l-.64.92,8.95,6.24-1.67,2.39-8.95-6.25-.62.9,9.84,6.86-1.74,2.5-12.73-8.88,6.41-9.19,12.73,8.88-1.74,2.49Z"/><path class="cls-1" d="M358.39,320.49l8.33,9.31c1.91,2.14,1.73,4.84-.05,6.43a4.21,4.21,0,0,1-4.54.71l-.93,3.49-2.72-3,.9-2.84-5.07-5.66-1.91,1.7L350.05,328Zm4.2,13a1.23,1.23,0,1,0,1.83-1.64l-6-6.68-1.84,1.65Z"/><path class="cls-1" d="M346.33,468.77l-3.77-12,3.44-3.41,8.33,2.5-2.41-8.35,3.45-3.41,12,3.92-2.75,2.72-9.05-3.08,2.83,9.23-2.82,2.79-9.42-2.75,3,9.13Z"/><path class="cls-1" d="M338.22,469l-.51-1-9.7,5-1.34-2.59,9.69-5-.5-1L325.21,470l-1.4-2.7,13.78-7.15,5.16,9.95L329,477.19l-1.4-2.7Z"/><path class="cls-1" d="M326.22,477.91l-3.32,1.15-3.69-10.57,3.33-1.16Z"/><path class="cls-1" d="M302.13,476c-.42-2.26.91-4.05,4.59-4.8l6.52-1.21c4.4-.81,5.58,1.51,5.85,3l-3.47.64c-.2-.53-.91-.71-2-.5l-6.3,1.16c-1.24.23-1.71.58-1.63,1s.37.53,1.17.38l8-1.49c2.74-.51,4.36.5,4.72,2.45s-.54,4-4.42,4.79l-6.4,1.18c-4.45.83-5.52-1.83-5.71-2.9l3.47-.64c.15.45.65.76,1.78.55l6.31-1.17c1.31-.24,1.54-.66,1.48-1s-.38-.53-1.08-.4l-8.31,1.54C304.09,479.08,302.49,478,302.13,476Z"/><path class="cls-1" d="M283.52,475.16c.13-2.3,1.84-3.73,5.6-3.59l6.61.36c4.48.24,5.08,2.78,5,4.28l-3.54-.19c-.06-.57-.72-.91-1.85-1L289,474.7c-1.27-.07-1.81.16-1.83.59s.24.61,1.05.65l8.17.45c2.78.15,4.12,1.5,4,3.48s-1.47,3.8-5.42,3.62l-6.51-.35c-4.52-.25-4.92-3.08-4.87-4.16l3.54.19c0,.47.44.89,1.59.95l6.41.35c1.33.07,1.65-.28,1.67-.61s-.24-.61-1-.65l-8.43-.46C284.71,478.61,283.41,477.14,283.52,475.16Z"/><path class="cls-1" d="M265.58,472a3.08,3.08,0,0,1-.16-2.18,3.56,3.56,0,0,1,4.45-2.39L283,471.32l-3.2,10.73-13.09-3.92a3.57,3.57,0,0,1-2.41-4.46A2.93,2.93,0,0,1,265.58,472Zm12.09,5-9.25-2.77a.58.58,0,0,0-.33,1.11l9.25,2.76Zm-8.86-6a.65.65,0,0,0,.42.78l9.19,2.75.36-1.2-9.21-2.75A.6.6,0,0,0,268.81,471Z"/><path class="cls-1" d="M261,475.68l-3.18-1.5,4.8-10.13,3.18,1.51Z"/><path class="cls-1" d="M253.93,468.69l.62-.93-9.09-6,1.61-2.43,9.09,6,.6-.9-10-6.64,1.68-2.53,12.94,8.58-6.2,9.33-12.93-8.58,1.68-2.53Z"/><path class="cls-1" d="M235.68,458.86l-8-9.61c-1.83-2.21-1.55-4.9.28-6.42a4.19,4.19,0,0,1,4.56-.55l1.06-3.46L236.2,442l-1,2.81,4.86,5.84,2-1.63,2.26,2.72ZM232,445.7a1.23,1.23,0,0,0-1.9,1.57l5.73,6.89,1.9-1.57Z"/><path class="cls-3" d="M249.94,435.16a2.3,2.3,0,0,1,.72,1.66,3.1,3.1,0,0,1-3.29,2.9H234.82v-9.1h12.55a3.11,3.11,0,0,1,3.29,2.91A2.19,2.19,0,0,1,249.94,435.16Zm-12-1.09h8.87a.51.51,0,0,0,.52-.47.5.5,0,0,0-.52-.47H238Zm9.39,2.64a.56.56,0,0,0-.57-.51H238v1h8.83A.53.53,0,0,0,247.37,436.71Z"/><path class="cls-3" d="M255.06,433.09V434h10v2.37h-10v.88h11v2.47H251.83v-9.1h14.25v2.47Z"/><path class="cls-3" d="M267.54,430.62H279c2.63,0,4.36,1.58,4.36,3.51a3.42,3.42,0,0,1-2.29,3.14l1.82,2.45h-3.74l-1.4-2.08h-7v2.08h-3.25ZM279,435.13a1,1,0,1,0,0-2h-8.23v2Z"/><path class="cls-3" d="M284.67,430.62h11.47c2.63,0,4.37,1.58,4.37,3.51a3.43,3.43,0,0,1-2.29,3.14l1.82,2.45h-3.75l-1.4-2.08h-7v2.08h-3.25Zm11.47,4.51a1,1,0,1,0,0-2h-8.22v2Z"/><path class="cls-3" d="M317.5,430.62l-7.05,5.32v3.78h-3.24v-3.79l-7-5.31h4.43l4.22,3.1,4.22-3.1Z"/><path class="cls-3" d="M234.82,446.22H246.3c2.63,0,4.36,1.57,4.36,3.51a3.43,3.43,0,0,1-2.29,3.14l1.82,2.45h-3.75l-1.39-2.08h-7v2.08h-3.25Zm11.48,4.51a1,1,0,1,0,0-2h-8.23v2Z"/><path class="cls-3" d="M255.18,448.69v.91h10V452h-10v.88h11v2.47H251.94v-9.1H266.2v2.47Z"/><path class="cls-3" d="M281.6,452.81v2.51H267.66v-9.1h3.23v6.59Z"/><path class="cls-3" d="M296,453.88h-9.8l-.43,1.44h-3.26l2.72-9.1H297l2.72,9.1h-3.28Zm-.75-2.54-.77-2.61h-6.78l-.77,2.61Z"/><path class="cls-3" d="M315.18,448.73h-6.36v6.59h-3.24v-6.59h-6.36v-2.51h16Z"/><path class="cls-3" d="M333.24,446.22l-5.46,9.1h-6.29v-.05l-5.44-9h3.49l3.87,6.59h2.46l3.88-6.59Z"/><path class="cls-3" d="M334.12,446.22h3.23v9.1h-3.23Z"/><path class="cls-3" d="M354.78,448.73h-6.37v6.59h-3.23v-6.59h-6.36v-2.51h16Z"/><path class="cls-3" d="M373,446.22l-7.05,5.32v3.78h-3.23v-3.79l-7-5.31h4.44l4.21,3.1,4.22-3.1Z"/></svg>