<svg id="Layer_1" data-name="Layer 1" xmlns="http://www.w3.org/2000/svg" width="600" height="600" viewBox="0 0 600 600"><defs><style>.cls-1{fill:#1f2948;}.cls-2{fill:#fff;}</style></defs><path class="cls-1" d="M301.7,19s-39.47-3.14-40.07,14.29a1.23,1.23,0,0,0,1.12,1.33l8.32,0a1.3,1.3,0,0,1,.82,2.13c-3.45,4.3-10.12,14.25-5,21.48,6.56,9.25-4.95,43.26-5.48,44.81,0,0,0,.07,0,.12-.58,2.43-18.77,79.15-10.56,132.63a1.39,1.39,0,0,1-.06.7,60.4,60.4,0,0,1-9.37,16.93,69.48,69.48,0,0,1-10.5,10.74,38.69,38.69,0,0,0-9.1,10.92,32,32,0,0,0-3.86,18.45.62.62,0,0,1,0,.13l-.86,254.06a1.33,1.33,0,0,1-.05.34c-.6,2.46-7.09,32,30.76,32.09,12.34,0,30,2.07,52,.17"/><path class="cls-1" d="M299.79,580.31c22,2.05,39.67.14,52,.18,37.84.13,31.56-29.42,31-31.88a1.27,1.27,0,0,1,0-.34l.86-254.06a.49.49,0,0,1,0-.12,32.06,32.06,0,0,0-3.74-18.48,38.69,38.69,0,0,0-9-11,69.3,69.3,0,0,1-10.43-10.82,60.61,60.61,0,0,1-9.26-17,1.51,1.51,0,0,1,0-.7c8.57-53.43-9.09-130.27-9.66-132.7l0-.12c-.52-1.55-11.8-35.64-5.18-44.85,5.17-7.19-1.43-17.18-4.85-21.51a1.31,1.31,0,0,1,.83-2.13l8.33,0a1.22,1.22,0,0,0,1.12-1.32c-.48-17.43-40-14.56-40-14.56"/><path d="M301.69,20.17l0,13.17a1.21,1.21,0,0,1-1.12,1.27l-37.78-.13a1.21,1.21,0,0,1-1.11-1.34c.69-15.61,32.75-14.6,39-14.25A1.21,1.21,0,0,1,301.69,20.17Z"/><path d="M340.41,34.74l-42-.14a1.25,1.25,0,0,1-1.23-1.28l0-13.17a1.26,1.26,0,0,1,1.18-1.27c7-.3,42.61-1.09,43.26,14.54A1.26,1.26,0,0,1,340.41,34.74Z"/><path class="cls-2" d="M271.19,271.32c-1.88,2.52-5.53,3-8.75.58l-10.09-7.53-2,2.7-4-2.95,8.84-11.84,14,10.49C272.48,265.17,273.07,268.8,271.19,271.32Zm-4-2.95a1.67,1.67,0,0,0-.41-2.34l-10.08-7.53-2,2.6,10.09,7.54A1.67,1.67,0,0,0,267.23,268.37Z"/><path class="cls-2" d="M279.06,272.32l8.15,15.5c1.87,3.56.84,7.09-1.95,8.55a5.52,5.52,0,0,1-6.13-.73L276.89,300l-2.66-5.06,2-3.46-5-9.43-3,1.57L266,279.2Zm1.66,18.91a1.63,1.63,0,1,0,2.88-1.51l-5.84-11.12-2.88,1.52Z"/><path class="cls-2" d="M288.37,305.14l-1.47.19,2,15.17-3.81.5-2-15.17-1.42.18,2.18,16.69-4,.52-2.82-21.58,14.65-1.92,2.83,21.58-4,.52Z"/><path class="cls-2" d="M291.22,351.14l-14.65-2,.66-4.8,11.19-13.68-9.17-1.24.66-4.8,14.64,2-.65,4.8L282.69,345.1l9.18,1.24Z"/><path class="cls-2" d="M279.3,375.76,276.74,361l-3.8,12.85L269,372.72l6.51-22,3.91,1.16,2.72,14.19,3.64-12.31,3.9,1.16-6.5,22Z"/><path class="cls-2" d="M272.49,399.12l-4.07.24-1.3-21.25,14.75-.9.3,4.93-10.68.65Z"/><path class="cls-2" d="M284.26,421.44l-8.48-12.33-2.3.79-2.82-4.11,14.53-5,10.17,14.79-9.83,11.8-2.83-4.12Zm2.74-3.27,2.84-3.37L284,406.26l-4.16,1.44Z"/><path class="cls-2" d="M292.54,424.28l5.19-6.15,3.77,3.19-5,5.94a2.61,2.61,0,0,0,.24,4.05l6.86,5.79c1.59,1.35,3,.76,4-.43l5-5.94,3.77,3.19-5.19,6.14c-3,3.5-6.76,3.45-10.43.35l-6.85-5.8C290.27,431.52,289.58,427.78,292.54,424.28Z"/><path class="cls-2" d="M318.47,435l13.4,11.29c3.06,2.59,3.44,6.25,1.41,8.66a5.53,5.53,0,0,1-5.95,1.63l-.45,4.85-4.37-3.69.55-4-8.15-6.87-2.18,2.58-3.79-3.19Zm8.67,16.9a1.63,1.63,0,1,0,2.1-2.49l-9.61-8.1-2.09,2.49Z"/><path class="cls-2" d="M354.45,488.42a3.9,3.9,0,0,1-1.81,2.29,4.87,4.87,0,0,1-6.57-2.07L336.67,472l12.89-7.25L359,481.39a4.87,4.87,0,0,1-1.66,6.7A3.68,3.68,0,0,1,354.45,488.42Zm-4.11-2.18a.89.89,0,0,0,.29-1.17L344,473.34l-1.44.81,6.61,11.75A.84.84,0,0,0,350.34,486.24Zm-3.3-14.6,6.65,11.81a.79.79,0,0,0,1.05.31.78.78,0,0,0,.27-1.06l-6.64-11.8Z"/><path class="cls-2" d="M360.43,495.74l-1.42.43,4.46,14.64-3.68,1.12-4.45-14.64-1.38.41,4.9,16.11L355,515l-6.33-20.82,14.14-4.3,6.34,20.83-3.84,1.16Z"/><path class="cls-2" d="M370,514.53l2.55,17.34c.58,4-1.56,7-4.67,7.43a5.55,5.55,0,0,1-5.55-2.72l-3.54,3.33-.83-5.66,3-2.6-1.55-10.55-3.34.5-.73-4.91Zm-4.7,18.41a1.63,1.63,0,1,0,3.22-.47L366.66,520l-3.22.48Z"/><path class="cls-2" d="M366.28,541.44c4.56-.24,7.82,3.19,8.08,8.21l.46,9c.24,4.21-1.76,7.52-5.11,8.62l-.29-5.52a3.68,3.68,0,0,0,1.08-2.88l-.46-9a3.41,3.41,0,1,0-6.81.35l.46,9a3.27,3.27,0,0,0,1.19,2.59l-.37-7.12,3.38-.18.65,13-.91,0c-4.24.22-7.81-3.12-8.07-8.14l-.47-9C358.84,545.53,361.71,541.67,366.28,541.44Z"/></svg>