<svg id="Layer_1" data-name="Layer 1" xmlns="http://www.w3.org/2000/svg" width="600" height="600" viewBox="0 0 600 600"><defs><style>.cls-1{fill:#edab35;}.cls-2,.cls-3{fill:#d12d26;}.cls-3{stroke:#1d1d1b;stroke-miterlimit:10;}</style></defs><path class="cls-1" d="M300,55.85s-48.93-2.61-49.59,12.53a1.25,1.25,0,0,0,1.38,1.15h10.32c1.2,0,1.82,1.14,1,1.85-4.25,3.75-12.48,12.41-6.1,18.68,8.16,8-5.95,37.6-6.61,38.95a.42.42,0,0,1,0,.1c-.71,2.11-22.92,68.82-12.52,115.27a.91.91,0,0,1-.08.6,50.47,50.47,0,0,1-11.54,14.74,78.17,78.17,0,0,1-13,9.36,40,40,0,0,0-11.22,9.52c-5.22,6.73-5.16,12.85-4.71,16V515.48a.71.71,0,0,1-.05.29c-.74,2.14-8.65,27.79,38.25,27.79,15.3,0,37.2,1.71,64.46,0"/><path class="cls-1" d="M300,543.56c27.26,1.71,49.16,0,64.46,0,46.9,0,39-25.65,38.25-27.79a.71.71,0,0,1,0-.29V294.64c.45-3.19.51-9.31-4.71-16a40,40,0,0,0-11.22-9.52,78.17,78.17,0,0,1-13-9.36A50.47,50.47,0,0,1,362.22,245a.91.91,0,0,1-.08-.6c10.4-46.45-11.81-113.16-12.52-115.27a.42.42,0,0,1,0-.1c-.66-1.35-14.77-30.93-6.61-38.95,6.38-6.27-1.85-14.93-6.1-18.68-.8-.71-.18-1.85,1-1.85h10.32a1.25,1.25,0,0,0,1.38-1.15C348.93,53.24,300,55.85,300,55.85"/><path class="cls-2" d="M300,51.05V67.82a1.54,1.54,0,0,1-1.44,1.63H249.62a1.56,1.56,0,0,1-1.45-1.7C249,47.85,290.53,49,298.64,49.43A1.54,1.54,0,0,1,300,51.05Z"/><path class="cls-2" d="M350.21,69.45H295.37a1.62,1.62,0,0,1-1.61-1.63V51.05a1.61,1.61,0,0,1,1.52-1.62c9.09-.42,55.64-1.58,56.55,18.32A1.64,1.64,0,0,1,350.21,69.45Z"/><path class="cls-1" d="M260.31,81l29.57-7.85c0,2.59,0,5.17.06,7.76q.82,107.07,1.64,214.14.1,13.2.2,26.42"/><path class="cls-2" d="M229.83,443.15V446H213.75v-10.5h3.72v7.61Z"/><path class="cls-2" d="M231.52,435.54h3.73V446h-3.73Z"/><path class="cls-2" d="M257,435.54V446h-3.64v-6.43l-6.32,4.44-6.48-4.47V446h-3.65v-10.5h3.65l6.48,4.37,6.32-4.37Z"/><path class="cls-2" d="M262.45,438.39v1.44H274v2.85H262.45V446h-3.73v-10.5h16.45v2.85Z"/><path class="cls-2" d="M294,441.26c0,3.3-2.23,5-5.85,5h-6.78c-3.63,0-5.85-1.56-5.85-5h3.73a1.86,1.86,0,0,0,2.12,2h6.78a1.86,1.86,0,0,0,2.12-2v-2.84H277.07v-2.88H294Z"/><path class="cls-2" d="M315.13,440.79c0,3.26-2.72,5.43-6.51,5.43h-6.79c-3.71,0-6.5-2.17-6.5-5.43s2.71-5.43,6.5-5.43h6.79C312.41,435.36,315.13,437.55,315.13,440.79Zm-3.8,0a2.47,2.47,0,0,0-2.71-2.35h-6.79a2.38,2.38,0,1,0,0,4.71h6.79A2.46,2.46,0,0,0,311.33,440.79Z"/><path class="cls-2" d="M316.47,435.54h13.24c3,0,5,1.82,5,4a4,4,0,0,1-2.65,3.62l2.11,2.83h-4.33l-1.61-2.4h-8V446h-3.75Zm13.24,5.21a1.16,1.16,0,1,0,0-2.31h-9.49v2.31Z"/><path class="cls-2" d="M354.76,440.79c0,3.24-2.81,5.25-6.52,5.25h-12v-10.5h12C352,435.54,354.76,437.54,354.76,440.79Zm-3.79,0a2.5,2.5,0,0,0-2.73-2.37H340v4.74h8.29A2.53,2.53,0,0,0,351,440.79Z"/><path class="cls-2" d="M374.12,442.58c0,2.16-1.73,3.58-5.72,3.64h-7c-4.74,0-5.52-2.34-5.52-3.75h3.74c.11.53.82.81,2,.81h6.78c1.34,0,1.9-.24,1.9-.64s-.29-.56-1.15-.56h-8.66c-2.95,0-4.45-1.2-4.45-3.06s1.34-3.63,5.53-3.66h6.9c4.8,0,5.39,2.63,5.39,3.65h-3.74c-.07-.44-.53-.81-1.75-.81h-6.8c-1.41,0-1.73.34-1.73.66s.29.55,1.05.55h8.95C372.66,439.41,374.12,440.72,374.12,442.58Z"/><path class="cls-2" d="M232,457.59c0,2.24-2,4.05-5,4.05h-9.52V464h-3.72v-10.5H227C230,453.54,232,455.36,232,457.59Zm-3.73,0a1.23,1.23,0,0,0-1.3-1.15h-9.52v2.31H227A1.23,1.23,0,0,0,228.29,457.59Z"/><path class="cls-2" d="M252.83,458.79c0,3.26-2.71,5.43-6.51,5.43h-6.78c-3.71,0-6.51-2.17-6.51-5.43s2.71-5.43,6.51-5.43h6.78C250.12,453.36,252.83,455.55,252.83,458.79Zm-3.8,0a2.47,2.47,0,0,0-2.71-2.35h-6.78a2.38,2.38,0,1,0,0,4.71h6.78A2.46,2.46,0,0,0,249,458.79Z"/><path class="cls-2" d="M254.18,453.54h13.24c3,0,5,1.82,5,4a4,4,0,0,1-2.64,3.62l2.1,2.83h-4.32l-1.61-2.4h-8.05V464h-3.75Zm13.24,5.21a1.16,1.16,0,1,0,0-2.31h-9.49v2.31Z"/><path class="cls-2" d="M291.84,456.44H284.5V464h-3.73v-7.6h-7.34v-2.9h18.41Z"/><path class="cls-2" d="M297.26,456.39v1.05h11.56v2.73H297.26v1H310V464H293.53v-10.5H310v2.85Z"/><path class="cls-2" d="M311.66,453.54H324.9c3,0,5,1.82,5,4a4,4,0,0,1-2.65,3.62l2.1,2.83h-4.32l-1.61-2.4h-8V464h-3.75Zm13.24,5.21a1.16,1.16,0,1,0,0-2.31h-9.49v2.31Z"/><line class="cls-3" x1="197.34" y1="387.83" x2="402.66" y2="387.83"/><line class="cls-3" x1="197.34" y1="393.75" x2="402.66" y2="393.75"/><line class="cls-3" x1="197.34" y1="399.67" x2="402.66" y2="399.67"/><line class="cls-3" x1="197.34" y1="405.59" x2="402.66" y2="405.59"/><line class="cls-3" x1="197.34" y1="411.51" x2="402.66" y2="411.51"/><line class="cls-3" x1="197.34" y1="417.43" x2="402.66" y2="417.43"/><line class="cls-3" x1="197.34" y1="475.04" x2="402.66" y2="475.04"/><line class="cls-3" x1="197.34" y1="481.12" x2="402.66" y2="481.12"/><line class="cls-3" x1="197.34" y1="487.19" x2="402.66" y2="487.19"/><line class="cls-3" x1="197.34" y1="493.27" x2="402.66" y2="493.27"/><line class="cls-3" x1="197.34" y1="499.34" x2="402.66" y2="499.34"/><line class="cls-3" x1="197.34" y1="505.42" x2="402.66" y2="505.42"/></svg>