<svg id="Layer_1" data-name="Layer 1" xmlns="http://www.w3.org/2000/svg" width="600" height="600" viewBox="0 0 600 600"><defs><style>.cls-1{fill:#edab35;}.cls-2{fill:#d12d26;}.cls-3{fill:#1d1d1b;}.cls-4{fill:#d6453e;}</style></defs><path class="cls-1" d="M300,36.74s-57.26-2.83-58,13.64c0,.69.7,1.25,1.61,1.25h12.08c1.4,0,2.14,1.25,1.19,2-5,4.08-14.6,13.5-7.14,20.32,9.56,8.73-7,40.91-7.73,42.38a.49.49,0,0,0,0,.11c-.84,2.3-26.84,74.89-14.66,125.43a.93.93,0,0,1-.09.65,55.55,55.55,0,0,1-13.51,16,91.6,91.6,0,0,1-15.18,10.19,46.19,46.19,0,0,0-13.14,10.35c-6.1,7.33-6,14-5.51,17.46,0,0,0,.08,0,.12V536.89a1.28,1.28,0,0,1-.06.32c-.87,2.32-10.13,30.23,44.76,30.23,17.91,0,43.55,1.87,75.45,0"/><path class="cls-1" d="M300,567.44c31.9,1.87,57.54,0,75.45,0,54.89,0,45.63-27.91,44.76-30.23a1.28,1.28,0,0,1-.06-.32V296.7s0-.08,0-.12c.52-3.47.59-10.13-5.51-17.46a46.19,46.19,0,0,0-13.14-10.35,91.6,91.6,0,0,1-15.18-10.19,55.55,55.55,0,0,1-13.51-16,.93.93,0,0,1-.09-.65c12.18-50.54-13.82-123.13-14.66-125.43a.49.49,0,0,0,0-.11c-.77-1.47-17.29-33.65-7.73-42.38,7.46-6.82-2.17-16.24-7.14-20.32-1-.77-.21-2,1.19-2h12.08c.91,0,1.65-.56,1.61-1.25-.78-16.47-58-13.64-58-13.64"/><path class="cls-2" d="M300,33.49V50a1.6,1.6,0,0,1-1.61,1.59H243.57A1.6,1.6,0,0,1,242,49.88c.92-19.53,47.44-18.39,56.51-18A1.58,1.58,0,0,1,300,33.49Z"/><path class="cls-2" d="M356.25,51.54H295.32A1.7,1.7,0,0,1,293.53,50V33.49a1.67,1.67,0,0,1,1.7-1.59c10.09-.41,61.8-1.55,62.81,18A1.7,1.7,0,0,1,356.25,51.54Z"/><path class="cls-3" d="M239.3,388.64V401.7h-3.46v-4.85H225.58v4.85h-3.46V388.64h3.46v4.57h10.26v-4.57Z"/><path class="cls-3" d="M259.25,395.17c0,4.05-2.52,6.76-6,6.76h-6.3c-3.44,0-6-2.71-6-6.76s2.52-6.75,6-6.75h6.3C256.73,388.42,259.25,391.14,259.25,395.17Zm-3.53,0a2.66,2.66,0,0,0-2.51-2.93h-6.3a3,3,0,0,0,0,5.86h6.3A2.65,2.65,0,0,0,255.72,395.17Z"/><path class="cls-3" d="M264,392.19v1.3h10.73v3.4H264v1.27h11.8v3.54H260.5V388.64h15.26v3.55Z"/><path class="cls-3" d="M276.7,395.17c0-4,2.52-6.75,6.05-6.75H289a5.81,5.81,0,0,1,5.85,4.9H291a2.39,2.39,0,0,0-2-1.08h-6.29c-1.53,0-2.52,1.29-2.52,3s1,3,2.52,3H289a2.13,2.13,0,0,0,1.86-.93h-5v-3l9.14,0v.8c0,3.75-2.47,6.76-6,6.76h-6.29C279.3,401.93,276.7,399.22,276.7,395.17Z"/><path class="cls-3" d="M309.47,399.63H299l-.46,2.07H295l2.91-13.06h12.59l2.91,13.06h-3.51Zm-.8-3.64-.82-3.75h-7.27l-.81,3.75Z"/><path class="cls-3" d="M328.19,399.63H317.7l-.46,2.07h-3.49l2.91-13.06h12.59l2.91,13.06h-3.51Zm-.8-3.64-.82-3.75H319.3l-.82,3.75Z"/><path class="cls-3" d="M333.1,388.64h12.28a4.73,4.73,0,0,1,4.68,5,5,5,0,0,1-2.46,4.5l1.95,3.52h-4l-1.49-3h-7.48v3H333.1Zm12.28,6.47a1.45,1.45,0,0,0,0-2.87h-8.81v2.87Z"/><path class="cls-3" d="M368.63,395.17c0,4-2.61,6.53-6.05,6.53H351.44V388.64h11.14C366,388.64,368.63,391.12,368.63,395.17Zm-3.52,0a2.69,2.69,0,0,0-2.53-2.95h-7.7v5.9h7.7A2.73,2.73,0,0,0,365.11,395.17Z"/><path class="cls-3" d="M373.35,392.19v1.3h10.73v3.4H373.35v1.27h11.8v3.54H369.89V388.64h15.26v3.55Z"/><path class="cls-3" d="M404.07,388.64V401.7h-3.4l-10.55-8.17v8.17h-3.4V388.64h3.4l10.55,8.19v-8.19Z"/><path class="cls-3" d="M250.53,411l-5.66,13.06H240.1L236,415.2l-4.09,8.9h-4.76L221.49,411h3.81l4.2,10,4.4-10h3.91l4.68,10,4.24-10Z"/><path class="cls-3" d="M254.94,414.59v1.3h10.72v3.4H254.94v1.27h11.79v3.54H251.47V411h15.26v3.55Z"/><path class="cls-3" d="M268.31,411h3.46V424.1h-3.46Z"/><path class="cls-3" d="M290.05,419.79c0,2.69-1.61,4.46-5.31,4.54h-6.51c-4.4,0-5.13-2.91-5.13-4.67h3.48c.09.65.75,1,1.87,1h6.29c1.25,0,1.77-.3,1.77-.8s-.27-.69-1.07-.69h-8c-2.74,0-4.12-1.5-4.12-3.81s1.24-4.52,5.12-4.55h6.41c4.45,0,5,3.26,5,4.53h-3.48c-.06-.54-.48-1-1.62-1H278.4c-1.3,0-1.6.43-1.6.82s.27.7,1,.7h8.31A3.64,3.64,0,0,1,290.05,419.79Z"/><path class="cls-3" d="M308.09,419.79c0,2.69-1.61,4.46-5.3,4.54h-6.52c-4.4,0-5.12-2.91-5.12-4.67h3.47c.1.65.76,1,1.87,1h6.3c1.24,0,1.76-.3,1.76-.8s-.27-.69-1.07-.69h-8c-2.74,0-4.12-1.5-4.12-3.81s1.24-4.52,5.13-4.55h6.4c4.45,0,5,3.26,5,4.53h-3.47c-.07-.54-.49-1-1.62-1h-6.31c-1.31,0-1.61.43-1.61.82s.27.7,1,.7h8.3A3.64,3.64,0,0,1,308.09,419.79Z"/><path class="cls-3" d="M325.61,417.55a4,4,0,0,1,.77,2.39c0,2.32-1.57,4.16-3.52,4.16H309.42V411h13.44c1.95,0,3.52,1.87,3.52,4.18A3.69,3.69,0,0,1,325.61,417.55ZM312.81,416h9.5a.63.63,0,0,0,.55-.67.62.62,0,0,0-.55-.67h-9.5Zm10.05,3.79a.7.7,0,0,0-.61-.72h-9.44v1.45h9.45A.67.67,0,0,0,322.86,419.77Z"/><path class="cls-3" d="M327.64,411h3.46V424.1h-3.46Z"/><path class="cls-3" d="M336.13,414.59v1.3h10.73v3.4H336.13v1.27h11.8v3.54H332.67V411h15.26v3.55Z"/><path class="cls-3" d="M349.5,411h12.29c2.82,0,4.67,2.26,4.67,5a5,5,0,0,1-2.45,4.5L366,424.1h-4l-1.5-3H353v3H349.5Zm12.29,6.48a1.46,1.46,0,0,0,0-2.88H353v2.88Z"/><path class="cls-4" d="M355.84,125.39c0-.57-.39-.36-.47-.44C355.48,125.9,355.94,125.36,355.84,125.39Z"/><polygon class="cls-4" points="356.89 134.83 356.72 134.66 357.14 136.06 356.89 134.83"/><path class="cls-4" d="M356.82,143.68c.73-.83-.05-3.21.21-4.78l.16-.26-.58-.72A35.69,35.69,0,0,1,356.82,143.68Z"/><path class="cls-4" d="M355.18,148.35c.29-.28.21,1,.12-1.09a2,2,0,0,1-.07.2C355.23,147.65,355.22,147.91,355.18,148.35Z"/><path class="cls-4" d="M355.23,147.46c0-.93-.26.6,0,0Z"/><path class="cls-4" d="M355.25,151.75l-.21-1.23c-.17.25-.25,1.33-.35.92C354.78,152.7,355,152.45,355.25,151.75Z"/><path class="cls-4" d="M355.73,152.93l-.08-.64C355.57,152.4,355.54,152.56,355.73,152.93Z"/><path class="cls-4" d="M355.47,150.94l.18,1.35c.12-.17.35-.19-.06-.62C355.79,151.79,355.6,151.51,355.47,150.94Z"/><path class="cls-4" d="M355.6,150.18c.18-.68.3-1.57.51-.33C356.09,147.5,355.58,147.84,355.6,150.18Z"/><path class="cls-4" d="M357.55,144.14l.23-.91-.23-.81C357.66,142.82,357.33,144.2,357.55,144.14Z"/><path class="cls-4" d="M354.55,159.34c.14.09.42-.39.62-.47L355,158C354.91,158.42,354.77,159.29,354.55,159.34Z"/><path class="cls-4" d="M355.17,158.87l.19,1.37C355.45,159,355.34,158.8,355.17,158.87Z"/><polygon class="cls-4" points="356.51 153.18 356.04 150.93 356.51 153.6 356.51 153.18"/><polygon class="cls-4" points="354.22 164.49 353.92 163.7 354.36 165.1 354.22 164.49"/><path class="cls-4" d="M354.06,167.91c-.26-.59-.55.74-.69.13a10.51,10.51,0,0,0,.34,2.46A6.87,6.87,0,0,1,354.06,167.91Z"/><path class="cls-4" d="M353.93,171.72a10.57,10.57,0,0,0-.22-1.22A5.22,5.22,0,0,0,353.93,171.72Z"/><path class="cls-4" d="M355.16,162.53a1.68,1.68,0,0,0-.51,1l.47-.51C355.13,162.9,355.14,162.72,355.16,162.53Z"/><path class="cls-4" d="M355.13,163.05h0c-.05.58-.09,1-.1,1.15C355,164.06,355.07,163.71,355.13,163.05Z"/><path class="cls-4" d="M355.17,162.4v.13C355.2,162.48,355.22,162.45,355.17,162.4Z"/><path class="cls-4" d="M356,156.71c.2.8.38,2.48.82.89C356.53,157,356.27,157.92,356,156.71Z"/><path class="cls-4" d="M355.75,161.77l.17-1.43c-.12,0-.29.27-.39-.13Z"/><polygon class="cls-4" points="355.83 162.48 355.75 161.77 355.67 162.3 355.83 162.48"/><path class="cls-4" d="M354.54,169.31a8.75,8.75,0,0,1,.06,2.07,23,23,0,0,0,.33-2.46C354.8,168.8,354.6,168.43,354.54,169.31Z"/><path class="cls-4" d="M354.87,166.27v.14C354.92,166.32,354.94,166.26,354.87,166.27Z"/><polygon class="cls-4" points="353.91 178.9 354 178.79 353.93 178.75 353.91 178.9"/><path class="cls-4" d="M355,168.79a2.53,2.53,0,0,0-.06-1.35c0,.47,0,1,0,1.48C355,169,355,169,355,168.79Z"/><path class="cls-4" d="M354,173.84a10.07,10.07,0,0,0,.33-1.05C354.12,173.09,353.85,173.71,354,173.84Z"/><path class="cls-4" d="M354.75,166.61v-.1C354.63,166.71,354.68,166.69,354.75,166.61Z"/><path class="cls-4" d="M354.75,166.61a4.57,4.57,0,0,0,.21.83,7.71,7.71,0,0,0-.08-1A.86.86,0,0,1,354.75,166.61Z"/><path class="cls-4" d="M356.4,181.47c-.38-.15-.58-1.81,0-3.18-.16-1.41-1.55-.63-2.39.5.16.06.32.07.41,1.51.26-.47.83-3.09,1.06-1.86,0,1.9-.3,1.53-.6,2.42.57-.73.47,2.46,1.23,2.14l-.08-1.68C356.13,181.3,356.25,181.92,356.4,181.47Z"/><path class="cls-4" d="M354.31,176.1v-.59a7.28,7.28,0,0,1-.73,2c.1,1,.22,1.2.34,1.28l.35-2.85Z"/><path class="cls-4" d="M354.53,172.9c.39.49.46,1.91,1,1.09.12-1.72-.25-1.23-.35-2.27-.13,2.77-.17-.81-.59,1.16a14.63,14.63,0,0,1,0-1.5c-.1.5-.2,1-.32,1.41l0-.06h0c.06-.11.1-.15.05,0s0,.05,0,.06.1.08.15.14c-.16.79-.12.11-.15-.14l-.06,0h0v2.78A19.89,19.89,0,0,0,354.53,172.9Z"/><path class="cls-4" d="M357.64,159.13c0,.08-.07.08-.1.08C357.58,159.4,357.61,159.47,357.64,159.13Z"/><path class="cls-4" d="M357.33,160.26a1.8,1.8,0,0,1-.14-1c.16-.56.21,0,.35,0-.1-.4-.24-1.4-.51-.17l.05.2a5.75,5.75,0,0,1-.86,2.32A3.75,3.75,0,0,0,357.33,160.26Z"/><path class="cls-4" d="M356.08,166.69l.06,2.32.45-1.15-.23,0C356.54,166.6,356.24,166.86,356.08,166.69Z"/><polygon class="cls-4" points="353.67 179.14 353.24 178.79 353.75 180.18 353.67 179.14"/><polygon class="cls-4" points="353.41 182.13 353.03 181.98 353.19 182.79 353.41 182.13"/><path class="cls-4" d="M287.12,334.21l-.51.48A3.57,3.57,0,0,0,287.12,334.21Z"/><path class="cls-4" d="M291.22,331.28l0-.23C291.08,331.27,291.05,331.4,291.22,331.28Z"/><path class="cls-4" d="M337.51,253.72c-.69.8-1.61,1.62-1.15,1.67l.51-.13A5.36,5.36,0,0,1,337.51,253.72Z"/><path class="cls-4" d="M317.29,299.9l.27-.17c0-.28,0-.55,0-.79Z"/><path class="cls-4" d="M318.37,301.5l-1,.92A8.71,8.71,0,0,0,318.37,301.5Z"/><path class="cls-4" d="M263.93,348.48l-.48.77C264.54,348.65,264,348.71,263.93,348.48Z"/><path class="cls-4" d="M349,212.49a12.83,12.83,0,0,0-.69,2C348.72,213.56,349.26,212.82,349,212.49Z"/><path class="cls-4" d="M286.06,329.32c-.29.3-.38.47-.31.55C286.05,329.56,286.2,329.36,286.06,329.32Z"/><path class="cls-4" d="M347.77,216.92a3.89,3.89,0,0,0,.19-.42,13.17,13.17,0,0,1,.31-2A4.28,4.28,0,0,0,347.77,216.92Z"/><path class="cls-4" d="M203.09,416.47a1.76,1.76,0,0,1-.09.2C203.06,416.7,203.08,416.61,203.09,416.47Z"/><path class="cls-4" d="M196,444.34c0-.28,0-.74,0-1.18A5,5,0,0,0,196,444.34Z"/><path class="cls-4" d="M351.71,194.07c.07-.64,0-.11,0,0Z"/><path class="cls-4" d="M353.85,191.24c0,.14.08.25.17.28A.51.51,0,0,1,353.85,191.24Z"/><path class="cls-4" d="M349,223.71v0C349.13,223.59,349.11,223.62,349,223.71Z"/><path class="cls-4" d="M352.05,193.15a8,8,0,0,0-.25.78C351.85,193.81,351.93,193.57,352.05,193.15Z"/><path class="cls-4" d="M351.82,193.25c.05-.22.09-.39.12-.55S351.83,192.68,351.82,193.25Z"/><path class="cls-4" d="M351.61,195c.05-.36.12-.7.19-1,0,.12-.08.17-.09.14Z"/><path class="cls-4" d="M225.77,372.26l-.13.06C225.27,372.87,225.47,372.67,225.77,372.26Z"/><path class="cls-4" d="M335.47,270.84s0,0,0-.08a.35.35,0,0,0-.05.08Z"/><path class="cls-4" d="M334.83,273.09a3,3,0,0,1,.6-2.25L334,271Z"/><path class="cls-4" d="M277.05,340.74l1.6-.5c-1.37,1.56-2.72,2.1-1.11,1.79-.49-1.27,5.41-3.41,4.86-4.72l1.06-.34c-.26.16-.26.25-.53.4,2.13-.58.79-1.66,3.14-3,.84-.44,1.49-.66,1.05-.16l1.53-1.49c.51-.33.53-.06,0,.28.86-.64,1.69-1.32,2.52-2v.05c.24-.45.87-1.33,1.17-1.76.76-.36-.23.37,0,.37l1.18-1.37c.79-.18-.15,1-1.14,1.74a1.63,1.63,0,0,0,1.69-.79,7,7,0,0,1,2.51-2.1l-1.16,1.25c1.32-.13,2.14-1.22,3.91-2.13-.52.12-3.69,1.62-2.45.08a5,5,0,0,0,1.66-1.61c.34.36,1-.4,1.91-1.33l.38.53c.87-1.1.56-1.26.94-2a2.48,2.48,0,0,1,2.29-.86c1.77-1.73-1.73.69.18-1.53a17.58,17.58,0,0,0,3.71-4.63c1.09-.94.13.45.6.18l.43-1.3c.21-.23.27-.05.29,0,.54-.94-.42-.48.52-1.86-.22-.76,3-2,3.6-4.15.46-.29.16.43.46.46a20.13,20.13,0,0,0,2-4.47l1.49-1.36c-1.24.9-.61-.93-.08-2.52-.47.3-.9.53-1.15.72.42-.75.77-1.55,1.15-2.32.26-.2.3.14.29.64.05-.18.1-.34.13-.48.7-.64.75,0,.68.72l-.83.55c0,.76,0,1.49.36,1.59a4.43,4.43,0,0,1,.34-.8c0,.2,0,.34.11.31s.13-.34.23-.78l.92-.1-.16-.28,2.25-2.6c.38-1.2.57-2.42.92-3.74a24.67,24.67,0,0,1,1.66-4.49c0,1.09.64.61,1.15,1-1.07.59-1.29,2.7-2.44,4.35.6-.85.73-.5.68-.22l1.34-3.36c.4.33.71-.46,1.34-1.18-1.21.12.72-2.64,1.16-4.05.34.08.47.55-.47,2.05,1.61-1.35.23-2.75,1.66-4.15-.19.39-.35.57-.27.81.19-1,1.53-3.11,1.53-2.47l-.19.39c1.48-2.46,3.85-7.83,3.27-8.56a3.62,3.62,0,0,1,.85,1c-.11-1.94-.33-3.89-.52-5.82.49.71,2.78-.17,2.2,2.17a8,8,0,0,0,1.16-2.73c-.28.39-1.43.64-1.24,0a14.31,14.31,0,0,0,2.35-2.65c-.4.58-1.17-.58-.72-1.58.09.23,1.08.35,1,.76l0-3c-.07.7.84.46,1.37,0-.3.19.9-2.2,1-2.93l-.65,1c1.24-2.84-.41-3.41.7-6.25.09.42,1,1.35,1.7-.08-.31-.87-1.6-3.9-1.16-6.57l.48-.39.26-2.08a36.88,36.88,0,0,1,1.05,7.61c.62-1,.47-.18,1-1.83.49-.49.13,1,0,1.53l1.5-3.77c-.67,0,.28-3.16-.29-3.18-.21,1.46-.42,2.93-.69,4.39-.35,0-.59-.77-.63-1.85a10.54,10.54,0,0,1,.57-3.83c.47-.62,1,.87,1.22.88a7.91,7.91,0,0,1,.61-2.92v1.26c.72-1.45-.08-2.74,1-4.4.22-.62,1.37-1.66,1-1.88-1,.83-3.37.38-3.73-.46a42.29,42.29,0,0,1,2.18-3.74c.85-.89,1,2,1.71,1.19-.17-.09-.24-.73-.24-1,.32-.63.47.43.77-1.05-.6-.42.81-2.95-.38-.84.17-1.47.52-1.48.92-3.16-.55.43-1.08-1.85-.95-3.33.15.13.44-.14.58-.27.74-2.91,1.42-4.42,2-7.16.22-.22.69-1.51.86-.88a4.41,4.41,0,0,1,0-1.68c.92-1.53-.3,1.91.65.79-.37-.18-.06-2.3-.1-3.56-.65.26-.66,2.77-.67,4-.84-.17-1.22-2.43-1.1-5.37.21-2.32.72-.89.67-1.31,1-4.26-.78-3.9.4-7.36.76-1.33,1.07.11,1.5-.14-.1,1.9-.8,2.81-1,4.08l.51-1.52a6.07,6.07,0,0,1-.28,2.55,18.36,18.36,0,0,0,1-4.46c.37-2.08.75-4.43,1.2-6.07-.1-.62-.14-1.67-.42-1.22l-.08,1.07c-.56.9-.31-2.07-.7-.77a14.6,14.6,0,0,1,.16-5l.65-.3c-.19,0-.51,1.26-.41,1.84-.15-.86,1.2-2.95.52-4l-.59,1.34a15.14,15.14,0,0,1-.16-5c-.7.73,0,.41-.84,1.58,1-1-.59,4.49.55,2.87-1,1.18-.6,2.18-1.55,3.75.21,0,.47-.54.16.92a1.81,1.81,0,0,1,.13.35l0,.1,0-.08c0,.07,0,.07,0,0a2.12,2.12,0,0,1,.41-.71c.36.8,0,3.14.14,4-.22.86-.18-.4-.46,0l.18,1.24c-.45,0-1.11,2.2-1,.11l-.32,1.84a9.66,9.66,0,0,0-.73,3.48c-.24.85.13,2.28-.1,1.46l-.25,2.94h-.11c-.3,1.42-.38,2.92-.57,4.46A15.48,15.48,0,0,1,348,216.5a14.2,14.2,0,0,1-.63,3.56l-.46.22c-.15,1.25-1.22,3.57-.95,4.18-1.29,1.08-1.71,5.82-2.42,7.9l.47.21a38.3,38.3,0,0,0-1,4.75h.46c-.06,1.67-1.48,3.91-2.2,6.36-.11-.22.12-.82.36-1.23-1.84,2.62-1.29,6.37-2.89,8.77a3.24,3.24,0,0,1-.55,1.58,1.36,1.36,0,0,0,0-.17l-.11.26c-.18.26-.37.53-.56.82a4,4,0,0,0,.51-.67,17.71,17.71,0,0,0-.58,2.06l-.57.15a1.09,1.09,0,0,1-.05.17c-.43.67,0,.67.48.41a6.27,6.27,0,0,0-.09,1.08c-1,.31-.46,2.06-1.57,2.55.17.64-1.22,3.8-.59,4.52-.11,0-.25.18-.09-.22a7.51,7.51,0,0,0-.95,2.39l-.71.11,0,2.09c-.82.93-1.21,1.29-1.17,0-.49,2.86-.64,2.21-1,4.67l-.31-.27c-.35.78-.46,2.24-1,2.57a9.16,9.16,0,0,0-1.33,2c-.53.92-1.12,2-1.76,3.26a50.28,50.28,0,0,1-4.3,7.1c.74-.12.34.31-.15.85s-1.12,1.16-.78,1.47c-.38.11-.87.61-.66-.19-1.08,2.26-2.29,3-2.59,4.83-.39.09-.05-.66-.33-.54-.05.2-.23.79-.51.92s0-.43.12-.83c-1.35,2.15-.79,2.83-.22,3.43a3.28,3.28,0,0,0-1.44,2.51c-.48.22-1.14.67-.3-.67-.55.71-3.47,4.21-3,4.66a3.27,3.27,0,0,0-.88,1.2c-1.27,1.56-1.42,1.66-2.58,3.25l.41-.37c.14,1.11-.87,1.4-1.84,2.66l0-.08c-2.8,2.39-.78,1.41-3.67,3.65l.49.18c.52.93-2.6,1.93-3.77,3.68.24-.11.5-.21.73-.34-.56,1.06-3.27,1.22-4.16,1.91-.24.11.18-.37.38-.66-2.54,1.61.17.74-1.34,2.36-.53,0-.19-1-1.34-.06-.74.25-2.48,3.7-4.52,4.42.51-.07,1-.15.34.65-1.18,1.07-4,1.8-4.65,3.28-.21.06-.31.05-.35,0-.85.89-3,2.5-3.4,3.29-.94-.4-2.39.8-3.76,1.89s-2.63,2.13-3,1.46c-1.06.66-2.12,1.31-3.19,1.95v-.18a7.88,7.88,0,0,0-3.24,2.56c-.54.18-.25-.14-.25-.23a14.29,14.29,0,0,0-5.71,3.74l-.51-.28c-.56.64-4.84,1.76-7.58,4,0-.07,0-.19.22-.38-3.1,2.4-8.81,3.58-9.06,5.9l-1.93,1.77c2.88-1.69,0,.93,1.32.43-1,.79-3.11,1.41-1.83.44l.26-.07c0-1.12-3.63,2-3.91,1.46-5.39,3.75-10.8,7.24-15.58,11.15l1,.11-1.67,1.34c-.54.24-1,.05.25-.91-.89.19-1.74,1.93-1.67,2.07-2.47,1.74.33-1.41-.38-.82l-.91.86.27-.12a6.24,6.24,0,0,1-1.84,2.37c-1,.67-.75.07-1.12.35,0,0-.16.05-.54.47-.69.6-1.37,1.21-2.05,1.84l1.2-.35c-.69,1-1.87,1.78-.51,1.36-1,.28-2.9,2.05-4.48,4s-2.85,4-3.28,4.43a36,36,0,0,1-2.3,5c.35-.42,1-.42.23,1.17-1-1.16-1.84,2.77-3.19,3.82.52-.5.12.71-.19,1.86s-.52,2.21.21,1.39c-.54,1.38-.5-.07-1.14.92-.55,3.54-2.39,7.46-3.11,11.78.16.11.57-.55.63.41l-1.3,2.09c-.08.87.84,1,0,2.41.18-.19.46-.48.41.1a67.54,67.54,0,0,0-1.92,12.85,100.91,100.91,0,0,1-1.52,13.05c.37-1.17.39-.38.38.52.09-.58.43,0,.67-.09-.25,1.2-.46,2.41-.7,3.62.66.66.08,3.9.74,4.26l-.14-1.14c.77,1.5,1.63-2.16,2.59-1.94-.87-1.69,1.26-4.41.14-7.19.22-.6.29.53.52.21a4.67,4.67,0,0,1-.18-3.11l.09.18c.15-4.39.69-6.25,1.5-11.1l-.51.31a6.51,6.51,0,0,1,.54-1.73c-.57-1.29-.4,2.95-1,1.76,1.09-1.29,1-7.42,2.26-8.18.27-1.6-.63.38-.34-1.22l.36-.38-.3-.47c.24-1,.71-1.5,1-1.49a6.52,6.52,0,0,0-.1,1c.59-1.29.62-3.84.84-4.28l-.5,1.49c.59-4.41,2.24-9.57,3-13.78l-.31.24c.62-3.22,1-2.41,2.13-5.78v.14A7.37,7.37,0,0,1,209,392c-.14.91,1.18-1.29.94-.11a12.48,12.48,0,0,0,.71-2.37,5.74,5.74,0,0,1,.14-1.72l.59-.27a4.41,4.41,0,0,1,.94-2.51c-.58,1.36,1.11-.59.52,1a14.62,14.62,0,0,0,2.67-3.37c.61-.94,1.13-1.67,2.14-1.86.23-1-.43-.5-1.08.13s-1.25,1.41-1,1c-.79.38.36-1.58,1.28-2.35s2.35-.53,4.55-2.56c-.23.2-.19.27-.41.47,1-.56,1.41-1.74,2.75-2.34.18-1,1.39-1.15,1.05-1.9l-2,2c1.06-1.19,1.58-2.87,3.89-4.2a6,6,0,0,1-.86,1.34c.74-.31,1-1.06,1.8-1.38.33.76-2.5,2.3-3.39,3.87.83-.28,2.07-2.51,2-1.3.23-1.63,2.38-1.81,3.45-3.75l.19.45a7.06,7.06,0,0,1,1.07-1.22l-.46,1.16c1-1.45,2.79-1.63,3.88-2.82-2.63,2.05-.95,0-2.27.6,2.88-3,2.62-.48,6.17-3.4-.46.42-2.05,1.16-1.4.4a10.27,10.27,0,0,1,2.39-1.08c2.42-1.85-.67-.13.22-1.12,1.18-.13,1.09-1.06,2.09-2l.28.39c3.05-1.7.19-1.36,3-2.79l-.74,1.29,1.27-1.05,0,.64a9.53,9.53,0,0,1,3.33-2.33c-.52-.06-.28-.86,1-1.69,1-.31-.26.7,1.57-.5a1.82,1.82,0,0,1-1.57,1.24c0,.18-.25.51-.25.7a14.77,14.77,0,0,0,3.13-1.83,4.07,4.07,0,0,1-.79.34l2.38-2.2c.52-.09.25.23,0,.55.53-.36.81-.78,1.61-1.29,0,.47.23.79-.83,1.61l2.4-1.88c.26.05,1.58-.36,1.31,0,1.57-.62,3.23-2.67,5.34-3.48a1.91,1.91,0,0,1,.62-.58c1.89-.94,3.76-1.42,5.7-3.1l1.58-.09c1.64-1.1-2.11.18.61-1.66,1.91-1.33,1,.1,1.86-.14a9.69,9.69,0,0,1,4.34-3.11A17.73,17.73,0,0,1,277.05,340.74Zm19.86-14.37c-.29.39-.81,1.25-1.26,1.27C295.71,326.86,296.19,326.78,296.91,326.37ZM320,297.44a2.4,2.4,0,0,1-.91,1.2A4.76,4.76,0,0,1,320,297.44Zm31-96.43a.07.07,0,0,0,0,.05C350.72,202.06,350.85,201.71,351.06,201Zm.55-2.09c0-.22-.1-.22-.18-.14a2.5,2.5,0,0,1-.1,1.18C351.48,199.83,351.61,199.57,351.61,198.92ZM218.47,374.31l.41-.19C218.25,374.87,218.37,374.59,218.47,374.31Z"/><path class="cls-4" d="M318.26,301.3a.41.41,0,0,1-.34,0C317.88,301.52,318,301.57,318.26,301.3Z"/><path class="cls-4" d="M264,348.34l-.06,0a.26.26,0,0,0,0,.11Z"/><path class="cls-4" d="M348.78,232.57a2.64,2.64,0,0,1-.46.78C348.43,233.4,348.58,233.23,348.78,232.57Z"/><path class="cls-4" d="M352.37,187.52l-.05,1.38a3.62,3.62,0,0,1,.31-1.21C352.52,187.71,352.32,188,352.37,187.52Z"/><path class="cls-4" d="M356.64,175.92c-.05-.21,0-.43,0-.63l-.23,0C356.34,176.18,356.47,176.8,356.64,175.92Z"/><path class="cls-4" d="M354.11,186.45c.42-.06.39-.94.43-1.91,0,.06,0,.12,0,.17C354,184.36,354.05,185.41,354.11,186.45Z"/><path class="cls-4" d="M354.55,184.32a8.65,8.65,0,0,1,.1-.89C354.44,183.29,354.56,183.78,354.55,184.32Z"/><path class="cls-4" d="M351.75,196.18c.17-.44-.47-.36-.27-.59C351,195,351.67,198.7,351.75,196.18Z"/><polygon class="cls-4" points="355.54 185.83 355 186.12 355.33 186.7 355.54 185.83"/><path class="cls-4" d="M354.19,193.39l.36-1.52c-.09,0-.11-.19-.11-.43C354.28,192.38,354,193.4,354.19,193.39Z"/><path class="cls-4" d="M354.44,191.44a4.88,4.88,0,0,0,.08-1.25C354.49,190.46,354.44,191,354.44,191.44Z"/><polygon class="cls-4" points="355.43 187.95 355.27 188.4 355.1 189.48 355.43 187.95"/><path class="cls-4" d="M351.41,209.82l-.17,1.69c.14.2.33-.23.37-.87C351.57,210.22,351.62,209.59,351.41,209.82Z"/><path class="cls-4" d="M353.68,205a1.48,1.48,0,0,1-.5.67l.6.16Z"/><path class="cls-4" d="M352.93,209.92c.14.2,0,2.52.39.39C353.19,210.11,353.36,208.41,352.93,209.92Z"/><polygon class="cls-4" points="346.45 234.67 346.56 234.25 345.56 234.04 346.45 234.67"/><path class="cls-4" d="M341.85,257c.94-1.82-.42-.67.5-2.28-.06-.52-.75,1.32-.78.79C341.39,256.69,341,257.25,341.85,257Z"/><path class="cls-4" d="M341.57,255.46c0-.2.06-.41.08-.63A3.15,3.15,0,0,0,341.57,255.46Z"/><polygon class="cls-4" points="195.5 449.13 195.31 450.45 195.63 449.59 195.5 449.13"/><path class="cls-4" d="M196.31,451.62l-.64.33.61.76A2.21,2.21,0,0,1,196.31,451.62Z"/><path class="cls-4" d="M300.54,324.9l0-.19c-.26,0-.48.24-1,.62C299.87,325.2,300.21,325.05,300.54,324.9Z"/><polygon class="cls-4" points="286.11 335.67 286.37 335.5 285.56 335.34 286.11 335.67"/><path class="cls-4" d="M273.74,344.1c.54-.27,1.1-.75,1.64-1C274.28,343.83,273.24,343.55,273.74,344.1Z"/><path class="cls-4" d="M350.33,106.57c0-.58-.39-.36-.47-.44C350,107.08,350.43,106.54,350.33,106.57Z"/><polygon class="cls-4" points="351.38 116.01 351.21 115.84 351.63 117.24 351.38 116.01"/><path class="cls-4" d="M351.31,124.86c.72-.83-.05-3.21.21-4.78l.16-.26-.58-.72A36.88,36.88,0,0,1,351.31,124.86Z"/><path class="cls-4" d="M349.67,129.53c.29-.28.21,1,.12-1.09,0,.1-.05.13-.07.19S349.71,129.09,349.67,129.53Z"/><path class="cls-4" d="M349.72,128.63c0-.92-.26.61,0,0Z"/><path class="cls-4" d="M349.74,132.93l-.21-1.24c-.17.25-.25,1.34-.35.93C349.27,133.88,349.44,133.63,349.74,132.93Z"/><path class="cls-4" d="M350.22,134.1l-.09-.63C350.06,133.57,350,133.74,350.22,134.1Z"/><path class="cls-4" d="M350,132.11l.17,1.36c.13-.18.36-.19-.05-.62C350.28,133,350.09,132.69,350,132.11Z"/><path class="cls-4" d="M350.09,131.36c.18-.69.3-1.57.51-.33C350.58,128.68,350.07,129,350.09,131.36Z"/><path class="cls-4" d="M352,125.32l.23-.92-.23-.8C352.15,124,351.82,125.37,352,125.32Z"/><path class="cls-4" d="M349,140.52c.15.08.43-.39.63-.47l-.13-.91C349.4,139.6,349.26,140.47,349,140.52Z"/><path class="cls-4" d="M349.66,140.05l.19,1.36C349.94,140.21,349.83,140,349.66,140.05Z"/><polygon class="cls-4" points="351 134.35 350.53 132.11 351 134.78 351 134.35"/><polygon class="cls-4" points="348.71 145.67 348.41 144.88 348.85 146.28 348.71 145.67"/><path class="cls-4" d="M348.55,149.08c-.26-.58-.55.74-.69.13a10.6,10.6,0,0,0,.34,2.47A6.72,6.72,0,0,1,348.55,149.08Z"/><path class="cls-4" d="M348.42,152.9c0-.38-.13-.78-.22-1.22A5.22,5.22,0,0,0,348.42,152.9Z"/><path class="cls-4" d="M349.65,143.71a1.68,1.68,0,0,0-.51,1l.47-.51C349.62,144.08,349.63,143.9,349.65,143.71Z"/><path class="cls-4" d="M349.62,144.22v0c-.06.58-.09,1-.11,1.15C349.52,145.24,349.55,144.89,349.62,144.22Z"/><path class="cls-4" d="M349.66,143.58v.13C349.69,143.66,349.71,143.63,349.66,143.58Z"/><path class="cls-4" d="M350.46,137.89c.2.8.38,2.48.82.89C351,138.19,350.76,139.1,350.46,137.89Z"/><path class="cls-4" d="M350.24,143l.17-1.43c-.12,0-.3.27-.39-.13Z"/><polygon class="cls-4" points="350.32 143.66 350.24 142.95 350.16 143.48 350.32 143.66"/><path class="cls-4" d="M349,150.48a8.35,8.35,0,0,1,.05,2.08,21.06,21.06,0,0,0,.34-2.46C349.29,150,349.09,149.6,349,150.48Z"/><path class="cls-4" d="M349.36,147.45v.13C349.41,147.5,349.43,147.44,349.36,147.45Z"/><polygon class="cls-4" points="348.39 160.08 348.49 159.97 348.41 159.93 348.39 160.08"/><path class="cls-4" d="M349.51,150a2.63,2.63,0,0,0-.06-1.35c0,.46,0,.95,0,1.48C349.48,150.16,349.52,150.17,349.51,150Z"/><path class="cls-4" d="M348.44,155a10.89,10.89,0,0,0,.33-1.05C348.61,154.27,348.34,154.89,348.44,155Z"/><path class="cls-4" d="M349.24,147.78v-.09C349.12,147.89,349.17,147.86,349.24,147.78Z"/><path class="cls-4" d="M349.24,147.78a4.48,4.48,0,0,0,.21.84,10.26,10.26,0,0,0-.08-1A.58.58,0,0,1,349.24,147.78Z"/><path class="cls-4" d="M350.89,162.65c-.38-.16-.58-1.82,0-3.18-.16-1.41-1.55-.63-2.4.5.17.06.33.07.42,1.51.26-.47.83-3.09,1.06-1.86,0,1.9-.3,1.53-.6,2.42.57-.73.47,2.46,1.23,2.13l-.08-1.68C350.62,162.48,350.74,163.09,350.89,162.65Z"/><path class="cls-4" d="M348.8,157.28v-.59a7.28,7.28,0,0,1-.73,2c.09,1,.22,1.2.34,1.28l.35-2.86Z"/><path class="cls-4" d="M349,154.08c.39.49.46,1.91,1,1.09.12-1.72-.25-1.23-.35-2.27-.13,2.77-.18-.81-.59,1.16,0-.55,0-1,0-1.5-.09.49-.19,1-.31,1.41l0-.06h0c.06-.12.1-.15.05,0s0,0,0,.06.1.08.15.14c-.16.79-.12.11-.15-.14,0,0,0,0-.06,0h0v2.78A19.89,19.89,0,0,0,349,154.08Z"/><path class="cls-4" d="M352.13,140.31c0,.08-.07.08-.1.08C352.07,140.57,352.1,140.64,352.13,140.31Z"/><path class="cls-4" d="M351.82,141.44a1.82,1.82,0,0,1-.14-1c.16-.56.2,0,.35,0-.1-.4-.24-1.4-.51-.17l.05.2a5.92,5.92,0,0,1-.86,2.32A3.85,3.85,0,0,0,351.82,141.44Z"/><path class="cls-4" d="M350.57,147.86l.06,2.33.45-1.15-.23,0C351,147.77,350.73,148,350.57,147.86Z"/><polygon class="cls-4" points="348.15 160.32 347.73 159.97 348.24 161.36 348.15 160.32"/><polygon class="cls-4" points="347.9 163.31 347.52 163.16 347.68 163.97 347.9 163.31"/><path class="cls-4" d="M281.61,315.39l-.51.48A4.25,4.25,0,0,0,281.61,315.39Z"/><path class="cls-4" d="M285.71,312.46l0-.23C285.57,312.45,285.54,312.57,285.71,312.46Z"/><path class="cls-4" d="M332,234.9c-.69.8-1.61,1.62-1.15,1.67l.51-.14A5.29,5.29,0,0,1,332,234.9Z"/><path class="cls-4" d="M311.78,281.08l.27-.17c0-.29,0-.55,0-.79C312,280.41,311.88,280.73,311.78,281.08Z"/><path class="cls-4" d="M312.86,282.68l-1,.92A8.71,8.71,0,0,0,312.86,282.68Z"/><path class="cls-4" d="M258.42,329.66l-.48.77C259,329.82,258.44,329.89,258.42,329.66Z"/><path class="cls-4" d="M343.45,193.67a13.11,13.11,0,0,0-.69,2C343.21,194.74,343.75,194,343.45,193.67Z"/><path class="cls-4" d="M280.55,310.5c-.29.3-.38.47-.31.54C280.54,310.74,280.68,310.53,280.55,310.5Z"/><path class="cls-4" d="M342.26,198.1a3.89,3.89,0,0,0,.19-.42,13.49,13.49,0,0,1,.31-2A4.25,4.25,0,0,0,342.26,198.1Z"/><path class="cls-4" d="M197.58,397.64a1.33,1.33,0,0,1-.09.21C197.55,397.88,197.57,397.79,197.58,397.64Z"/><path class="cls-4" d="M190.53,425.52a11.15,11.15,0,0,1,0-1.18A5,5,0,0,0,190.53,425.52Z"/><path class="cls-4" d="M346.2,175.24c.07-.63,0-.1,0,0Z"/><path class="cls-4" d="M348.34,172.41c0,.14.08.25.17.28A.41.41,0,0,1,348.34,172.41Z"/><path class="cls-4" d="M343.51,204.88v.06C343.62,204.77,343.6,204.8,343.51,204.88Z"/><path class="cls-4" d="M346.53,174.33c-.08.22-.16.49-.24.78A6.63,6.63,0,0,0,346.53,174.33Z"/><path class="cls-4" d="M346.31,174.42c.05-.21.09-.38.12-.54S346.32,173.86,346.31,174.42Z"/><path class="cls-4" d="M346.1,176.12a9.55,9.55,0,0,1,.19-1c0,.12-.08.17-.09.13C346.18,175.43,346.15,175.69,346.1,176.12Z"/><path class="cls-4" d="M220.26,353.44l-.13.06C219.76,354.05,220,353.85,220.26,353.44Z"/><path class="cls-4" d="M330,252s0,0,0-.07a.22.22,0,0,0-.05.08Z"/><path class="cls-4" d="M329.32,254.27a3,3,0,0,1,.6-2.25l-1.45.19Z"/><path class="cls-4" d="M271.54,321.92l1.6-.5c-1.37,1.55-2.72,2.1-1.11,1.78-.49-1.26,5.41-3.4,4.86-4.71l1.06-.34c-.26.15-.26.25-.53.4,2.13-.59.79-1.66,3.14-3,.84-.44,1.49-.67,1.05-.16l1.53-1.49c.51-.34.53-.06,0,.27.86-.64,1.69-1.31,2.52-2v.05c.24-.45.87-1.33,1.17-1.76.76-.36-.23.37,0,.37l1.18-1.37c.79-.18-.15,1-1.14,1.74a1.63,1.63,0,0,0,1.69-.79,6.94,6.94,0,0,1,2.51-2.1L290,309.56c1.32-.12,2.14-1.21,3.91-2.12-.52.12-3.7,1.62-2.45.08a5.06,5.06,0,0,0,1.66-1.61c.34.36,1-.41,1.91-1.33l.38.53c.87-1.1.56-1.26.94-2a2.52,2.52,0,0,1,2.29-.87c1.77-1.73-1.73.69.18-1.52a17.36,17.36,0,0,0,3.7-4.63c1.1-.94.14.45.61.18l.43-1.3c.21-.23.27-.05.29,0,.54-.94-.42-.48.52-1.86-.22-.76,3-2,3.6-4.15.46-.29.16.43.45.46a19.94,19.94,0,0,0,2-4.47l1.49-1.36c-1.24.9-.61-.93-.08-2.52-.47.3-.9.53-1.15.71.42-.75.77-1.54,1.15-2.31.26-.2.3.14.29.64.05-.18.1-.35.13-.48.7-.64.75,0,.68.71l-.83.56c0,.75,0,1.48.36,1.59a4.43,4.43,0,0,1,.34-.8c0,.2,0,.34.11.31s.13-.34.23-.79l.92-.09-.16-.28,2.25-2.6c.38-1.2.57-2.42.92-3.74a24.67,24.67,0,0,1,1.66-4.49c0,1.09.64.61,1.15,1-1.07.59-1.3,2.7-2.44,4.35.6-.86.73-.51.68-.23l1.34-3.35c.4.32.71-.47,1.34-1.18-1.21.12.72-2.65,1.16-4.06.34.09.47.55-.47,2.06,1.61-1.35.23-2.75,1.66-4.15-.2.39-.35.57-.27.8.19-1,1.53-3.11,1.53-2.46l-.19.39c1.48-2.47,3.85-7.83,3.27-8.56a3.62,3.62,0,0,1,.85,1c-.11-1.94-.33-3.9-.52-5.82.49.71,2.78-.17,2.2,2.17a8.1,8.1,0,0,0,1.16-2.73c-.28.38-1.43.64-1.24,0a13.69,13.69,0,0,0,2.35-2.65c-.4.59-1.17-.57-.73-1.57.1.22,1.09.34,1,.76v-3c-.07.71.84.47,1.37,0-.3.18.9-2.2,1-2.93l-.65,1c1.24-2.84-.41-3.42.7-6.25.09.42,1,1.34,1.7-.08-.31-.88-1.6-3.91-1.16-6.57l.48-.39.26-2.08a36.88,36.88,0,0,1,1.05,7.61c.62-1,.47-.18,1-1.84.5-.48.14,1,0,1.54l1.5-3.77c-.67,0,.28-3.17-.29-3.18-.21,1.46-.42,2.93-.69,4.39-.35,0-.59-.78-.63-1.85a10.33,10.33,0,0,1,.57-3.83c.47-.62,1,.87,1.22.88a8,8,0,0,1,.61-2.93v1.27c.72-1.45-.09-2.74,1-4.4.22-.62,1.37-1.67,1-1.88-1,.83-3.37.38-3.73-.46a42.29,42.29,0,0,1,2.18-3.74c.85-.89,1,1.94,1.71,1.19-.17-.09-.24-.73-.24-1,.32-.63.47.42.77-1.06-.6-.41.81-2.95-.38-.83.17-1.47.52-1.48.92-3.16-.55.43-1.08-1.86-.95-3.33.15.12.44-.14.58-.28.74-2.91,1.41-4.41,2-7.16.22-.21.69-1.5.86-.88a4.41,4.41,0,0,1,0-1.68c.92-1.52-.3,1.91.65.8-.37-.19-.06-2.3-.1-3.56-.65.26-.66,2.77-.67,4-.84-.17-1.22-2.43-1.1-5.37.21-2.32.72-.89.67-1.31.95-4.26-.78-3.9.4-7.36.76-1.33,1.07.11,1.5-.15-.1,1.91-.8,2.82-1,4.08l.51-1.51a6,6,0,0,1-.28,2.54,18.11,18.11,0,0,0,1-4.45c.37-2.08.75-4.44,1.19-6.08-.09-.62-.13-1.67-.41-1.21l-.08,1.06c-.56.91-.31-2.06-.7-.76a14.66,14.66,0,0,1,.16-5.06l.65-.29c-.19,0-.51,1.25-.41,1.84-.15-.86,1.2-3,.52-4l-.59,1.34a15.19,15.19,0,0,1-.16-5c-.7.74,0,.42-.84,1.59,1-1-.59,4.49.55,2.86-1,1.18-.6,2.19-1.55,3.76.21,0,.47-.54.16.92a1.59,1.59,0,0,1,.13.35l0,.1,0-.08c0,.07,0,.07,0,0a2.12,2.12,0,0,1,.41-.71c.36.79,0,3.14.14,4-.22.86-.18-.4-.46.05l.18,1.23c-.45.06-1.11,2.21-1,.12l-.32,1.84a9.85,9.85,0,0,0-.74,3.48c-.23.85.14,2.28-.09,1.46l-.25,2.94h-.11c-.3,1.42-.38,2.92-.57,4.45a15.54,15.54,0,0,1-1.29,4.63,13.84,13.84,0,0,1-.64,3.56l-.45.22c-.15,1.25-1.22,3.57-.95,4.18-1.29,1.07-1.71,5.81-2.42,7.9l.47.21a38.51,38.51,0,0,0-1,4.74l.46,0c-.06,1.67-1.48,3.9-2.2,6.36-.11-.22.12-.82.36-1.23-1.84,2.62-1.29,6.37-2.89,8.76a3.25,3.25,0,0,1-.55,1.59c0-.07,0-.12,0-.17s-.07.16-.11.26c-.18.26-.37.52-.56.82a3.65,3.65,0,0,0,.51-.68,18.3,18.3,0,0,0-.58,2.06l-.57.15a1,1,0,0,1-.05.18c-.43.67,0,.67.48.4a6.46,6.46,0,0,0-.09,1.09c-1,.31-.47,2.05-1.57,2.55.17.64-1.22,3.8-.59,4.52-.11,0-.25.18-.09-.22a7.12,7.12,0,0,0-.95,2.39l-.71.1,0,2.1c-.82.93-1.21,1.28-1.17,0-.49,2.86-.64,2.21-1,4.67l-.31-.27c-.35.78-.46,2.24-1,2.57a8.91,8.91,0,0,0-1.33,2c-.53.91-1.12,2-1.76,3.25a49.83,49.83,0,0,1-4.3,7.11c.73-.13.34.31-.15.85s-1.12,1.15-.78,1.47c-.38.1-.87.61-.66-.19-1.08,2.26-2.29,3-2.59,4.83-.39.09,0-.67-.33-.54-.06.2-.23.79-.51.91s0-.43.12-.82c-1.35,2.14-.79,2.83-.23,3.43a3.34,3.34,0,0,0-1.44,2.51c-.47.22-1.13.67-.29-.67-.55.7-3.48,4.2-3,4.66a3.58,3.58,0,0,0-.88,1.19c-1.26,1.56-1.41,1.67-2.57,3.26l.41-.37c.14,1.11-.88,1.4-1.84,2.66l0-.08c-2.8,2.39-.78,1.41-3.67,3.64l.49.18c.52.94-2.6,1.94-3.77,3.69l.73-.34c-.56,1.06-3.27,1.22-4.16,1.91-.24.11.18-.38.38-.66-2.54,1.6.17.73-1.34,2.35-.53,0-.19-1-1.34-.05-.74.25-2.48,3.7-4.52,4.42.51-.07,1-.15.34.65-1.18,1.06-4,1.8-4.65,3.28-.21.05-.31,0-.35,0-.85.89-3,2.51-3.4,3.29-.94-.39-2.39.81-3.76,1.9s-2.64,2.12-3,1.46c-1.06.66-2.12,1.31-3.19,1.95v-.18a7.8,7.8,0,0,0-3.24,2.56c-.54.18-.25-.14-.25-.23a14.29,14.29,0,0,0-5.71,3.74l-.51-.29c-.56.64-4.84,1.77-7.58,4,0-.06,0-.18.22-.38-3.1,2.41-8.81,3.59-9.06,5.91l-1.93,1.77c2.88-1.7,0,.92,1.32.43-1,.79-3.12,1.4-1.83.44l.26-.07c0-1.12-3.63,2-3.91,1.45-5.39,3.76-10.8,7.24-15.58,11.16l1,.11-1.67,1.34c-.54.24-.95.05.25-.91-.9.19-1.74,1.93-1.67,2.07-2.47,1.73.33-1.41-.38-.82l-.91.85.27-.12a6.25,6.25,0,0,1-1.84,2.38c-1,.67-.75.06-1.12.35,0,0-.16.05-.54.46-.69.6-1.37,1.22-2,1.85l1.2-.35c-.69,1-1.87,1.78-.51,1.36-1,.28-2.9,2-4.48,4s-2.85,4-3.28,4.43a36,36,0,0,1-2.3,5c.34-.42,1-.42.23,1.16-1-1.15-1.84,2.78-3.19,3.83.52-.51.11.71-.19,1.86s-.52,2.21.21,1.38c-.54,1.39-.5-.06-1.14.93-.55,3.54-2.39,7.45-3.11,11.78.16.1.57-.56.63.41l-1.3,2.09c-.09.87.84,1,0,2.41.18-.2.46-.48.41.09a66.85,66.85,0,0,0-1.92,12.86,101.11,101.11,0,0,1-1.52,13.05c.37-1.17.39-.38.38.52.09-.59.43,0,.67-.09-.25,1.2-.46,2.41-.7,3.62.66.66.08,3.89.74,4.26l-.15-1.15c.78,1.51,1.63-2.15,2.6-1.93-.87-1.69,1.26-4.41.14-7.19.22-.6.29.53.52.21a4.69,4.69,0,0,1-.18-3.12l.09.19c.15-4.39.69-6.25,1.5-11.1l-.51.3a6.17,6.17,0,0,1,.54-1.72c-.57-1.29-.4,2.95-1.05,1.76,1.09-1.29,1-7.43,2.26-8.18.27-1.6-.63.38-.34-1.23l.36-.37-.3-.47c.24-1,.71-1.5,1-1.49a7.91,7.91,0,0,0-.09,1c.59-1.29.62-3.83.84-4.27l-.5,1.49c.59-4.42,2.24-9.57,3-13.78l-.31.24c.62-3.23,1-2.41,2.13-5.78v.14a7.37,7.37,0,0,1,.76-2.53c-.14.91,1.18-1.29.94-.12a12.29,12.29,0,0,0,.71-2.36,5.74,5.74,0,0,1,.14-1.72l.59-.27a4.45,4.45,0,0,1,.94-2.52c-.58,1.37,1.11-.58.52,1a14.6,14.6,0,0,0,2.67-3.36c.61-.95,1.13-1.67,2.14-1.87.23-1-.44-.49-1.08.13s-1.25,1.42-1,1c-.79.38.36-1.58,1.28-2.36s2.34-.52,4.55-2.55c-.23.2-.19.27-.41.47,1-.56,1.41-1.75,2.75-2.34.18-1,1.39-1.15,1-1.9l-2,2c1.06-1.19,1.58-2.88,3.89-4.2a6,6,0,0,1-.86,1.34c.74-.31,1-1.06,1.8-1.38.33.75-2.51,2.3-3.39,3.87.83-.28,2.07-2.51,2-1.31.23-1.62,2.38-1.81,3.45-3.74l.19.45a6.71,6.71,0,0,1,1.07-1.22l-.46,1.16c1-1.45,2.79-1.63,3.88-2.82-2.63,2.05-1,0-2.27.59,2.88-3,2.62-.48,6.17-3.39-.46.42-2,1.16-1.4.4a10.79,10.79,0,0,1,2.39-1.09c2.42-1.84-.67-.12.22-1.11,1.18-.14,1.09-1.06,2.08-2l.29.39c3.05-1.7.18-1.36,3-2.8l-.74,1.29,1.27-1,0,.64a9.53,9.53,0,0,1,3.33-2.33c-.52-.07-.28-.87,1-1.69,1.05-.31-.26.7,1.57-.51a1.8,1.8,0,0,1-1.57,1.24c0,.19-.25.52-.25.7a14.36,14.36,0,0,0,3.13-1.83,3.53,3.53,0,0,1-.79.34l2.38-2.19c.52-.09.25.23,0,.55.53-.37.81-.78,1.61-1.29,0,.46.23.78-.83,1.61l2.4-1.88c.26.05,1.58-.36,1.31,0,1.57-.62,3.23-2.67,5.34-3.49a1.92,1.92,0,0,1,.62-.57c1.89-.94,3.76-1.42,5.7-3.11l1.58-.08c1.64-1.1-2.11.17.61-1.66,1.91-1.34,1.05.09,1.86-.14a9.71,9.71,0,0,1,4.34-3.12A17.89,17.89,0,0,1,271.54,321.92Zm19.86-14.37c-.29.39-.81,1.25-1.26,1.26C290.2,308,290.68,308,291.4,307.55Zm23.11-28.93a2.43,2.43,0,0,1-.91,1.19A4.72,4.72,0,0,1,314.51,278.62Zm31-96.43,0,.05C345.21,183.23,345.34,182.88,345.54,182.19Zm.56-2.09c0-.22-.1-.22-.18-.14a2.51,2.51,0,0,1-.1,1.18C346,181,346.1,180.75,346.1,180.1ZM213,355.49l.4-.2C212.74,356,212.86,355.77,213,355.49Z"/><path class="cls-4" d="M312.75,282.48a.51.51,0,0,1-.34,0C312.37,282.69,312.45,282.75,312.75,282.48Z"/><path class="cls-4" d="M258.51,329.51l-.06,0a.19.19,0,0,0,0,.12Z"/><path class="cls-4" d="M343.27,213.75a2.64,2.64,0,0,1-.46.78C342.92,214.58,343.07,214.41,343.27,213.75Z"/><path class="cls-4" d="M346.86,168.7l-.05,1.38a3.62,3.62,0,0,1,.31-1.21C347,168.89,346.81,169.13,346.86,168.7Z"/><path class="cls-4" d="M351.12,157.1c0-.21,0-.43,0-.63l-.23,0C350.83,157.36,351,158,351.12,157.1Z"/><path class="cls-4" d="M348.6,167.63c.42-.06.39-.94.43-1.91,0,.06,0,.11,0,.17C348.48,165.54,348.54,166.59,348.6,167.63Z"/><path class="cls-4" d="M349,165.5a8.35,8.35,0,0,1,.1-.89C348.93,164.47,349.05,165,349,165.5Z"/><path class="cls-4" d="M346.24,177.36c.17-.44-.47-.36-.27-.59C345.53,176.19,346.15,179.88,346.24,177.36Z"/><polygon class="cls-4" points="350.02 167.01 349.49 167.29 349.82 167.88 350.02 167.01"/><path class="cls-4" d="M348.68,174.56l.36-1.51c-.09,0-.11-.19-.12-.44C348.77,173.56,348.53,174.58,348.68,174.56Z"/><path class="cls-4" d="M348.92,172.61a4.08,4.08,0,0,0,.08-1.25C349,171.63,348.92,172.21,348.92,172.61Z"/><polygon class="cls-4" points="349.92 169.13 349.76 169.57 349.59 170.66 349.92 169.13"/><path class="cls-4" d="M345.9,191l-.17,1.69c.14.2.32-.23.37-.87C346.06,191.4,346.11,190.77,345.9,191Z"/><path class="cls-4" d="M348.17,186.2a1.62,1.62,0,0,1-.5.67l.6.16Z"/><path class="cls-4" d="M347.42,191.1c.14.19,0,2.52.39.39C347.68,191.29,347.84,189.59,347.42,191.1Z"/><polygon class="cls-4" points="340.94 215.85 341.05 215.43 340.05 215.22 340.94 215.85"/><path class="cls-4" d="M336.34,238.13c.94-1.82-.42-.67.5-2.28-.06-.53-.75,1.32-.78.79C335.88,237.87,335.52,238.42,336.34,238.13Z"/><path class="cls-4" d="M336.06,236.64a6,6,0,0,0,.07-.64A3.89,3.89,0,0,0,336.06,236.64Z"/><polygon class="cls-4" points="189.99 430.31 189.8 431.62 190.12 430.77 189.99 430.31"/><path class="cls-4" d="M190.8,432.8l-.64.33.61.76A2.21,2.21,0,0,1,190.8,432.8Z"/><path class="cls-4" d="M295,306.07l0-.18c-.26,0-.48.24-1,.62C294.36,306.38,294.7,306.23,295,306.07Z"/><polygon class="cls-4" points="280.59 316.84 280.86 316.68 280.05 316.51 280.59 316.84"/><path class="cls-4" d="M268.23,325.28c.54-.28,1.09-.75,1.64-1C268.77,325,267.73,324.72,268.23,325.28Z"/><path class="cls-4" d="M344.81,87.75c0-.58-.38-.36-.46-.45C344.46,88.26,344.92,87.72,344.81,87.75Z"/><polygon class="cls-4" points="345.87 97.19 345.7 97.02 346.12 98.41 345.87 97.19"/><path class="cls-4" d="M345.8,106c.72-.82-.05-3.2.2-4.78l.17-.26-.58-.71A36.75,36.75,0,0,1,345.8,106Z"/><path class="cls-4" d="M344.16,110.71c.29-.28.21,1,.12-1.09,0,.1,0,.13-.07.19S344.19,110.26,344.16,110.71Z"/><path class="cls-4" d="M344.21,109.81c0-.93-.26.6,0,0Z"/><path class="cls-4" d="M344.23,114.1l-.21-1.23c-.17.25-.25,1.34-.35.93C343.76,115.06,343.93,114.81,344.23,114.1Z"/><path class="cls-4" d="M344.71,115.28l-.09-.64C344.55,114.75,344.52,114.92,344.71,115.28Z"/><path class="cls-4" d="M344.45,113.29l.17,1.35c.13-.17.36-.18-.06-.62C344.77,114.14,344.58,113.87,344.45,113.29Z"/><path class="cls-4" d="M344.58,112.53c.18-.68.3-1.56.51-.33C345.07,109.86,344.56,110.19,344.58,112.53Z"/><path class="cls-4" d="M346.53,106.5l.23-.92-.23-.8C346.64,105.18,346.31,106.55,346.53,106.5Z"/><path class="cls-4" d="M343.52,121.7c.15.08.43-.39.63-.47l-.13-.92C343.89,120.77,343.75,121.65,343.52,121.7Z"/><path class="cls-4" d="M344.15,121.23l.19,1.36C344.43,121.39,344.32,121.16,344.15,121.23Z"/><polygon class="cls-4" points="345.49 115.53 345.02 113.29 345.49 115.96 345.49 115.53"/><polygon class="cls-4" points="343.2 126.84 342.9 126.06 343.34 127.45 343.2 126.84"/><path class="cls-4" d="M343,130.26c-.25-.58-.54.74-.68.13a10.6,10.6,0,0,0,.34,2.47A6.89,6.89,0,0,1,343,130.26Z"/><path class="cls-4" d="M342.91,134.08c0-.38-.13-.79-.22-1.22A5.32,5.32,0,0,0,342.91,134.08Z"/><path class="cls-4" d="M344.14,124.89a1.59,1.59,0,0,0-.51,1l.46-.5C344.11,125.26,344.12,125.07,344.14,124.89Z"/><path class="cls-4" d="M344.11,125.4l0,0c0,.57-.08,1-.1,1.15C344,126.42,344,126.07,344.11,125.4Z"/><path class="cls-4" d="M344.15,124.75v.14S344.2,124.81,344.15,124.75Z"/><path class="cls-4" d="M345,119.06c.2.81.38,2.48.82.89C345.5,119.37,345.25,120.28,345,119.06Z"/><path class="cls-4" d="M344.72,124.13l.18-1.44c-.12,0-.3.28-.4-.12Z"/><polygon class="cls-4" points="344.81 124.84 344.73 124.13 344.65 124.66 344.81 124.84"/><path class="cls-4" d="M343.52,131.66a8.34,8.34,0,0,1,.05,2.08,23.43,23.43,0,0,0,.34-2.46C343.78,131.15,343.58,130.78,343.52,131.66Z"/><path class="cls-4" d="M343.85,128.62s0,.1,0,.14S343.92,128.61,343.85,128.62Z"/><polygon class="cls-4" points="342.88 141.26 342.97 141.14 342.9 141.11 342.88 141.26"/><path class="cls-4" d="M344,131.15a2.63,2.63,0,0,0-.06-1.35c0,.46,0,.95,0,1.48C344,131.33,344,131.35,344,131.15Z"/><path class="cls-4" d="M342.93,136.19a10.66,10.66,0,0,0,.33-1C343.1,135.45,342.83,136.07,342.93,136.19Z"/><path class="cls-4" d="M343.73,129v-.09C343.61,129.06,343.66,129,343.73,129Z"/><path class="cls-4" d="M343.73,129a4.69,4.69,0,0,0,.21.84,10.26,10.26,0,0,0-.08-1A.58.58,0,0,1,343.73,129Z"/><path class="cls-4" d="M345.38,143.82c-.39-.15-.58-1.81,0-3.17-.16-1.41-1.55-.63-2.4.49.17.06.33.08.42,1.52.26-.47.82-3.09,1.06-1.86,0,1.9-.3,1.52-.6,2.41.57-.72.47,2.47,1.23,2.14l-.09-1.68C345.11,143.65,345.23,144.27,345.38,143.82Z"/><path class="cls-4" d="M343.29,138.46v-.59a7.28,7.28,0,0,1-.73,2c.09,1,.22,1.2.34,1.28l.35-2.86Z"/><path class="cls-4" d="M343.51,135.25c.39.5.46,1.91,1,1.1.12-1.72-.25-1.24-.35-2.27-.13,2.77-.18-.82-.59,1.16a14.8,14.8,0,0,1,0-1.5c-.09.49-.2,1-.31,1.41l0-.06v0h0c.06-.12.1-.15.05,0s0,0,0,.06a.44.44,0,0,1,.15.13c-.16.8-.12.12-.15-.13,0,0,0,0-.06,0h0v2.78A19.91,19.91,0,0,0,343.51,135.25Z"/><path class="cls-4" d="M346.62,121.48c0,.09-.07.08-.1.09C346.56,121.75,346.59,121.82,346.62,121.48Z"/><path class="cls-4" d="M346.3,122.62a1.86,1.86,0,0,1-.13-1c.15-.57.2,0,.35,0-.1-.4-.24-1.4-.51-.17l0,.2a5.66,5.66,0,0,1-.86,2.32A3.64,3.64,0,0,0,346.3,122.62Z"/><path class="cls-4" d="M345.06,129l.06,2.33.45-1.15-.23,0C345.51,129,345.22,129.22,345.06,129Z"/><polygon class="cls-4" points="342.64 141.5 342.22 141.15 342.73 142.54 342.64 141.5"/><polygon class="cls-4" points="342.39 144.49 342.01 144.33 342.17 145.15 342.39 144.49"/><path class="cls-4" d="M276.1,296.57l-.51.48A4.25,4.25,0,0,0,276.1,296.57Z"/><path class="cls-4" d="M280.2,293.63l0-.23C280.06,293.63,280,293.75,280.2,293.63Z"/><path class="cls-4" d="M326.49,216.08c-.69.79-1.61,1.62-1.15,1.66l.51-.13A5.17,5.17,0,0,1,326.49,216.08Z"/><path class="cls-4" d="M306.27,262.26l.26-.17c0-.29,0-.55,0-.8C306.47,261.58,306.37,261.91,306.27,262.26Z"/><path class="cls-4" d="M307.35,263.85l-1,.92A7.86,7.86,0,0,0,307.35,263.85Z"/><path class="cls-4" d="M252.91,310.83l-.48.77C253.52,311,252.93,311.07,252.91,310.83Z"/><path class="cls-4" d="M337.94,174.84a13.18,13.18,0,0,0-.69,2C337.7,175.92,338.24,175.18,337.94,174.84Z"/><path class="cls-4" d="M275,291.68c-.29.3-.38.47-.31.54C275,291.92,275.17,291.71,275,291.68Z"/><path class="cls-4" d="M336.75,179.28c.07-.14.13-.28.19-.42a13.29,13.29,0,0,1,.31-2A4.25,4.25,0,0,0,336.75,179.28Z"/><path class="cls-4" d="M192.07,378.82a1.33,1.33,0,0,1-.09.21C192,379.06,192.06,379,192.07,378.82Z"/><path class="cls-4" d="M185,406.7a11.35,11.35,0,0,1,0-1.19A5.12,5.12,0,0,0,185,406.7Z"/><path class="cls-4" d="M340.69,156.42c.06-.63,0-.1,0,0Z"/><path class="cls-4" d="M342.83,153.59c0,.14.08.25.17.28A.41.41,0,0,1,342.83,153.59Z"/><path class="cls-4" d="M338,186.06l0,.05C338.11,186,338.09,186,338,186.06Z"/><path class="cls-4" d="M341,155.5c-.08.23-.17.5-.24.79A7,7,0,0,0,341,155.5Z"/><path class="cls-4" d="M340.8,155.6c.05-.21.09-.38.12-.54S340.81,155,340.8,155.6Z"/><path class="cls-4" d="M340.59,157.3a9.55,9.55,0,0,1,.19-1c0,.12-.08.17-.09.13C340.67,156.61,340.64,156.87,340.59,157.3Z"/><path class="cls-4" d="M214.75,334.62l-.13.06C214.25,335.23,214.45,335,214.75,334.62Z"/><path class="cls-4" d="M324.45,233.19s0-.05,0-.08a.41.41,0,0,0,0,.09Z"/><path class="cls-4" d="M323.81,235.45a3,3,0,0,1,.6-2.25l-1.45.18Z"/><path class="cls-4" d="M266,303.09l1.6-.49c-1.37,1.55-2.72,2.09-1.11,1.78-.49-1.27,5.41-3.4,4.86-4.71l1.06-.34c-.27.15-.26.25-.53.4,2.13-.59.79-1.66,3.13-3,.85-.43,1.5-.66,1.06-.15l1.53-1.5c.51-.33.53-.05,0,.28.86-.64,1.7-1.32,2.53-2v0c.24-.44.87-1.32,1.17-1.76.76-.35-.23.37,0,.38l1.18-1.37c.79-.18-.15,1-1.14,1.74a1.65,1.65,0,0,0,1.69-.79,6.84,6.84,0,0,1,2.51-2.1l-1.16,1.24c1.32-.13,2.14-1.21,3.91-2.13-.52.13-3.7,1.63-2.45.09a5.06,5.06,0,0,0,1.66-1.61c.33.35,1-.41,1.91-1.33l.38.52c.87-1.1.56-1.25.94-2a2.51,2.51,0,0,1,2.29-.86c1.77-1.73-1.73.69.18-1.52a17.36,17.36,0,0,0,3.7-4.63c1.1-.94.14.44.61.18l.43-1.3c.21-.23.27-.05.29,0,.54-.94-.43-.48.52-1.87-.22-.76,3-2,3.6-4.14.46-.3.16.43.45.46a19.94,19.94,0,0,0,2-4.47l1.49-1.37c-1.24.9-.61-.92-.08-2.51-.47.3-.9.53-1.15.71.42-.75.77-1.54,1.15-2.31.26-.2.3.13.29.63.05-.17.1-.34.13-.47.7-.64.75,0,.68.71l-.84.56c0,.75,0,1.48.37,1.58a5.12,5.12,0,0,1,.34-.8c0,.2,0,.35.11.32s.13-.34.23-.79l.92-.09-.16-.28,2.25-2.6c.38-1.2.57-2.43.92-3.75a24.61,24.61,0,0,1,1.66-4.48c0,1.09.64.61,1.15,1-1.07.59-1.3,2.7-2.44,4.35.6-.86.73-.51.68-.23l1.34-3.36c.4.33.71-.46,1.34-1.17-1.21.12.72-2.65,1.16-4.06.34.08.47.55-.47,2.06,1.61-1.35.23-2.75,1.65-4.15-.19.39-.34.57-.27.8.2-1,1.54-3.11,1.54-2.46l-.2.38c1.48-2.46,3.86-7.82,3.28-8.56a3.62,3.62,0,0,1,.85,1c-.11-1.93-.33-3.89-.52-5.81.49.71,2.78-.18,2.2,2.16a7.93,7.93,0,0,0,1.16-2.72c-.28.38-1.43.64-1.24,0a14,14,0,0,0,2.35-2.65c-.4.59-1.17-.57-.73-1.57.1.22,1.09.34,1,.76v-3c-.07.71.84.47,1.37,0-.3.19.9-2.19,1-2.93l-.65,1c1.24-2.84-.42-3.42.7-6.26.09.43,1,1.35,1.69-.07-.31-.88-1.59-3.91-1.15-6.58l.48-.38.26-2.08a36.87,36.87,0,0,1,1.05,7.6c.62-1,.47-.17,1-1.83.49-.48.14,1.05,0,1.54l1.5-3.78c-.68,0,.28-3.16-.29-3.18-.21,1.47-.42,2.94-.69,4.4-.35,0-.59-.78-.63-1.85a10.38,10.38,0,0,1,.57-3.84c.47-.61,1,.88,1.22.89a7.77,7.77,0,0,1,.61-2.93V205c.72-1.45-.09-2.74,1-4.4.22-.63,1.37-1.67,1-1.89-1,.84-3.37.38-3.74-.45a42.72,42.72,0,0,1,2.19-3.74c.85-.9,1,1.94,1.71,1.18-.17-.08-.24-.72-.25-1,.33-.63.48.42.78-1.06-.6-.41.81-2.95-.38-.83.17-1.47.52-1.48.92-3.16-.55.43-1.08-1.86-.95-3.33.15.12.44-.15.58-.28.74-2.91,1.41-4.41,2-7.16.22-.22.69-1.5.86-.88a4.41,4.41,0,0,1,0-1.68c.92-1.52-.3,1.91.65.8-.37-.19-.06-2.3-.1-3.56-.65.26-.66,2.77-.67,4-.85-.17-1.23-2.44-1.1-5.38.21-2.31.72-.89.67-1.3.95-4.26-.78-3.9.4-7.36.76-1.33,1.07.1,1.5-.15-.1,1.9-.8,2.81-1,4.08l.51-1.51a6,6,0,0,1-.28,2.54,18.87,18.87,0,0,0,1-4.45c.37-2.09.75-4.44,1.19-6.08-.09-.62-.13-1.67-.41-1.21l-.08,1.06c-.56.91-.31-2.07-.7-.76a14.66,14.66,0,0,1,.16-5.06l.65-.29c-.19,0-.51,1.25-.41,1.84-.16-.87,1.2-3,.52-4l-.6,1.35a15.48,15.48,0,0,1-.15-5c-.7.73,0,.42-.84,1.58,1-1-.59,4.5.55,2.87-1,1.18-.6,2.18-1.55,3.76.21,0,.47-.54.16.92a1.42,1.42,0,0,1,.13.35l0,.09,0-.07c0,.06,0,.07,0,0a2,2,0,0,1,.41-.71c.36.79,0,3.14.13,4-.22.86-.17-.4-.45,0l.18,1.24c-.45.06-1.11,2.21-1,.11L340,161.9a9.8,9.8,0,0,0-.74,3.47c-.23.86.13,2.29-.09,1.47l-.25,2.93h-.11c-.3,1.42-.38,2.92-.57,4.45a16.16,16.16,0,0,1-1.29,4.63,13.78,13.78,0,0,1-.64,3.55l-.45.23c-.15,1.25-1.22,3.56-1,4.18-1.29,1.07-1.71,5.81-2.42,7.9l.47.21a36.38,36.38,0,0,0-1,4.74h.46c-.06,1.68-1.48,3.91-2.2,6.37-.11-.22.12-.83.36-1.24-1.84,2.62-1.29,6.38-2.89,8.77a3.17,3.17,0,0,1-.55,1.58,1,1,0,0,0,0-.17l-.11.27c-.18.26-.37.52-.56.82a4.45,4.45,0,0,0,.51-.68,17.71,17.71,0,0,0-.58,2.06l-.57.15a1.67,1.67,0,0,1-.05.18c-.43.66,0,.66.48.4a6.38,6.38,0,0,0-.09,1.09c-1,.31-.47,2.05-1.58,2.55.18.64-1.21,3.8-.58,4.52-.11,0-.25.18-.1-.22a7.31,7.31,0,0,0-.94,2.39l-.71.1,0,2.1c-.82.93-1.21,1.28-1.17,0-.49,2.86-.64,2.21-1,4.67l-.31-.27c-.35.77-.46,2.24-1,2.56a9.29,9.29,0,0,0-1.33,2c-.53.91-1.13,2-1.76,3.25a49.16,49.16,0,0,1-4.3,7.1c.73-.12.34.31-.15.85s-1.12,1.16-.78,1.48c-.38.1-.87.6-.66-.2-1.08,2.27-2.29,3-2.59,4.83-.39.09-.05-.66-.33-.53-.06.19-.23.78-.51.91s0-.43.12-.82c-1.35,2.14-.79,2.83-.23,3.42a3.35,3.35,0,0,0-1.44,2.51c-.47.22-1.13.68-.29-.67-.55.71-3.48,4.21-3,4.67a3.58,3.58,0,0,0-.88,1.19c-1.26,1.56-1.41,1.66-2.57,3.25l.41-.36c.14,1.1-.88,1.4-1.84,2.66l0-.09c-2.8,2.39-.78,1.42-3.67,3.65l.49.18c.52.94-2.6,1.94-3.77,3.69l.73-.34c-.56,1.06-3.27,1.22-4.16,1.91-.24.1.18-.38.38-.66-2.54,1.6.17.73-1.34,2.35-.53,0-.19-1-1.34-.05-.74.25-2.48,3.7-4.52,4.42.51-.08,1-.15.34.64-1.18,1.07-4,1.81-4.65,3.28-.21.06-.31,0-.35,0-.85.89-3,2.51-3.4,3.29-.94-.4-2.39.81-3.77,1.9s-2.63,2.12-3,1.46q-1.57,1-3.18,1.95v-.18a7.8,7.8,0,0,0-3.24,2.56c-.54.18-.25-.14-.25-.24a14.41,14.41,0,0,0-5.71,3.75l-.51-.29c-.56.64-4.84,1.76-7.58,4,0-.06,0-.18.22-.38-3.1,2.4-8.81,3.59-9.06,5.91l-1.93,1.76c2.87-1.69,0,.93,1.32.44-1,.79-3.12,1.4-1.83.43l.26-.06c0-1.12-3.63,2-3.91,1.45-5.39,3.76-10.8,7.24-15.58,11.16l1,.11-1.67,1.34c-.54.23-.95,0,.24-.92-.89.2-1.73,1.93-1.66,2.08-2.47,1.73.33-1.41-.38-.83l-.91.86.27-.12a6.25,6.25,0,0,1-1.84,2.38c-1,.67-.75.06-1.12.35,0,0-.16.05-.54.46-.69.6-1.37,1.22-2.05,1.85l1.2-.35c-.69,1-1.87,1.78-.51,1.36-1,.28-2.9,2-4.48,4s-2.85,4-3.28,4.44a37.05,37.05,0,0,1-2.3,5c.34-.42,1-.42.23,1.16-1-1.15-1.84,2.77-3.19,3.82.52-.5.11.72-.19,1.86s-.52,2.22.21,1.39c-.54,1.39-.5-.06-1.14.92-.55,3.55-2.39,7.46-3.11,11.79.15.1.57-.56.63.41l-1.31,2.09c-.08.87.85,1,0,2.4.18-.19.46-.48.41.1a66.75,66.75,0,0,0-1.92,12.85A101.06,101.06,0,0,1,184.63,405c.37-1.17.39-.38.38.51.09-.58.43,0,.67-.08-.26,1.2-.46,2.41-.7,3.62.66.66.08,3.89.74,4.26l-.15-1.15c.78,1.5,1.63-2.15,2.6-1.93-.87-1.69,1.26-4.42.14-7.2.22-.6.29.53.52.22a4.7,4.7,0,0,1-.18-3.12l.09.18c.15-4.39.69-6.24,1.5-11.1l-.51.31a6.17,6.17,0,0,1,.54-1.72c-.57-1.3-.4,2.94-1.05,1.75,1.08-1.28,1-7.42,2.26-8.18.27-1.6-.63.38-.34-1.22l.36-.37-.3-.47c.24-1.05.71-1.51,1-1.5a5.58,5.58,0,0,0-.09,1c.59-1.29.61-3.84.83-4.28l-.49,1.49c.59-4.41,2.24-9.57,3-13.78l-.31.24c.62-3.22,1-2.4,2.13-5.77v.14a7.37,7.37,0,0,1,.76-2.53c-.14.91,1.18-1.29.94-.12a12.29,12.29,0,0,0,.71-2.36,5.81,5.81,0,0,1,.14-1.73l.59-.26a4.43,4.43,0,0,1,.94-2.52c-.58,1.36,1.11-.58.52,1a14.82,14.82,0,0,0,2.67-3.36c.61-.95,1.13-1.67,2.14-1.87.23-1-.44-.5-1.08.13s-1.25,1.41-1,1c-.79.39.36-1.58,1.28-2.35s2.34-.52,4.55-2.55c-.23.2-.19.27-.41.47,1-.56,1.41-1.75,2.75-2.34.18-1,1.39-1.16,1.05-1.9l-2,2c1.06-1.19,1.58-2.88,3.89-4.2a6,6,0,0,1-.86,1.34c.74-.31,1-1.06,1.79-1.38.33.75-2.5,2.3-3.38,3.87.83-.28,2.07-2.51,2-1.31.23-1.62,2.38-1.81,3.45-3.75l.19.46a6.34,6.34,0,0,1,1.07-1.22l-.46,1.15c1-1.45,2.79-1.62,3.87-2.81-2.62,2-.94,0-2.27.59,2.89-3,2.62-.48,6.18-3.39-.47.42-2,1.16-1.4.4a10.16,10.16,0,0,1,2.39-1.09c2.42-1.85-.67-.12.22-1.11,1.18-.14,1.09-1.06,2.08-2l.29.39c3-1.7.18-1.37,3-2.8l-.74,1.29,1.27-1.05,0,.65a9.41,9.41,0,0,1,3.33-2.33c-.52-.07-.28-.87,1-1.69,1.05-.31-.26.69,1.57-.51a1.81,1.81,0,0,1-1.57,1.24c0,.19-.25.51-.26.7a14.21,14.21,0,0,0,3.14-1.83,3.53,3.53,0,0,1-.79.34l2.38-2.19c.52-.09.25.23,0,.55.53-.37.81-.78,1.6-1.29,0,.46.24.78-.82,1.61l2.4-1.88c.26,0,1.58-.36,1.31,0,1.57-.63,3.22-2.68,5.34-3.49a2,2,0,0,1,.62-.58c1.89-.93,3.76-1.41,5.69-3.1l1.59-.08c1.64-1.1-2.11.17.61-1.66,1.91-1.34,1.05.09,1.86-.14a9.71,9.71,0,0,1,4.34-3.12A15.84,15.84,0,0,1,266,303.09Zm19.86-14.37c-.29.39-.81,1.26-1.26,1.27C284.69,289.21,285.17,289.14,285.89,288.72ZM309,259.79a2.4,2.4,0,0,1-.91,1.2A4.94,4.94,0,0,1,309,259.79Zm31-96.42,0,0C339.7,164.41,339.83,164.06,340,163.37Zm.56-2.09c0-.23-.1-.22-.18-.14a2.51,2.51,0,0,1-.1,1.18C340.46,162.19,340.59,161.93,340.59,161.28ZM207.45,336.66l.4-.19C207.23,337.22,207.35,337,207.45,336.66Z"/><path class="cls-4" d="M307.23,263.66a.42.42,0,0,1-.33,0C306.86,263.87,306.94,263.93,307.23,263.66Z"/><path class="cls-4" d="M253,310.69l-.06,0a.18.18,0,0,0,0,.11Z"/><path class="cls-4" d="M337.76,194.93a2.42,2.42,0,0,1-.46.77C337.41,195.76,337.56,195.59,337.76,194.93Z"/><path class="cls-4" d="M341.34,149.88l0,1.38a3.55,3.55,0,0,1,.31-1.21C341.49,150.07,341.3,150.31,341.34,149.88Z"/><path class="cls-4" d="M345.61,138.28c0-.21,0-.43,0-.64l-.23,0C345.32,138.54,345.44,139.16,345.61,138.28Z"/><path class="cls-4" d="M343.09,148.81c.42-.06.39-.94.43-1.91,0,.06,0,.11,0,.17C343,146.72,343,147.76,343.09,148.81Z"/><path class="cls-4" d="M343.53,146.67a8.65,8.65,0,0,1,.1-.89C343.42,145.64,343.54,146.14,343.53,146.67Z"/><path class="cls-4" d="M340.73,158.54c.17-.44-.47-.36-.27-.59C340,157.36,340.64,161.06,340.73,158.54Z"/><polygon class="cls-4" points="344.51 148.18 343.97 148.47 344.31 149.06 344.51 148.18"/><path class="cls-4" d="M343.17,155.74l.35-1.52c-.08,0-.1-.18-.11-.43C343.26,154.73,343,155.76,343.17,155.74Z"/><path class="cls-4" d="M343.41,153.79a4.08,4.08,0,0,0,.08-1.25C343.47,152.81,343.41,153.39,343.41,153.79Z"/><polygon class="cls-4" points="344.4 150.31 344.25 150.75 344.08 151.84 344.4 150.31"/><path class="cls-4" d="M340.39,172.17l-.17,1.69c.14.21.32-.23.37-.86C340.55,172.58,340.6,172,340.39,172.17Z"/><path class="cls-4" d="M342.66,167.37a1.6,1.6,0,0,1-.5.68l.6.15Z"/><path class="cls-4" d="M341.91,172.27c.14.2,0,2.52.39.4C342.16,172.46,342.33,170.76,341.91,172.27Z"/><polygon class="cls-4" points="335.42 197.02 335.53 196.61 334.54 196.4 335.42 197.02"/><path class="cls-4" d="M330.83,219.31c.94-1.82-.42-.67.5-2.28-.06-.53-.75,1.32-.78.79C330.36,219.05,330,219.6,330.83,219.31Z"/><path class="cls-4" d="M330.55,217.82a6,6,0,0,0,.07-.64A3.79,3.79,0,0,0,330.55,217.82Z"/><polygon class="cls-4" points="184.48 411.49 184.29 412.8 184.61 411.95 184.48 411.49"/><path class="cls-4" d="M185.29,414l-.64.32.61.77A2.21,2.21,0,0,1,185.29,414Z"/><path class="cls-4" d="M289.52,287.25l0-.18c-.26,0-.48.23-1,.62C288.85,287.55,289.19,287.41,289.52,287.25Z"/><polygon class="cls-4" points="275.08 298.02 275.35 297.86 274.54 297.69 275.08 298.02"/><path class="cls-4" d="M262.72,306.46c.54-.28,1.09-.75,1.64-1C263.26,306.18,262.22,305.9,262.72,306.46Z"/><path class="cls-4" d="M339.3,68.92c0-.57-.38-.35-.46-.44C339,69.43,339.41,68.9,339.3,68.92Z"/><polygon class="cls-4" points="340.36 78.36 340.19 78.2 340.61 79.59 340.36 78.36"/><path class="cls-4" d="M340.29,87.21c.72-.82-.05-3.21.2-4.78l.17-.26-.58-.71A36.75,36.75,0,0,1,340.29,87.21Z"/><path class="cls-4" d="M338.65,91.89c.29-.29.21,1,.12-1.1a.81.81,0,0,1-.08.2C338.69,91.18,338.68,91.44,338.65,91.89Z"/><path class="cls-4" d="M338.69,91c0-.93-.25.6,0,0Z"/><path class="cls-4" d="M338.71,95.28l-.2-1.23c-.18.25-.25,1.34-.35.93C338.25,96.24,338.42,96,338.71,95.28Z"/><path class="cls-4" d="M339.2,96.46l-.09-.64C339,95.93,339,96.1,339.2,96.46Z"/><path class="cls-4" d="M338.94,94.47l.17,1.35c.12-.17.36-.18-.06-.62C339.26,95.32,339.07,95.05,338.94,94.47Z"/><path class="cls-4" d="M339.07,93.71c.18-.68.3-1.57.51-.33C339.56,91,339.05,91.37,339.07,93.71Z"/><path class="cls-4" d="M341,87.68l.23-.92L341,86C341.13,86.36,340.8,87.73,341,87.68Z"/><path class="cls-4" d="M338,102.87c.15.09.43-.39.63-.47l-.13-.91C338.38,102,338.24,102.82,338,102.87Z"/><path class="cls-4" d="M338.64,102.4l.19,1.37C338.92,102.56,338.81,102.34,338.64,102.4Z"/><polygon class="cls-4" points="339.98 96.71 339.51 94.46 339.98 97.14 339.98 96.71"/><polygon class="cls-4" points="337.69 108.02 337.39 107.24 337.83 108.63 337.69 108.02"/><path class="cls-4" d="M337.52,111.44c-.25-.59-.54.74-.68.13a10.6,10.6,0,0,0,.34,2.47A6.89,6.89,0,0,1,337.52,111.44Z"/><path class="cls-4" d="M337.4,115.26a12.16,12.16,0,0,0-.22-1.22A5.32,5.32,0,0,0,337.4,115.26Z"/><path class="cls-4" d="M338.63,106.07a1.55,1.55,0,0,0-.51,1l.46-.5C338.6,106.44,338.61,106.25,338.63,106.07Z"/><path class="cls-4" d="M338.6,106.58l0,0c-.05.57-.08,1-.1,1.14C338.5,107.6,338.53,107.25,338.6,106.58Z"/><path class="cls-4" d="M338.64,105.93v.14S338.69,106,338.64,105.93Z"/><path class="cls-4" d="M339.44,100.24c.2.81.37,2.48.82.89C340,100.55,339.74,101.46,339.44,100.24Z"/><path class="cls-4" d="M339.21,105.3l.17-1.43c-.11,0-.29.27-.39-.13Z"/><polygon class="cls-4" points="339.3 106.02 339.21 105.3 339.14 105.83 339.3 106.02"/><path class="cls-4" d="M338,112.84a8.34,8.34,0,0,1,.05,2.08,23.62,23.62,0,0,0,.34-2.47C338.27,112.33,338.07,112,338,112.84Z"/><path class="cls-4" d="M338.34,109.8s0,.1,0,.14S338.41,109.79,338.34,109.8Z"/><polygon class="cls-4" points="337.37 122.43 337.46 122.32 337.39 122.29 337.37 122.43"/><path class="cls-4" d="M338.49,112.32a2.52,2.52,0,0,0-.07-1.35c0,.47,0,1,0,1.48C338.46,112.51,338.5,112.52,338.49,112.32Z"/><path class="cls-4" d="M337.42,117.37c.12-.31.22-.67.33-1C337.59,116.63,337.32,117.25,337.42,117.37Z"/><path class="cls-4" d="M338.22,110.14v-.09C338.1,110.24,338.15,110.22,338.22,110.14Z"/><path class="cls-4" d="M338.22,110.14a5.33,5.33,0,0,0,.2.83,8.07,8.07,0,0,0-.07-1A1,1,0,0,1,338.22,110.14Z"/><path class="cls-4" d="M339.87,125c-.39-.15-.58-1.81,0-3.17-.16-1.41-1.55-.63-2.4.49.17.06.33.08.42,1.52.26-.48.82-3.09,1.06-1.86,0,1.89-.3,1.52-.6,2.41.57-.72.46,2.47,1.23,2.14l-.09-1.68C339.6,124.83,339.72,125.45,339.87,125Z"/><path class="cls-4" d="M337.78,119.63v-.58a7.53,7.53,0,0,1-.73,2c.09,1,.22,1.2.34,1.28l.35-2.86Z"/><path class="cls-4" d="M338,116.43c.39.49.45,1.91,1,1.09.12-1.71-.26-1.23-.36-2.27-.12,2.77-.17-.81-.58,1.16a14.63,14.63,0,0,1,0-1.49c-.09.49-.2,1-.31,1.41l0-.07h0c.07-.11.1-.15.06,0s0,0,0,.05a.64.64,0,0,1,.15.14c-.16.79-.12.12-.15-.14l-.07,0h0v2.79A20.09,20.09,0,0,0,338,116.43Z"/><path class="cls-4" d="M341.11,102.66c0,.09-.07.08-.1.09C341.05,102.93,341.08,103,341.11,102.66Z"/><path class="cls-4" d="M340.79,103.79a1.82,1.82,0,0,1-.13-1c.15-.56.2,0,.35,0-.1-.41-.24-1.41-.51-.18l0,.2a5.51,5.51,0,0,1-.86,2.32A3.47,3.47,0,0,0,340.79,103.79Z"/><path class="cls-4" d="M339.55,110.22l.06,2.32.45-1.15-.23,0C340,110.13,339.71,110.39,339.55,110.22Z"/><polygon class="cls-4" points="337.13 122.67 336.71 122.33 337.21 123.72 337.13 122.67"/><polygon class="cls-4" points="336.88 125.66 336.5 125.51 336.65 126.32 336.88 125.66"/><path class="cls-4" d="M270.59,277.75l-.51.48A5.26,5.26,0,0,0,270.59,277.75Z"/><path class="cls-4" d="M274.69,274.81l0-.23C274.55,274.81,274.52,274.93,274.69,274.81Z"/><path class="cls-4" d="M321,197.25c-.69.8-1.61,1.63-1.15,1.67l.51-.13A5.36,5.36,0,0,1,321,197.25Z"/><path class="cls-4" d="M300.75,243.43l.27-.17c0-.28,0-.55,0-.79C301,242.76,300.86,243.09,300.75,243.43Z"/><path class="cls-4" d="M301.84,245l-1,.92A8.71,8.71,0,0,0,301.84,245Z"/><path class="cls-4" d="M247.4,292l-.48.77C248,292.18,247.42,292.25,247.4,292Z"/><path class="cls-4" d="M332.43,156a12.83,12.83,0,0,0-.69,2C332.19,157.1,332.73,156.36,332.43,156Z"/><path class="cls-4" d="M269.53,272.85c-.29.3-.38.48-.32.55C269.52,273.09,269.66,272.89,269.53,272.85Z"/><path class="cls-4" d="M331.24,160.45c.07-.13.13-.27.19-.41a13.29,13.29,0,0,1,.31-2A4.22,4.22,0,0,0,331.24,160.45Z"/><path class="cls-4" d="M186.56,360l-.09.21C186.53,360.24,186.55,360.14,186.56,360Z"/><path class="cls-4" d="M179.51,387.87a11.12,11.12,0,0,1,0-1.18A5,5,0,0,0,179.51,387.87Z"/><path class="cls-4" d="M335.18,137.6c.06-.63,0-.11,0,0Z"/><path class="cls-4" d="M337.32,134.77c0,.14.08.25.17.28A.43.43,0,0,1,337.32,134.77Z"/><path class="cls-4" d="M332.49,167.24l0,0C332.6,167.13,332.58,167.15,332.49,167.24Z"/><path class="cls-4" d="M335.51,136.68c-.08.23-.17.5-.24.79A7.85,7.85,0,0,0,335.51,136.68Z"/><path class="cls-4" d="M335.29,136.78c0-.21.09-.38.12-.54S335.3,136.21,335.29,136.78Z"/><path class="cls-4" d="M335.08,138.48a9.55,9.55,0,0,1,.19-1c0,.12-.08.17-.09.13C335.16,137.79,335.13,138.05,335.08,138.48Z"/><path class="cls-4" d="M209.24,315.8l-.13.05C208.74,316.41,208.94,316.2,209.24,315.8Z"/><path class="cls-4" d="M318.94,214.37a.22.22,0,0,1,0-.08l-.05.08Z"/><path class="cls-4" d="M318.3,216.63a3,3,0,0,1,.6-2.26l-1.45.19Z"/><path class="cls-4" d="M260.52,284.27l1.6-.5c-1.37,1.56-2.72,2.1-1.11,1.79-.49-1.27,5.41-3.4,4.86-4.71l1.06-.35c-.27.16-.26.25-.53.41,2.13-.59.79-1.66,3.13-3,.85-.43,1.49-.66,1.06-.15l1.53-1.5c.51-.33.53-.05,0,.28.86-.64,1.7-1.32,2.53-2v0c.24-.45.87-1.32,1.17-1.76.76-.35-.23.37,0,.37l1.18-1.36c.79-.18-.15,1-1.14,1.74a1.64,1.64,0,0,0,1.69-.8,7,7,0,0,1,2.51-2.1L279,271.92c1.31-.13,2.14-1.22,3.91-2.13-.52.12-3.7,1.62-2.45.09a5.11,5.11,0,0,0,1.66-1.62c.33.36,1-.4,1.91-1.32l.37.52c.87-1.1.57-1.26.95-2a2.51,2.51,0,0,1,2.29-.86c1.77-1.73-1.73.69.18-1.52a17.52,17.52,0,0,0,3.7-4.63c1.09-.95.14.44.61.17l.43-1.3c.21-.22.27,0,.29,0,.54-.94-.43-.49.52-1.87-.22-.76,3-2,3.6-4.15.46-.29.16.44.45.46a19.88,19.88,0,0,0,2-4.46l1.49-1.37c-1.24.9-.61-.92-.09-2.52-.46.3-.89.54-1.14.72.42-.75.77-1.54,1.15-2.32.26-.2.3.14.29.64.05-.17.1-.34.13-.48.7-.63.75,0,.68.72l-.84.55c0,.76,0,1.49.37,1.59a3.8,3.8,0,0,1,.34-.8c0,.2,0,.34.11.32s.13-.35.23-.79l.92-.1-.16-.27,2.24-2.6c.39-1.21.58-2.43.93-3.75a24.34,24.34,0,0,1,1.66-4.48c0,1.09.64.6,1.15,1-1.08.59-1.3,2.7-2.44,4.34.6-.85.73-.5.68-.22l1.34-3.36c.4.33.71-.46,1.34-1.17-1.21.11.72-2.65,1.16-4.06.34.08.47.55-.47,2,1.61-1.35.23-2.74,1.65-4.14-.19.38-.34.57-.27.8.2-1,1.54-3.11,1.54-2.46l-.2.38c1.48-2.46,3.86-7.82,3.28-8.56a3.8,3.8,0,0,1,.85,1c-.11-1.93-.33-3.89-.52-5.81.49.7,2.78-.18,2.2,2.16a8,8,0,0,0,1.16-2.73c-.28.39-1.43.64-1.24,0a14,14,0,0,0,2.35-2.65c-.4.58-1.17-.57-.73-1.57.1.22,1.08.34,1,.76v-3c-.07.71.84.46,1.36,0-.3.19.91-2.2,1-2.93l-.65,1c1.24-2.85-.42-3.42.7-6.26.09.42,1,1.35,1.69-.08-.31-.87-1.59-3.9-1.15-6.57L325,190l.25-2.09a36.27,36.27,0,0,1,1.06,7.61c.62-1,.47-.18,1-1.83.49-.48.14,1.05,0,1.54l1.5-3.78c-.68,0,.28-3.16-.29-3.18-.21,1.47-.42,2.94-.69,4.39-.35,0-.6-.77-.63-1.85a10.33,10.33,0,0,1,.57-3.83c.47-.61,1,.87,1.21.89a7.92,7.92,0,0,1,.62-2.93v1.26c.72-1.45-.09-2.73,1-4.4.22-.62,1.37-1.66,1-1.88-1,.83-3.37.38-3.74-.46a42.75,42.75,0,0,1,2.19-3.73c.85-.9,1,1.94,1.71,1.18-.17-.09-.24-.72-.25-1,.33-.63.48.43.78-1-.6-.42.81-3-.38-.83.17-1.48.52-1.48.92-3.16-.55.42-1.08-1.86-.95-3.33.15.12.44-.15.58-.28.74-2.91,1.41-4.41,2-7.16.22-.22.69-1.51.86-.88a4.41,4.41,0,0,1,0-1.68c.92-1.53-.3,1.91.65.8-.37-.19-.06-2.3-.1-3.56-.65.26-.66,2.77-.67,4-.85-.16-1.23-2.43-1.1-5.37.21-2.32.72-.89.67-1.31.95-4.26-.78-3.9.4-7.36.76-1.32,1.07.11,1.5-.14-.1,1.9-.8,2.81-1,4.08l.51-1.52a6.07,6.07,0,0,1-.28,2.55,19.41,19.41,0,0,0,1-4.45c.36-2.09.75-4.44,1.19-6.08-.09-.62-.13-1.67-.41-1.22l-.08,1.07c-.57.91-.31-2.07-.7-.76a14.88,14.88,0,0,1,.15-5.06l.66-.3c-.19,0-.52,1.26-.41,1.84-.16-.86,1.2-2.95.52-4l-.6,1.34a15.42,15.42,0,0,1-.15-5c-.7.73,0,.41-.84,1.58,1-1-.59,4.5.54,2.87-1,1.18-.59,2.18-1.54,3.76.21,0,.47-.54.16.92a1.51,1.51,0,0,1,.13.34l0,.1,0-.08c0,.07,0,.08,0,0a2,2,0,0,1,.41-.7c.36.79,0,3.14.13,4-.22.87-.17-.4-.45,0l.18,1.24c-.45,0-1.11,2.2-1,.11l-.32,1.84a9.9,9.9,0,0,0-.74,3.48c-.23.85.13,2.28-.09,1.47L333.4,151h-.12c-.29,1.41-.38,2.91-.57,4.45a15.82,15.82,0,0,1-1.28,4.63,13.85,13.85,0,0,1-.64,3.55l-.45.23c-.15,1.24-1.22,3.56-.95,4.18-1.29,1.07-1.71,5.81-2.42,7.89l.47.22a36,36,0,0,0-1,4.74h.46c-.06,1.67-1.49,3.91-2.2,6.36-.12-.21.12-.82.36-1.23-1.84,2.62-1.29,6.37-2.89,8.77a3.17,3.17,0,0,1-.55,1.58,1.36,1.36,0,0,0,0-.17l-.11.27c-.18.26-.37.52-.56.81a4,4,0,0,0,.51-.67,17.71,17.71,0,0,0-.58,2.06l-.57.15c0,.06,0,.11,0,.18-.44.66,0,.66.48.4a6.35,6.35,0,0,0-.09,1.08c-1,.32-.47,2.06-1.58,2.55.18.65-1.21,3.81-.58,4.53-.11,0-.25.18-.1-.22a7.31,7.31,0,0,0-.94,2.39l-.71.1,0,2.1c-.82.93-1.21,1.28-1.18,0-.48,2.87-.63,2.22-1,4.68l-.31-.28c-.35.78-.46,2.25-1,2.57a8.69,8.69,0,0,0-1.33,2c-.53.91-1.13,2-1.76,3.25a49.16,49.16,0,0,1-4.3,7.1c.73-.12.34.31-.15.85s-1.12,1.16-.78,1.47c-.38.11-.87.61-.67-.19-1.07,2.27-2.28,3-2.58,4.83-.39.09-.05-.66-.33-.54-.06.2-.23.79-.51.92s0-.43.12-.82c-1.35,2.14-.79,2.82-.23,3.42a3.35,3.35,0,0,0-1.44,2.51c-.47.22-1.13.67-.29-.67-.55.71-3.48,4.21-3,4.66a3.48,3.48,0,0,0-.88,1.2c-1.26,1.56-1.41,1.66-2.57,3.25l.41-.36c.14,1.1-.88,1.4-1.84,2.66l0-.09c-2.8,2.39-.77,1.42-3.66,3.65l.49.18c.52.94-2.6,1.93-3.77,3.68.24-.11.49-.21.73-.34-.56,1.07-3.27,1.23-4.16,1.91-.24.11.18-.37.38-.66-2.54,1.61.17.74-1.34,2.36-.53,0-.19-1-1.34-.06-.74.26-2.48,3.7-4.52,4.42.51-.07,1-.15.34.65-1.18,1.07-4,1.8-4.65,3.28-.21.06-.31.05-.36,0-.84.89-3,2.5-3.39,3.29-.94-.4-2.39.81-3.77,1.9s-2.63,2.12-3,1.45c-1.05.66-2.11,1.32-3.18,2v-.19a7.88,7.88,0,0,0-3.24,2.57c-.54.18-.25-.15-.25-.24a14.43,14.43,0,0,0-5.71,3.74l-.51-.28c-.56.64-4.85,1.76-7.58,4,0-.07,0-.19.22-.38-3.1,2.4-8.81,3.58-9.06,5.9l-1.93,1.77c2.87-1.69,0,.93,1.32.44-1,.79-3.12,1.4-1.83.43l.26-.06c0-1.13-3.63,2-3.91,1.45-5.39,3.76-10.8,7.24-15.58,11.15l1,.11-1.67,1.34c-.54.24-1,.05.24-.91-.89.2-1.74,1.93-1.67,2.08-2.46,1.73.34-1.42-.37-.83l-.91.86.27-.12a6.18,6.18,0,0,1-1.85,2.37c-1,.68-.74.07-1.11.36,0-.05-.16,0-.54.46-.69.6-1.37,1.21-2.05,1.84l1.2-.34c-.69,1-1.87,1.78-.51,1.35-1,.28-2.9,2.05-4.49,4s-2.84,4-3.27,4.43a36,36,0,0,1-2.3,5c.34-.41,1-.42.23,1.17-1-1.15-1.84,2.77-3.2,3.82.53-.5.12.72-.18,1.86s-.52,2.22.21,1.39c-.55,1.39-.5-.07-1.14.92-.55,3.54-2.39,7.46-3.11,11.79.15.1.57-.56.63.41l-1.31,2.09c-.08.86.85,1,0,2.4.18-.19.46-.48.41.1a66.75,66.75,0,0,0-1.92,12.85,102.85,102.85,0,0,1-1.52,13.06c.37-1.17.39-.39.38.51.09-.58.43,0,.67-.09-.26,1.21-.46,2.41-.7,3.62.66.66.08,3.9.74,4.26l-.15-1.14c.78,1.5,1.63-2.16,2.6-1.93-.87-1.7,1.26-4.42.14-7.2.22-.6.29.53.52.21a4.67,4.67,0,0,1-.18-3.11l.09.18c.15-4.39.69-6.24,1.5-11.1l-.51.31a6.06,6.06,0,0,1,.54-1.72c-.57-1.3-.4,2.94-1,1.75,1.08-1.28,1-7.42,2.26-8.18.27-1.6-.63.38-.34-1.22L186,361l-.3-.48c.24-1,.71-1.5,1-1.49a5.5,5.5,0,0,0-.09,1c.59-1.29.61-3.84.83-4.28l-.49,1.49c.59-4.41,2.24-9.57,3-13.78l-.31.24c.62-3.22,1-2.41,2.13-5.77V338a7.37,7.37,0,0,1,.76-2.53c-.14.91,1.18-1.29.94-.12a12.26,12.26,0,0,0,.71-2.37,5.74,5.74,0,0,1,.14-1.72l.59-.26a4.41,4.41,0,0,1,.94-2.52c-.58,1.36,1.11-.59.52,1a14.62,14.62,0,0,0,2.67-3.37c.61-.94,1.13-1.66,2.14-1.86.23-1-.44-.5-1.08.13s-1.25,1.41-1,1c-.79.38.36-1.58,1.28-2.35s2.34-.53,4.55-2.55c-.23.19-.19.27-.41.46,1-.56,1.41-1.74,2.74-2.33.19-1,1.4-1.16,1.06-1.91l-2,2c1.06-1.19,1.58-2.88,3.88-4.21a5.59,5.59,0,0,1-.85,1.35c.74-.31,1-1.06,1.79-1.38.33.75-2.5,2.3-3.38,3.87.83-.29,2.07-2.51,2-1.31.23-1.63,2.38-1.81,3.45-3.75l.19.46a6.06,6.06,0,0,1,1.07-1.22l-.46,1.15c1-1.45,2.79-1.63,3.87-2.82-2.62,2.05-.94,0-2.27.6,2.89-3,2.62-.48,6.18-3.39-.47.41-2.05,1.15-1.4.4a9.77,9.77,0,0,1,2.39-1.09c2.42-1.85-.67-.13.22-1.12,1.18-.13,1.08-1.06,2.08-2l.29.39c3-1.71.18-1.37,3-2.8l-.74,1.29,1.27-1.05,0,.65a9.28,9.28,0,0,1,3.33-2.33c-.52-.07-.28-.87,1-1.7,1-.3-.26.7,1.57-.5a1.82,1.82,0,0,1-1.57,1.24c0,.18-.25.51-.26.7a15.13,15.13,0,0,0,3.14-1.83,3.88,3.88,0,0,1-.8.34l2.39-2.19c.52-.1.25.23,0,.55.53-.37.81-.78,1.6-1.29,0,.46.24.78-.82,1.61l2.4-1.89c.26.05,1.58-.35,1.31,0,1.57-.63,3.22-2.68,5.33-3.49a2.27,2.27,0,0,1,.63-.58c1.89-.94,3.76-1.41,5.69-3.1l1.59-.08c1.64-1.11-2.11.17.61-1.67,1.91-1.33,1.05.1,1.86-.13a9.73,9.73,0,0,1,4.33-3.12A16.34,16.34,0,0,1,260.52,284.27Zm19.86-14.37c-.3.39-.81,1.26-1.26,1.27C279.17,270.39,279.66,270.32,280.38,269.9ZM303.48,241a2.32,2.32,0,0,1-.9,1.2A5.15,5.15,0,0,1,303.48,241Zm31-96.43a.42.42,0,0,0,0,.06C334.19,145.59,334.32,145.24,334.52,144.54Zm.56-2.09c0-.22-.1-.21-.18-.14a2.55,2.55,0,0,1-.1,1.19C335,143.37,335.08,143.11,335.08,142.45ZM201.94,317.84l.4-.19C201.72,318.4,201.84,318.13,201.94,317.84Z"/><path class="cls-4" d="M301.72,244.84a.42.42,0,0,1-.33,0C301.35,245.05,301.42,245.11,301.72,244.84Z"/><path class="cls-4" d="M247.49,291.87l-.07,0a.23.23,0,0,0,0,.11Z"/><path class="cls-4" d="M332.25,176.11a2.7,2.7,0,0,1-.46.77C331.9,176.93,332,176.76,332.25,176.11Z"/><path class="cls-4" d="M335.83,131.06l0,1.38a3.48,3.48,0,0,1,.31-1.21C336,131.24,335.79,131.48,335.83,131.06Z"/><path class="cls-4" d="M340.1,119.46c0-.21,0-.43,0-.64l-.23,0C339.8,119.72,339.93,120.34,340.1,119.46Z"/><path class="cls-4" d="M337.58,130c.42-.06.39-.94.43-1.91,0,.06,0,.12,0,.17C337.46,127.9,337.52,128.94,337.58,130Z"/><path class="cls-4" d="M338,127.85a8.65,8.65,0,0,1,.1-.89C337.91,126.82,338,127.32,338,127.85Z"/><path class="cls-4" d="M335.22,139.72c.17-.44-.47-.36-.28-.6C334.51,138.54,335.13,142.23,335.22,139.72Z"/><polygon class="cls-4" points="339 129.36 338.46 129.65 338.8 130.24 339 129.36"/><path class="cls-4" d="M337.66,136.92l.35-1.52c-.08,0-.1-.19-.11-.43C337.75,135.91,337.51,136.93,337.66,136.92Z"/><path class="cls-4" d="M337.9,135a4.08,4.08,0,0,0,.08-1.25C338,134,337.9,134.57,337.9,135Z"/><polygon class="cls-4" points="338.89 131.49 338.74 131.93 338.57 133.01 338.89 131.49"/><path class="cls-4" d="M334.88,153.35l-.17,1.69c.14.2.32-.23.37-.86C335,153.76,335.09,153.13,334.88,153.35Z"/><path class="cls-4" d="M337.15,148.55a1.5,1.5,0,0,1-.5.67l.6.16Z"/><path class="cls-4" d="M336.4,153.45c.14.2,0,2.52.39.39C336.65,153.64,336.82,151.94,336.4,153.45Z"/><polygon class="cls-4" points="329.91 178.2 330.02 177.78 329.02 177.57 329.91 178.2"/><path class="cls-4" d="M325.32,200.49c.94-1.82-.42-.67.5-2.29-.06-.52-.75,1.32-.78.79C324.85,200.23,324.5,200.78,325.32,200.49Z"/><path class="cls-4" d="M325,199a5.51,5.51,0,0,0,.07-.63A3.71,3.71,0,0,0,325,199Z"/><polygon class="cls-4" points="178.97 392.66 178.78 393.98 179.1 393.13 178.97 392.66"/><path class="cls-4" d="M179.78,395.16l-.64.32.61.77A2.2,2.2,0,0,1,179.78,395.16Z"/><path class="cls-4" d="M284,268.43l0-.19c-.26,0-.48.24-1,.63C283.34,268.73,283.68,268.58,284,268.43Z"/><polygon class="cls-4" points="269.57 279.2 269.84 279.04 269.03 278.87 269.57 279.2"/><path class="cls-4" d="M257.21,287.63c.54-.27,1.09-.75,1.63-1C257.75,287.36,256.71,287.08,257.21,287.63Z"/></svg>