<svg id="Layer_1" data-name="Layer 1" xmlns="http://www.w3.org/2000/svg" width="600" height="600" viewBox="0 0 600 600"><defs><style>.cls-1{fill:#edab35;}.cls-2{fill:#d12d26;}.cls-3{fill:#fff;stroke:#fff;stroke-miterlimit:10;}</style></defs><path class="cls-1" d="M300,21.54s-39.47-3-40,14.43a1.22,1.22,0,0,0,1.11,1.32h8.33a1.3,1.3,0,0,1,.82,2.13c-3.43,4.31-10.07,14.28-4.92,21.49,6.59,9.24-4.8,43.28-5.33,44.84l0,.11c-.58,2.43-18.5,79.21-10.11,132.67a1.34,1.34,0,0,1-.06.69,60.25,60.25,0,0,1-9.31,17A69.84,69.84,0,0,1,230,267,38.37,38.37,0,0,0,221,277.92a31.91,31.91,0,0,0-3.8,18.46V550.57a1.27,1.27,0,0,1,0,.34c-.6,2.46-7,32,30.86,32,12.35,0,30,2,52,0"/><path class="cls-1" d="M300,582.89c22,2,39.66,0,52,0,37.84,0,31.46-29.52,30.86-32a1.27,1.27,0,0,1,0-.34V296.38a31.91,31.91,0,0,0-3.8-18.46A38.37,38.37,0,0,0,370,267a69.84,69.84,0,0,1-10.46-10.78,60.25,60.25,0,0,1-9.31-17,1.34,1.34,0,0,1-.06-.69c8.39-53.46-9.53-130.24-10.11-132.67l0-.11c-.53-1.56-11.92-35.6-5.33-44.84,5.15-7.21-1.49-17.18-4.92-21.49a1.3,1.3,0,0,1,.82-2.13h8.33A1.22,1.22,0,0,0,340,36c-.54-17.43-40-14.43-40-14.43"/><path d="M300,18.09V35.5c0,.94-.5,1.69-1.11,1.69H261.1c-.63,0-1.14-.8-1.11-1.76.63-20.66,32.7-19.45,39-19C299.54,16.45,300,17.19,300,18.09Z"/><path d="M338.77,37.19h-42c-.68,0-1.23-.75-1.23-1.69V18.09c0-.9.51-1.64,1.17-1.68,7-.43,42.6-1.64,43.3,19C340,36.39,339.47,37.19,338.77,37.19Z"/><path class="cls-2" d="M251.84,339c0,2.74-2.19,4.54-7.23,4.62h-8.89c-6,0-7-3-7-4.75h4.74c.13.67,1,1,2.56,1h8.59c1.69,0,2.4-.31,2.4-.82s-.36-.7-1.46-.7h-11c-3.73,0-5.62-1.52-5.62-3.88s1.69-4.6,7-4.63h8.73c6.08,0,6.83,3.32,6.83,4.61h-4.74c-.09-.55-.67-1-2.22-1H236c-1.79,0-2.19.43-2.19.83s.36.7,1.33.7h11.33C250,335,251.84,336.68,251.84,339Z"/><path class="cls-2" d="M251.94,352.79h-9.3v9.63h-4.72v-9.63h-9.3v-3.67h23.32Z"/><path class="cls-2" d="M228.58,375.36v-7.24h4.72v7a2.43,2.43,0,0,0,2.69,2.65h8.59a2.41,2.41,0,0,0,2.68-2.65v-7H252v7.24c0,4.12-2.81,6.29-7.4,6.29H236C231.39,381.65,228.58,379.48,228.58,375.36Z"/><path class="cls-2" d="M252.94,387.12l-10.31,7.77v5.53h-4.72v-5.55l-10.28-7.75h6.48l6.16,4.53,6.16-4.53Z"/><path class="cls-2" d="M248.56,412.77l3.56,6.65H247l-2.62-4.94H233.83v4.94h-4.74v-13.3h4.74v4.72h10.69l2.49-4.72h5.11Z"/><path class="cls-2" d="M253,425.12v13.3h-4.61v-8.15l-8,5.63-8.2-5.67v8.19h-4.62v-13.3h4.62l8.2,5.53,8-5.53Z"/><path class="cls-2" d="M247.43,455.31H233.11l-.62,2.11h-4.77l4-13.3h17.18l4,13.3h-4.79Zm-1.09-3.7-1.12-3.82H235.3l-1.12,3.82Z"/><path class="cls-2" d="M252.12,463.12v13.3h-4.64l-14.4-8.32v8.32h-4.64v-13.3h4.64l14.4,8.34v-8.34Z"/><path class="cls-2" d="M297.88,332.75,290.15,346h-6.51L278.06,337,272.48,346H266l-7.73-13.29h5.19l5.73,10.16,6-10.16h5.32l6.4,10.18,5.77-10.18Z"/><path class="cls-2" d="M272.37,355.35v1.33H287v3.46H272.37v1.29h16.1V365H267.65V351.75h20.82v3.6Z"/><path class="cls-2" d="M275.7,370.75h4.72V384H275.7Z"/><path class="cls-2" d="M289.62,398.66c0,2.73-2.19,4.54-7.23,4.61H273.5c-6,0-7-3-7-4.75h4.75c.12.67,1,1,2.55,1h8.59c1.69,0,2.4-.31,2.4-.82s-.36-.7-1.46-.7h-11c-3.73,0-5.62-1.52-5.62-3.88s1.69-4.59,7-4.63h8.73c6.08,0,6.83,3.32,6.83,4.61h-4.74c-.09-.55-.67-1-2.22-1h-8.6c-1.79,0-2.19.43-2.19.83s.36.71,1.33.71h11.33C287.78,394.65,289.62,396.3,289.62,398.66Z"/><path class="cls-2" d="M289.62,417.66c0,2.73-2.19,4.54-7.23,4.61H273.5c-6,0-7-3-7-4.75h4.75c.12.67,1,1,2.55,1h8.59c1.69,0,2.4-.31,2.4-.82s-.36-.7-1.46-.7h-11c-3.73,0-5.62-1.52-5.62-3.88s1.69-4.59,7-4.63h8.73c6.08,0,6.83,3.32,6.83,4.61h-4.74c-.09-.55-.67-1-2.22-1h-8.6c-1.79,0-2.19.43-2.19.83s.36.71,1.33.71h11.33C287.78,413.65,289.62,415.3,289.62,417.66Z"/><path class="cls-2" d="M288.8,434.38a3.41,3.41,0,0,1,1.05,2.43A4.54,4.54,0,0,1,285,441H266.7V427.75H285a4.55,4.55,0,0,1,4.81,4.25A3.25,3.25,0,0,1,288.8,434.38Zm-17.48-1.6h13a.74.74,0,0,0,.75-.68.73.73,0,0,0-.75-.69h-13ZM285,436.64a.81.81,0,0,0-.84-.74H271.32v1.48h12.9A.78.78,0,0,0,285,436.64Z"/><path class="cls-2" d="M275.7,446.75h4.72V460H275.7Z"/><path class="cls-2" d="M272.37,469.35v1.33H287v3.46H272.37v1.29h16.1V479H267.65V465.75h20.82v3.6Z"/><path class="cls-2" d="M266.62,484.75h16.77c3.84,0,6.37,2.29,6.37,5.12a5,5,0,0,1-3.35,4.58l2.67,3.59H283.6l-2-3h-10.2v3h-4.74Zm16.77,6.59a1.48,1.48,0,1,0,0-2.93h-12v2.93Z"/><path class="cls-2" d="M290.6,515.83c0,4.12-3.43,6.87-8.24,6.87h-8.59a9.8,9.8,0,0,1-4.9-1.21l-2,1.06-.75-1.14,1.5-.81a6.3,6.3,0,0,1-2.11-4.77c0-4.1,3.44-6.88,8.25-6.88h8.59a10,10,0,0,1,4.85,1.16l2-1.08.75,1.14-1.55.83A6.26,6.26,0,0,1,290.6,515.83Zm-18.74,2.52,10.26-5.51h-8.35a3.14,3.14,0,0,0-3.44,3A2.85,2.85,0,0,0,271.86,518.35Zm13.93-2.52a2.89,2.89,0,0,0-1.59-2.57l-10.35,5.55h8.51C284.4,518.81,285.79,517.52,285.79,515.83Z"/><path class="cls-2" d="M286.34,534.83l3.56,6.65h-5.11l-2.62-4.94H271.61v4.94h-4.74v-13.3h4.74v4.71H282.3l2.49-4.71h5.11Z"/><path class="cls-2" d="M290.6,553.83c0,4.12-3.43,6.87-8.24,6.87h-8.59c-4.7,0-8.25-2.75-8.25-6.87S269,547,273.77,547h8.59C287.17,547,290.6,549.73,290.6,553.83Zm-4.81,0a3.13,3.13,0,0,0-3.43-3h-8.59a3.14,3.14,0,0,0-3.44,3c0,1.69,1.4,3,3.44,3h8.59C284.4,556.81,285.79,555.52,285.79,553.83Z"/><line class="cls-3" x1="314.64" y1="329.89" x2="314.64" y2="560.7"/><line class="cls-3" x1="322.56" y1="329.89" x2="322.56" y2="560.7"/><line class="cls-3" x1="330.48" y1="329.89" x2="330.48" y2="560.7"/><line class="cls-3" x1="338.4" y1="329.89" x2="338.4" y2="560.7"/><line class="cls-3" x1="346.32" y1="329.89" x2="346.32" y2="560.7"/></svg>