<svg xmlns="http://www.w3.org/2000/svg" viewBox="0 0 817 509"><defs><style>.cls-1{fill:#fbcdfc;}.cls-2{font-size:35.6px;letter-spacing:1em;}.cls-13,.cls-16,.cls-2,.cls-4,.cls-9{font-family:Futura-Bold, Futura;font-weight:700;}.cls-3{letter-spacing:0.96em;}.cls-13,.cls-4,.cls-9{font-size:20px;}.cls-4{letter-spacing:1em;}.cls-5{fill:#b6fdff;}.cls-6{fill:red;stroke:red;stroke-miterlimit:10;stroke-width:4px;}.cls-7{fill:#f56bfc;}.cls-8{fill:#f79ffc;}.cls-9{letter-spacing:0.18em;}.cls-10{letter-spacing:0.23em;}.cls-11{letter-spacing:0.2em;}.cls-12{letter-spacing:0.21em;}.cls-13{letter-spacing:0.19em;}.cls-14{letter-spacing:0.22em;}.cls-15{letter-spacing:0.21em;}.cls-16{font-size:18px;letter-spacing:0.5em;}.cls-17{letter-spacing:0.51em;}.cls-18{letter-spacing:0.53em;}.cls-19{letter-spacing:0.51em;}.cls-20{letter-spacing:0.5em;}.cls-21{letter-spacing:0.53em;}.cls-22{letter-spacing:0.47em;}.cls-23{letter-spacing:0.51em;}</style></defs><g id="Levelcompleted"><rect class="cls-1" x="39.93" y="21.71" width="768.15" height="473.26" rx="12"/><text class="cls-2" transform="matrix(0.87, 0.01, -0.02, 1, 246.49, 98.35)">SOR<tspan class="cls-3" x="187.96" y="0">R</tspan><tspan x="247.51" y="0">Y! </tspan></text><text class="cls-4" transform="matrix(0.87, 0.01, -0.02, 1, 396.42, 332.35)">or</text><polygon class="cls-5" points="732.05 389.73 672.63 388.8 658.89 274.76 749.35 276.17 732.05 389.73"/><polygon points="729.03 386.77 676.09 385.94 663.85 284.32 744.45 285.58 729.03 386.77"/><line class="cls-6" x1="625" y1="248.69" x2="772.93" y2="401.32"/><line class="cls-6" x1="780.79" y1="252.11" x2="628.16" y2="400.04"/><polygon class="cls-5" points="185.05 390.73 125.63 389.8 111.89 275.76 202.34 277.17 185.05 390.73"/><polygon points="182.03 387.77 129.09 386.94 116.85 285.32 197.45 286.58 182.03 387.77"/><line class="cls-6" x1="78" y1="249.69" x2="225.93" y2="402.32"/><line class="cls-6" x1="233.79" y1="253.11" x2="81.16" y2="401.04"/><rect class="cls-7" x="304.45" y="239.97" width="228.96" height="54.45" rx="12"/><rect class="cls-8" x="306.93" y="237.35" width="228.96" height="54.45" rx="12"/><text class="cls-9" transform="translate(357.28 270.67) rotate(0.06)">T<tspan class="cls-10" x="14.26" y="0">r</tspan><tspan class="cls-11" x="28.2" y="0">y a</tspan><tspan class="cls-12" x="74.78" y="0">g</tspan><tspan class="cls-11" x="92.94" y="0">ain</tspan></text><rect class="cls-7" x="253.92" y="360.97" width="336.92" height="54.45" rx="12"/><rect class="cls-8" x="257.55" y="358.35" width="336.92" height="54.45" rx="12"/><text class="cls-13" transform="translate(263.81 391.63) rotate(0.06)">R<tspan class="cls-11" x="17.96" y="0">ead </tspan><tspan class="cls-14" x="81.74" y="0">t</tspan><tspan class="cls-11" x="93.66" y="0">he Coc</tspan><tspan class="cls-15" x="187.82" y="0">t</tspan><tspan class="cls-11" x="199.48" y="0">ail Book</tspan></text><text class="cls-16" transform="translate(221.13 166.1)">B<tspan class="cls-17" x="21.46" y="0">e</tspan><tspan class="cls-18" x="42.23" y="0">t</tspan><tspan class="cls-19" x="58.43" y="0">t</tspan><tspan class="cls-20" x="74.32" y="0">er lu</tspan><tspan class="cls-21" x="162.99" y="0">c</tspan><tspan x="181.26" y="0">k n</tspan><tspan class="cls-22" x="238.89" y="0">e</tspan><tspan x="259.05" y="0">xt </tspan><tspan class="cls-23" x="312.24" y="0">t</tspan><tspan x="328.21" y="0">ime!</tspan></text></g></svg>