<svg xmlns="http://www.w3.org/2000/svg" viewBox="0 0 690 1010"><defs><style>.cls-1{fill:#fbcdfc;}.cls-2{fill:#4aff5f;}.cls-3{font-size:16.96px;}.cls-21,.cls-25,.cls-3,.cls-31,.cls-40,.cls-43,.cls-48,.cls-5,.cls-53{font-family:Futura-Bold, Futura;font-weight:700;}.cls-36,.cls-4,.cls-50{fill:none;stroke-miterlimit:10;}.cls-36,.cls-4{stroke:#fff;}.cls-4{stroke-width:6px;}.cls-21,.cls-25,.cls-5,.cls-53{font-size:20px;}.cls-5{letter-spacing:0.12em;}.cls-21,.cls-6{letter-spacing:0.2em;}.cls-7{letter-spacing:0.21em;}.cls-8{letter-spacing:0.23em;}.cls-9{letter-spacing:0.22em;}.cls-10{letter-spacing:0.2em;}.cls-11{letter-spacing:0.2em;}.cls-12{letter-spacing:0.22em;}.cls-13{letter-spacing:0.21em;}.cls-14{letter-spacing:0.21em;}.cls-15{letter-spacing:0.17em;}.cls-16{letter-spacing:0.17em;}.cls-17{letter-spacing:0.21em;}.cls-18{letter-spacing:0.2em;}.cls-19{letter-spacing:0.17em;}.cls-20{letter-spacing:0.15em;}.cls-22{letter-spacing:0.16em;}.cls-23{letter-spacing:0.2em;}.cls-24{letter-spacing:0.2em;}.cls-25{letter-spacing:0.19em;}.cls-26{letter-spacing:0.21em;}.cls-27{fill:#6fb6c1;}.cls-28{fill:#d6ff2c;}.cls-29,.cls-40{fill:#06ff4c;}.cls-30{fill:#8aeef9;}.cls-31{font-size:7.98px;fill:#f96500;letter-spacing:0.49em;}.cls-32{letter-spacing:0.5em;}.cls-33{letter-spacing:0.46em;}.cls-34{letter-spacing:0.47em;}.cls-35{letter-spacing:0.5em;}.cls-37{fill:#fff;}.cls-38{fill:#c6ff29;}.cls-39{fill:#fce3f4;}.cls-40{font-size:10.49px;letter-spacing:0.5em;}.cls-41{fill:#fa0f0c;}.cls-42{fill:#ce0505;}.cls-43{font-size:9.22px;letter-spacing:0.51em;}.cls-44{letter-spacing:0.5em;}.cls-45{letter-spacing:0.53em;}.cls-46{letter-spacing:0.5em;}.cls-47{fill:#f50;}.cls-48{font-size:6.41px;letter-spacing:0.47em;}.cls-49{letter-spacing:0.5em;}.cls-50{stroke:#ecf711;}.cls-51{fill:#f56bfc;}.cls-52{fill:#f79ffc;}.cls-53{letter-spacing:0.21em;}.cls-54{letter-spacing:0.22em;}.cls-55{letter-spacing:0.22em;}</style></defs><g id="Gamescreen"><rect class="cls-1" x="24" y="16.5" width="634" height="976" rx="12"/><circle class="cls-2" cx="332.65" cy="109.11" r="52.39"/><text class="cls-3" transform="translate(281.87 96.73) rotate(-70.68)">S</text><text class="cls-3" transform="matrix(0.66, -0.76, 0.76, 0.66, 289, 79.8)">H</text><text class="cls-3" transform="translate(304.17 64.68) rotate(-25.8)">A</text><text class="cls-3" transform="matrix(1, -0.05, 0.05, 1, 323.62, 56.92)">K</text><text class="cls-3" transform="translate(344.39 57.46) rotate(17.63)">E</text><text class="cls-3" transform="matrix(0.83, 0.56, -0.56, 0.83, 360.31, 63.99)"> </text><text class="cls-3" transform="translate(370.87 72.39) rotate(49.2)">I</text><text class="cls-3" transform="translate(379.08 83.26) rotate(65.85)">T</text><text class="cls-3" transform="translate(384.66 98.93) rotate(82.22)"> </text><text class="cls-3" transform="translate(385.5 112.36) rotate(96.92)"> </text><text class="cls-3" transform="translate(383.13 125.52) rotate(114.46)">S</text><text class="cls-3" transform="translate(374.54 141.74) rotate(136.06)">H</text><text class="cls-3" transform="translate(358.07 155.46) rotate(159.3)">A</text><text class="cls-3" transform="translate(338.03 161.46) rotate(-178.06)">K</text><text class="cls-3" transform="translate(317.38 159.08) rotate(-157.25)">E</text><text class="cls-3" transform="translate(302.08 151.15) rotate(-140.61)"> </text><text class="cls-3" transform="matrix(-0.58, -0.81, 0.81, -0.58, 292.34, 141.88)">I</text><text class="cls-3" transform="matrix(-0.33, -0.95, 0.95, -0.33, 285.12, 130.31)">T</text><circle class="cls-4" cx="332.65" cy="108.95" r="47.06"/><circle class="cls-4" cx="332.65" cy="109.11" r="16.38"/><line class="cls-4" x1="332.65" y1="61.89" x2="332.65" y2="92.74"/><line class="cls-4" x1="332.65" y1="125.49" x2="332.65" y2="156.01"/><line class="cls-4" x1="349.03" y1="109.11" x2="379.72" y2="109.11"/><line class="cls-4" x1="316.28" y1="109.11" x2="285.59" y2="109.11"/><line class="cls-4" x1="321.16" y1="97.26" x2="299.82" y2="75.91"/><line class="cls-4" x1="343.86" y1="97.6" x2="365.72" y2="75.74"/><line class="cls-4" x1="344.2" y1="120.64" x2="365.38" y2="141.81"/><line class="cls-4" x1="320.82" y1="120.64" x2="299.82" y2="141.64"/><text class="cls-5" transform="translate(52 246.03)">Y<tspan class="cls-6" x="16.76" y="0">ou mu</tspan><tspan class="cls-7" x="104.16" y="0">s</tspan><tspan class="cls-6" x="118.62" y="0">t </tspan><tspan class="cls-8" x="140.88" y="0">c</tspan><tspan class="cls-6" x="155.18" y="0">hoose </tspan><tspan class="cls-9" x="250.38" y="0">t</tspan><tspan class="cls-10" x="262.3" y="0">he </tspan><tspan class="cls-11" x="307.32" y="0">r</tspan><tspan class="cls-6" x="320.64" y="0">ight in</tspan><tspan class="cls-12" x="415.6" y="0">g</tspan><tspan class="cls-13" x="433.9" y="0">r</tspan><tspan class="cls-6" x="447.33" y="0">ediens in </tspan><tspan class="cls-6"><tspan x="15.9" y="40">o</tspan><tspan class="cls-13" x="33.9" y="40">r</tspan><tspan x="47.34" y="40">der </tspan><tspan class="cls-14" x="106.4" y="40">t</tspan><tspan x="118.04" y="40">o ma</tspan><tspan class="cls-15" x="188.7" y="40">k</tspan><tspan x="206.04" y="40">e </tspan><tspan class="cls-16" x="233.78" y="40">y</tspan><tspan x="251" y="40">our cu</tspan><tspan class="cls-17" x="341.65" y="40">s</tspan><tspan class="cls-14" x="356.11" y="40">t</tspan><tspan x="367.75" y="40">ome</tspan><tspan class="cls-18" x="426.53" y="40">r</tspan><tspan x="439.79" y="40">s hap</tspan><tspan class="cls-19" x="518.09" y="40">p</tspan><tspan class="cls-20" x="535.59" y="40">y</tspan><tspan x="552.27" y="40">. </tspan></tspan></text><text class="cls-21" transform="translate(61.68 527.7) rotate(0.06)">BE<tspan class="cls-22" x="33.24" y="0">W</tspan><tspan x="59.36" y="0">ARE! The w</tspan><tspan class="cls-23" x="219.68" y="0">r</tspan><tspan x="233.08" y="0">ong in</tspan><tspan class="cls-12" x="324.48" y="0">g</tspan><tspan class="cls-13" x="342.78" y="0">r</tspan><tspan x="356.22" y="0">ediens can </tspan><tspan class="cls-24" x="520.37" y="0">r</tspan><tspan x="533.69" y="0">uin </tspan><tspan x="143.07" y="40">a d</tspan><tspan class="cls-24" x="189.91" y="40">r</tspan><tspan x="203.23" y="40">ink in a second.</tspan></text><text class="cls-25" transform="translate(48.26 802.7) rotate(0.06)">R<tspan class="cls-6" x="17.96" y="0">emember </tspan><tspan class="cls-14" x="158.58" y="0">t</tspan><tspan class="cls-6" x="170.22" y="0">o be </tspan><tspan class="cls-26" x="244.78" y="0">f</tspan><tspan class="cls-6" x="256.82" y="0">a</tspan><tspan class="cls-7" x="274.84" y="0">s</tspan><tspan class="cls-6" x="289.3" y="0">t, because </tspan><tspan class="cls-9" x="448.43" y="0">t</tspan><tspan class="cls-6" x="460.35" y="0">he ice is </tspan><tspan class="cls-6"><tspan x="230.83" y="40">mel</tspan><tspan class="cls-7" x="281.71" y="40">t</tspan><tspan x="293.45" y="40">ing!</tspan></tspan></text><polygon class="cls-27" points="351.14 355.78 350.9 355.78 350.9 355.36 351.14 355.78"/><rect class="cls-28" x="316.15" y="360.33" width="47.28" height="68.93" rx="23.64"/><rect class="cls-28" x="316.15" y="389.96" width="47.28" height="68.93" rx="20.34"/><polygon class="cls-28" points="361.15 373.12 318.43 373.12 332.38 348.96 339.8 336.12 348.02 350.37 350.9 355.36 351.14 355.78 361.15 373.12"/><path class="cls-28" d="M350.9,321.91v5.22l-1.27.73,1.27.74v16.75l-2.88,5-7.36,12.83L332.39,349l-3.71-6.37v-14l1.27-.74-1.27-.73V322H330l19.78-.06Z"/><path class="cls-29" d="M350.9,320.47c0,.89-1.22,1.69-3.2,2.28l-.22,0a1.68,1.68,0,0,0-1,.34,26.64,26.64,0,0,1-2.69.43,1.7,1.7,0,0,0-3,.2l-1,0-1,0a1.71,1.71,0,0,0-3-.2,26.64,26.64,0,0,1-2.69-.43,1.68,1.68,0,0,0-1-.34l-.22,0c-2-.59-3.2-1.39-3.2-2.28,0-1.8,5-3.25,11.11-3.25S350.9,318.67,350.9,320.47Z"/><path class="cls-29" d="M350.9,320.47v3.79h-1.72a1.7,1.7,0,0,0-1.48-1.51l-.22,0a1.68,1.68,0,0,0-1,.34,1.7,1.7,0,0,0-.69,1.19h-1.73a1.7,1.7,0,0,0-3.23-.56,1.34,1.34,0,0,0-.16.56h-1.73a1.71,1.71,0,0,0-3.13-.76,1.82,1.82,0,0,0-.27.76H333.8a1.73,1.73,0,0,0-1.7-1.53l-.22,0a1.7,1.7,0,0,0-1.48,1.51h-1.72v-3.79Z"/><rect class="cls-30" x="316.15" y="390.53" width="47.28" height="44.44"/><text class="cls-31" transform="translate(318.52 412.08)">T<tspan class="cls-32" x="8.19" y="0">ONIC</tspan><tspan class="cls-33"><tspan x="-1.21" y="9.57">W</tspan><tspan class="cls-34" x="11.6" y="9.57">A</tspan><tspan class="cls-35" x="21.72" y="9.57">TER</tspan></tspan></text><path class="cls-29" d="M504.14,437.68c-24.15,25-62.27,28.4-87,7.13-24.44-21-26.93-58.68-6.52-86.21l4.13,3.5,26.45,22.37,1.07.89,28.24,23.89.83.7,28.39,24Z"/><path class="cls-36" d="M499.75,434a64,64,0,0,1-16,12c-20.54,10.88-45.47,9.45-63-5.62-16.76-14.43-22.16-37.44-15.84-58.62a63.79,63.79,0,0,1,9.84-19.64l26.45,22.37,1.07.89,28.24,23.89.83.7Z"/><path class="cls-37" d="M471.36,410a22.47,22.47,0,0,1-7.07,4.51,21,21,0,0,1-10.8,1.3,18.61,18.61,0,0,1-9.48-4.32,19.51,19.51,0,0,1-6.24-18.37h0a22.53,22.53,0,0,1,3.45-8.59l1.07.89,28.24,23.89Z"/><path class="cls-38" d="M470.53,409.25c-7.07,7-18.17,7.62-25.53,1.29s-8.32-17.18-2.71-25.18Z"/><line class="cls-36" x1="404.66" y1="381.64" x2="438.02" y2="393.15"/><line class="cls-36" x1="437.75" y1="400.89" x2="403.83" y2="411.01"/><line class="cls-36" x1="444.01" y1="411.45" x2="420.78" y2="440.36"/><line class="cls-36" x1="453.49" y1="415.42" x2="454.26" y2="452.97"/><line class="cls-36" x1="464.17" y1="414.26" x2="483.76" y2="446"/><path class="cls-30" d="M272.35,457.43h-56.8a4.33,4.33,0,0,1-3.75-6.49l4.61-8V378.22a6.31,6.31,0,0,1,6.29-6.29h8.37l3.17-5.5V353l-3.73-6.47h25.75l-4.18,7.25v11.91l3.63,6.29h10a6.31,6.31,0,0,1,6.29,6.29v65.65l4.08,7.07A4.33,4.33,0,0,1,272.35,457.43Z"/><rect class="cls-37" x="221.92" y="379.8" width="44.06" height="58.75"/><rect class="cls-39" x="224.8" y="383.99" width="38.29" height="51.05"/><text class="cls-40" transform="translate(227.11 413.56)">GIN</text><rect class="cls-29" x="225.85" y="337.88" width="36.19" height="11.02" rx="4.28"/><path class="cls-41" d="M365.46,660.84h.22L357,641l-41.81.13L306.55,661h.22a10.68,10.68,0,0,0-.62,3.6l.18,56.82a10.28,10.28,0,0,0,5,8.77v5.21l50-.16,0-5.37a10.64,10.64,0,0,0,4.94-9l-.18-56.47A10.53,10.53,0,0,0,365.46,660.84Z"/><rect class="cls-42" x="311.45" y="639.02" width="49.2" height="4.13" rx="2.07" transform="translate(-2.01 1.06) rotate(-0.18)"/><rect class="cls-37" x="306.23" y="672.22" width="59.95" height="36.43" transform="translate(-2.16 1.06) rotate(-0.18)"/><text class="cls-43" transform="translate(314.46 692.98) rotate(-0.18)">C<tspan class="cls-44" x="10.86" y="0">O</tspan><tspan class="cls-45" x="24.01" y="0">L</tspan><tspan class="cls-46" x="33.81" y="0">A</tspan></text><path class="cls-41" d="M252.83,654.93l3.94,0L254,646.5h0l0-11.76-10.74-9.55,0-13.92-19.23.06,0,14-10.63,9.57,0,11.75h.07l-2.6,8.44h-.11l0,.24v0h0l8.91,56.41-7.28,18.17h.09a2.68,2.68,0,0,0-.36,1.32c0,4,9.81,7.26,21.88,7.22s21.84-3.33,21.83-7.36a2.63,2.63,0,0,0-.37-1.31h.1l-7.47-18.33,8.57-56.53Z"/><polygon class="cls-47" points="210.56 655.32 214.18 676.49 253.68 676.36 257.03 654.89 210.56 655.32"/><text class="cls-48" transform="translate(214.41 669.5) rotate(-0.18)">V<tspan class="cls-49" x="8.05" y="0">ODKA</tspan></text><rect class="cls-47" x="414.89" y="661.01" width="64.22" height="79.16" rx="32.11" transform="translate(-1.52 0.97) rotate(-0.12)"/><polyline class="cls-50" points="422.02 695.4 429.59 702.65 436.92 695.57"/><polyline class="cls-50" points="440.06 695.76 447.64 703.01 454.96 695.93"/><polyline class="cls-50" points="458.11 696.13 465.68 703.38 473.01 696.29"/><polyline class="cls-50" points="422.04 705.9 429.61 713.15 436.94 706.07"/><polyline class="cls-50" points="440.09 706.26 447.66 713.51 454.99 706.43"/><polyline class="cls-50" points="458.14 706.63 465.71 713.88 473.04 706.8"/><polyline class="cls-50" points="422.48 716.8 430.05 724.05 437.38 716.97"/><polyline class="cls-50" points="440.53 717.16 448.1 724.42 455.43 717.34"/><polyline class="cls-50" points="458.58 717.53 466.15 724.78 473.48 717.7"/><polyline class="cls-50" points="431.74 727.68 439.31 734.94 446.64 727.86"/><polyline class="cls-50" points="449.79 728.05 457.36 735.3 464.69 728.22"/><polyline class="cls-50" points="430.39 684.07 437.96 691.32 445.29 684.24"/><polyline class="cls-50" points="448.44 684.43 456 691.69 463.33 684.6"/><polyline class="cls-50" points="439.18 672.74 446.75 680 454.08 672.91"/><path class="cls-29" d="M430,667.11l-3.81,12L438.75,669l4.21,6.13,4.6-7,2.53,6.58L452.6,669l9.25,10.51,3.31-12.08s31.48-9.06,28.21,26.93c0,0,16.26-48.3-23.59-37.68,0,0,18.4-29.44,27.67-16.29,0,0-17.27-24.53-41.94,16.32,0,0-20.66-43-35.72-21,0,0,21.81-4.87,27.33,23.63,0,0-7.61-24.55-40.34-23.16,0,0,33.6,9.57,29.84,19.67,0,0-46.22-22.27-39.42,15C397.2,670.86,409.85,645.05,430,667.11Z"/><rect class="cls-47" x="223.1" y="604.44" width="21.51" height="10.33" rx="4.28"/></g><g id="Characterlost"><rect class="cls-51" x="178" y="885.12" width="303.72" height="54.45" rx="12"/><rect class="cls-52" x="181.28" y="882.5" width="303.72" height="54.45" rx="12"/><text class="cls-53" transform="translate(225.41 915.72) rotate(0.06)">St<tspan class="cls-6" x="28.78" y="0">a</tspan><tspan class="cls-54" x="46.8" y="0">r</tspan><tspan class="cls-6" x="60.5" y="0">t </tspan><tspan class="cls-55" x="82.76" y="0">t</tspan><tspan class="cls-6" x="94.68" y="0">he Game</tspan></text></g></svg>