<svg xmlns="http://www.w3.org/2000/svg" viewBox="0 0 817 523"><defs><style>.cls-1{fill:#fbcdfc;}.cls-2{font-size:35.6px;letter-spacing:1em;}.cls-17,.cls-2,.cls-20,.cls-4,.cls-5,.cls-6{font-family:Futura-Bold, Futura;font-weight:700;}.cls-3{letter-spacing:1.01em;}.cls-17,.cls-20,.cls-4{font-size:20px;}.cls-4{letter-spacing:1em;}.cls-5{font-size:25px;}.cls-5,.cls-7{letter-spacing:0.5em;}.cls-6{font-size:18px;letter-spacing:0.42em;}.cls-8{letter-spacing:0.47em;}.cls-9{letter-spacing:0.52em;}.cls-10{letter-spacing:0.5em;}.cls-11{letter-spacing:0.53em;}.cls-12{letter-spacing:0.51em;}.cls-13{letter-spacing:0.5em;}.cls-14{letter-spacing:0.46em;}.cls-15{fill:#f56bfc;}.cls-16{fill:#f79ffc;}.cls-17,.cls-21{letter-spacing:0.2em;}.cls-18{letter-spacing:0.21em;}.cls-19{letter-spacing:0.21em;}.cls-20{letter-spacing:0.19em;}.cls-22{letter-spacing:0.22em;}.cls-23{fill:#a8dca0;}.cls-24{fill:#c3e4e5;}.cls-25{fill:#90c587;}.cls-26{fill:#e9f368;}.cls-27{fill:#dde061;}.cls-28{fill:#f2f3a4;}.cls-29{fill:#f3a4d1;}.cls-30{fill:#f1e615;}.cls-31,.cls-32{fill:#ee9912;}.cls-32{stroke:#ed9917;stroke-miterlimit:10;stroke-width:0.25px;}</style></defs><g id="Levelcompleted"><rect class="cls-1" x="20.28" y="26.55" width="768.15" height="474.34" rx="12"/><text class="cls-2" transform="matrix(0.87, 0.01, -0.02, 1, 37.7, 103.5)">LEVEL <tspan class="cls-3" x="332.31" y="0">C</tspan><tspan x="392.04" y="0">OMPLETED</tspan></text><text class="cls-4" transform="matrix(0.87, 0.01, -0.02, 1, 375.9, 368.25)">or</text><text class="cls-5" transform="translate(260.67 164.43)">GOOD JOB!</text><text class="cls-6" transform="translate(77.89 220.1)">Y<tspan class="cls-7" x="20.48" y="0">ou mi</tspan><tspan class="cls-8" x="119.59" y="0">x</tspan><tspan class="cls-7" x="141.39" y="0">ed </tspan><tspan class="cls-9" x="198.77" y="0">t</tspan><tspan class="cls-10" x="214.9" y="0">he pe</tspan><tspan class="cls-11" x="313.88" y="0">r</tspan><tspan class="cls-12" x="331.72" y="0">f</tspan><tspan class="cls-13" x="347.96" y="0">ect Gin &amp; </tspan><tspan class="cls-14" x="532.17" y="0">T</tspan><tspan class="cls-7" x="550.11" y="0">onic</tspan></text><rect class="cls-15" x="284.79" y="275.87" width="228.96" height="54.45" rx="12"/><rect class="cls-16" x="287.26" y="273.24" width="228.96" height="54.45" rx="12"/><text class="cls-17" transform="translate(328.67 306.5) rotate(0.06)">Pl<tspan class="cls-18" x="27.66" y="0">a</tspan><tspan x="45.88" y="0">y a</tspan><tspan class="cls-19" x="92.46" y="0">g</tspan><tspan x="110.62" y="0">ain</tspan></text><rect class="cls-15" x="229.79" y="396.87" width="336.92" height="54.45" rx="12"/><rect class="cls-16" x="233.43" y="394.24" width="336.92" height="54.45" rx="12"/><text class="cls-20" transform="translate(239.57 427.46) rotate(0.06)">R<tspan class="cls-21" x="17.96" y="0">ead </tspan><tspan class="cls-22" x="81.74" y="0">t</tspan><tspan class="cls-21" x="93.66" y="0">he Coc</tspan><tspan class="cls-18" x="187.82" y="0">t</tspan><tspan class="cls-21" x="199.48" y="0">ail Book</tspan></text><path class="cls-23" d="M73.45,310.31v127s45.77,40.32,118.24,0v-127S136.11,339.73,73.45,310.31Z"/><path class="cls-24" d="M80.69,344.21v88s40.16,27.94,103.76,0v-88S135.68,364.6,80.69,344.21Z"/><path class="cls-25" d="M73.45,310.31s54.83-35,118.24,0"/><path class="cls-25" d="M73.45,310.31s54.83,35,118.24,0"/><rect class="cls-26" x="88.43" y="408.46" width="23.57" height="23.57" transform="matrix(-0.2, 0.98, -0.98, -0.2, 531.94, 403.95)"/><rect class="cls-27" x="110.06" y="414.1" width="23.57" height="23.57" transform="translate(539.05 276.98) rotate(86.32)"/><rect class="cls-28" x="101.62" y="394.42" width="23.57" height="23.57" transform="translate(493.35 589.25) rotate(131.32)"/><rect class="cls-24" x="80.69" y="344.21" width="103.76" height="24.05"/><rect class="cls-29" x="155.55" y="248.57" width="6.22" height="191.27" transform="translate(49.89 -18.86) rotate(8.07)"/><path class="cls-30" d="M88.34,329.54l39.6,38a27.44,27.44,0,1,1-39.6-38Z"/><path class="cls-31" d="M102.34,342.94,114,354.16a8.12,8.12,0,0,1-11.68-11.22Z"/><line class="cls-32" x1="101.59" y1="348.31" x2="80.69" y2="344.39"/><line class="cls-32" x1="102.76" y1="351.36" x2="83.82" y2="361.3"/><line class="cls-32" x1="106.21" y1="352.77" x2="99.19" y2="374.5"/><line class="cls-32" x1="108.55" y1="353.28" x2="118.5" y2="373.96"/><path class="cls-23" d="M625.45,313.31v127s45.77,40.32,118.24,0v-127S688.11,342.73,625.45,313.31Z"/><path class="cls-24" d="M632.69,347.21v88s40.16,27.94,103.76,0v-88S687.68,367.6,632.69,347.21Z"/><path class="cls-25" d="M625.45,313.31s54.83-35,118.24,0"/><path class="cls-25" d="M625.45,313.31s54.83,35,118.24,0"/><rect class="cls-26" x="640.43" y="411.46" width="23.57" height="23.57" transform="matrix(-0.2, 0.98, -0.98, -0.2, 1194.58, -133.86)"/><rect class="cls-27" x="662.06" y="417.1" width="23.57" height="23.57" transform="translate(1058.65 -271.08) rotate(86.32)"/><rect class="cls-28" x="653.62" y="397.42" width="23.57" height="23.57" transform="translate(1412.1 179.69) rotate(131.32)"/><rect class="cls-24" x="632.69" y="347.21" width="103.76" height="24.05"/><rect class="cls-29" x="707.55" y="251.57" width="6.22" height="191.27" transform="translate(55.77 -96.32) rotate(8.07)"/><path class="cls-30" d="M640.34,332.54l39.6,38a27.44,27.44,0,1,1-39.6-38Z"/><path class="cls-31" d="M654.34,345.94,666,357.16a8.12,8.12,0,0,1-11.68-11.22Z"/><line class="cls-32" x1="653.59" y1="351.31" x2="632.69" y2="347.39"/><line class="cls-32" x1="654.76" y1="354.36" x2="635.82" y2="364.3"/><line class="cls-32" x1="658.21" y1="355.77" x2="651.19" y2="377.5"/><line class="cls-32" x1="660.55" y1="356.28" x2="670.5" y2="376.96"/></g></svg>