<svg xmlns="http://www.w3.org/2000/svg" xmlns:xlink="http://www.w3.org/1999/xlink" viewBox="0 0 1920 1080"><defs><style>.cls-1,.cls-8{filter:url(#AI_GaussianBlur_4);}.cls-2{fill:#f4d8c3;}.cls-3{fill:#ff1569;}.cls-4{fill:#ff8500;}.cls-5{fill:#aaf9f3;}.cls-6{fill:#fff;}.cls-7{fill:#4de8e0;}.cls-8{opacity:0.5;}.cls-9{fill:#ef41da;}.cls-10{fill:#fa0f0c;}.cls-11{fill:#ce783e;}.cls-12{fill:#4aff5f;}.cls-13{fill:#fbcdfc;}.cls-14{font-size:35.6px;letter-spacing:1em;}.cls-14,.cls-16,.cls-21,.cls-25,.cls-28{font-family:Futura-Bold, Futura;font-weight:700;}.cls-15{letter-spacing:0.96em;}.cls-16,.cls-21,.cls-25{font-size:20px;}.cls-16{letter-spacing:1em;}.cls-17{fill:#b6fdff;}.cls-18{fill:red;stroke:red;stroke-miterlimit:10;stroke-width:4px;}.cls-19{fill:#f56bfc;}.cls-20{fill:#f79ffc;}.cls-21{letter-spacing:0.18em;}.cls-22{letter-spacing:0.23em;}.cls-23{letter-spacing:0.2em;}.cls-24{letter-spacing:0.21em;}.cls-25{letter-spacing:0.19em;}.cls-26{letter-spacing:0.22em;}.cls-27{letter-spacing:0.21em;}.cls-28{font-size:18px;letter-spacing:0.5em;}.cls-29{letter-spacing:0.51em;}.cls-30{letter-spacing:0.53em;}.cls-31{letter-spacing:0.51em;}.cls-32{letter-spacing:0.5em;}.cls-33{letter-spacing:0.53em;}.cls-34{letter-spacing:0.47em;}.cls-35{letter-spacing:0.51em;}</style><filter id="AI_GaussianBlur_4" name="AI_GaussianBlur_4"><feGaussianBlur stdDeviation="4"/></filter></defs><g id="Loose"><g class="cls-1"><rect class="cls-2" x="-0.12" y="435.06" width="1914.6" height="644.24"/></g><g class="cls-1"><path class="cls-3" d="M-1.7,1.19V140.38a10.39,10.39,0,0,1,.07,1.13v52.18a10.42,10.42,0,0,1-.07,1.14V391.68H1918.9V1.19Z"/></g><g class="cls-1"><circle class="cls-4" cx="1669.47" cy="314.43" r="173"/></g><g class="cls-1"><path class="cls-5" d="M.13,366.76l1916.24,3.68-.61,321.78s-305.68,254.23-508.62-1-343.72-31.07-343.72-31.07S950.78,848,788.27,697.59,301,1078.23-.47,677.32Z"/><ellipse class="cls-6" cx="955.17" cy="742.26" rx="21.5" ry="20"/><ellipse class="cls-6" cx="999.84" cy="737.26" rx="31.17" ry="29"/><ellipse class="cls-6" cx="1872.84" cy="709.26" rx="31.17" ry="29"/><ellipse class="cls-6" cx="1776.94" cy="768.26" rx="18.27" ry="17"/><ellipse class="cls-6" cx="1740.49" cy="763.26" rx="24.72" ry="23"/><ellipse class="cls-6" cx="1785.44" cy="730.31" rx="11.77" ry="10.95"/><ellipse class="cls-6" cx="1806.44" cy="753.31" rx="11.77" ry="10.95"/><ellipse class="cls-6" cx="1652.44" cy="790.31" rx="11.77" ry="10.95"/><ellipse class="cls-6" cx="1475.44" cy="752.65" rx="16.77" ry="15.6"/><ellipse class="cls-6" cx="1569.44" cy="786.65" rx="16.77" ry="15.6"/><ellipse class="cls-6" cx="846.34" cy="725.45" rx="26.67" ry="24.81"/><ellipse class="cls-6" cx="743.44" cy="671.45" rx="13.77" ry="12.81"/><ellipse class="cls-6" cx="1100.68" cy="615.36" rx="10" ry="9.3"/><ellipse class="cls-6" cx="1121.68" cy="599.36" rx="10" ry="9.3"/><ellipse class="cls-6" cx="1140.38" cy="600.87" rx="12.7" ry="11.81"/><ellipse class="cls-6" cx="1191.38" cy="573.87" rx="12.7" ry="11.81"/><ellipse class="cls-6" cx="1215.38" cy="565.15" rx="16.7" ry="15.53"/><ellipse class="cls-6" cx="1306.68" cy="602.1" rx="19" ry="17.67"/><ellipse class="cls-6" cx="1355.68" cy="631.17" rx="18" ry="16.74"/><ellipse class="cls-6" cx="1370.18" cy="596.2" rx="10.5" ry="9.77"/><ellipse class="cls-6" cx="1405.05" cy="680.75" rx="10.5" ry="9.77"/><ellipse class="cls-6" cx="1420.05" cy="703.75" rx="10.5" ry="9.77"/><ellipse class="cls-6" cx="1448.61" cy="728.62" rx="6.06" ry="5.64"/><ellipse class="cls-6" cx="1458.61" cy="718.62" rx="6.06" ry="5.64"/><ellipse class="cls-6" cx="1418.61" cy="692.62" rx="6.06" ry="5.64"/><ellipse class="cls-6" cx="1422.61" cy="674.62" rx="6.06" ry="5.64"/><ellipse class="cls-6" cx="1393.61" cy="666.62" rx="6.06" ry="5.64"/><ellipse class="cls-6" cx="1383.61" cy="655.62" rx="6.06" ry="5.64"/><ellipse class="cls-6" cx="1549.61" cy="774.62" rx="6.06" ry="5.64"/><ellipse class="cls-6" cx="1638.17" cy="782.21" rx="6.5" ry="6.05"/><ellipse class="cls-6" cx="1339.18" cy="605.2" rx="10.5" ry="9.77"/><ellipse class="cls-6" cx="814.28" cy="712.8" rx="16.61" ry="15.45"/><ellipse class="cls-6" cx="712.78" cy="653.76" rx="23.11" ry="21.5"/><ellipse class="cls-6" cx="48.28" cy="731.71" rx="16.61" ry="15.45"/><ellipse class="cls-6" cx="39.47" cy="708.26" rx="12.9" ry="12"/><ellipse class="cls-6" cx="37.12" cy="682.21" rx="8.55" ry="7.95"/><ellipse class="cls-6" cx="10.12" cy="683.14" rx="9.55" ry="8.88"/><path class="cls-7" d="M.63,366.49,1916.88,366l0,178.88s-305.15,141.73-508.61.13-343.79-16.83-343.79-16.83S952.27,632.79,789.44,549.36,303,761.6.67,539.13Z"/><ellipse class="cls-6" cx="533.46" cy="582.87" rx="13.78" ry="12.81"/><ellipse class="cls-6" cx="504.27" cy="577.18" rx="20.96" ry="19.5"/><ellipse class="cls-6" cx="634.27" cy="549.18" rx="20.96" ry="19.5"/><ellipse class="cls-6" cx="668" cy="535.56" rx="11.69" ry="10.87"/><ellipse class="cls-6" cx="677" cy="548.56" rx="11.69" ry="10.87"/><ellipse class="cls-6" cx="737" cy="537.56" rx="11.69" ry="10.87"/><ellipse class="cls-6" cx="754" cy="541.56" rx="11.69" ry="10.87"/><ellipse class="cls-6" cx="824.18" cy="561.29" rx="19.5" ry="18.14"/><ellipse class="cls-6" cx="856.06" cy="583.29" rx="15.75" ry="14.65" transform="translate(-179.82 585.23) rotate(-34.38)"/><ellipse class="cls-6" cx="841.16" cy="576.65" rx="7.68" ry="7.15" transform="translate(-178.68 575.66) rotate(-34.38)"/><ellipse class="cls-6" cx="1070.16" cy="531.65" rx="7.68" ry="7.15" transform="translate(-113.27 697.1) rotate(-34.38)"/><ellipse class="cls-6" cx="1074.93" cy="520.85" rx="12.31" ry="11.45" transform="translate(364.84 1481.34) rotate(-79.38)"/><ellipse class="cls-6" cx="1113.93" cy="502.85" rx="12.31" ry="11.45" transform="translate(414.34 1504.99) rotate(-79.38)"/><ellipse class="cls-6" cx="1148.93" cy="489.85" rx="12.31" ry="11.45" transform="translate(455.66 1528.78) rotate(-79.38)"/><ellipse class="cls-6" cx="1219.26" cy="479.21" rx="14.6" ry="13.58" transform="translate(523.49 1589.23) rotate(-79.38)"/><ellipse class="cls-6" cx="1247.07" cy="485.82" rx="21.19" ry="19.71" transform="translate(539.68 1621.95) rotate(-79.38)"/><ellipse class="cls-6" cx="1253.03" cy="463.29" rx="7.11" ry="6.61" transform="translate(566.68 1609.43) rotate(-79.38)"/><ellipse class="cls-6" cx="1291.89" cy="490.95" rx="9.62" ry="8.95" transform="translate(571.19 1670.19) rotate(-79.38)"/><ellipse class="cls-6" cx="1303.26" cy="487.9" rx="10.05" ry="9.35" transform="translate(583.46 1678.88) rotate(-79.38)"/><ellipse class="cls-6" cx="1368.79" cy="525.5" rx="5.2" ry="4.84" transform="translate(599.96 1773.96) rotate(-79.38)"/><ellipse class="cls-6" cx="1393.26" cy="543.9" rx="10.05" ry="9.35" transform="translate(601.83 1813.01) rotate(-79.38)"/><ellipse class="cls-6" cx="1552.12" cy="601.77" rx="3" ry="2.79" transform="translate(674.52 2016.35) rotate(-79.38)"/><ellipse class="cls-6" cx="1535.48" cy="618.93" rx="4.88" ry="4.54" transform="translate(644.09 2014) rotate(-79.38)"/><ellipse class="cls-6" cx="1542.86" cy="605.59" rx="5.12" ry="4.76" transform="translate(663.21 2010.36) rotate(-79.38)"/><ellipse class="cls-6" cx="1515.26" cy="602.9" rx="10.05" ry="9.35" transform="translate(643.35 1981.04) rotate(-79.38)"/><ellipse class="cls-6" cx="1503.07" cy="595.94" rx="4.82" ry="4.48" transform="translate(640.25 1963.39) rotate(-79.38)"/><ellipse class="cls-6" cx="1485.54" cy="611.82" rx="19.81" ry="18.42" transform="translate(610.34 1959.11) rotate(-79.38)"/><ellipse class="cls-6" cx="1512.42" cy="619.42" rx="6.17" ry="5.74" transform="matrix(0.18, -0.98, 0.98, 0.18, 624.8, 1991.73)"/><ellipse class="cls-6" cx="1473.08" cy="590.37" rx="6.17" ry="5.74" transform="matrix(0.18, -0.98, 0.98, 0.18, 621.26, 1929.37)"/><ellipse class="cls-6" cx="1774.37" cy="595.91" rx="6.94" ry="7.46"/><ellipse class="cls-6" cx="1782.25" cy="591.5" rx="4.8" ry="4.46" transform="translate(872.33 2234.16) rotate(-79.38)"/><ellipse class="cls-6" cx="1775.34" cy="610.29" rx="6.05" ry="5.63" transform="translate(848.22 2242.7) rotate(-79.38)"/><ellipse class="cls-6" cx="1822.65" cy="582.68" rx="13.32" ry="12.39" transform="translate(913.94 2266.67) rotate(-79.38)"/><ellipse class="cls-6" cx="947.16" cy="584.65" rx="7.68" ry="7.15" transform="translate(-164.68 636.91) rotate(-34.38)"/><ellipse class="cls-6" cx="964.64" cy="579.07" rx="12.51" ry="11.64" transform="translate(217.66 1420.42) rotate(-79.38)"/><ellipse class="cls-6" cx="983.64" cy="575.07" rx="12.51" ry="11.64" transform="translate(237.08 1435.83) rotate(-79.38)"/><ellipse class="cls-6" cx="460.27" cy="595.18" rx="20.96" ry="19.5"/><ellipse class="cls-6" cx="298.27" cy="628.18" rx="20.96" ry="19.5"/><ellipse class="cls-6" cx="265.96" cy="627.61" rx="17.28" ry="16.07"/><ellipse class="cls-6" cx="92.96" cy="594.61" rx="17.27" ry="16.07"/><ellipse class="cls-6" cx="64.96" cy="594.61" rx="17.27" ry="16.07"/><ellipse class="cls-6" cx="64.96" cy="563.31" rx="27.28" ry="25.37"/><ellipse class="cls-6" cx="271.96" cy="591.61" rx="17.28" ry="16.07"/><ellipse class="cls-6" cx="347.05" cy="624.11" rx="11.36" ry="10.57"/><ellipse class="cls-6" cx="204.05" cy="622.11" rx="11.36" ry="10.57"/><ellipse class="cls-6" cx="185.05" cy="622.11" rx="11.36" ry="10.57"/><ellipse class="cls-6" cx="154.05" cy="613.11" rx="11.36" ry="10.57"/></g><g class="cls-8"><path class="cls-9" d="M1502.05,365.69S1471.52,397.46,1570,407s0,36.91,0,36.91-189.6,30.13,14.57,47.21,123.51,29.74,16.88,50.29,395.29,20.56,253.69,0,17-28.46,4.68-49-248.8-7.91-75.19-49c0,0,140.64-29.67,1.28-43.3s109.46,6.64,49.31-34.33"/></g></g><g id="Characterlost"><path class="cls-10" d="M504.44,608.48a1.14,1.14,0,0,0-.94.26h0l-4.34,5.37a.65.65,0,0,0,.05.89l3.6,3.56-3.6,3.56a.63.63,0,0,0-.2.47v2.58l-1.26-3.74,2.42-2.4a.66.66,0,0,0,0-.95l-3.7-3.66,2.39-3.94a.69.69,0,0,0-.21-.91h0a6.85,6.85,0,0,0-10.54,5.65,6.69,6.69,0,0,0,1.83,4.53l9.28,10h0a.67.67,0,0,0,.95,0l0,0h0l9.29-10a6.73,6.73,0,0,0,1.82-4.53A6.82,6.82,0,0,0,504.44,608.48Z"/><rect class="cls-11" x="340.1" y="709.16" width="153" height="50.57" rx="12"/><path class="cls-11" d="M588.06,797.18,577.26,812a12.1,12.1,0,0,1-16.76,2.65l-94.67-68A11.88,11.88,0,0,1,463.15,730L474,715.18a12.09,12.09,0,0,1,16.75-2.65l94.68,68A11.88,11.88,0,0,1,588.06,797.18Z"/><path class="cls-11" d="M371.23,736.06,362,751.87a12.09,12.09,0,0,1-16.39,4.36l-101.25-58A11.88,11.88,0,0,1,240,682l9.2-15.8a12.09,12.09,0,0,1,16.39-4.36l101.26,58A11.88,11.88,0,0,1,371.23,736.06Z"/><rect class="cls-11" x="565.1" y="776.58" width="187" height="40.65"/><path class="cls-11" d="M238.32,679.48l16.43-160.79a12,12,0,0,1,13.14-10.64l16.92,1.7a12,12,0,0,1,10.73,13L279.11,683.58A12,12,0,0,1,266,694.22l-16.91-1.7A12,12,0,0,1,238.32,679.48Z"/><polygon class="cls-11" points="416.6 933.25 493.1 742.87 340.1 742.87 416.6 933.25"/><polygon class="cls-11" points="500.1 944.16 493.97 968.54 465.99 1079.84 465.95 1080 367.25 1080 367.21 1079.84 338.08 963.99 333.1 944.16 500.1 944.16"/><ellipse class="cls-11" cx="417.1" cy="930.27" rx="86" ry="85.27"/><polygon class="cls-11" points="388.1 528.69 388.1 727 449.1 727 449.1 645.7 520.1 645.7 388.1 528.69"/><ellipse cx="408.6" cy="565.88" rx="51.5" ry="51.07"/><ellipse cx="345.1" cy="645.7" rx="90" ry="89.24"/><polygon class="cls-10" points="353.39 775.96 479.55 775.96 471.38 796.91 361.81 796.91 353.39 775.96"/><polygon class="cls-10" points="383.8 851.63 449.53 851.63 417.1 930.27 383.8 851.63"/><ellipse class="cls-12" cx="219.1" cy="407.72" rx="32" ry="31.73"/><polygon points="275.33 511.84 232.81 511.84 219.07 407.72 289.07 407.72 275.33 511.84"/><rect class="cls-11" x="213.1" y="491.01" width="82.76" height="32.49" rx="1.01"/><path class="cls-10" d="M480.44,606.48a1.14,1.14,0,0,0-.94.26h0l-4.34,5.37a.65.65,0,0,0,.05.89l3.6,3.56-3.6,3.56a.63.63,0,0,0-.2.47v2.58l-1.26-3.74,2.42-2.4a.66.66,0,0,0,0-.95l-3.7-3.66,2.39-3.94a.69.69,0,0,0-.21-.91h0a6.85,6.85,0,0,0-10.54,5.65,6.69,6.69,0,0,0,1.83,4.53l9.28,10h0a.67.67,0,0,0,.95,0l0,0h0l9.29-10a6.73,6.73,0,0,0,1.82-4.53A6.82,6.82,0,0,0,480.44,606.48Z"/></g><g id="loosemessage"><rect class="cls-13" x="575.93" y="303.37" width="768.15" height="473.26" rx="12"/><text class="cls-14" transform="matrix(0.87, 0.01, -0.02, 1, 782.49, 380.01)">SOR<tspan class="cls-15" x="187.96" y="0">R</tspan><tspan x="247.51" y="0">Y! </tspan></text><text class="cls-16" transform="matrix(0.87, 0.01, -0.02, 1, 932.41, 614.01)">or</text><polygon class="cls-17" points="1268.04 671.39 1208.62 670.46 1194.88 556.41 1285.34 557.83 1268.04 671.39"/><polygon points="1265.03 668.42 1212.08 667.6 1199.84 565.98 1280.44 567.24 1265.03 668.42"/><line class="cls-18" x1="1160.99" y1="530.35" x2="1308.92" y2="682.97"/><line class="cls-18" x1="1316.78" y1="533.77" x2="1164.16" y2="681.7"/><polygon class="cls-17" points="721.04 672.39 661.62 671.46 647.88 557.41 738.34 558.83 721.04 672.39"/><polygon points="718.03 669.42 665.08 668.6 652.84 566.98 733.44 568.24 718.03 669.42"/><line class="cls-18" x1="613.99" y1="531.35" x2="761.92" y2="683.97"/><line class="cls-18" x1="769.78" y1="534.77" x2="617.16" y2="682.7"/><rect class="cls-19" x="840.45" y="521.63" width="228.96" height="54.45" rx="12"/><rect class="cls-20" x="842.92" y="519.01" width="228.96" height="54.45" rx="12"/><text class="cls-21" transform="translate(893.28 552.33) rotate(0.06)">T<tspan class="cls-22" x="14.26" y="0">r</tspan><tspan class="cls-23" x="28.2" y="0">y a</tspan><tspan class="cls-24" x="74.78" y="0">g</tspan><tspan class="cls-23" x="92.94" y="0">ain</tspan></text><rect class="cls-19" x="789.91" y="642.63" width="336.92" height="54.45" rx="12"/><rect class="cls-20" x="793.55" y="640.01" width="336.92" height="54.45" rx="12"/><text class="cls-25" transform="translate(799.81 673.28) rotate(0.06)">R<tspan class="cls-23" x="17.96" y="0">ead </tspan><tspan class="cls-26" x="81.74" y="0">t</tspan><tspan class="cls-23" x="93.66" y="0">he Coc</tspan><tspan class="cls-27" x="187.82" y="0">t</tspan><tspan class="cls-23" x="199.48" y="0">ail Book</tspan></text><text class="cls-28" transform="translate(757.12 447.76)">B<tspan class="cls-29" x="21.46" y="0">e</tspan><tspan class="cls-30" x="42.23" y="0">t</tspan><tspan class="cls-31" x="58.43" y="0">t</tspan><tspan class="cls-32" x="74.32" y="0">er lu</tspan><tspan class="cls-33" x="162.99" y="0">c</tspan><tspan x="181.26" y="0">k n</tspan><tspan class="cls-34" x="238.89" y="0">e</tspan><tspan x="259.05" y="0">xt </tspan><tspan class="cls-35" x="312.24" y="0">t</tspan><tspan x="328.21" y="0">ime!</tspan></text></g></svg>