<svg xmlns="http://www.w3.org/2000/svg" viewBox="0 0 312 304"><defs><style>.cls-1{fill:#fa0f0c;}</style></defs><g id="Broken_heart" data-name="Broken heart"><path class="cls-1" d="M186.5,47c-3,0-6-.1-7.95,2.17,0,0-.07,0-.09.08L141.72,94.62a5.64,5.64,0,0,0,.43,7.58l30.46,30.1-30.46,30.1a5.65,5.65,0,0,0-1.69,4v21.83l-10.68-31.66,20.5-20.27a5.63,5.63,0,0,0,0-8l-31.35-31,20.26-33.36a5.81,5.81,0,0,0-1.78-7.69,1.29,1.29,0,0,1-.16-.09l0,0-.06,0A57.82,57.82,0,0,0,105.93,47C74.2,47,48,72.5,48,103.86a56.75,56.75,0,0,0,15.44,38.36L142,227.14s.07,0,.1.07a5.67,5.67,0,0,0,8.06.21,2.29,2.29,0,0,0,.23-.21l.1-.07L229,142.22a56.75,56.75,0,0,0,15.44-38.36C244.43,72.5,218.23,47,186.5,47Z"/></g></svg>