<svg xmlns="http://www.w3.org/2000/svg" viewBox="0 0 650 650"><defs><style>.cls-1{fill:red;}.cls-2{fill:#935c21;}.cls-3{fill:#bee48d;}.cls-4{fill:#f3b3d8;}.cls-5{fill:#cbe1e7;}.cls-6{fill:#e9f368;}.cls-7{fill:#dde061;}.cls-8{fill:#f2f3a4;}</style></defs><g id="Character1"><path class="cls-1" d="M252.78,147.42l-.08.16a.44.44,0,0,1-.1-.16Z"/><path class="cls-1" d="M261.06,133.7a9.52,9.52,0,0,0-8.36,4.84,9.58,9.58,0,0,0-8.38-4.84,9.45,9.45,0,0,0-9.56,9.36,9.68,9.68,0,0,0,.39,2.7l3.16,1.66,8.75,4.61,13.24,7,6.92-8.78h0a9.29,9.29,0,0,0,3.38-7.16A9.45,9.45,0,0,0,261.06,133.7Zm-8.36,13.88a.44.44,0,0,1-.1-.16h.18Z"/><path class="cls-1" d="M252.78,147.42l-.08.16a.44.44,0,0,1-.1-.16Z"/><path class="cls-1" d="M252.78,147.42l-.08.16a.44.44,0,0,1-.1-.16Z"/><path class="cls-2" d="M214.52,147.42c0,.06-.07.12-.09.18a1.62,1.62,0,0,1-.1-.18Z"/><path class="cls-2" d="M128,89.24c-1.31-.34-2.65-.62-4-.86l-.53-1.53Z"/><path class="cls-2" d="M159.8,187.49c-.23.3-.46.59-.7.87l-.46-1.31C159,187.2,159.42,187.33,159.8,187.49Z"/><path class="cls-2" d="M231.49,205.17l22.31,63.56-35.41,13.43c.18-2.39.27-4.8.27-7.25,0-40.26-24.54-74.55-58.86-87.42a63.28,63.28,0,0,0-8-85.69L216.57,136a9.19,9.19,0,0,0-2.14,2.58,9.58,9.58,0,0,0-8.37-4.83,9.46,9.46,0,0,0-9.57,9.36,9.27,9.27,0,0,0,3.41,7.17l14.53,18.43L229,150.23a9.28,9.28,0,0,0,3.33-6l2.87,1.52,3.16,1.66,8.75,4.61,13.24,7,38.57,20.34Z"/><polygon class="cls-2" points="189.93 391.89 186.87 393.18 187.91 389.12 189.93 391.89"/><path d="M218.66,274.91c0,2.45-.09,4.86-.27,7.25a95.48,95.48,0,0,1-4.78,23.65h0c-.16.5-.33,1-.51,1.46-.44,1.24-.9,2.46-1.4,3.67-.26.69-.55,1.37-.84,2.05a91.25,91.25,0,0,1-4.68,9.39,92.52,92.52,0,0,1-7.93,11.71h0v0a91.92,91.92,0,0,1-14,14.14c-.85.69-1.72,1.37-2.59,2-2.18,1.63-4.42,3.17-6.73,4.59a87,87,0,0,1-8.7,4.73,85.42,85.42,0,0,1-30.11,7.95c-2.13.15-4.29.24-6.46.24-.72,0-1.44,0-2.15,0-48.12-1.19-86.79-42.31-86.79-92.87,0-31.75,15.26-59.79,38.56-76.53a62.22,62.22,0,0,1-24-49.49c0-33.9,26.32-61.38,58.78-61.38a56.46,56.46,0,0,1,9.88.87c1.34.24,2.68.52,4,.86h0l23.73,12.53s0,0,0,0a63.28,63.28,0,0,1,8,85.69c-.38-.16-.77-.29-1.16-.44l.46,1.31c.24-.28.47-.57.7-.87C194.12,200.36,218.66,234.65,218.66,274.91Z"/><polygon class="cls-2" points="171.34 366.56 170.51 366.54 170.79 365.81 171.34 366.56"/><polygon class="cls-2" points="171.34 366.56 170.51 366.54 170.79 365.81 171.34 366.56"/><path class="cls-2" d="M517.79,213.26l-40.65,86.29-153.78-31.1a16.16,16.16,0,0,0-10.1,1.21h0a16.59,16.59,0,0,0-7.25,1.27l-44.76,19-.28-.81-38.9,14.76,1,2.24,5.62,12.35,8.43,18.46,12.62,27.63L217.61,370l-3.33-28.14h0l-2-17.05L210.86,313a95.49,95.49,0,0,1-4.68,9.39,92.52,92.52,0,0,1-7.93,11.71h0v0l-1.63,11.49-3,21.45H193l-21.66-.5-.82,0,.28-.74L175,354.89a84.72,84.72,0,0,1-8.69,4.73,85.75,85.75,0,0,1-30.11,8q-3.19.23-6.45.23c-.73,0-1.45,0-2.16,0l-42,163.3a17.45,17.45,0,0,0-.46,2.42,18,18,0,0,0-.86,7.2l1.12,13.43c.78,9.68,9,16.92,18.3,16.09L208,560.84l-14.8,31.85H378L310.29,446.83,321,403.06l-27.75,7L276,414.42,218.13,429l-15.94-21.41L327.4,376.69l9.23-37.89,146.68,29.66c8.89,1.79,17.58-4.11,19.67-13.22l66.91-142ZM249.05,472.43,231.73,509.7l-76.59,6.88,31.73-123.39,1-4.07,2,2.76Z"/><path d="M151.76,101.78,128,89.25A57.6,57.6,0,0,1,151.76,101.78Z"/><path d="M159.8,187.49c-.23.3-.46.59-.7.87l-.46-1.31C159,187.2,159.42,187.33,159.8,187.49Z"/><polygon class="cls-1" points="261.14 289.06 260.96 289.14 253.8 268.73 254.05 268.64 261.14 289.06"/><path class="cls-1" d="M237.14,336.94l12.62,27.63L217.61,370l-3.33-28.14h0l-2-17.05L210.86,313c.29-.68.58-1.36.84-2.05.5-1.21,1-2.43,1.4-3.67.18-.48.35-1,.51-1.46h0a95.48,95.48,0,0,0,4.78-23.65l35.41-13.43L261,289.14l-38.91,14.75,1,2.24,5.63,12.34Z"/><path class="cls-1" d="M198.24,334.13l-1.63,11.49-3,21.45H193l-21.66-.5-.55-.75L175,354.89c2.31-1.42,4.55-3,6.73-4.59.87-.66,1.74-1.34,2.59-2A91.92,91.92,0,0,0,198.24,334.13Z"/><polygon class="cls-1" points="171.34 366.56 170.51 366.54 170.79 365.81 171.34 366.56"/><path d="M159.8,187.49c-.23.3-.46.59-.7.87l-.46-1.31C159,187.2,159.42,187.33,159.8,187.49Z"/><ellipse class="cls-3" cx="516.83" cy="86.79" rx="42.23" ry="44.1"/><polygon class="cls-4" points="603.62 89.14 589.74 208.62 530.27 208.62 519.99 130.75 514.49 89.14 603.62 89.14"/><polygon class="cls-5" points="594.99 113.1 583.38 208.62 536.32 208.62 525.45 129.96 523.12 113.1 594.99 113.1"/><polygon class="cls-6" points="538.48 186.95 541.57 170.75 557.08 173.97 553.99 190.18 538.48 186.95"/><polygon class="cls-7" points="553.91 193.19 552.9 176.7 568.68 175.64 569.7 192.13 553.91 193.19"/><polygon class="cls-8" points="547.47 172.37 557.92 159.97 569.79 170.87 559.35 183.28 547.47 172.37"/><polygon class="cls-1" points="327.39 376.69 320.96 403.06 293.21 410.07 275.98 414.42 218.13 429.03 202.19 407.6 327.39 376.69"/><polygon class="cls-1" points="327.53 376.66 321.84 402.84 320.96 403.06 327.39 376.69 327.53 376.66"/><path class="cls-1" d="M214.52,147.42c0,.06-.07.12-.09.18a1.62,1.62,0,0,1-.1-.18Z"/><path class="cls-1" d="M222.8,133.7a9.72,9.72,0,0,0-6.23,2.25,9.19,9.19,0,0,0-2.14,2.58,9.58,9.58,0,0,0-8.37-4.83,9.46,9.46,0,0,0-9.57,9.36,9.27,9.27,0,0,0,3.41,7.17l14.53,18.43L229,150.23a9.28,9.28,0,0,0,3.33-6,9.11,9.11,0,0,0,.08-1.18A9.45,9.45,0,0,0,222.8,133.7Zm-8.47,13.72h.19c0,.06-.07.12-.09.18A1.62,1.62,0,0,1,214.33,147.42Z"/><path class="cls-1" d="M214.52,147.42c0,.06-.07.12-.09.18a1.62,1.62,0,0,1-.1-.18Z"/><path class="cls-1" d="M214.52,147.42c0,.06-.07.12-.09.18a1.62,1.62,0,0,1-.1-.18Z"/><path class="cls-2" d="M593.52,179.09l-69.24,28.62A13.84,13.84,0,0,0,517,225.35l6.79,17.9a12.88,12.88,0,0,0,16.89,7.64l69.25-28.62a13.85,13.85,0,0,0,7.31-17.64l-6.79-17.9A12.88,12.88,0,0,0,593.52,179.09Z"/><rect class="cls-2" x="602.55" y="194" height="2.27"/></g></svg>