<svg xmlns="http://www.w3.org/2000/svg" xmlns:xlink="http://www.w3.org/1999/xlink" viewBox="0 0 550 1000"><defs><style>.cls-1{fill:#87cfa7;}.cls-2{fill:#ebc3db;}.cls-3{fill:#b4835d;}.cls-4{fill:url(#linear-gradient);}.cls-5{fill:#0b0a0a;}.cls-6{fill:#fa0f0c;}</style><linearGradient id="linear-gradient" x1="286.99" y1="984.28" x2="286.99" y2="81.53" gradientUnits="userSpaceOnUse"><stop offset="0" stop-color="#fff" stop-opacity="0"/><stop offset="1" stop-color="#a0642f"/></linearGradient></defs><g id="Character3"><rect class="cls-1" x="95.76" y="263.02" width="8.54" height="79.72" transform="translate(41.72 -10.72) rotate(7.74)"/><path class="cls-2" d="M127.43,446.81c0,6.25-19.82,11.29-44.24,11.29S39,453.06,39,446.81c0-5.63,16.24-10.29,37.47-11.13V363.11l-37.56-50h88.65L90,363.11v72.57C111.19,436.52,127.43,441.18,127.43,446.81Z"/><path class="cls-3" d="M494.36,446.16l-69.88-99.82a17.45,17.45,0,0,0-13.74-7.46H343.47V81.53L230.64,224.16h71.49V338.88H244.05V339c-9.29-.92-17.85,4.44-19.72,14.29l-16.77,93.65-38.64-55.23a17.55,17.55,0,0,0-14-7.46H76.43v30.89h62.18l61.07,87.24a13.22,13.22,0,0,0,1,1.3.06.06,0,0,1,0,0,17.53,17.53,0,0,0,12.76,9.73c10.63,3,21.37-2.39,23.49-13.59l21.42-119.67.82-4.54,1.32,4.54,30.14,103.48c-34.28,17.89-45.82,58.49-34.59,91.65l71.32,409,72.74-416.86a75.89,75.89,0,0,0-2.55-43.54l85-49.07,0,0a17,17,0,0,0,4.81-2.37C497.05,467,500.79,455.58,494.36,446.16Zm-118.8,46.26a77.42,77.42,0,0,0-9.54-6.9l30.66-105.33,1.41-4.85,3.4,4.85L450,449.46Z"/><path class="cls-4" d="M494.36,446.16l-69.88-99.82a17.45,17.45,0,0,0-13.74-7.46H343.47V81.53L230.64,224.16h71.49V338.88H244.05V339c-9.29-.92-17.85,4.44-19.72,14.29l-16.77,93.65-38.64-55.23a17.55,17.55,0,0,0-14-7.46H76.43v30.89h62.18l61.07,87.24a13.22,13.22,0,0,0,1,1.3.06.06,0,0,1,0,0,17.53,17.53,0,0,0,12.76,9.73c10.63,3,21.37-2.39,23.49-13.59l21.42-119.67.82-4.54,1.32,4.54,30.14,103.48c-34.28,17.89-45.82,58.49-34.59,91.65l71.32,409,72.74-416.86a75.89,75.89,0,0,0-2.55-43.54l85-49.07,0,0a17,17,0,0,0,4.81-2.37C497.05,467,500.79,455.58,494.36,446.16Zm-118.8,46.26a77.42,77.42,0,0,0-9.54-6.9l30.66-105.33,1.41-4.85,3.4,4.85L450,449.46Z"/><polygon class="cls-3" points="260.52 380.19 258.38 380.19 259.2 375.65 260.52 380.19"/><polygon class="cls-3" points="401.49 380.19 396.68 380.19 398.09 375.34 401.49 380.19"/><path class="cls-5" d="M497.57,180.23a87.91,87.91,0,1,1-168.63-34.84,64.26,64.26,0,1,1,66-92.66,36.35,36.35,0,0,1,48.61,46.38A87.94,87.94,0,0,1,497.57,180.23Z"/><path class="cls-5" d="M497.57,180.23a87.91,87.91,0,1,1-168.63-34.84,64.26,64.26,0,1,1,66-92.66,36.35,36.35,0,0,1,48.61,46.38A87.94,87.94,0,0,1,497.57,180.23Z"/><polygon class="cls-6" points="301.62 383.73 280.34 420.6 322.91 420.6 301.62 383.73"/><polygon class="cls-6" points="329.18 561.18 366.02 497.37 292.34 497.37 329.18 561.18"/><polygon class="cls-6" points="356.19 383.73 334.91 420.6 377.47 420.6 356.19 383.73"/></g></svg>