<svg xmlns="http://www.w3.org/2000/svg" xmlns:xlink="http://www.w3.org/1999/xlink" viewBox="0 0 550 1000"><defs><style>.cls-1{fill:#fa0f0c;}.cls-2{fill:#87cfa7;}.cls-3{fill:#ebc3db;}.cls-4{fill:#b4835d;}.cls-5{fill:url(#linear-gradient);}.cls-6{fill:#0b0a0a;}</style><linearGradient id="linear-gradient" x1="269.9" y1="999.13" x2="269.9" y2="96.38" gradientUnits="userSpaceOnUse"><stop offset="0" stop-color="#fff" stop-opacity="0"/><stop offset="1" stop-color="#a0642f"/></linearGradient></defs><g id="Character3-Happy"><path class="cls-1" d="M245.68,182.83a1.65,1.65,0,0,0-1.36.38h0L238,191a1,1,0,0,0,.08,1.29l5.2,5.15-5.2,5.15a.94.94,0,0,0-.29.69V207L236,201.57l3.51-3.46a1,1,0,0,0,0-1.38l-5.36-5.29,3.46-5.71a1,1,0,0,0-.3-1.31l0,0h0A9.91,9.91,0,0,0,222,192.56a9.72,9.72,0,0,0,2.64,6.56l13.43,14.52a0,0,0,0,1,0,0,1,1,0,0,0,1.38,0l0,0h0L253,199.12a9.72,9.72,0,0,0,2.64-6.56A9.86,9.86,0,0,0,245.68,182.83Z"/><rect class="cls-2" x="78.67" y="277.87" width="8.54" height="79.72" transform="translate(43.57 -8.28) rotate(7.74)"/><path class="cls-3" d="M110.34,461.67c0,6.24-19.82,11.29-44.24,11.29s-44.23-5-44.23-11.29c0-5.63,16.24-10.3,37.47-11.14V378L21.78,328h88.65L72.87,378v72.56C94.1,451.37,110.34,456,110.34,461.67Z"/><path class="cls-4" d="M477.27,461l-69.88-99.83a17.5,17.5,0,0,0-13.74-7.46H326.38V96.38L213.55,239H285V353.73H227v.13c-9.28-.92-17.84,4.43-19.71,14.29l-16.77,93.64-38.64-55.22a17.53,17.53,0,0,0-14-7.46H59.34V430h62.18l61.07,87.23a13.36,13.36,0,0,0,1,1.31.06.06,0,0,1,0,0,17.53,17.53,0,0,0,12.76,9.73c10.63,3,21.37-2.4,23.49-13.6l21.42-119.66.82-4.54,1.32,4.54,30.14,103.48C239.29,516.41,227.75,557,239,590.18l71.32,409L383,582.27a75.89,75.89,0,0,0-2.55-43.54l85-49.07,0,0a17,17,0,0,0,4.81-2.38C480,481.86,483.7,470.43,477.27,461Zm-118.8,46.25a78.41,78.41,0,0,0-9.54-6.89l30.66-105.33L381,390.2l3.4,4.85,48.48,69.27Z"/><path class="cls-5" d="M477.27,461l-69.88-99.83a17.5,17.5,0,0,0-13.74-7.46H326.38V96.38L213.55,239H285V353.73H227v.13c-9.28-.92-17.84,4.43-19.71,14.29l-16.77,93.64-38.64-55.22a17.53,17.53,0,0,0-14-7.46H59.34V430h62.18l61.07,87.23a13.36,13.36,0,0,0,1,1.31.06.06,0,0,1,0,0,17.53,17.53,0,0,0,12.76,9.73c10.63,3,21.37-2.4,23.49-13.6l21.42-119.66.82-4.54,1.32,4.54,30.14,103.48C239.29,516.41,227.75,557,239,590.18l71.32,409L383,582.27a75.89,75.89,0,0,0-2.55-43.54l85-49.07,0,0a17,17,0,0,0,4.81-2.38C480,481.86,483.7,470.43,477.27,461Zm-118.8,46.25a78.41,78.41,0,0,0-9.54-6.89l30.66-105.33L381,390.2l3.4,4.85,48.48,69.27Z"/><polygon class="cls-4" points="243.43 395.05 241.29 395.05 242.11 390.51 243.43 395.05"/><polygon class="cls-4" points="384.4 395.05 379.59 395.05 381 390.19 384.4 395.05"/><path class="cls-6" d="M480.48,195.09a87.91,87.91,0,1,1-168.63-34.85,64.26,64.26,0,1,1,66-92.65A36.35,36.35,0,0,1,426.47,114,87.93,87.93,0,0,1,480.48,195.09Z"/><path class="cls-6" d="M480.48,195.09a87.91,87.91,0,1,1-168.63-34.85,64.26,64.26,0,1,1,66-92.65A36.35,36.35,0,0,1,426.47,114,87.93,87.93,0,0,1,480.48,195.09Z"/><polygon class="cls-1" points="284.53 398.59 263.25 435.45 305.82 435.45 284.53 398.59"/><polygon class="cls-1" points="312.09 576.03 348.93 512.23 275.25 512.23 312.09 576.03"/><polygon class="cls-1" points="339.1 398.59 317.81 435.45 360.38 435.45 339.1 398.59"/><path class="cls-1" d="M282.49,184.33a1.56,1.56,0,0,0-1.29.36h0l-6,7.38a.94.94,0,0,0,.07,1.24l5,4.9-5,4.9a.91.91,0,0,0-.27.65v3.55l-1.74-5.15,3.34-3.3a.93.93,0,0,0,0-1.31l-5.1-5,3.29-5.43a.94.94,0,0,0-.29-1.25l0,0h0A9.43,9.43,0,0,0,260,193.59a9.24,9.24,0,0,0,2.51,6.24l12.79,13.82h0a.91.91,0,0,0,1.31,0,.08.08,0,0,0,0,0h0l12.78-13.82a9.24,9.24,0,0,0,2.51-6.24A9.37,9.37,0,0,0,282.49,184.33Z"/></g></svg>