<svg xmlns="http://www.w3.org/2000/svg" xmlns:xlink="http://www.w3.org/1999/xlink" viewBox="0 0 550 1000"><defs><style>.cls-1{fill:red;}.cls-2{fill:#87cfa7;}.cls-3{fill:#ebc3db;}.cls-4{fill:#b4835d;}.cls-5{fill:url(#linear-gradient);}.cls-6{fill:#0b0a0a;}.cls-7{fill:#fa0f0c;}</style><linearGradient id="linear-gradient" x1="269.9" y1="999.13" x2="269.9" y2="96.38" gradientUnits="userSpaceOnUse"><stop offset="0" stop-color="#fff" stop-opacity="0"/><stop offset="1" stop-color="#a0642f"/></linearGradient></defs><g id="Character3-Happy"><path class="cls-1" d="M244.14,189.5l-.1.18-.1-.18Z"/><path class="cls-1" d="M252.28,175.69a9.78,9.78,0,0,0-6.21,2.32,9.38,9.38,0,0,0-2.12,2.6,9.6,9.6,0,0,0-17.89,4.7,9.29,9.29,0,0,0,3.48,7.14l14.7,18.29,14.35-18.57a9.24,9.24,0,0,0,3.27-6,7.71,7.71,0,0,0,.07-1.18A9.47,9.47,0,0,0,252.28,175.69Zm-8.34,13.81h.2l-.1.18Z"/><path class="cls-1" d="M244.14,189.5l-.1.18-.1-.18Z"/><path class="cls-1" d="M244.14,189.5l-.1.18-.1-.18Z"/><rect class="cls-2" x="78.67" y="277.87" width="8.54" height="79.72" transform="translate(43.57 -8.28) rotate(7.74)"/><path class="cls-3" d="M110.34,461.67c0,6.24-19.82,11.29-44.24,11.29s-44.23-5-44.23-11.29c0-5.63,16.24-10.3,37.47-11.14V378L21.78,328h88.65L72.87,378v72.56C94.1,451.37,110.34,456,110.34,461.67Z"/><path class="cls-4" d="M477.27,461l-69.88-99.83a17.5,17.5,0,0,0-13.74-7.46H326.38V96.38L213.55,239H285V353.73H227v.13c-9.28-.92-17.84,4.43-19.71,14.29l-16.77,93.64-38.64-55.22a17.53,17.53,0,0,0-14-7.46H59.34V430h62.18l61.07,87.23a13.36,13.36,0,0,0,1,1.31.06.06,0,0,1,0,0,17.53,17.53,0,0,0,12.76,9.73c10.63,3,21.37-2.4,23.49-13.6l21.42-119.66.82-4.54,1.32,4.54,30.14,103.48C239.29,516.41,227.75,557,239,590.18l71.32,409L383,582.27a75.89,75.89,0,0,0-2.55-43.54l85-49.07,0,0a17,17,0,0,0,4.81-2.38C480,481.86,483.7,470.43,477.27,461Zm-118.8,46.25a78.41,78.41,0,0,0-9.54-6.89l30.66-105.33L381,390.2l3.4,4.85,48.48,69.27Z"/><path class="cls-5" d="M477.27,461l-69.88-99.83a17.5,17.5,0,0,0-13.74-7.46H326.38V96.38L213.55,239H285V353.73H227v.13c-9.28-.92-17.84,4.43-19.71,14.29l-16.77,93.64-38.64-55.22a17.53,17.53,0,0,0-14-7.46H59.34V430h62.18l61.07,87.23a13.36,13.36,0,0,0,1,1.31.06.06,0,0,1,0,0,17.53,17.53,0,0,0,12.76,9.73c10.63,3,21.37-2.4,23.49-13.6l21.42-119.66.82-4.54,1.32,4.54,30.14,103.48C239.29,516.41,227.75,557,239,590.18l71.32,409L383,582.27a75.89,75.89,0,0,0-2.55-43.54l85-49.07,0,0a17,17,0,0,0,4.81-2.38C480,481.86,483.7,470.43,477.27,461Zm-118.8,46.25a78.41,78.41,0,0,0-9.54-6.89l30.66-105.33L381,390.2l3.4,4.85,48.48,69.27Z"/><polygon class="cls-4" points="243.43 395.05 241.29 395.05 242.11 390.51 243.43 395.05"/><polygon class="cls-4" points="384.4 395.05 379.59 395.05 381 390.19 384.4 395.05"/><path class="cls-6" d="M480.48,195.09a87.91,87.91,0,1,1-168.63-34.85,64.26,64.26,0,1,1,66-92.65A36.35,36.35,0,0,1,426.47,114,87.93,87.93,0,0,1,480.48,195.09Z"/><path class="cls-6" d="M480.48,195.09a87.91,87.91,0,1,1-168.63-34.85,64.26,64.26,0,1,1,66-92.65A36.35,36.35,0,0,1,426.47,114,87.93,87.93,0,0,1,480.48,195.09Z"/><polygon class="cls-7" points="284.53 398.59 263.25 435.45 305.82 435.45 284.53 398.59"/><polygon class="cls-7" points="312.09 576.03 348.93 512.23 275.25 512.23 312.09 576.03"/><polygon class="cls-7" points="339.1 398.59 317.81 435.45 360.38 435.45 339.1 398.59"/><path class="cls-1" d="M276.18,193.5a1.62,1.62,0,0,0-.1.18l-.1-.18Z"/><path class="cls-1" d="M284.45,179.77a9.72,9.72,0,0,0-6.23,2.26,9.19,9.19,0,0,0-2.14,2.58,9.58,9.58,0,0,0-8.37-4.84,9.47,9.47,0,0,0-9.57,9.37,9.27,9.27,0,0,0,3.41,7.17l14.53,18.43,14.52-18.43a9.28,9.28,0,0,0,3.33-6,7.63,7.63,0,0,0,.08-1.18A9.46,9.46,0,0,0,284.45,179.77ZM276,193.5h.2a1.62,1.62,0,0,0-.1.18Z"/><path class="cls-1" d="M276.18,193.5a1.62,1.62,0,0,0-.1.18l-.1-.18Z"/><path class="cls-1" d="M276.18,193.5a1.62,1.62,0,0,0-.1.18l-.1-.18Z"/></g></svg>