<svg xmlns="http://www.w3.org/2000/svg" viewBox="0 0 600 1100"><defs><style>.cls-1{fill:#bc8858;}.cls-2{fill:#f6e4ed;}.cls-3{fill:#b1e2e7;}.cls-4{fill:#e5c1d1;}.cls-5{fill:#f6dea0;}.cls-6{fill:#48aa2f;}.cls-7{fill:#f6ff40;}</style></defs><g id="Character2"><path class="cls-1" d="M570.88,779.87,482.53,545.79a11.31,11.31,0,0,0-1.66-3,12,12,0,0,0-11.39-8.23H459.37q-1.61,4.3-3.61,8.5a116.48,116.48,0,0,1-18.71,27.59,138.3,138.3,0,0,1-11.43,11.26,160,160,0,0,1-26.32,18.65c-28.6,16.3-64.44,26-103.32,26s-74.72-9.7-103.32-26a157.64,157.64,0,0,1-30.23-22.21,127.72,127.72,0,0,1-17.84-20.79,107.56,107.56,0,0,1-12-23A94.75,94.75,0,0,1,129,479.22L76.61,340.31l85.55-126.8,36.33-7,10.58-2,38.32-7.35-9.1-47.49-29.22,5.6-10.58,2-60,11.49,0,.22a12,12,0,0,0-8.21,5.14L14.23,346.31a11.93,11.93,0,0,0-1.91,4.88.17.17,0,0,1,0,.07,11.88,11.88,0,0,0,.47,6.83l88.35,234.09a12.06,12.06,0,0,0,11.47,7.76h0a11.94,11.94,0,0,0,3.84.63H156.6l67.73,137.92.15.31-.28.12A148.24,148.24,0,0,0,139,906.57h-.47l42.11,139H385.38l34-112.38a147.51,147.51,0,0,0,12.06-58.62c0-.44,0-.88,0-1.31l131.2-75.75a11.77,11.77,0,0,0,3.85-3.56h0A12,12,0,0,0,570.88,779.87ZM422.17,822.79a148.54,148.54,0,0,0-69.73-79.21l-.25-.13.39-.79,69.78-142.09h10.3l67,177.49Z"/><path d="M465.48,501.07a95.45,95.45,0,0,1-6.11,33.5q-1.61,4.3-3.61,8.5a116.48,116.48,0,0,1-18.71,27.59,138.3,138.3,0,0,1-11.43,11.26,160,160,0,0,1-26.32,18.65c-28.6,16.3-64.44,26-103.32,26s-74.72-9.7-103.32-26a157.64,157.64,0,0,1-30.23-22.21,127.72,127.72,0,0,1-17.84-20.79,107.56,107.56,0,0,1-12-23A94.75,94.75,0,0,1,129,479.22c5.43-22.92,19.27-43.7,39.07-60.53a125.49,125.49,0,1,1,235.18-14.77C441.26,426.94,465.48,461.91,465.48,501.07Z"/><polygon class="cls-2" points="209.07 105.11 209.07 155.28 198.49 157.3 198.49 105.11 209.07 105.11"/><polygon class="cls-2" points="198.49 206.54 209.07 204.52 209.07 241.47 198.49 241.47 198.49 206.54"/><ellipse class="cls-2" cx="203.78" cy="241.47" rx="38.94" ry="9.38"/><polygon class="cls-2" points="203.78 148.65 268.48 61.56 139.08 61.56 203.78 148.65"/><polygon class="cls-3" points="203.78 134.21 247.02 76 160.54 76 203.78 134.21"/><path class="cls-4" d="M139.08,61.56s42.94-42.73,129.4,0Z"/><polygon class="cls-5" points="258.48 50.55 206.56 108.08 207.48 109.2 259.4 51.68 258.48 50.55"/><ellipse class="cls-6" cx="201.93" cy="112.23" rx="7.87" ry="6.55" transform="translate(-25 155.55) rotate(-39.87)"/><polygon class="cls-7" points="282.26 930.47 352.78 742.67 224.07 738.49 282.26 930.47"/><polyline class="cls-7" points="170.25 635.48 406.94 635.48 397.94 654.1 178.86 654.1"/></g></svg>