<svg xmlns="http://www.w3.org/2000/svg" viewBox="0 0 300 300"><defs><style>.cls-1{fill:#8aeef9;}.cls-2{fill:#fff;}.cls-3{fill:#fce3f4;}.cls-4{font-size:18.41px;font-family:Futura-Bold, Futura;font-weight:700;letter-spacing:0.5em;}.cls-4,.cls-5{fill:#06ff4c;}</style></defs><g id="Gin"><path class="cls-1" d="M199.85,266.2h-99.7a7.6,7.6,0,0,1-6.57-11.39l8.08-14V127.17a11.08,11.08,0,0,1,11-11H127.4l5.57-9.66V82.8l-6.55-11.34h45.2l-7.35,12.73v20.9l6.37,11h17.57a11.08,11.08,0,0,1,11,11V242.41l7.16,12.4A7.6,7.6,0,0,1,199.85,266.2Z"/><rect class="cls-2" x="111.33" y="129.94" width="77.34" height="103.12"/><rect class="cls-3" x="116.39" y="137.3" width="67.21" height="89.62"/><text class="cls-4" transform="translate(120.44 189.19)">GIN</text><rect class="cls-5" x="118.24" y="56.36" width="63.53" height="19.33" rx="4.28"/></g></svg>