<svg xmlns="http://www.w3.org/2000/svg" viewBox="0 0 300 300"><defs><style>.cls-1{fill:#f50;}.cls-2{fill:none;stroke:#ecf711;stroke-miterlimit:10;}.cls-3{fill:#06ff4c;}</style></defs><g id="Pineapple"><rect class="cls-1" x="83.37" y="105.68" width="123.75" height="158.53" rx="61.87"/><polyline class="cls-2" points="97.12 174.43 111.68 188.99 125.83 174.83"/><polyline class="cls-2" points="131.9 175.24 146.46 189.79 160.61 175.64"/><polyline class="cls-2" points="166.68 176.04 181.24 190.6 195.39 176.45"/><polyline class="cls-2" points="97.12 195.46 111.68 210.01 125.83 195.86"/><polyline class="cls-2" points="131.9 196.26 146.46 210.82 160.61 196.67"/><polyline class="cls-2" points="166.68 197.07 181.24 211.63 195.39 197.48"/><polyline class="cls-2" points="97.93 217.29 112.49 231.85 126.64 217.7"/><polyline class="cls-2" points="132.71 218.1 147.27 232.66 161.42 218.51"/><polyline class="cls-2" points="167.49 218.91 182.04 233.47 196.2 219.32"/><polyline class="cls-2" points="115.72 239.13 130.28 253.69 144.44 239.54"/><polyline class="cls-2" points="150.5 239.94 165.06 254.5 179.21 240.34"/><polyline class="cls-2" points="113.3 151.78 127.86 166.34 142.01 152.19"/><polyline class="cls-2" points="148.08 152.59 162.63 167.15 176.79 152.99"/><polyline class="cls-2" points="130.28 129.13 144.84 143.69 158.99 129.54"/><path class="cls-3" d="M112.6,117.82l-7.39,24.06,24.26-20.2,8.09,12.3,8.9-14.06,4.85,13.18,4.85-11.42L174,142.76l6.42-24.17s60.71-18,54.24,54c0,0,31.54-96.64-45.3-75.55,0,0,35.59-58.87,53.39-32.51,0,0-33.17-49.2-80.88,32.51,0,0-39.64-86.1-68.75-42.17,0,0,42.05-9.67,52.57,47.44,0,0-14.56-49.2-77.65-46.56,0,0,64.71,19.32,57.43,39.53,0,0-89-44.81-76,29.87C49.4,125.19,73.89,73.55,112.6,117.82Z"/></g></svg>