<svg xmlns="http://www.w3.org/2000/svg" viewBox="0 0 300 300"><defs><style>.cls-1{fill:#06ff4c;}.cls-2{fill:none;stroke:#fff;stroke-miterlimit:10;}.cls-3{fill:#fff;}.cls-4{fill:#c6ff29;}</style></defs><g id="Lives"><path class="cls-1" d="M256,209.34c-42.4,43.85-109.32,49.85-152.68,12.53-42.9-36.93-47.27-103-11.45-151.32l7.25,6.14L145.56,116l1.86,1.57L197,159.45l1.45,1.23,49.83,42.13Z"/><path class="cls-2" d="M248.28,202.81a112,112,0,0,1-28.06,21.12c-36.06,19.08-79.82,16.58-110.56-9.88-29.42-25.33-38.9-65.72-27.81-102.89A111.84,111.84,0,0,1,99.12,76.69L145.56,116l1.86,1.57L197,159.45l1.45,1.23Z"/><path class="cls-3" d="M198.45,160.68a39.68,39.68,0,0,1-12.4,7.92,37,37,0,0,1-19,2.28,32.69,32.69,0,0,1-16.64-7.58c-9.34-8-13-20.31-10.95-32.26h0A39.16,39.16,0,0,1,145.56,116l1.86,1.57L197,159.45Z"/><path class="cls-4" d="M197,159.45c-12.41,12.21-31.89,13.38-44.82,2.26s-14.61-30.15-4.76-44.19Z"/><line class="cls-2" x1="81.37" y1="110.99" x2="139.93" y2="131.19"/><line class="cls-2" x1="139.45" y1="144.78" x2="79.92" y2="162.54"/><line class="cls-2" x1="150.44" y1="163.3" x2="109.66" y2="214.05"/><line class="cls-2" x1="167.08" y1="170.29" x2="168.43" y2="236.19"/><line class="cls-2" x1="185.83" y1="168.25" x2="220.23" y2="223.95"/></g></svg>