<svg xmlns="http://www.w3.org/2000/svg" viewBox="0 0 270 80"><defs><style>.cls-1{fill:#32ce32;}.cls-2{fill:none;}.cls-2,.cls-6{stroke:#fff;}.cls-2,.cls-6,.cls-7{stroke-miterlimit:10;}.cls-3,.cls-7{fill:#fff;}.cls-4{fill:#c6ff29;}.cls-5{fill:#198419;}.cls-5,.cls-8{opacity:0.25;}.cls-7{stroke:#000;}</style></defs><g id="Lives"><path class="cls-1" d="M88.56,58.52c-17.41,18-44.89,20.48-62.7,5.15C8.23,48.5,6.44,21.37,21.15,1.52l3,2.52L43.2,20.17l.77.64L64.33,38l.6.51,20.46,17.3Z"/><path class="cls-2" d="M85.39,55.84a45.94,45.94,0,0,1-11.52,8.67c-14.81,7.84-32.79,6.82-45.41-4.05-12.08-10.41-16-27-11.42-42.26A46,46,0,0,1,24.13,4L43.2,20.17l.77.64L64.33,38l.6.51Z"/><path class="cls-3" d="M64.93,38.54a16.36,16.36,0,0,1-5.1,3.25,15.13,15.13,0,0,1-7.78.94,13.43,13.43,0,0,1-6.84-3.12,14.11,14.11,0,0,1-4.5-13.24h0a16.19,16.19,0,0,1,2.49-6.19l.77.64L64.33,38Z"/><path class="cls-4" d="M64.33,38A13.61,13.61,0,0,1,45.92,39a13.6,13.6,0,0,1-2-18.15Z"/><line class="cls-2" x1="16.84" y1="18.13" x2="40.89" y2="26.43"/><line class="cls-2" x1="40.7" y1="32.01" x2="16.24" y2="39.3"/><line class="cls-2" x1="45.21" y1="39.61" x2="28.46" y2="60.46"/><line class="cls-2" x1="52.04" y1="42.48" x2="52.6" y2="69.55"/><line class="cls-2" x1="59.74" y1="41.65" x2="73.87" y2="64.52"/><ellipse class="cls-5" cx="50.14" cy="76.79" rx="39.81" ry="1.69"/></g><g id="Lostlife"><path d="M179.48,59c-17.63,17.8-45.14,19.93-62.77,4.39C99.28,48,97.81,20.8,112.76,1.13l2.95,2.56,18.88,16.36.75.65,20.15,17.47.6.51,20.25,17.55Z"/><path class="cls-6" d="M176.34,56.23a46.22,46.22,0,0,1-11.63,8.53c-14.9,7.66-32.86,6.42-45.35-4.6-12-10.55-15.65-27.19-10.91-42.4a45.89,45.89,0,0,1,7.26-14.07l18.88,16.36.75.65,20.15,17.47.6.51Z"/><path class="cls-7" d="M155.47,40.17a13.62,13.62,0,0,1-18.42.7,13.61,13.61,0,0,1-1.73-18.17Z"/><line class="cls-6" x1="108.25" y1="17.69" x2="137.83" y2="28.42"/><line class="cls-6" x1="134.78" y1="31.89" x2="107.4" y2="38.85"/><line class="cls-6" x1="137.72" y1="37.42" x2="119.36" y2="60.16"/><line class="cls-6" x1="143.16" y1="42.47" x2="143.38" y2="69.54"/><line class="cls-6" x1="150.87" y1="41.73" x2="164.71" y2="64.77"/><ellipse class="cls-8" cx="140.84" cy="76.75" rx="1.69" ry="39.81" transform="matrix(0.01, -1, 1, 0.01, 62.28, 216.58)"/><path d="M265.47,60c-17.63,17.79-45.14,19.92-62.76,4.38-17.44-15.38-18.9-42.54-4-62.2l3,2.56,18.87,16.35.76.66,20.15,17.46.59.51,20.25,17.55Z"/><path class="cls-6" d="M262.33,57.24a45.67,45.67,0,0,1-11.63,8.54c-14.9,7.66-32.86,6.41-45.35-4.61-12-10.55-15.65-27.18-10.91-42.4a46.09,46.09,0,0,1,7.27-14.06l18.87,16.35.76.66,20.15,17.46.59.51Z"/><path class="cls-7" d="M241.47,41.18a13.62,13.62,0,0,1-18.42.71,13.62,13.62,0,0,1-1.74-18.18Z"/><line class="cls-6" x1="194.24" y1="18.7" x2="223.82" y2="29.43"/><line class="cls-6" x1="220.78" y1="32.91" x2="193.39" y2="39.87"/><line class="cls-6" x1="223.71" y1="38.43" x2="205.35" y2="61.17"/><line class="cls-6" x1="229.15" y1="43.48" x2="229.38" y2="70.55"/><line class="cls-6" x1="236.86" y1="42.74" x2="250.71" y2="65.79"/><ellipse class="cls-8" cx="226.83" cy="77.76" rx="1.69" ry="39.81" transform="translate(146.14 303.57) rotate(-89.26)"/></g></svg>