<svg xmlns="http://www.w3.org/2000/svg" viewBox="0 0 1920 1080"><defs><style>.cls-1{fill:#ffff0b;}.cls-2{fill:#4de8e0;}.cls-3{fill:red;}.cls-4{fill:#935c21;}.cls-5{fill:#bee48d;}.cls-6{fill:#f3b3d8;}.cls-7{fill:#cbe1e7;}.cls-8{fill:#e9f368;}.cls-9{fill:#dde061;}.cls-10{fill:#f2f3a4;}.cls-11{fill:#4aff5f;}.cls-12{font-size:100px;}.cls-12,.cls-16{font-family:Futura-Bold, Futura;font-weight:700;}.cls-13{fill:none;stroke:#fff;stroke-miterlimit:10;stroke-width:6px;}.cls-14{fill:#f56bfc;}.cls-15{fill:#f79ffc;}.cls-16{font-size:40px;letter-spacing:0.2em;}.cls-17{letter-spacing:0.23em;}.cls-18{letter-spacing:0.13em;}.cls-19{fill:#bc8858;}.cls-20{fill:#f6e4ed;}.cls-21{fill:#b1e2e7;}.cls-22{fill:#e5c1d1;}.cls-23{fill:#f6dea0;}.cls-24{fill:#48aa2f;}.cls-25{fill:#f6ff40;}</style></defs><g id="Background_start"><rect class="cls-1" x="1" y="2.5" width="1919" height="538"/><rect class="cls-2" x="1" y="537.5" width="1918" height="542"/><path class="cls-3" d="M228.67,634.73l-.08.16a.44.44,0,0,1-.1-.16Z"/><path class="cls-3" d="M237,621a9.54,9.54,0,0,0-8.36,4.84,9.61,9.61,0,0,0-8.38-4.84,9.45,9.45,0,0,0-9.56,9.36,9.68,9.68,0,0,0,.39,2.7l3.16,1.66,8.75,4.61,13.24,7,6.92-8.78h0a9.26,9.26,0,0,0,3.39-7.16A9.45,9.45,0,0,0,237,621Zm-8.36,13.88a.44.44,0,0,1-.1-.16h.18Z"/><path class="cls-3" d="M228.67,634.73l-.08.16a.44.44,0,0,1-.1-.16Z"/><path class="cls-3" d="M228.67,634.73l-.08.16a.44.44,0,0,1-.1-.16Z"/><path class="cls-4" d="M190.41,634.73a1.62,1.62,0,0,1-.1.18c0-.06-.07-.12-.09-.18Z"/><path class="cls-4" d="M103.87,576.55c-1.31-.34-2.65-.62-4-.86l-.53-1.53Z"/><path class="cls-4" d="M135.69,674.8c-.23.3-.46.59-.7.87l-.46-1.31C134.92,674.51,135.3,674.64,135.69,674.8Z"/><path class="cls-4" d="M207.38,692.48,229.69,756l-35.41,13.43c.18-2.39.27-4.8.27-7.25,0-40.26-24.54-74.55-58.86-87.42a63.28,63.28,0,0,0-8-85.69l64.78,34.15a9.22,9.22,0,0,0-2.15,2.58,9.6,9.6,0,0,0-17.93,4.53,9.27,9.27,0,0,0,3.41,7.17L190.31,656l14.53-18.43a9.28,9.28,0,0,0,3.33-6l2.87,1.52,3.16,1.66,8.75,4.61,13.24,7,38.56,20.34Z"/><polygon class="cls-4" points="165.82 879.2 162.76 880.49 163.8 876.43 165.82 879.2"/><path d="M194.55,762.22c0,2.45-.09,4.86-.27,7.25a95.48,95.48,0,0,1-4.78,23.65h0c-.16.5-.33,1-.51,1.46-.44,1.24-.9,2.46-1.4,3.67-.26.69-.55,1.37-.84,2a91.25,91.25,0,0,1-4.68,9.39,92.52,92.52,0,0,1-7.93,11.71h0v0a91.92,91.92,0,0,1-13.95,14.14c-.85.69-1.72,1.37-2.6,2-2.17,1.63-4.41,3.17-6.72,4.59a87,87,0,0,1-8.7,4.73,85.42,85.42,0,0,1-30.11,8c-2.13.15-4.29.24-6.46.24-.72,0-1.44,0-2.15,0-48.12-1.19-86.79-42.31-86.79-92.87,0-31.75,15.26-59.79,38.56-76.53a62.22,62.22,0,0,1-24-49.49c0-33.9,26.31-61.38,58.78-61.38a56.46,56.46,0,0,1,9.88.87c1.34.24,2.68.52,4,.86h0l23.74,12.53s0,0,0,0a63.28,63.28,0,0,1,8,85.69c-.39-.16-.77-.29-1.16-.44l.46,1.31c.24-.28.47-.57.7-.87C170,687.67,194.55,722,194.55,762.22Z"/><polygon class="cls-4" points="147.23 853.87 146.4 853.85 146.68 853.12 147.23 853.87"/><polygon class="cls-4" points="147.23 853.87 146.4 853.85 146.68 853.12 147.23 853.87"/><path class="cls-4" d="M493.67,700.57,453,786.86l-153.78-31.1a16.16,16.16,0,0,0-10.1,1.21h0a16.59,16.59,0,0,0-7.25,1.27l-44.76,19-.28-.81L197.94,791.2l1,2.24,5.63,12.35L213,824.25l12.62,27.63-32.15,5.4-3.33-28.14h0l-2-17-1.39-11.78a95.49,95.49,0,0,1-4.68,9.39,92.52,92.52,0,0,1-7.93,11.71h0v0l-1.63,11.49-3,21.45h-.59l-21.66-.5-.82,0,.28-.74,4.16-10.91a84.72,84.72,0,0,1-8.69,4.73,85.75,85.75,0,0,1-30.11,8q-3.19.23-6.45.23c-.73,0-1.45,0-2.16,0l-42,163.3a17.45,17.45,0,0,0-.46,2.42,18,18,0,0,0-.86,7.2l1.12,13.43c.78,9.68,9,16.93,18.3,16.09l104.31-9.38L169.07,1080H353.93L286.18,934.14l10.67-43.77-27.75,7-17.23,4.34L194,916.33l-15.94-21.41L303.29,864l9.22-37.89L459.2,855.77c8.89,1.79,17.58-4.11,19.67-13.22l66.91-142ZM224.94,959.74,207.62,997,131,1003.89,162.76,880.5l1-4.07,2,2.77Z"/><path d="M127.65,589.09l-23.74-12.53A57.64,57.64,0,0,1,127.65,589.09Z"/><path d="M135.69,674.8c-.23.3-.46.59-.7.87l-.46-1.31C134.92,674.51,135.3,674.64,135.69,674.8Z"/><polygon class="cls-3" points="237.03 776.38 236.85 776.45 229.69 756.04 229.94 755.95 237.03 776.38"/><path class="cls-3" d="M213,824.25l12.62,27.63-32.15,5.4-3.33-28.14h0l-2-17-1.39-11.78c.29-.68.58-1.36.84-2,.5-1.21,1-2.43,1.4-3.67.18-.48.35-1,.51-1.46h0a95.48,95.48,0,0,0,4.78-23.65L229.69,756l7.16,20.41L197.94,791.2l1,2.24,5.63,12.34Z"/><path class="cls-3" d="M174.13,821.44l-1.63,11.49-3,21.45h-.58l-21.66-.5-.55-.75,4.18-10.92c2.31-1.42,4.55-3,6.72-4.59.88-.66,1.75-1.34,2.6-2A91.92,91.92,0,0,0,174.13,821.44Z"/><polygon class="cls-3" points="147.23 853.87 146.4 853.85 146.68 853.12 147.23 853.87"/><path d="M135.69,674.8c-.23.3-.46.59-.7.87l-.46-1.31C134.92,674.51,135.3,674.64,135.69,674.8Z"/><ellipse class="cls-5" cx="492.72" cy="574.1" rx="42.23" ry="44.1"/><polygon class="cls-6" points="579.5 576.45 565.63 695.93 506.16 695.93 495.88 618.07 490.38 576.45 579.5 576.45"/><polygon class="cls-7" points="570.87 600.41 559.27 695.93 512.21 695.93 501.34 617.27 499.01 600.41 570.87 600.41"/><polygon class="cls-8" points="514.37 674.26 517.46 658.06 532.97 661.28 529.88 677.49 514.37 674.26"/><polygon class="cls-9" points="529.8 680.5 528.79 664.01 544.57 662.95 545.59 679.44 529.8 680.5"/><polygon class="cls-10" points="523.36 659.68 533.81 647.27 545.68 658.18 535.24 670.59 523.36 659.68"/><polygon class="cls-3" points="303.28 864 296.85 890.38 269.1 897.38 251.87 901.73 194.02 916.34 178.07 894.91 303.28 864"/><polygon class="cls-3" points="303.42 863.97 297.73 890.15 296.85 890.38 303.28 864 303.42 863.97"/><path class="cls-3" d="M190.41,634.73a1.62,1.62,0,0,1-.1.18c0-.06-.07-.12-.09-.18Z"/><path class="cls-3" d="M198.69,621a9.72,9.72,0,0,0-6.23,2.25,9.22,9.22,0,0,0-2.15,2.58,9.6,9.6,0,0,0-17.93,4.53,9.27,9.27,0,0,0,3.41,7.17L190.31,656l14.53-18.43a9.28,9.28,0,0,0,3.33-6,9.11,9.11,0,0,0,.08-1.18A9.45,9.45,0,0,0,198.69,621Zm-8.47,13.72h.19a1.62,1.62,0,0,1-.1.18C190.29,634.85,190.24,634.79,190.22,634.73Z"/><path class="cls-3" d="M190.41,634.73a1.62,1.62,0,0,1-.1.18c0-.06-.07-.12-.09-.18Z"/><path class="cls-3" d="M190.41,634.73a1.62,1.62,0,0,1-.1.18c0-.06-.07-.12-.09-.18Z"/><path class="cls-4" d="M569.41,666.4,500.17,695a13.84,13.84,0,0,0-7.32,17.64l6.79,17.9a12.88,12.88,0,0,0,16.89,7.64l69.25-28.62a13.85,13.85,0,0,0,7.31-17.64L586.3,674A12.88,12.88,0,0,0,569.41,666.4Z"/><rect class="cls-4" x="578.44" y="681.31" height="2.27"/></g><g id="Logo"><circle class="cls-11" cx="958.45" cy="544" r="308.9"/><text class="cls-12" transform="translate(659.13 471.42) rotate(-70.71)">S</text><text class="cls-12" transform="translate(701.08 371.59) rotate(-49.06)">H</text><text class="cls-12" transform="translate(790.55 282.34) rotate(-25.82)">A</text><text class="cls-12" transform="translate(905.15 236.57) rotate(-3.15)">K</text><text class="cls-12" transform="translate(1027.75 239.7) rotate(17.62)">E</text><text class="cls-12" transform="matrix(0.83, 0.56, -0.56, 0.83, 1121.64, 278.21)"> </text><text class="cls-12" transform="matrix(0.65, 0.76, -0.76, 0.65, 1183.89, 327.66)">I</text><text class="cls-12" transform="translate(1232.31 391.76) rotate(65.84)">T</text><text class="cls-12" transform="translate(1265.24 484.22) rotate(82.21)"> </text><text class="cls-12" transform="translate(1270.2 563.45) rotate(96.92)"> </text><text class="cls-12" transform="translate(1256.24 641) rotate(114.45)">S</text><text class="cls-12" transform="matrix(-0.72, 0.69, -0.69, -0.72, 1205.55, 736.73)">H</text><text class="cls-12" transform="translate(1108.44 817.57) rotate(159.3)">A</text><text class="cls-12" transform="translate(990.2 852.94) rotate(-178.04)">K</text><text class="cls-12" transform="matrix(-0.92, -0.39, 0.39, -0.92, 868.39, 838.86)">E</text><text class="cls-12" transform="matrix(-0.77, -0.64, 0.64, -0.77, 778.15, 792.03)"> </text><text class="cls-12" transform="translate(720.72 737.32) rotate(-125.65)">I</text><text class="cls-12" transform="translate(678.26 669.12) rotate(-109.04)">T</text><circle class="cls-13" cx="958.45" cy="543.03" r="277.51"/><circle class="cls-13" cx="958.45" cy="544" r="96.58"/><line class="cls-13" x1="958.45" y1="265.52" x2="958.45" y2="447.42"/><line class="cls-13" x1="958.45" y1="640.58" x2="958.45" y2="820.54"/><line class="cls-13" x1="1055.02" y1="544" x2="1235.96" y2="544"/><line class="cls-13" x1="861.87" y1="544" x2="680.93" y2="544"/><line class="cls-13" x1="890.69" y1="474.09" x2="764.82" y2="348.23"/><line class="cls-13" x1="1024.54" y1="476.09" x2="1153.4" y2="347.23"/><line class="cls-13" x1="1026.54" y1="611.95" x2="1151.4" y2="736.81"/><line class="cls-13" x1="888.69" y1="611.95" x2="764.82" y2="735.81"/></g><g id="Startlogo"><circle class="cls-14" cx="960" cy="540" r="114.63"/><circle class="cls-15" cx="960" cy="540" r="99.92"/><text class="cls-16" transform="translate(893.97 553.97) rotate(0.06)">P<tspan class="cls-17" x="35.12" y="0">L</tspan><tspan class="cls-18" x="65.64" y="0">A</tspan><tspan x="102.88" y="0">Y</tspan></text></g><g id="Character2"><path class="cls-19" d="M1884,864.77l-72.09-191a9.38,9.38,0,0,0-1.36-2.44,9.81,9.81,0,0,0-9.29-6.71H1793c-.87,2.34-1.86,4.66-3,6.93a95.12,95.12,0,0,1-15.26,22.52,112.51,112.51,0,0,1-9.33,9.18A129.66,129.66,0,0,1,1744,718.46c-23.33,13.3-52.58,21.22-84.3,21.22s-61-7.92-84.31-21.22a128.41,128.41,0,0,1-24.66-18.12,103.7,103.7,0,0,1-14.56-17,87.72,87.72,0,0,1-9.79-18.77,77.28,77.28,0,0,1-2.9-45.17L1480.71,506.1l69.8-103.47,29.65-5.69,8.63-1.64,31.27-6-7.43-38.75-23.84,4.57-8.63,1.65-48.92,9.37,0,.18a9.77,9.77,0,0,0-6.7,4.19L1429.81,511a9.75,9.75,0,0,0-1.56,4s0,0,0,.06a9.69,9.69,0,0,0,.38,5.57l72.1,191a9.84,9.84,0,0,0,9.36,6.33h0a9.87,9.87,0,0,0,3.13.51H1546L1601.24,831l.13.25-.23.1a120.9,120.9,0,0,0-69.56,136.8h-.39l34.36,113.42h167.11l27.77-91.7a120.36,120.36,0,0,0,9.84-47.83c0-.36,0-.72,0-1.07l107.06-61.81a9.63,9.63,0,0,0,3.14-2.9h0A9.82,9.82,0,0,0,1884,864.77Zm-121.34,35a121.24,121.24,0,0,0-56.9-64.64l-.21-.1.32-.65,56.94-115.94h8.41l54.66,144.83Z"/><path d="M1798,637.27a77.85,77.85,0,0,1-5,27.34c-.87,2.34-1.86,4.66-3,6.93a95.12,95.12,0,0,1-15.26,22.52,112.51,112.51,0,0,1-9.33,9.18A129.66,129.66,0,0,1,1744,718.46c-23.33,13.3-52.58,21.22-84.3,21.22s-61-7.92-84.31-21.22a128.41,128.41,0,0,1-24.66-18.12,103.7,103.7,0,0,1-14.56-17,87.72,87.72,0,0,1-9.79-18.77,77.28,77.28,0,0,1-2.9-45.17c4.43-18.7,15.72-35.65,31.88-49.39a102.4,102.4,0,1,1,191.9-12C1778.25,576.78,1798,605.32,1798,637.27Z"/><polygon class="cls-20" points="1588.79 314.18 1588.79 355.12 1580.16 356.77 1580.16 314.18 1588.79 314.18"/><polygon class="cls-20" points="1580.16 396.94 1588.79 395.3 1588.79 425.45 1580.16 425.45 1580.16 396.94"/><ellipse class="cls-20" cx="1584.48" cy="425.45" rx="31.77" ry="7.66"/><polygon class="cls-20" points="1584.48 349.71 1637.27 278.64 1531.69 278.64 1584.48 349.71"/><polygon class="cls-21" points="1584.48 337.93 1619.76 290.43 1549.19 290.43 1584.48 337.93"/><path class="cls-22" d="M1531.69,278.65s35-34.87,105.58,0Z"/><polygon class="cls-23" points="1629.11 269.67 1586.75 316.6 1587.5 317.52 1629.86 270.58 1629.11 269.67"/><ellipse class="cls-24" cx="1582.97" cy="319.99" rx="6.43" ry="5.34" transform="translate(162.94 1089.21) rotate(-39.87)"/><polygon class="cls-25" points="1648.51 987.65 1706.06 834.41 1601.03 831 1648.51 987.65"/><polyline class="cls-25" points="1557.12 746.95 1750.25 746.95 1742.91 762.14 1564.14 762.14"/></g></svg>