<svg xmlns="http://www.w3.org/2000/svg" viewBox="0 0 270 80"><defs><style>.cls-1{fill:#32ce32;}.cls-2{fill:none;stroke:#fff;stroke-miterlimit:10;}.cls-3{fill:#fff;}.cls-4{fill:#c6ff29;}.cls-5{fill:#198419;opacity:0.25;}</style></defs><g id="Lives"><path class="cls-1" d="M268.24,58.52c-17.41,18-44.89,20.48-62.7,5.15-17.62-15.17-19.42-42.3-4.71-62.15l3,2.52,19.07,16.13.77.64L244,38l.6.51,20.46,17.3Z"/><path class="cls-2" d="M265.07,55.84a45.94,45.94,0,0,1-11.52,8.67c-14.81,7.84-32.78,6.82-45.41-4.05-12.08-10.41-16-27-11.42-42.26A46.26,46.26,0,0,1,203.81,4l19.07,16.13.77.64L244,38l.6.51Z"/><path class="cls-3" d="M244.61,38.54a16.24,16.24,0,0,1-5.1,3.25,15.13,15.13,0,0,1-7.78.94,13.46,13.46,0,0,1-6.84-3.12,14.08,14.08,0,0,1-4.49-13.24h0a16.17,16.17,0,0,1,2.48-6.19l.77.64L244,38Z"/><path class="cls-4" d="M244,38A13.61,13.61,0,0,1,225.6,39a13.61,13.61,0,0,1-1.95-18.15Z"/><line class="cls-2" x1="196.52" y1="18.13" x2="220.58" y2="26.43"/><line class="cls-2" x1="220.38" y1="32.01" x2="195.93" y2="39.3"/><line class="cls-2" x1="224.89" y1="39.61" x2="208.14" y2="60.46"/><line class="cls-2" x1="231.73" y1="42.48" x2="232.28" y2="69.55"/><line class="cls-2" x1="239.43" y1="41.65" x2="253.55" y2="64.52"/><ellipse class="cls-5" cx="229.83" cy="76.79" rx="39.81" ry="1.69"/><path class="cls-1" d="M173.42,58.52c-17.41,18-44.9,20.48-62.71,5.15C93.09,48.5,91.3,21.37,106,1.52L109,4l19.07,16.13.76.64L149.19,38l.59.51,20.47,17.3Z"/><path class="cls-2" d="M170.25,55.84a45.81,45.81,0,0,1-11.53,8.67c-14.81,7.84-32.78,6.82-45.4-4.05-12.09-10.41-16-27-11.42-42.26A45.82,45.82,0,0,1,109,4l19.07,16.13.76.64L149.19,38l.59.51Z"/><path class="cls-3" d="M149.78,38.54a16.2,16.2,0,0,1-5.09,3.25,15.16,15.16,0,0,1-7.79.94,13.4,13.4,0,0,1-6.83-3.12,14.06,14.06,0,0,1-4.5-13.24h0a16,16,0,0,1,2.49-6.19l.76.64L149.19,38Z"/><path class="cls-4" d="M149.19,38a13.61,13.61,0,0,1-18.41.93,13.61,13.61,0,0,1-2-18.15Z"/><line class="cls-2" x1="101.7" y1="18.13" x2="125.75" y2="26.43"/><line class="cls-2" x1="125.55" y1="32.01" x2="101.1" y2="39.3"/><line class="cls-2" x1="130.07" y1="39.61" x2="113.32" y2="60.46"/><line class="cls-2" x1="136.9" y1="42.48" x2="137.46" y2="69.55"/><line class="cls-2" x1="144.6" y1="41.65" x2="158.73" y2="64.52"/><ellipse class="cls-5" cx="135" cy="76.79" rx="39.81" ry="1.69"/><path class="cls-1" d="M81.9,58.52C64.49,76.53,37,79,19.19,63.67,1.57,48.5-.22,21.37,14.49,1.52l3,2.52L36.54,20.17l.76.64L57.66,38l.6.51,20.47,17.3Z"/><path class="cls-2" d="M78.73,55.84A45.81,45.81,0,0,1,67.2,64.51c-14.81,7.84-32.78,6.82-45.4-4.05-12.09-10.41-16-27-11.42-42.26A45.82,45.82,0,0,1,17.47,4L36.54,20.17l.76.64L57.66,38l.6.51Z"/><path class="cls-3" d="M58.26,38.54a16.2,16.2,0,0,1-5.09,3.25,15.16,15.16,0,0,1-7.79.94,13.4,13.4,0,0,1-6.83-3.12,14.06,14.06,0,0,1-4.5-13.24h0a16,16,0,0,1,2.49-6.19l.76.64L57.66,38Z"/><path class="cls-4" d="M57.66,38a13.6,13.6,0,0,1-18.4.93,13.61,13.61,0,0,1-2-18.15Z"/><line class="cls-2" x1="10.18" y1="18.13" x2="34.23" y2="26.43"/><line class="cls-2" x1="34.03" y1="32.01" x2="9.58" y2="39.3"/><line class="cls-2" x1="38.55" y1="39.61" x2="21.8" y2="60.46"/><line class="cls-2" x1="45.38" y1="42.48" x2="45.93" y2="69.55"/><line class="cls-2" x1="53.08" y1="41.65" x2="67.21" y2="64.52"/><ellipse class="cls-5" cx="43.48" cy="76.79" rx="39.81" ry="1.69"/></g></svg>