<svg id="Tonic" xmlns="http://www.w3.org/2000/svg" viewBox="0 0 300 300"><defs><style>.cls-1{fill:#6fb6c1;}.cls-2{fill:#d6ff2c;}.cls-3{fill:#06ff4c;}.cls-4{fill:#8aeef9;}.cls-5{font-size:14px;fill:#f96500;font-family:Futura-Bold, Futura;font-weight:700;letter-spacing:0.49em;}.cls-6{letter-spacing:0.5em;}.cls-7{letter-spacing:0.46em;}.cls-8{letter-spacing:0.47em;}</style></defs><polygon class="cls-1" points="164.71 89.72 164.28 89.72 164.28 88.98 164.71 89.72"/><rect class="cls-2" x="103.28" y="97.72" width="83" height="121" rx="38.57"/><rect class="cls-2" x="103.28" y="149.72" width="83" height="121" rx="20.34"/><polygon class="cls-2" points="182.28 120.16 107.29 120.16 131.78 77.75 144.79 55.22 159.23 80.23 164.28 88.98 164.71 89.72 182.28 120.16"/><path class="cls-2" d="M164.28,30.28v9.15l-2.23,1.29L164.28,42v29.4l-5.05,8.82-12.92,22.52-14.53-25-6.5-11.18V42l2.23-1.29-2.23-1.29v-9h2.23l34.72-.1Z"/><path class="cls-3" d="M164.28,27.74c0,1.56-2.14,3-5.61,4a2.56,2.56,0,0,0-.39,0,3,3,0,0,0-1.78.59,47,47,0,0,1-4.71.76,3,3,0,0,0-2.51-1.35,3,3,0,0,0-2.7,1.7q-.89,0-1.8,0t-1.8,0a3,3,0,0,0-2.7-1.7,3,3,0,0,0-2.51,1.35,47,47,0,0,1-4.71-.76,3,3,0,0,0-1.78-.59l-.39,0c-3.47-1-5.61-2.45-5.61-4,0-3.15,8.73-5.7,19.5-5.7S164.28,24.59,164.28,27.74Z"/><path class="cls-3" d="M164.28,27.74V34.4h-3a3,3,0,0,0-2.59-2.65,2.56,2.56,0,0,0-.39,0,3,3,0,0,0-3,2.68h-3a3,3,0,0,0-3-2.68,3,3,0,0,0-2.7,1.7,2.71,2.71,0,0,0-.28,1h-3a2.71,2.71,0,0,0-.28-1,3,3,0,0,0-2.7-1.7,3,3,0,0,0-3,2.68h-3a3,3,0,0,0-3-2.68l-.39,0a3,3,0,0,0-2.59,2.65h-3V27.74Z"/><rect class="cls-4" x="103.28" y="150.72" width="83" height="78"/><text class="cls-5" transform="translate(107.45 188.55)">T<tspan class="cls-6" x="14.38" y="0">ONIC</tspan><tspan class="cls-7"><tspan x="-2.13" y="16.8">W</tspan><tspan class="cls-8" x="20.36" y="16.8">A</tspan><tspan class="cls-6" x="38.12" y="16.8">TER</tspan></tspan></text></svg>