<svg xmlns="http://www.w3.org/2000/svg" viewBox="0 0 270 80"><defs><style>.cls-1{fill:#32ce32;}.cls-2{fill:none;}.cls-2,.cls-6{stroke:#fff;}.cls-2,.cls-6,.cls-7{stroke-miterlimit:10;}.cls-3,.cls-7{fill:#fff;}.cls-4{fill:#c6ff29;}.cls-5{fill:#198419;}.cls-5,.cls-8{opacity:0.25;}.cls-7{stroke:#000;}</style></defs><g id="Lives"><path class="cls-1" d="M172.69,58.53c-17.41,18-44.9,20.47-62.71,5.14-17.62-15.16-19.41-42.3-4.7-62.15l3,2.53,19.07,16.12.77.65L148.46,38l.59.5,20.47,17.31Z"/><path class="cls-2" d="M169.52,55.85A46,46,0,0,1,158,64.52c-14.81,7.84-32.78,6.81-45.4-4.06-12.09-10.4-16-27-11.42-42.26a45.77,45.77,0,0,1,7.09-14.15l19.07,16.12.77.65L148.46,38l.59.5Z"/><path class="cls-3" d="M149.05,38.54A16.2,16.2,0,0,1,144,41.79a15.16,15.16,0,0,1-7.79.94,13.46,13.46,0,0,1-6.83-3.11,14.07,14.07,0,0,1-4.5-13.25h0a16.07,16.07,0,0,1,2.49-6.2l.77.65L148.46,38Z"/><path class="cls-4" d="M148.46,38a13.63,13.63,0,0,1-18.41.93,13.6,13.6,0,0,1-2-18.15Z"/><line class="cls-2" x1="100.97" y1="18.13" x2="125.02" y2="26.43"/><line class="cls-2" x1="124.82" y1="32.01" x2="100.37" y2="39.3"/><line class="cls-2" x1="129.34" y1="39.62" x2="112.59" y2="60.46"/><line class="cls-2" x1="136.17" y1="42.49" x2="136.73" y2="69.55"/><line class="cls-2" x1="143.87" y1="41.65" x2="158" y2="64.53"/><ellipse class="cls-5" cx="134.27" cy="76.79" rx="39.81" ry="1.69"/><path class="cls-1" d="M81.17,58.53c-17.41,18-44.9,20.47-62.71,5.14C.84,48.51-.95,21.37,13.76,1.52l3,2.53L35.81,20.17l.76.65L56.94,38l.59.5L78,55.85Z"/><path class="cls-2" d="M78,55.85a46,46,0,0,1-11.53,8.67c-14.81,7.84-32.78,6.81-45.4-4.06C9,50.06,5.09,33.47,9.65,18.2A45.77,45.77,0,0,1,16.74,4.05L35.81,20.17l.76.65L56.94,38l.59.5Z"/><path class="cls-3" d="M57.53,38.54a16.2,16.2,0,0,1-5.09,3.25,15.16,15.16,0,0,1-7.79.94,13.46,13.46,0,0,1-6.83-3.11,14.07,14.07,0,0,1-4.5-13.25h0a16.07,16.07,0,0,1,2.49-6.2l.76.65L56.94,38Z"/><path class="cls-4" d="M56.94,38A13.63,13.63,0,0,1,38.53,39a13.61,13.61,0,0,1-2-18.15Z"/><line class="cls-2" x1="9.45" y1="18.13" x2="33.5" y2="26.43"/><line class="cls-2" x1="33.3" y1="32.01" x2="8.85" y2="39.3"/><line class="cls-2" x1="37.82" y1="39.62" x2="21.07" y2="60.46"/><line class="cls-2" x1="44.65" y1="42.49" x2="45.21" y2="69.55"/><line class="cls-2" x1="52.35" y1="41.65" x2="66.48" y2="64.53"/><ellipse class="cls-5" cx="42.75" cy="76.79" rx="39.81" ry="1.69"/></g><g id="Lostlife"><path d="M263.75,58.54c-17.42,18-44.9,20.46-62.71,5.13-17.61-15.18-19.4-42.31-4.68-62.16l3,2.53L218.4,20.17l.77.64L239.52,38l.6.51,20.46,17.31Z"/><path class="cls-6" d="M260.58,55.86a46,46,0,0,1-11.53,8.67c-14.81,7.83-32.78,6.8-45.4-4.08-12.08-10.4-16-27-11.41-42.26A46,46,0,0,1,199.34,4L218.4,20.17l.77.64L239.52,38l.6.51Z"/><path class="cls-7" d="M239.52,40a13.61,13.61,0,0,1-18.4.92,13.6,13.6,0,0,1-2-18.15Z"/><line class="cls-6" x1="192.04" y1="18.12" x2="221.74" y2="28.5"/><line class="cls-6" x1="218.74" y1="32.01" x2="191.44" y2="39.29"/><line class="cls-6" x1="221.74" y1="37.5" x2="203.65" y2="60.46"/><line class="cls-6" x1="227.24" y1="42.49" x2="227.78" y2="69.56"/><line class="cls-6" x1="234.94" y1="41.65" x2="249.06" y2="64.54"/><ellipse class="cls-8" cx="225.33" cy="76.79" rx="1.69" ry="39.81" transform="translate(148.27 302.03) rotate(-89.93)"/></g></svg>