<svg xmlns="http://www.w3.org/2000/svg" viewBox="0 0 300 300"><defs><style>.cls-1{fill:#fa0f0c;}.cls-2{fill:#f50;}.cls-3{font-size:12px;font-family:Futura-Bold, Futura;font-weight:700;letter-spacing:0.47em;}.cls-4{letter-spacing:0.5em;}</style></defs><g id="Vodka"><path class="cls-1" d="M185.06,120.45l7.38,0-5.13-15.73h.08v-22l-20.06-18V38.68h-36V64.83L111.39,82.68v22h.13l-4.92,15.77h-.21l.07.45,0,0h0l16.36,105.65-13.74,34h.16a5.07,5.07,0,0,0-.68,2.46c0,7.54,18.32,13.65,40.92,13.65s40.91-6.11,40.91-13.65a5.07,5.07,0,0,0-.68-2.46h.19L176,226.22l16.37-105.77Z"/><rect class="cls-2" x="129.28" y="26.53" width="40.26" height="19.33" rx="4.28"/><polygon class="cls-2" points="105.91 120.94 112.57 160.58 186.52 160.58 192.91 120.41 105.91 120.94"/><text class="cls-3" transform="translate(113.05 147.37)">V<tspan class="cls-4" x="15.07" y="0">ODKA</tspan></text></g></svg>