<svg xmlns="http://www.w3.org/2000/svg" xmlns:xlink="http://www.w3.org/1999/xlink" viewBox="0 0 1920 1080"><defs><style>.cls-1,.cls-8{filter:url(#AI_GaussianBlur_4);}.cls-2{fill:#f4d8c3;}.cls-3{fill:#ff1569;}.cls-4{fill:#ff8500;}.cls-5{fill:#aaf9f3;}.cls-6{fill:#fff;}.cls-7{fill:#4de8e0;}.cls-8{opacity:0.5;}.cls-9{fill:#ef41da;}.cls-10{fill:#e9f368;}.cls-11{fill:#dde061;}.cls-12{fill:#f2f3a4;}.cls-13{fill:#f1e615;}.cls-14,.cls-15{fill:#ee9912;}.cls-15{stroke:#ed9917;stroke-miterlimit:10;stroke-width:0.25px;}.cls-16{fill:#ce783e;}.cls-17{fill:red;}.cls-18{fill:#fa0f0c;}.cls-19{fill:#4aff5f;}.cls-20{fill:#fbcdfc;}.cls-21{font-size:35.6px;letter-spacing:1em;}.cls-21,.cls-23,.cls-24,.cls-25,.cls-36,.cls-39{font-family:Futura-Bold, Futura;font-weight:700;}.cls-22{letter-spacing:1.01em;}.cls-23,.cls-36,.cls-39{font-size:20px;}.cls-23{letter-spacing:1em;}.cls-24{font-size:25px;}.cls-24,.cls-26{letter-spacing:0.5em;}.cls-25{font-size:18px;letter-spacing:0.42em;}.cls-27{letter-spacing:0.47em;}.cls-28{letter-spacing:0.52em;}.cls-29{letter-spacing:0.5em;}.cls-30{letter-spacing:0.53em;}.cls-31{letter-spacing:0.51em;}.cls-32{letter-spacing:0.5em;}.cls-33{letter-spacing:0.46em;}.cls-34{fill:#f56bfc;}.cls-35{fill:#f79ffc;}.cls-36,.cls-40{letter-spacing:0.2em;}.cls-37{letter-spacing:0.21em;}.cls-38{letter-spacing:0.21em;}.cls-39{letter-spacing:0.19em;}.cls-41{letter-spacing:0.22em;}.cls-42{fill:#a8dca0;}.cls-43{fill:#c3e4e5;}.cls-44{fill:#90c587;}.cls-45{fill:#f3a4d1;}</style><filter id="AI_GaussianBlur_4" name="AI_GaussianBlur_4"><feGaussianBlur stdDeviation="4"/></filter></defs><g id="Win"><g class="cls-1"><rect class="cls-2" x="0.94" y="435.11" width="1914.6" height="644.24"/></g><g class="cls-1"><path class="cls-3" d="M-.65,1.24V140.43a8.38,8.38,0,0,1,.08,1.14v52.18a8.35,8.35,0,0,1-.08,1.13V391.73H1920V1.24Z"/></g><g class="cls-1"><circle class="cls-4" cx="1670.53" cy="314.48" r="173"/></g><g class="cls-1"><path class="cls-5" d="M1.19,366.82l1916.24,3.67-.62,321.78s-305.67,254.23-508.61-1-343.72-31.08-343.72-31.08S951.84,848.1,789.32,697.64,302,1078.29.59,677.37Z"/><ellipse class="cls-6" cx="956.22" cy="742.31" rx="21.5" ry="20"/><ellipse class="cls-6" cx="1000.9" cy="737.31" rx="31.17" ry="29"/><ellipse class="cls-6" cx="1873.9" cy="709.31" rx="31.17" ry="29"/><ellipse class="cls-6" cx="1778" cy="768.31" rx="18.27" ry="17"/><ellipse class="cls-6" cx="1741.55" cy="763.31" rx="24.72" ry="23"/><ellipse class="cls-6" cx="1786.5" cy="730.36" rx="11.77" ry="10.95"/><ellipse class="cls-6" cx="1807.5" cy="753.36" rx="11.77" ry="10.95"/><ellipse class="cls-6" cx="1653.5" cy="790.36" rx="11.77" ry="10.95"/><ellipse class="cls-6" cx="1476.5" cy="752.71" rx="16.77" ry="15.6"/><ellipse class="cls-6" cx="1570.5" cy="786.71" rx="16.77" ry="15.6"/><ellipse class="cls-6" cx="847.4" cy="725.5" rx="26.67" ry="24.81"/><ellipse class="cls-6" cx="744.5" cy="671.5" rx="13.77" ry="12.81"/><ellipse class="cls-6" cx="1101.74" cy="615.41" rx="10" ry="9.3"/><ellipse class="cls-6" cx="1122.74" cy="599.41" rx="10" ry="9.3"/><ellipse class="cls-6" cx="1141.44" cy="600.92" rx="12.7" ry="11.81"/><ellipse class="cls-6" cx="1192.44" cy="573.92" rx="12.7" ry="11.81"/><ellipse class="cls-6" cx="1216.44" cy="565.2" rx="16.7" ry="15.53"/><ellipse class="cls-6" cx="1307.74" cy="602.16" rx="19" ry="17.67"/><ellipse class="cls-6" cx="1356.74" cy="631.23" rx="18" ry="16.74"/><ellipse class="cls-6" cx="1371.24" cy="596.25" rx="10.5" ry="9.77"/><ellipse class="cls-6" cx="1406.11" cy="680.81" rx="10.5" ry="9.77"/><ellipse class="cls-6" cx="1421.11" cy="703.81" rx="10.5" ry="9.77"/><ellipse class="cls-6" cx="1449.67" cy="728.68" rx="6.06" ry="5.64"/><ellipse class="cls-6" cx="1459.67" cy="718.68" rx="6.06" ry="5.64"/><ellipse class="cls-6" cx="1419.67" cy="692.68" rx="6.06" ry="5.64"/><ellipse class="cls-6" cx="1423.67" cy="674.68" rx="6.06" ry="5.64"/><ellipse class="cls-6" cx="1394.67" cy="666.68" rx="6.06" ry="5.64"/><ellipse class="cls-6" cx="1384.67" cy="655.68" rx="6.06" ry="5.64"/><ellipse class="cls-6" cx="1550.67" cy="774.68" rx="6.06" ry="5.64"/><ellipse class="cls-6" cx="1639.23" cy="782.26" rx="6.5" ry="6.05"/><ellipse class="cls-6" cx="1340.24" cy="605.25" rx="10.5" ry="9.77"/><ellipse class="cls-6" cx="815.34" cy="712.86" rx="16.61" ry="15.45"/><ellipse class="cls-6" cx="713.84" cy="653.81" rx="23.11" ry="21.5"/><ellipse class="cls-6" cx="49.34" cy="731.77" rx="16.61" ry="15.45"/><ellipse class="cls-6" cx="40.53" cy="708.31" rx="12.9" ry="12"/><ellipse class="cls-6" cx="38.18" cy="682.26" rx="8.55" ry="7.95"/><ellipse class="cls-6" cx="11.18" cy="683.19" rx="9.55" ry="8.88"/><path class="cls-7" d="M1.69,366.54l1916.25-.46L1918,545s-305.16,141.73-508.62.13-343.78-16.83-343.78-16.83S953.33,632.84,790.5,549.41,304,761.65,1.73,539.18Z"/><ellipse class="cls-6" cx="534.52" cy="582.92" rx="13.78" ry="12.81"/><ellipse class="cls-6" cx="505.33" cy="577.24" rx="20.96" ry="19.5"/><ellipse class="cls-6" cx="635.33" cy="549.24" rx="20.96" ry="19.5"/><ellipse class="cls-6" cx="669.05" cy="535.61" rx="11.69" ry="10.87"/><ellipse class="cls-6" cx="678.05" cy="548.61" rx="11.69" ry="10.87"/><ellipse class="cls-6" cx="738.05" cy="537.61" rx="11.69" ry="10.87"/><ellipse class="cls-6" cx="755.05" cy="541.61" rx="11.69" ry="10.87"/><ellipse class="cls-6" cx="825.24" cy="561.34" rx="19.5" ry="18.14"/><ellipse class="cls-6" cx="857.12" cy="583.34" rx="15.75" ry="14.65" transform="translate(-179.67 585.84) rotate(-34.38)"/><ellipse class="cls-6" cx="842.22" cy="576.7" rx="7.68" ry="7.15" transform="translate(-178.52 576.27) rotate(-34.38)"/><ellipse class="cls-6" cx="1071.22" cy="531.7" rx="7.68" ry="7.15" transform="translate(-113.12 697.71) rotate(-34.38)"/><ellipse class="cls-6" cx="1075.99" cy="520.9" rx="12.31" ry="11.45" transform="translate(365.65 1482.42) rotate(-79.38)"/><ellipse class="cls-6" cx="1114.99" cy="502.9" rx="12.31" ry="11.45" transform="translate(415.15 1506.07) rotate(-79.38)"/><ellipse class="cls-6" cx="1149.99" cy="489.9" rx="12.31" ry="11.45" transform="translate(456.48 1529.86) rotate(-79.38)"/><ellipse class="cls-6" cx="1220.31" cy="479.26" rx="14.6" ry="13.58" transform="translate(524.3 1590.31) rotate(-79.38)"/><ellipse class="cls-6" cx="1248.13" cy="485.87" rx="21.19" ry="19.71" transform="translate(540.49 1623.03) rotate(-79.38)"/><ellipse class="cls-6" cx="1254.08" cy="463.34" rx="7.11" ry="6.61" transform="translate(567.49 1610.51) rotate(-79.38)"/><ellipse class="cls-6" cx="1292.95" cy="491.01" rx="9.62" ry="8.95" transform="translate(572 1671.27) rotate(-79.38)"/><ellipse class="cls-6" cx="1304.31" cy="487.96" rx="10.05" ry="9.35" transform="translate(584.27 1679.96) rotate(-79.38)"/><ellipse class="cls-6" cx="1369.85" cy="525.55" rx="5.2" ry="4.84" transform="translate(600.77 1775.04) rotate(-79.38)"/><ellipse class="cls-6" cx="1394.31" cy="543.96" rx="10.05" ry="9.35" transform="translate(602.64 1814.09) rotate(-79.38)"/><ellipse class="cls-6" cx="1553.17" cy="601.82" rx="3" ry="2.79" transform="translate(675.33 2017.43) rotate(-79.38)"/><ellipse class="cls-6" cx="1536.54" cy="618.99" rx="4.88" ry="4.54" transform="translate(644.9 2015.08) rotate(-79.38)"/><ellipse class="cls-6" cx="1543.91" cy="605.65" rx="5.12" ry="4.76" transform="translate(664.02 2011.45) rotate(-79.38)"/><ellipse class="cls-6" cx="1516.31" cy="602.96" rx="10.05" ry="9.35" transform="translate(644.16 1982.12) rotate(-79.38)"/><ellipse class="cls-6" cx="1504.13" cy="595.99" rx="4.82" ry="4.48" transform="translate(641.07 1964.47) rotate(-79.38)"/><ellipse class="cls-6" cx="1486.59" cy="611.87" rx="19.81" ry="18.42" transform="translate(611.15 1960.19) rotate(-79.38)"/><ellipse class="cls-6" cx="1513.48" cy="619.48" rx="6.17" ry="5.74" transform="matrix(0.18, -0.98, 0.98, 0.18, 625.61, 1992.82)"/><ellipse class="cls-6" cx="1474.14" cy="590.43" rx="6.17" ry="5.74" transform="matrix(0.18, -0.98, 0.98, 0.18, 622.07, 1930.46)"/><ellipse class="cls-6" cx="1775.42" cy="595.97" rx="6.94" ry="7.46"/><ellipse class="cls-6" cx="1783.31" cy="591.55" rx="4.8" ry="4.46" transform="translate(873.14 2235.24) rotate(-79.38)"/><ellipse class="cls-6" cx="1776.4" cy="610.34" rx="6.05" ry="5.63" transform="translate(849.03 2243.78) rotate(-79.38)"/><ellipse class="cls-6" cx="1823.71" cy="582.74" rx="13.32" ry="12.39" transform="translate(914.75 2267.75) rotate(-79.38)"/><ellipse class="cls-6" cx="948.22" cy="584.7" rx="7.68" ry="7.15" transform="translate(-164.53 637.51) rotate(-34.38)"/><ellipse class="cls-6" cx="965.69" cy="579.13" rx="12.51" ry="11.64" transform="translate(218.47 1421.5) rotate(-79.38)"/><ellipse class="cls-6" cx="984.69" cy="575.13" rx="12.51" ry="11.64" transform="translate(237.9 1436.92) rotate(-79.38)"/><ellipse class="cls-6" cx="461.33" cy="595.24" rx="20.96" ry="19.5"/><ellipse class="cls-6" cx="299.33" cy="628.24" rx="20.96" ry="19.5"/><ellipse class="cls-6" cx="267.02" cy="627.67" rx="17.28" ry="16.07"/><ellipse class="cls-6" cx="94.02" cy="594.67" rx="17.27" ry="16.07"/><ellipse class="cls-6" cx="66.02" cy="594.67" rx="17.27" ry="16.07"/><ellipse class="cls-6" cx="66.02" cy="563.36" rx="27.28" ry="25.37"/><ellipse class="cls-6" cx="273.02" cy="591.67" rx="17.28" ry="16.07"/><ellipse class="cls-6" cx="348.1" cy="624.17" rx="11.36" ry="10.57"/><ellipse class="cls-6" cx="205.1" cy="622.17" rx="11.36" ry="10.57"/><ellipse class="cls-6" cx="186.1" cy="622.17" rx="11.36" ry="10.57"/><ellipse class="cls-6" cx="155.1" cy="613.17" rx="11.36" ry="10.57"/></g><g class="cls-8"><path class="cls-9" d="M1503.1,365.74S1472.58,397.51,1571,407s0,36.91,0,36.91-189.6,30.13,14.57,47.22,123.5,29.73,16.87,50.29,395.3,20.55,253.7,0,17-28.47,4.68-49-248.81-7.9-75.19-49c0,0,140.64-29.67,1.28-43.3s109.45,6.65,49.3-34.33"/></g><rect class="cls-10" x="736.96" y="682.94" width="23.57" height="23.57" transform="matrix(-0.2, 0.98, -0.98, -0.2, 1576.21, 95.91)"/><rect class="cls-11" x="758.59" y="688.58" width="23.57" height="23.57" transform="translate(1419.91 -113.34) rotate(86.32)"/><rect class="cls-12" x="750.15" y="668.9" width="23.57" height="23.57" transform="translate(1776.24 557.93) rotate(131.32)"/><path class="cls-13" d="M736.87,604l39.6,38a27.44,27.44,0,1,1-39.6-38Z"/><path class="cls-14" d="M750.86,617.42l11.69,11.22a8.12,8.12,0,0,1-11.69-11.22Z"/><line class="cls-15" x1="750.12" y1="622.79" x2="729.22" y2="618.87"/><line class="cls-15" x1="751.29" y1="625.84" x2="732.35" y2="635.78"/><line class="cls-15" x1="754.74" y1="627.24" x2="747.72" y2="648.98"/><line class="cls-15" x1="757.08" y1="627.76" x2="767.03" y2="648.44"/></g><g id="Wincharater"><rect class="cls-16" x="330.67" y="704.88" width="153" height="51" rx="12"/><rect class="cls-16" x="494.97" y="689.3" width="42.41" height="140.92" rx="12" transform="translate(-401.92 731.91) rotate(-54.07)"/><rect class="cls-16" x="274.97" y="634.3" width="42.41" height="140.92" rx="12" transform="translate(-462.25 608.88) rotate(-60)"/><rect class="cls-16" x="555.67" y="772.88" width="187" height="41"/><rect class="cls-16" x="164" y="575.44" width="187" height="41" rx="12" transform="translate(876.36 399.82) rotate(95.78)"/><polygon class="cls-16" points="407.17 930.88 483.67 738.88 330.67 738.88 407.17 930.88"/><polygon class="cls-16" points="490.67 941.88 484.54 966.47 456.56 1078.72 456.52 1078.88 357.82 1078.88 357.78 1078.72 328.65 961.88 323.67 941.88 490.67 941.88"/><circle class="cls-16" cx="407.67" cy="927.88" r="86"/><path class="cls-17" d="M485.78,609.78l-.07.12-.06-.12Z"/><path class="cls-17" d="M491.3,600.63a6.51,6.51,0,0,0-4.16,1.5,6.25,6.25,0,0,0-1.43,1.72,6.37,6.37,0,0,0-5.57-3.22,6.3,6.3,0,0,0-6.38,6.24,6.17,6.17,0,0,0,2.27,4.78l9.68,12.28,9.69-12.28a6.14,6.14,0,0,0,2.21-4,5.16,5.16,0,0,0,.06-.79A6.31,6.31,0,0,0,491.3,600.63Zm-5.65,9.15h.13l-.07.12Z"/><path class="cls-17" d="M485.78,609.78l-.07.12-.06-.12Z"/><path class="cls-17" d="M485.78,609.78l-.07.12-.06-.12Z"/><polygon class="cls-16" points="378.67 522.88 378.67 722.88 439.67 722.88 439.67 640.88 510.67 640.88 378.67 522.88"/><circle cx="399.17" cy="560.38" r="51.5"/><circle cx="335.67" cy="640.88" r="90"/><path class="cls-17" d="M459,610.33s-.05.09-.07.13-.05-.08-.07-.13Z"/><path class="cls-17" d="M465.13,600.18a7.17,7.17,0,0,0-4.61,1.67,6.74,6.74,0,0,0-1.58,1.9,7.09,7.09,0,0,0-6.19-3.57,7,7,0,0,0-7.08,6.93,6.87,6.87,0,0,0,2.52,5.3L458.94,626l10.74-13.63a6.85,6.85,0,0,0,2.46-4.43,5,5,0,0,0,.07-.87A7,7,0,0,0,465.13,600.18Zm-6.26,10.15H459s-.05.09-.07.13S458.89,610.38,458.87,610.33Z"/><path class="cls-17" d="M459,610.33s-.05.09-.07.13-.05-.08-.07-.13Z"/><path class="cls-17" d="M459,610.33s-.05.09-.07.13-.05-.08-.07-.13Z"/><polygon class="cls-18" points="343.97 772.25 470.12 772.25 461.95 793.38 352.38 793.38 343.97 772.25"/><polygon class="cls-18" points="374.37 848.57 440.11 848.57 407.67 927.88 374.37 848.57"/><circle class="cls-19" cx="209.67" cy="400.88" r="32"/><polygon class="cls-3" points="265.9 505.88 223.39 505.88 209.65 400.88 279.65 400.88 265.9 505.88"/><rect class="cls-16" x="203.67" y="484.88" width="82.76" height="32.76" rx="1.01"/></g><g id="Levelcompleted"><rect class="cls-20" x="567.28" y="295.94" width="768.15" height="474.34" rx="12"/><text class="cls-21" transform="matrix(0.87, 0.01, -0.02, 1, 584.69, 372.88)">LEVEL <tspan class="cls-22" x="332.31" y="0">C</tspan><tspan x="392.04" y="0">OMPLETED</tspan></text><text class="cls-23" transform="matrix(0.87, 0.01, -0.02, 1, 922.89, 637.64)">or</text><text class="cls-24" transform="translate(807.67 433.82)">GOOD JOB!</text><text class="cls-25" transform="translate(624.89 489.49)">Y<tspan class="cls-26" x="20.48" y="0">ou mi</tspan><tspan class="cls-27" x="119.59" y="0">x</tspan><tspan class="cls-26" x="141.39" y="0">ed </tspan><tspan class="cls-28" x="198.77" y="0">t</tspan><tspan class="cls-29" x="214.9" y="0">he pe</tspan><tspan class="cls-30" x="313.88" y="0">r</tspan><tspan class="cls-31" x="331.72" y="0">f</tspan><tspan class="cls-32" x="347.96" y="0">ect Gin &amp; </tspan><tspan class="cls-33" x="532.17" y="0">T</tspan><tspan class="cls-26" x="550.11" y="0">onic</tspan></text><rect class="cls-34" x="831.79" y="545.26" width="228.96" height="54.45" rx="12"/><rect class="cls-35" x="834.26" y="542.63" width="228.96" height="54.45" rx="12"/><text class="cls-36" transform="translate(875.66 575.89) rotate(0.06)">Pl<tspan class="cls-37" x="27.66" y="0">a</tspan><tspan x="45.88" y="0">y a</tspan><tspan class="cls-38" x="92.46" y="0">g</tspan><tspan x="110.62" y="0">ain</tspan></text><rect class="cls-34" x="776.79" y="666.26" width="336.92" height="54.45" rx="12"/><rect class="cls-35" x="780.43" y="663.63" width="336.92" height="54.45" rx="12"/><text class="cls-39" transform="translate(786.57 696.85) rotate(0.06)">R<tspan class="cls-40" x="17.96" y="0">ead </tspan><tspan class="cls-41" x="81.74" y="0">t</tspan><tspan class="cls-40" x="93.66" y="0">he Coc</tspan><tspan class="cls-37" x="187.82" y="0">t</tspan><tspan class="cls-40" x="199.48" y="0">ail Book</tspan></text><path class="cls-42" d="M620.44,579.7v127s45.78,40.32,118.25,0v-127S683.11,609.12,620.44,579.7Z"/><path class="cls-43" d="M627.69,613.59v88s40.16,27.94,103.76,0v-88S682.67,634,627.69,613.59Z"/><path class="cls-44" d="M620.44,579.7s54.83-35,118.25,0"/><path class="cls-44" d="M620.44,579.7s54.83,35,118.25,0"/><rect class="cls-43" x="627.69" y="613.59" width="103.76" height="24.05"/><rect class="cls-45" x="702.55" y="517.96" width="6.22" height="191.27" transform="matrix(0.99, 0.14, -0.14, 0.99, 93.12, -92.98)"/><path class="cls-42" d="M1172.44,582.7v127s45.78,40.32,118.25,0v-127S1235.11,612.12,1172.44,582.7Z"/><path class="cls-43" d="M1179.69,616.59v88s40.16,27.94,103.76,0v-88S1234.67,637,1179.69,616.59Z"/><path class="cls-44" d="M1172.44,582.7s54.83-35,118.25,0"/><path class="cls-44" d="M1172.44,582.7s54.83,35,118.25,0"/><rect class="cls-10" x="1187.43" y="680.85" width="23.57" height="23.57" transform="matrix(-0.2, 0.98, -0.98, -0.2, 2112.51, -348.39)"/><rect class="cls-11" x="1209.06" y="686.49" width="23.57" height="23.57" transform="translate(1839.4 -564.83) rotate(86.32)"/><rect class="cls-12" x="1200.62" y="666.8" width="23.57" height="23.57" transform="translate(2522.59 216.16) rotate(131.32)"/><rect class="cls-43" x="1179.69" y="616.59" width="103.76" height="24.05"/><rect class="cls-45" x="1254.55" y="520.96" width="6.22" height="191.27" transform="matrix(0.99, 0.14, -0.14, 0.99, 99, -170.43)"/><path class="cls-13" d="M1187.34,601.93l39.6,38a27.44,27.44,0,1,1-39.6-38Z"/><path class="cls-14" d="M1201.33,615.33,1213,626.55a8.12,8.12,0,0,1-11.69-11.22Z"/><line class="cls-15" x1="1200.59" y1="620.7" x2="1179.69" y2="616.78"/><line class="cls-15" x1="1201.76" y1="623.75" x2="1182.82" y2="633.69"/><line class="cls-15" x1="1205.21" y1="625.15" x2="1198.19" y2="646.89"/><line class="cls-15" x1="1207.55" y1="625.67" x2="1217.5" y2="646.35"/></g></svg>