<svg xmlns="http://www.w3.org/2000/svg" viewBox="0 0 270 80"><defs><style>.cls-1{stroke:#fff;}.cls-1,.cls-2{stroke-miterlimit:10;}.cls-2{fill:#fff;stroke:#000;}.cls-3{opacity:0.25;}</style></defs><g id="Lostlife"><path d="M90.47,59.13C72.84,76.92,45.33,79.05,27.71,63.51,10.27,48.13,8.81,21,23.76,1.31l2.95,2.56L45.58,20.22l.76.66L66.49,38.34l.59.51L87.33,56.4Z"/><path class="cls-1" d="M87.33,56.4A45.67,45.67,0,0,1,75.7,64.94c-14.9,7.66-32.86,6.41-45.35-4.61-12-10.55-15.65-27.18-10.91-42.39A46,46,0,0,1,26.71,3.87L45.58,20.22l.76.66L66.49,38.34l.59.51Z"/><path class="cls-2" d="M66.47,40.34a13.62,13.62,0,0,1-18.42.71,13.6,13.6,0,0,1-1.74-18.17Z"/><line class="cls-1" x1="19.24" y1="17.86" x2="48.82" y2="28.59"/><line class="cls-1" x1="45.78" y1="32.07" x2="18.39" y2="39.03"/><line class="cls-1" x1="48.71" y1="37.59" x2="30.35" y2="60.33"/><line class="cls-1" x1="54.15" y1="42.64" x2="54.38" y2="69.72"/><line class="cls-1" x1="61.86" y1="41.9" x2="75.71" y2="64.95"/><ellipse class="cls-3" cx="51.83" cy="76.92" rx="1.69" ry="39.81" transform="translate(-25.75 127.76) rotate(-89.26)"/><path d="M172.79,59.13C155.16,76.92,127.65,79.05,110,63.51c-17.44-15.38-18.9-42.54-4-62.2l3,2.56L127.9,20.22l.76.66,20.15,17.46.59.51L169.65,56.4Z"/><path class="cls-1" d="M169.65,56.4A45.67,45.67,0,0,1,158,64.94c-14.9,7.66-32.86,6.41-45.35-4.61-12-10.55-15.65-27.18-10.91-42.39A46,46,0,0,1,109,3.87L127.9,20.22l.76.66,20.15,17.46.59.51Z"/><path class="cls-2" d="M148.78,40.34a13.61,13.61,0,0,1-18.41.71,13.6,13.6,0,0,1-1.74-18.17Z"/><line class="cls-1" x1="101.56" y1="17.86" x2="131.14" y2="28.59"/><line class="cls-1" x1="128.1" y1="32.07" x2="100.71" y2="39.03"/><line class="cls-1" x1="131.03" y1="37.59" x2="112.67" y2="60.33"/><line class="cls-1" x1="136.47" y1="42.64" x2="136.7" y2="69.72"/><line class="cls-1" x1="144.18" y1="41.9" x2="158.03" y2="64.95"/><ellipse class="cls-3" cx="134.15" cy="76.92" rx="1.69" ry="39.81" transform="translate(55.5 210.07) rotate(-89.26)"/><path d="M258.79,59.13C241.16,76.92,213.64,79.05,196,63.51c-17.43-15.38-18.9-42.54-4-62.2l3,2.56,18.87,16.35.76.66L234.8,38.34l.59.51L255.65,56.4Z"/><path class="cls-1" d="M255.65,56.4A46,46,0,0,1,244,64.94c-14.9,7.66-32.86,6.41-45.36-4.61C186.71,49.78,183,33.15,187.76,17.94A45.78,45.78,0,0,1,195,3.87l18.87,16.35.76.66L234.8,38.34l.59.51Z"/><path class="cls-2" d="M234.78,40.34a13.62,13.62,0,0,1-18.42.71,13.6,13.6,0,0,1-1.73-18.17Z"/><line class="cls-1" x1="187.56" y1="17.86" x2="217.13" y2="28.59"/><line class="cls-1" x1="214.09" y1="32.07" x2="186.71" y2="39.03"/><line class="cls-1" x1="217.03" y1="37.59" x2="198.67" y2="60.33"/><line class="cls-1" x1="222.46" y1="42.64" x2="222.69" y2="69.72"/><line class="cls-1" x1="230.17" y1="41.9" x2="244.02" y2="64.95"/><ellipse class="cls-3" cx="220.15" cy="76.92" rx="1.69" ry="39.81" transform="translate(140.38 296.05) rotate(-89.26)"/></g></svg>